<svg width="204" height="265" viewBox="0 0 204 265" fill="none" xmlns="http://www.w3.org/2000/svg">
<g clip-path="url(#clip0_1181_34924)">
<path fill-rule="evenodd" clip-rule="evenodd" d="M119.933 33.6582C167.1 38.1349 204 77.8483 204 126.179C204 177.511 162.379 219.128 111.038 219.128C69.3429 219.128 34.063 191.688 22.2686 153.882C29.6723 164.89 39.6705 173.908 51.3821 180.142C63.0936 186.376 76.159 189.633 89.4268 189.628C134.164 189.628 170.398 153.401 170.398 108.671C170.398 74.7468 149.523 45.702 119.919 33.6619" fill="#E2B164"/>
<path fill-rule="evenodd" clip-rule="evenodd" d="M90.4776 216.844C77.2597 213.856 64.8591 208.003 54.1514 199.699C67.7249 207.051 82.9229 210.89 98.3603 210.866C149.694 210.866 191.33 169.253 191.33 117.913C191.357 99.2915 185.762 81.0952 175.276 65.7051L175.893 66.4444C176.204 66.8141 176.511 67.217 176.81 67.6052L177.154 68.0414C177.457 68.4332 177.757 68.8325 178.056 69.2317L178.378 69.6605C178.67 70.0561 178.958 70.4553 179.247 70.8582C179.361 71.0172 179.472 71.1799 179.591 71.3425C179.864 71.7344 180.138 72.1299 180.404 72.5218C180.526 72.6918 180.637 72.8656 180.752 73.0356C181.014 73.4237 181.273 73.8193 181.532 74.2111L181.924 74.8211C182.157 75.1908 182.386 75.5604 182.615 75.9301C182.844 76.2998 183.003 76.5548 183.192 76.8691L183.669 77.6675C183.861 77.9928 184.038 78.3181 184.234 78.6435C184.43 78.9688 184.578 79.2423 184.745 79.5418L185.251 80.4659C185.432 80.7949 185.621 81.1202 185.78 81.4492L186.242 82.329C186.405 82.658 186.575 82.9871 186.741 83.3124L187.196 84.2439C187.348 84.5545 187.499 84.8687 187.647 85.1792C187.821 85.5489 188.017 85.9185 188.172 86.3178C188.287 86.5617 188.398 86.8131 188.509 87.0571C188.69 87.4748 188.878 87.8925 189.056 88.314C189.144 88.5247 189.237 88.7391 189.322 88.9498C189.503 89.3823 189.692 89.8185 189.858 90.251L190.102 90.8721C190.28 91.3268 190.472 91.7814 190.627 92.2398C190.694 92.4247 190.768 92.6095 190.834 92.798C191.012 93.286 191.204 93.7777 191.359 94.2767C191.422 94.4578 191.485 94.6464 191.551 94.8275C191.725 95.3377 191.892 95.8478 192.058 96.3653L192.235 96.9161C192.402 97.4596 192.568 98.0251 192.731 98.5501C192.772 98.6905 192.816 98.8347 192.853 98.9789C193.012 99.5223 193.163 100.066 193.311 100.613C193.348 100.746 193.382 100.883 193.419 101.019C193.563 101.57 193.703 102.128 193.84 102.679L193.94 103.09C194.077 103.655 194.202 104.199 194.328 104.786L194.409 105.156C194.543 105.748 194.661 106.339 194.779 106.934C194.801 107.034 194.82 107.137 194.838 107.237C194.959 107.873 195.075 108.514 195.186 109.16L195.215 109.33C195.326 110.017 195.437 110.708 195.537 111.396L195.559 111.566C195.652 112.228 195.744 112.889 195.826 113.555L195.848 113.777C195.925 114.427 195.996 115.074 196.058 115.729L196.081 115.976C196.142 116.624 196.198 117.275 196.247 117.928V118.179C196.291 118.837 196.332 119.499 196.369 120.165V120.379C196.402 121.063 196.428 121.75 196.443 122.434V122.59C196.458 123.329 196.465 124.068 196.465 124.808C196.465 176.14 154.844 217.753 103.503 217.753C102.912 217.753 102.324 217.753 101.736 217.735H101.207L99.9465 217.698L99.3771 217.672C98.889 217.653 98.401 217.624 97.9203 217.598H97.6319C97.0515 217.561 96.4747 217.52 95.9016 217.472L95.4172 217.428L94.1454 217.313L93.5834 217.254C93.1545 217.21 92.7293 217.158 92.3004 217.11L91.8419 217.055C91.3798 216.999 90.9176 216.936 90.4517 216.87" fill="#B26F42"/>
<path fill-rule="evenodd" clip-rule="evenodd" d="M119.934 33.6582C121.106 33.7654 122.267 33.9059 123.424 34.0612C157.07 45.1512 181.35 76.828 181.35 114.179C181.35 160.757 143.578 198.534 96.9807 198.534C82.0306 198.538 67.348 194.57 54.4364 187.035C41.5248 179.5 30.8482 168.67 23.5 155.652C30.9811 166.163 40.8691 174.732 52.3381 180.642C63.8071 186.553 76.5241 189.634 89.427 189.628C134.165 189.628 170.398 153.401 170.398 108.671C170.398 74.7468 149.523 45.702 119.919 33.6619" fill="#FFF7D0"/>
<path fill-rule="evenodd" clip-rule="evenodd" d="M182.781 67.0801C193.266 82.472 198.86 100.669 198.831 119.292C198.831 170.624 157.211 212.241 105.87 212.241C92.1468 212.254 78.592 209.223 66.1822 203.366C53.7724 197.509 42.8166 188.973 34.1045 178.372L34.5999 179.112L35.0177 179.71C35.1915 179.954 35.3653 180.191 35.5317 180.45L35.9606 181.038C36.1343 181.274 36.3081 181.514 36.4856 181.747C36.663 181.98 36.7962 182.161 36.9514 182.368C37.262 182.771 37.5652 183.171 37.8795 183.566L38.3158 184.128L38.8851 184.827C39.033 185.012 39.1846 185.196 39.3362 185.374C39.4878 185.551 39.7059 185.828 39.8982 186.054L40.3973 186.638C40.7042 187.008 41.0222 187.377 41.3402 187.717C41.5176 187.924 41.7099 188.132 41.8837 188.335L42.4568 188.967L42.967 189.514C43.1629 189.728 43.3626 189.939 43.5586 190.15C43.7545 190.361 43.9098 190.52 44.091 190.697C44.2721 190.874 44.5088 191.137 44.7306 191.359C45.0412 191.677 45.3555 191.995 45.6734 192.309L46.2687 192.889L46.8381 193.44L47.4408 194.009L48.0323 194.556C48.2283 194.737 48.4242 194.926 48.6239 195.1C48.9049 195.355 49.1896 195.61 49.4743 195.839C49.759 196.068 50.0141 196.32 50.2914 196.556C50.5021 196.734 50.7018 196.926 50.9162 197.092L51.5522 197.625L52.1807 198.142L52.7945 198.645C53.0533 198.856 53.3195 199.063 53.5783 199.27L54.4176 199.92L55.2236 200.538L55.8485 201C56.0851 201.17 56.3106 201.34 56.5473 201.506L57.1721 201.961L57.9338 202.497L58.4995 202.889C58.9099 203.17 59.324 203.447 59.7381 203.724C59.9303 203.853 60.1263 203.979 60.3222 204.094L61.1098 204.604L61.7346 204.996C62.0008 205.166 62.2781 205.336 62.5517 205.502L63.1248 205.872C63.5574 206.134 63.9937 206.389 64.43 206.644L64.9772 206.959C65.2693 207.125 65.5613 207.291 65.8571 207.454L66.482 207.798L67.3398 208.264L67.9313 208.578L69.1884 209.225L69.6617 209.461C70.0314 209.646 70.4011 209.831 70.7931 210.012C70.9853 210.105 71.1628 210.201 71.3735 210.289C71.6878 210.437 71.9984 210.585 72.3164 210.729L72.9005 210.995L74.0097 211.476L74.4386 211.665C74.923 211.872 75.411 212.075 75.9176 212.275L76.4611 212.493L77.4852 212.899C77.6775 212.973 77.8549 213.051 78.0731 213.121C78.4428 213.258 78.7867 213.395 79.1527 213.528L79.6408 213.705C80.151 213.886 80.6538 214.075 81.1641 214.237L81.6299 214.393C81.9997 214.518 82.3879 214.644 82.765 214.762L83.3418 214.944L84.451 215.287L84.9575 215.435C85.4825 215.59 86.015 215.738 86.5437 215.882C86.6472 215.916 86.7544 215.942 86.8579 215.967L88.1816 216.315L88.7362 216.452L89.8824 216.725L90.4222 216.851C90.9028 216.962 91.3835 217.065 91.8641 217.165L92.0897 217.217C92.6406 217.328 93.1989 217.435 93.7424 217.539L94.2415 217.631L95.4505 217.845L96.0125 217.938C96.4525 218.012 96.8925 218.078 97.3362 218.141L97.7059 218.2C98.2642 218.282 98.8151 218.359 99.3919 218.426L99.8541 218.481C100.279 218.533 100.708 218.581 101.133 218.625L101.699 218.685C102.117 218.729 102.542 218.766 102.971 218.803L103.448 218.847C104.025 218.892 104.601 218.932 105.182 218.969L105.467 218.988L106.927 219.062L107.493 219.084L108.757 219.121H109.29C109.874 219.121 110.465 219.121 111.057 219.121C162.398 219.121 204.019 177.504 204.019 126.171C204.019 125.432 204.009 124.693 203.989 123.953V123.828C203.989 123.14 203.945 122.453 203.912 121.769V121.554C203.878 120.889 203.838 120.231 203.79 119.573V119.318C203.738 118.667 203.686 118.017 203.627 117.37L203.601 117.122C203.537 116.469 203.467 115.818 203.39 115.17L203.364 114.945C203.287 114.279 203.198 113.618 203.106 112.956L203.08 112.79C202.98 112.098 202.876 111.407 202.758 110.723L202.725 110.549C202.621 109.906 202.503 109.267 202.381 108.631C202.381 108.527 202.344 108.427 202.322 108.324C202.207 107.732 202.085 107.141 201.952 106.55L201.871 106.18C201.745 105.614 201.616 105.049 201.501 104.487L201.397 104.076C201.264 103.519 201.124 102.965 200.976 102.413C200.939 102.28 200.906 102.143 200.869 102.006C200.725 101.459 200.569 100.919 200.414 100.376L200.292 99.9472C200.129 99.3964 199.963 98.8382 199.789 98.3133C199.734 98.1285 199.674 97.9437 199.615 97.7588C199.453 97.245 199.279 96.7311 199.105 96.221C199.046 96.0362 198.979 95.8513 198.917 95.6702C198.746 95.1785 198.569 94.6906 198.392 94.1915C198.325 94.003 198.255 93.8219 198.184 93.6333C198.014 93.1712 197.841 92.7165 197.663 92.2618C197.582 92.0548 197.497 91.8478 197.415 91.6445C197.238 91.2083 197.064 90.7721 196.879 90.3396C196.794 90.1289 196.706 89.9182 196.613 89.7038C196.432 89.286 196.243 88.8683 196.066 88.4506C195.951 88.1992 195.844 87.9515 195.729 87.7112C195.559 87.3416 195.382 86.9719 195.204 86.5764C195.057 86.2621 194.905 85.9479 194.753 85.6374L194.299 84.7095C194.132 84.3805 193.966 84.0515 193.796 83.7225C193.626 83.3935 193.493 83.1348 193.337 82.8427C193.182 82.5507 192.99 82.1884 192.812 81.8631C192.635 81.5378 192.476 81.2458 192.302 80.9389C192.128 80.6321 191.966 80.3401 191.792 80.0406C191.618 79.7412 191.422 79.3863 191.23 79.061C191.071 78.7949 190.912 78.5287 190.749 78.2625C190.586 77.9964 190.379 77.6378 190.176 77.3236C189.951 76.9539 189.714 76.5842 189.481 76.2146C189.352 76.0113 189.222 75.8079 189.089 75.6083C188.834 75.2128 188.571 74.8209 188.309 74.4328C188.198 74.259 188.083 74.089 187.965 73.9189C187.695 73.5234 187.425 73.1279 187.148 72.736L186.8 72.2517C186.516 71.8525 186.227 71.4533 185.935 71.0577C185.828 70.9135 185.724 70.7694 185.614 70.6289C185.318 70.226 185.015 69.8304 184.711 69.4349L184.371 68.9987C184.064 68.6105 183.761 68.2224 183.451 67.8379L182.833 67.0986" fill="#B26F42"/>
<path fill-rule="evenodd" clip-rule="evenodd" d="M153.853 172.872C153.435 171.593 153.483 170.853 152.744 169.789C154.57 160.199 154.899 154.015 152.722 144.326C151.897 140.866 150.47 136.707 149.483 133.236L148.373 131.524C146.522 128.742 144.471 126.098 142.236 123.613C137.201 117.813 131.44 112.684 125.095 108.354C124.047 107.622 122.856 107.118 121.601 106.875L121.231 106.808L114.92 102.923L115.863 101.26C117.935 97.469 119.096 93.2481 119.253 88.9312C119.557 82.7467 118.092 75.9115 114.754 70.6511C112.866 67.6868 110.443 65.1005 107.607 63.0249C101.636 58.6406 94.2188 56.7147 86.8648 57.2396C78.7898 57.82 71.336 61.2653 65.3352 66.6218L64.0338 67.7862L63.8785 67.6531L62.2923 69.1318C60.7727 70.5402 59.3677 72.6954 58.3769 74.5142C55.7665 79.3199 54.5021 84.7651 54.2543 90.1992C53.9659 96.6573 56.5541 102.905 60.4289 107.969C62.1769 110.291 64.1908 112.4 66.4296 114.253L68.7663 116.135L53.5629 124.238L52.6349 123.754C50.52 122.645 47.8912 122.235 45.5841 121.673C43.786 121.241 42.0476 120.591 40.4079 119.736L40.0751 119.569L34.836 113.78L34.7398 113.625C33.2831 111.259 30.8614 108.938 28.0847 108.287C26.7111 107.911 25.3813 107.391 24.1174 106.734C23.2446 106.291 22.34 105.913 21.411 105.603C19.4551 105.012 16.9039 105.307 15.7134 107.156L14.4083 109.189L12.6705 107.518C11.7018 106.59 10.9143 106.18 9.54257 106.221C8.79045 106.241 8.05201 106.426 7.37963 106.764L6.83982 107.038L6.24455 106.964C5.50554 106.863 4.75335 106.936 4.04747 107.177C3.34158 107.418 2.70137 107.819 2.17749 108.35C1.65411 108.884 1.25744 109.528 1.01681 110.236C0.776172 110.944 0.697742 111.696 0.787303 112.438L0.864943 113.037L0.809486 113.329C0.638562 114.195 0.677948 115.09 0.92435 115.938C1.17075 116.786 1.61697 117.562 2.22556 118.202L2.55092 118.571L2.68772 119.037C4.11119 124.109 10.1341 127.269 14.9481 128.253C18.1167 128.9 20.3536 130.449 23.8216 131.014C24.4687 134.216 25.3006 134.748 27.6484 137.014C35.9008 144.954 49.348 154.51 61.3273 149.808L62.7064 149.265L69.8977 158.506L66.9399 159.246C63.1131 160.203 59.3419 162.798 56.0919 164.957C49.7288 169.175 41.1399 176.132 40.6519 184.391C40.3635 189.3 41.8313 194.268 43.8722 198.682C45.4865 202.104 47.4214 205.366 49.6512 208.423C50.3463 209.384 51.7512 210.511 52.7421 211.166L54.1397 212.09L52.4944 215.823L52.365 215.997C52.1059 216.349 51.8736 216.72 51.6699 217.106L50.5311 219.324L50.4128 219.472C50.2014 219.744 50.0052 220.028 49.8249 220.322C48.5716 222.4 47.0704 224.359 45.891 226.466C45.113 227.831 44.5082 229.288 44.0904 230.802C43.4101 234.196 43.6874 237.9 46.3716 240.377C49.8508 243.578 55.4597 243.268 59.5896 241.719L65.5053 239.501L61.9337 244.709C59.0091 248.949 57.7742 254.199 60.5916 258.823C62.2528 261.455 64.8073 263.4 67.7866 264.302C72.3454 265.754 77.2074 264.893 81.3003 262.542C87.8261 258.79 92.6363 254.04 95.0137 246.779C96.6627 241.748 96.9843 236.166 97.2062 230.839L92.6696 230.237L96.2412 227.339C97.197 226.581 97.9831 225.632 98.5483 224.551L98.5668 224.522V224.488C100.461 221.176 101.675 217.519 102.138 213.731C102.349 211.789 102.431 209.836 102.382 207.883V207.572L104.401 201.044C105.773 196.59 108.527 192.305 111.197 188.516C112.761 186.298 114.399 184.135 116.003 181.947C117.402 180.095 118.699 178.169 119.889 176.177L125.805 165.918L123.557 177.544C123.076 180.04 122.758 183.57 124.326 185.781C125.291 187.137 126.818 187.751 128.423 187.962C128.69 187.995 128.959 188.01 129.229 188.006L131.676 187.954L131.218 190.357C131.024 191.458 130.757 192.545 130.419 193.61C129.31 196.978 130.087 200.556 133.998 201.244C136.091 201.613 137.818 200.848 139.267 199.366L139.426 199.207L146.259 194.852L146.292 194.83C146.618 194.642 146.921 194.416 147.194 194.157L147.272 194.08L148.825 192.915C154.896 188.368 154.226 179.633 153.842 172.883" fill="#1A0A2A"/>
<path fill-rule="evenodd" clip-rule="evenodd" d="M135.54 183.659C135.54 183.659 136.882 191.026 134.62 195.802C137.145 192.187 137.152 188.158 135.54 183.659ZM151.96 177.799C151.919 177.844 148.477 181.467 141.426 181.936C141.426 181.936 147.061 182.731 151.698 180.017C151.08 184.454 149.849 189.126 147.39 190.963C147.633 189.692 147.605 188.383 147.309 187.122C147.279 188.845 146.673 192.272 144.639 192.926C144.999 191.212 144.938 189.436 144.462 187.751C145.013 193.551 142.062 195.004 140.913 195.344C140.772 195.381 140.628 195.418 140.473 195.444C141.822 191.924 140.905 189.159 140.905 189.159C140.82 192.032 138.531 199.573 134.42 198.845C132.789 198.556 131.743 197.292 132.719 194.35C134.106 190.198 135.226 181.895 133.141 178.103C133.372 179.732 133.426 181.382 133.303 183.023C132.542 183.958 130.76 185.803 128.741 185.544C126.053 185.174 125.306 182.443 126.892 181.263C134.35 175.755 129.48 171.704 136.808 170.269C137.81 171.297 139.622 174.044 139.397 180.417C139.397 180.417 141.5 174.295 139.345 170.436C141.53 170.491 144.795 170.399 147.812 169.611C150.906 170.824 152.345 173.925 151.96 177.799Z" fill="#FFF7D0"/>
<path fill-rule="evenodd" clip-rule="evenodd" d="M64.9766 227.759C60.5214 221.538 51.8992 221.575 51.8992 221.575C55.1491 216.2 63.213 220.765 66.9177 223.076C62.6917 217.117 55.4819 217.013 53.8255 218.233C56.8906 212.318 65.4832 216.976 68.8071 220.388L67.8384 222.429L69.3838 220.266C65.2576 214.644 58.6616 214.17 55.8368 214.248L56.4136 212.943C65.5127 214.503 70.9885 209.08 70.9885 209.08L72.6892 210.662C69.9163 215.42 71.0217 226.233 71.0217 226.233C70.8247 226.627 70.5854 226.999 70.3082 227.342C68.5002 229.929 63.4311 236.262 56.6798 237.094C51.6182 237.715 48.1501 236.265 46.1683 234.99C42.4488 224.898 56.0846 220.152 64.9766 227.774" fill="#FFF7D0"/>
<path fill-rule="evenodd" clip-rule="evenodd" d="M64.9769 227.76C62.7585 224.666 59.5086 223.117 56.8058 222.344C62.0671 220.259 66.918 223.084 66.918 223.084C65.8712 221.596 64.5216 220.347 62.9579 219.418C61.3942 218.49 59.6517 217.902 57.8448 217.694C63.9565 215.967 68.8074 220.396 68.8074 220.396L67.8387 222.437L69.3841 220.274C65.2579 214.651 58.6619 214.178 55.8371 214.256L56.4139 212.951C64.3521 214.311 69.5283 210.363 70.7189 209.328L70.9888 209.088L72.6895 210.67C69.9165 215.428 71.022 226.24 71.022 226.24C70.825 226.635 70.5857 227.007 70.3085 227.349C68.5005 229.937 63.4314 236.27 56.6801 237.101C51.6185 237.722 48.1504 236.273 46.1686 234.998C46.1317 234.902 46.0984 234.802 46.0651 234.702C45.3552 228.314 54.5061 222.474 64.9769 227.782" fill="#E2B164"/>
<path fill-rule="evenodd" clip-rule="evenodd" d="M72.6899 210.662C69.9169 215.42 71.0224 226.233 71.0224 226.233C70.8253 226.627 70.5861 226.999 70.3088 227.342C68.5008 229.929 63.4318 236.262 56.6804 237.093C51.6188 237.714 48.1507 236.265 46.1689 234.994C46.1689 234.994 57.0243 237.918 63.8459 231.811C63.8459 231.811 61.4722 234.816 56.6657 235.947C56.6657 235.947 64.3524 235.116 69.6839 226.336C69.4732 224.092 69.9538 213.967 72.6936 210.688" fill="#B26F42"/>
<path fill-rule="evenodd" clip-rule="evenodd" d="M7.32461 114.49C6.34112 114.165 4.17819 114.272 4.18558 116.752C1.61964 114.357 3.57552 110.882 7.32461 114.49ZM8.12323 118.812C8.12323 118.812 13.074 125.129 23.053 124.334C17.3296 125.758 11.266 124.083 8.12323 118.812ZM19.8955 127.155C18.4486 126.596 16.9536 126.17 15.4291 125.883C12.157 125.218 6.55556 122.856 5.1284 118.741C4.2891 116.327 6.01206 113.425 9.16588 117.229C10.8405 119.326 13.2662 120.688 15.9283 121.026C15.9283 121.026 15.4772 117.381 17.4479 115.056C17.4479 115.056 15.5549 115.614 14.686 119.492C8.11584 117.98 8.98101 111.463 3.1873 112.146C3.43502 108.842 6.23759 108.79 8.59279 111.252C9.80551 112.516 11.7947 114.327 13.8615 115.041C13.8615 115.041 9.71678 112.18 7.83114 109.37C8.31287 108.907 8.95217 108.643 9.62065 108.631C11.7318 108.564 12.3308 112.583 17.6106 113.182C20.6794 113.529 23.726 113.093 25.8556 114.32C25.8556 114.32 24.9498 113 22.5576 112.801C20.5278 112.634 17.4886 112.121 17.5107 109.474C17.5107 107.685 19.2744 107.474 20.7163 107.906C22.1583 108.339 25.2603 110.098 27.5379 110.634C31.7454 111.621 35.5352 116.627 32.6624 121.303C30.969 118.113 27.2865 117.887 27.2865 117.887C28.326 118.293 29.2734 118.904 30.0724 119.683C30.8714 120.463 31.5057 121.394 31.9377 122.423C30.9745 123.869 29.8287 125.185 28.5288 126.338C24.8647 129.48 23.615 128.663 19.8955 127.155Z" fill="#FFF7D0"/>
<path fill-rule="evenodd" clip-rule="evenodd" d="M7.32461 114.49C6.34112 114.164 4.17819 114.272 4.18558 116.752C1.61964 114.357 3.57552 110.882 7.32461 114.49ZM17.4479 115.044C17.4479 115.044 15.5549 115.602 14.686 119.48C8.11584 117.968 8.98101 111.451 3.1873 112.135C3.21303 111.612 3.33853 111.099 3.55703 110.623C3.55703 110.623 6.40767 110.106 7.84962 112.283C9.29158 114.46 10.8075 116.841 13.9687 117.14C13.9687 117.14 10.6744 115.543 9.6761 113.706C9.6761 113.706 12.3862 115.906 14.4826 116.275C14.4826 116.275 16.2611 114.224 18.4757 114.427L17.4479 115.044Z" fill="#E2B164"/>
<path fill-rule="evenodd" clip-rule="evenodd" d="M8.12282 118.811C8.12282 118.811 13.0735 125.129 23.0526 124.334C17.3144 125.757 11.2655 124.083 8.12282 118.811ZM25.186 116.815C27.0346 114.734 28.8537 113.011 32.3958 114.017C33.8081 116.061 34.2444 118.734 32.662 121.306C30.6913 116.065 25.1934 116.804 25.186 116.804V116.815ZM19.8951 127.166C18.4489 126.604 16.9537 126.177 15.4287 125.89C12.1566 125.225 6.55515 122.863 5.12798 118.748C4.62515 117.303 5.03925 115.68 6.13366 115.421C6.13366 115.447 11.0363 123.898 20.923 123.28C20.923 123.28 16.0499 122.493 13.9424 121.536C21.5478 123.085 25.5409 113.839 31.9188 122.434C30.9556 123.88 29.8098 125.196 28.5099 126.349C24.8643 129.48 23.6146 128.663 19.8951 127.155V127.166Z" fill="#E2B164"/>
<path fill-rule="evenodd" clip-rule="evenodd" d="M19.8954 127.154C18.4485 126.595 16.9535 126.169 15.4291 125.882C12.3381 125.25 7.15446 123.103 5.39453 119.398C7.09084 121.681 9.54906 123.279 12.3233 123.905C15.159 124.495 17.9451 125.302 20.6571 126.319C21.648 126.714 25.996 129.058 31.9339 122.426C30.9707 123.872 29.825 125.188 28.525 126.341C24.861 129.479 23.6223 128.662 19.8917 127.143" fill="#B26F42"/>
<path fill-rule="evenodd" clip-rule="evenodd" d="M94.7032 232.932C94.1597 246.162 77.0558 266.675 61.8968 255.341C58.3215 239.445 78.2205 239.076 85.2121 248.569C85.2121 248.569 81.0342 237.46 66.7551 241.057C66.6959 235.105 82.2247 237.619 85.9294 240.843C85.9294 240.843 78.8823 233.734 68.4854 236.736C70.8 229.638 84.3839 232.669 87.8077 235.556C87.8077 235.556 85.4857 232.137 78.1281 231.083L78.8269 230.363C78.8269 230.363 87.2679 230.706 92.6697 229.109C92.6697 229.109 94.8104 234.17 90.4919 241.911C90.4919 241.911 93.6125 237.723 94.7032 232.932Z" fill="#FFF7D0"/>
<path fill-rule="evenodd" clip-rule="evenodd" d="M94.7036 232.932C94.4522 239.061 90.6365 246.75 85.1238 252.114C84.3104 251.212 84.2069 250.04 85.2126 248.569C90.2594 241.175 87.8007 235.556 87.8007 235.556C87.8007 235.556 85.4788 232.137 78.1211 231.083L78.8199 230.363C78.8199 230.363 87.2609 230.706 92.6627 229.109C92.6627 229.109 94.8034 234.17 90.485 241.911C90.485 241.911 93.6055 237.723 94.6962 232.932" fill="#E2B164"/>
<path fill-rule="evenodd" clip-rule="evenodd" d="M70.2712 240.436C69.085 240.553 67.9095 240.761 66.755 241.057C66.707 235.882 78.3609 237.098 83.8848 239.612C84.593 239.976 85.2761 240.387 85.9294 240.843C85.9294 240.843 78.0134 237.09 70.2712 240.436Z" fill="white"/>
<path fill-rule="evenodd" clip-rule="evenodd" d="M94.7033 232.932C94.1597 246.162 77.0559 266.675 61.8969 255.341C61.6336 254.202 61.491 253.039 61.4717 251.87C63.7344 240.942 74.5676 244.31 74.5676 244.31C68.0085 243.571 66.6294 246.872 66.6294 246.872C73.5545 242.159 85.2122 248.569 85.2122 248.569C86.9056 247.323 90.492 241.915 90.492 241.915C90.492 241.915 93.6125 237.726 94.7033 232.935" fill="#E2B164"/>
<path fill-rule="evenodd" clip-rule="evenodd" d="M71.3101 227.818C68.3078 233.397 62.5918 238.993 56.1769 240.184C52.1579 240.923 48.6972 239.888 47.0889 237.408C47.2294 237.47 50.642 239.363 55.8257 238.701C62.1703 237.892 67.9714 233.234 71.3101 227.818Z" fill="#B26F42"/>
<path fill-rule="evenodd" clip-rule="evenodd" d="M68.5263 112.826C55.5228 103.148 52.9975 83.7958 63.9194 70.9092C63.9194 70.9092 48.5386 93.1521 68.5263 112.826Z" fill="#E2B164"/>
<path fill-rule="evenodd" clip-rule="evenodd" d="M94.6037 239.278C93.3651 246.42 87.7045 256.072 80.1101 260.438C74.8895 263.432 66.0011 263.44 61.8564 257.181C68.1012 261.488 74.1501 261.403 79.4224 258.697C86.1331 255.252 91.5867 247.563 94.6037 239.278Z" fill="#B26F42"/>
<path fill-rule="evenodd" clip-rule="evenodd" d="M80.1838 194.12C80.1838 194.12 76.3608 204.223 84.3544 205.18C80.3687 203.073 79.9176 198.156 80.1838 194.12ZM45.8431 186.042C45.8431 186.042 44.549 177.148 55.3008 177.57C48.4164 179.119 47.2776 181.647 45.8431 186.042ZM43.0775 184.534C43.4694 177.854 50.4721 171.596 57.4379 166.968C69.103 159.227 69.591 160.683 78.4054 163.829C83.4893 165.633 88.3882 166.154 92.825 166.225C97.7462 166.298 106.442 166.225 111.116 166.724C129.876 168.65 103.643 186.316 102.109 200.319C101.746 198.034 101.564 195.724 101.565 193.41C96.5482 206.315 103.155 211.498 96.441 223.375C93.0468 230.21 74.6896 229.959 73.4473 223.619C72.205 217.279 75.1629 210.592 75.1629 210.592C79.5405 216.063 89.0205 214.658 89.0205 214.658C79.5183 213.731 75.0372 209.727 75.3404 200.981C75.8284 186.564 83.9071 175.899 83.9071 175.899C81.6931 177.258 79.9615 179.278 78.9563 181.673C77.6105 174.878 71.802 173.511 71.802 173.511C78.1096 178.058 77.0818 187.122 71.876 188.05C68.8146 182.804 62.9173 183.026 62.9173 183.026C74.49 188.294 73.9243 203.036 64.0635 209.073C69.188 207.905 73.7653 204.149 73.7653 204.149C66.537 212.256 60.3773 212.082 56.4137 210.433C48.5495 207.117 42.6301 192.038 43.0775 184.534Z" fill="#FFF7D0"/>
<path fill-rule="evenodd" clip-rule="evenodd" d="M52.6504 170.442C54.1922 169.204 55.8153 168.04 57.4569 166.968C69.122 159.227 69.61 160.683 78.4244 163.829C83.5083 165.633 88.4072 166.154 92.844 166.225C97.7652 166.298 106.461 166.225 111.135 166.724C111.578 166.768 111.996 166.827 112.392 166.89C111.7 170.749 109.434 176.719 102.106 177.795C102.106 177.795 100.017 172.043 89.9897 172.59C89.9897 172.59 84.037 171.278 79.2009 172.49C79.2009 172.49 68.2827 166.243 59.4424 170.494C59.4424 170.494 62.4002 166.727 71.381 166.724C66.7668 165.245 57.7009 167.093 52.6726 170.442" fill="#E2B164"/>
<path fill-rule="evenodd" clip-rule="evenodd" d="M75.6732 184.568C75.0188 186.368 73.7025 187.714 71.8613 188.039C68.7999 182.794 62.9027 183.015 62.9027 183.015C74.4753 188.283 73.9096 203.026 64.0488 209.062C69.1733 207.894 73.7506 204.138 73.7506 204.138C69.1326 209.314 64.9473 211.118 61.4977 211.306C44.8264 207.395 43.8688 184.017 61.017 184.69C61.017 184.69 53.2526 182.694 48.2354 188.657C49.0377 176.217 73.8837 166.898 75.6732 184.564M77.4849 188.889C80.025 180.967 83.8924 175.873 83.8924 175.873C81.6784 177.233 79.9468 179.252 78.9417 181.648C77.5958 174.853 71.7873 173.485 71.7873 173.485C71.7873 173.485 76.8785 173.485 79.622 175.533C79.622 175.533 82.6907 172.07 89.9745 172.576C84.1742 176.539 79.797 182.257 77.4849 188.889Z" fill="#E2B164"/>
<path fill-rule="evenodd" clip-rule="evenodd" d="M108.136 166.505C109.245 166.561 110.244 166.631 111.094 166.724C129.854 168.65 103.622 186.316 102.087 200.319C101.724 198.034 101.543 195.724 101.544 193.41C96.5265 206.315 103.134 211.498 96.4193 223.375C94.7998 226.643 89.7641 228.288 84.8023 228.425C71.9319 226.946 75.4998 215.261 75.4998 215.261C82.8945 217.96 89.9675 214.921 89.9675 214.921C88.1669 203.831 92.892 191.281 92.892 191.281C88.7251 197.247 87.4348 208.729 87.4348 208.729C87.3202 195.277 91.5018 186.889 99.0888 180.634C106.676 174.379 108.118 166.498 108.118 166.498" fill="#E2B164"/>
<path fill-rule="evenodd" clip-rule="evenodd" d="M35.5716 137.365C35.5716 137.365 42.2268 144.019 50.6826 145.298C44.0681 145.908 39.4168 142.363 35.5716 137.365ZM27.9958 130.227C32.9058 127.387 36.263 121.621 36.263 121.621C35.8156 124.434 33.2016 127.495 33.2016 127.495C37.0099 124.656 38.5369 121.484 38.5369 121.484C40.2828 122.448 42.1305 123.216 44.0459 123.772C49.4846 125.251 55.674 125.195 53.9806 132.792C53.9806 132.792 55.8108 129.095 54.5685 126.437L66.9767 119.817C69.9346 118.242 69.7719 119.817 67.7162 123.513C65.7825 127.003 63.4975 132.785 63.7526 143.416C62.0851 145.457 58.8906 146.403 58.8906 146.403C62.588 146.351 64.5697 145.18 64.5697 145.18C61.2982 147.708 57.2398 149.003 53.108 148.836C54.9567 146.795 54.354 142.895 54.354 142.895C53.8253 147.653 51.3962 148.876 48.2017 147.767C41.2692 145.353 34.7027 140.437 29.3453 135.265C25.8107 131.879 25.7108 131.543 27.9958 130.227Z" fill="#FFF7D0"/>
<path fill-rule="evenodd" clip-rule="evenodd" d="M27.9961 130.226C29.3076 129.45 30.5205 128.518 31.6084 127.45C31.6084 127.45 36.8401 133.709 45.5621 133.539C45.5621 133.539 40.0161 131.838 38.2599 129.361C38.2599 129.361 42.412 131.949 46.2387 132.234C50.0655 132.518 52.025 134.174 51.9696 137.89C51.9696 137.89 52.5316 136.622 51.7736 134.193C51.7736 134.193 53.1231 135.923 52.8828 138.866C55.2177 136.22 58.0187 134.026 61.1463 132.393C61.1463 132.393 58.1589 133.054 55.9923 134.744C55.9923 134.744 59.1017 131.006 65.6053 128.286C64.4517 131.786 63.5718 136.603 63.7382 143.405C62.0707 145.446 58.8762 146.392 58.8762 146.392C62.5735 146.34 64.5553 145.168 64.5553 145.168C61.2838 147.697 57.2253 148.992 53.0936 148.824C54.9422 146.784 54.3396 142.884 54.3396 142.884C53.8108 147.641 51.3817 148.865 48.1872 147.756C41.2547 145.342 34.6883 140.426 29.3308 135.254C25.8184 131.871 25.7186 131.535 28.0035 130.219" fill="#E2B164"/>
<path fill-rule="evenodd" clip-rule="evenodd" d="M54.3398 142.892C53.811 147.649 51.3819 148.873 48.1874 147.764C41.2549 145.35 34.6885 140.433 29.331 135.262C27.4232 133.414 26.5211 132.486 26.4619 131.802C26.4804 131.802 37.0991 141.077 44.0205 143.313C44.0205 143.313 36.8144 139.413 33.6902 136.204C33.6902 136.204 44.686 143.968 54.3471 142.892" fill="#B26F42"/>
<path fill-rule="evenodd" clip-rule="evenodd" d="M64.2856 134.041C63.8349 137.146 63.658 140.284 63.7569 143.419C62.0894 145.46 58.8949 146.406 58.8949 146.406C62.5923 146.355 64.574 145.183 64.574 145.183C61.3025 147.712 57.2441 149.006 53.1123 148.839C54.961 146.798 54.3583 142.898 54.3583 142.898C58.6583 136.366 64.2856 134.041 64.2856 134.041Z" fill="#B26F42"/>
<path fill-rule="evenodd" clip-rule="evenodd" d="M66.4746 68.8542C82.033 54.5444 103.688 57.7642 112.691 71.9594C118.696 81.4155 119.054 98.5755 108.121 106.368C111.382 103.285 112.303 98.7566 112.303 98.7566C105.829 112.882 83.6154 114.926 83.6154 114.926C90.4555 112.054 97.0589 107.422 100.183 102.017C86.2036 115.85 71.3957 113.333 71.3957 113.333C92.9475 111.396 99.1257 99.3296 99.1257 99.3296C95.7576 103.052 91.5183 105.881 86.7877 107.562C93.1397 104.416 98.1422 99.4479 100.065 97.3741C101.026 98.0082 102.142 98.3664 103.292 98.4095C104.443 98.4526 105.583 98.179 106.588 97.6185C107.594 97.0581 108.426 96.2323 108.994 95.2313C109.563 94.2302 109.845 93.0924 109.81 91.9419C109.776 90.7915 109.426 89.6725 108.799 88.7072C108.173 87.7418 107.292 86.9672 106.255 86.4677C105.218 85.9682 104.064 85.7632 102.918 85.8748C101.772 85.9865 100.679 86.4107 99.7579 87.101C89.9083 75.1866 68.9999 69.4863 68.9999 69.4863C87.9561 71.1794 101.144 84.8608 101.144 84.8608C88.9433 69.5861 72.1574 67.9707 72.1574 67.9707C78.6536 63.2168 89.4017 61.6863 89.4017 61.6863C78.5981 61.2834 66.4783 68.8246 66.4783 68.8246" fill="#FFF7D0"/>
<path fill-rule="evenodd" clip-rule="evenodd" d="M109.589 67.9857C110.761 69.2039 111.81 70.5351 112.72 71.9596C118.725 81.4157 119.083 98.5757 108.15 106.368C111.411 103.285 112.332 98.7568 112.332 98.7568C105.858 112.882 83.6445 114.926 83.6445 114.926C90.4845 112.054 97.0879 107.422 100.212 102.017C86.2326 115.85 71.4248 113.333 71.4248 113.333C92.9765 111.396 99.1548 99.3298 99.1548 99.3298C95.7784 103.056 91.5284 105.885 86.7872 107.562C93.1392 104.416 98.1417 99.4481 100.064 97.3743C100.814 97.8706 101.661 98.2004 102.549 98.3414C103.437 98.4824 104.345 98.4312 105.211 98.1915C106.078 97.9517 106.883 97.5289 107.572 96.9516C108.261 96.3742 108.818 95.6558 109.206 94.8448C109.594 94.0337 109.803 93.149 109.819 92.2502C109.836 91.3515 109.659 90.4597 109.302 89.635C108.944 88.8103 108.414 88.0718 107.746 87.4696C107.079 86.8673 106.29 86.4152 105.433 86.1438C109.903 82.2771 109.925 73.9965 109.925 73.9965C110.567 77.3533 110.205 80.8247 108.886 83.9775C113.726 77.2274 109.722 68.274 109.589 67.9746" fill="#E2B164"/>
<path fill-rule="evenodd" clip-rule="evenodd" d="M115.885 79.5039C118.278 88.8195 116.555 100.372 108.121 106.368C111.382 103.285 112.303 98.7562 112.303 98.7562C105.829 112.881 83.6152 114.925 83.6152 114.925C83.6152 114.925 96.2194 112.634 106.494 98.7969C105.513 101.329 104 103.622 102.057 105.521C102.057 105.521 114.052 96.7711 115.852 79.5039" fill="#B26F42"/>
<path fill-rule="evenodd" clip-rule="evenodd" d="M103.766 88.6569C104.231 88.6417 104.694 88.7202 105.129 88.8877C105.563 89.0552 105.959 89.3083 106.293 89.632C106.628 89.9557 106.894 90.3432 107.075 90.7717C107.257 91.2002 107.351 91.6608 107.351 92.1262C107.351 92.5916 107.257 93.0522 107.075 93.4807C106.894 93.9092 106.628 94.2968 106.293 94.6204C105.959 94.9441 105.563 95.1972 105.129 95.3647C104.694 95.5322 104.231 95.6107 103.766 95.5956C103.655 95.5956 103.544 95.5956 103.437 95.5956C104.294 95.5113 105.09 95.1109 105.669 94.4724C106.248 93.8339 106.569 93.0029 106.569 92.141C106.569 91.2792 106.248 90.4481 105.669 89.8096C105.09 89.1711 104.294 88.7707 103.437 88.6865C103.546 88.6747 103.656 88.6685 103.766 88.668M103.766 87.9286C104.6 87.9286 105.416 88.176 106.109 88.6395C106.803 89.103 107.344 89.7617 107.663 90.5324C107.982 91.3032 108.066 92.1512 107.903 92.9694C107.74 93.7876 107.339 94.5392 106.749 95.1291C106.159 95.719 105.407 96.1207 104.589 96.2834C103.77 96.4462 102.922 96.3626 102.151 96.0434C101.38 95.7241 100.721 95.1835 100.258 94.4899C99.7943 93.7963 99.5469 92.9808 99.5469 92.1465C99.5445 91.5911 99.6518 91.0406 99.8627 90.5267C100.074 90.0129 100.384 89.5457 100.776 89.1521C101.168 88.7585 101.634 88.4461 102.147 88.233C102.66 88.0199 103.21 87.9102 103.766 87.9102V87.9286Z" fill="#E2B164"/>
<path fill-rule="evenodd" clip-rule="evenodd" d="M101.854 95.8884C101.032 95.4727 100.369 94.7993 99.9664 93.9713C99.5637 93.1433 99.4433 92.2062 99.6236 91.3033C99.8038 90.4004 100.275 89.5814 100.965 88.9715C101.655 88.3615 102.525 87.9942 103.444 87.9258C101.684 88.4581 98.5335 91.5374 101.854 95.8884Z" fill="#FAFFD0"/>
<path fill-rule="evenodd" clip-rule="evenodd" d="M103.522 86.5947C104.276 86.5936 105.023 86.748 105.715 87.0482C106.407 87.3484 107.03 87.788 107.544 88.3396C106.795 87.6088 105.847 87.1151 104.818 86.9205C103.79 86.7258 102.727 86.8388 101.762 87.2452C100.798 87.6516 99.9747 88.3335 99.3959 89.2054C98.817 90.0774 98.5083 91.1006 98.5083 92.1471C98.5083 93.1937 98.817 94.2169 99.3959 95.0889C99.9747 95.9608 100.798 96.6427 101.762 97.0491C102.727 97.4555 103.79 97.5685 104.818 97.3738C105.847 97.1792 106.795 96.6855 107.544 95.9547C106.914 96.6256 106.126 97.1291 105.253 97.4196C104.379 97.7102 103.447 97.7788 102.54 97.6191C101.634 97.4595 100.781 97.0767 100.059 96.5052C99.3373 95.9338 98.7692 95.1917 98.4059 94.3458C98.0427 93.5 97.8958 92.5771 97.9785 91.6603C98.0611 90.7435 98.3708 89.8617 98.8794 89.0945C99.3881 88.3272 100.08 87.6987 100.892 87.2655C101.705 86.8323 102.612 86.6081 103.533 86.6132" fill="#FAFFD0"/>
<path fill-rule="evenodd" clip-rule="evenodd" d="M98.1489 153.538C103.887 154.093 105.104 157.327 105.089 160.776C105.089 160.776 105.059 158.961 102.723 157.168C107.854 166.192 83.685 164.673 74.4343 155.405C75.5989 158.732 79.5403 161.024 79.5403 161.024C69.6869 158.348 71.5171 150.973 71.5171 150.973C82.5536 154.629 87.2159 152.488 98.1378 153.538" fill="#B26F42"/>
<path fill-rule="evenodd" clip-rule="evenodd" d="M74.161 129.413C74.7703 129.413 75.3661 129.593 75.873 129.93C76.38 130.268 76.7753 130.749 77.009 131.312C77.2427 131.874 77.3042 132.494 77.1858 133.091C77.0674 133.689 76.7743 134.238 76.3437 134.669C75.9132 135.1 75.3644 135.393 74.7668 135.513C74.1693 135.632 73.5499 135.571 72.9869 135.338C72.4239 135.105 71.9427 134.71 71.6041 134.204C71.2655 133.697 71.0848 133.102 71.0848 132.493C71.0843 132.088 71.1635 131.688 71.3179 131.315C71.4722 130.941 71.6987 130.601 71.9844 130.315C72.2701 130.029 72.6094 129.803 72.9829 129.648C73.3563 129.493 73.7567 129.413 74.161 129.413ZM74.161 130.249C74.4636 130.237 74.7656 130.286 75.0488 130.393C75.332 130.5 75.5906 130.664 75.8091 130.873C76.0276 131.083 76.2014 131.335 76.3201 131.613C76.4389 131.892 76.5001 132.192 76.5001 132.495C76.5001 132.797 76.4389 133.097 76.3201 133.376C76.2014 133.654 76.0276 133.906 75.8091 134.116C75.5906 134.325 75.332 134.489 75.0488 134.596C74.7656 134.704 74.4636 134.753 74.161 134.74C73.6998 134.741 73.2501 134.597 72.8743 134.33C73.0916 134.412 73.3222 134.454 73.5546 134.452C73.8412 134.452 74.1244 134.389 74.3841 134.268C74.6438 134.147 74.8737 133.97 75.0577 133.75C75.2416 133.53 75.3751 133.273 75.4488 132.996C75.5224 132.719 75.5344 132.429 75.4838 132.147C75.4333 131.865 75.3214 131.597 75.1562 131.363C74.991 131.129 74.7764 130.934 74.5276 130.792C74.2787 130.65 74.0017 130.564 73.7161 130.54C73.4304 130.517 73.1431 130.556 72.8743 130.655C73.2505 130.39 73.7002 130.247 74.161 130.249ZM67.0029 130.966C66.3707 133.816 65.3724 139.354 65.8198 144.607C65.8198 144.607 66.0971 138.858 67.417 133.912C67.417 133.912 65.5499 144.012 71.6209 145.742C77.6919 147.472 93.1245 147.716 93.1245 147.716C93.1245 147.716 84.8166 147.168 79.4925 144.854C79.4925 144.854 89.7193 146.374 94.7957 145.353C94.7957 145.353 93.8012 135.402 97.3321 130.227C97.3321 130.227 96.1378 134.334 96.4891 141.498C96.4891 141.498 99.2732 138.81 102.682 140.777C102.682 140.777 103.355 133.214 100.641 129.384C100.641 129.384 102.786 130.914 103.118 133.387C103.118 133.387 103.555 128.4 99.5246 127.059C96.5039 126.053 84.0476 125.469 77.984 125.24C72.7523 125.048 68.5262 124.197 67.0029 130.966Z" fill="#FFF7D0"/>
<path fill-rule="evenodd" clip-rule="evenodd" d="M67.0029 130.966C66.3707 133.816 65.3724 139.354 65.8198 144.607C65.8198 144.607 66.0971 138.858 67.417 133.912C67.417 133.912 65.5499 144.011 71.6209 145.741C77.6919 147.471 93.1245 147.715 93.1245 147.715C93.1245 147.715 84.8166 147.168 79.4925 144.854C79.4925 144.854 89.7193 146.374 94.7957 145.353C94.7957 145.353 93.8012 135.402 97.3321 130.226C97.3321 130.226 96.1378 134.333 96.4891 141.498C96.4891 141.498 99.2732 138.81 102.682 140.777C102.682 140.777 103.355 133.213 100.641 129.384C100.641 129.384 102.786 130.914 103.118 133.387C103.118 133.387 103.529 128.703 99.8869 127.191C94.8623 126.696 91.8194 137.258 91.8194 137.258C92.3851 132.98 95.0582 128.533 95.0582 128.533C91.9044 131.657 89.9855 136.973 89.9855 136.973C84.8093 137.827 73.1442 142.204 69.5947 134.585C69.7269 136.582 70.2139 138.54 71.033 140.366C66.0712 133.712 69.8018 126.145 69.8314 126.09C68.5669 126.911 67.613 128.385 67.014 130.966" fill="#E2B164"/>
<path fill-rule="evenodd" clip-rule="evenodd" d="M67.1475 137.72C67.2214 140.777 68.0348 144.722 71.6212 145.749C77.6886 147.487 93.1249 147.716 93.1249 147.716C93.1249 147.716 84.817 147.169 79.4928 144.855C79.4928 144.855 89.7197 146.374 94.7961 145.354C94.7961 145.354 93.8015 135.402 97.3324 130.227C97.3324 130.227 99.3586 134.227 102.42 134.293C102.749 136.434 102.837 138.605 102.682 140.766C99.2735 138.799 96.4894 141.487 96.4894 141.487C96.1197 134.323 97.3324 130.216 97.3324 130.216C92.611 133.809 92.2782 142.681 92.2782 142.681C86.7522 142.33 81.2106 142.298 75.6809 142.585C67.6207 143.077 67.177 137.89 67.1475 137.713" fill="#B26F42"/>
<path fill-rule="evenodd" clip-rule="evenodd" d="M96.1269 149.486C96.1269 149.486 82.7906 153.589 68.3525 147.116C77.9323 149.989 86.2957 149.922 96.1453 149.504" fill="#B26F42"/>
<path fill-rule="evenodd" clip-rule="evenodd" d="M96.7852 122.146C101.869 122.763 106.468 125.536 105.829 132.537C105.829 132.537 105.729 125.883 99.9575 124.053C99.9575 124.053 104.025 126.242 104.435 131.916C104.688 135.349 104.606 138.798 104.191 142.215C104.191 142.215 108.14 144.433 110.78 150.326C110.78 150.326 109.301 145.076 106.65 142.163C114.784 147.113 110.347 156.481 120.607 158.31C112.824 151.96 116.64 142.226 111.327 133.01C112.638 134.16 113.69 135.577 114.41 137.165C112.902 133.099 110.65 123.92 115.889 116.142C113.73 125.148 115.712 138.955 127.048 143.768C127.048 143.768 121.705 139.982 120.585 133.018C120.585 133.018 123.328 139.08 129.747 140.722C129.747 140.722 135.049 135.125 142.883 134.877C142.883 134.877 138.957 133.905 133.33 136.171C133.33 136.171 137.263 132.411 146.344 132.844C146.344 132.844 138.166 120.109 123.742 110.364C119.524 107.514 115.416 109.939 112.133 116.649C112.133 116.649 112.979 111.998 117.379 107.293L116.137 106.527C106.025 114.826 86.4363 120.253 74.0762 119.237C79.5815 123.07 96.7667 121.798 102.305 119.089C100.597 120.327 98.7463 121.356 96.7925 122.153" fill="#E2B164"/>
<path fill-rule="evenodd" clip-rule="evenodd" d="M107.445 133.28C106.524 141.812 111.164 141.782 112.621 147.76C112.621 147.76 112.647 142.832 110.802 139.258C110.802 139.258 112.451 140.788 112.976 144.111C113.175 140.093 111.449 134.688 107.43 133.291M96.7852 122.146C101.869 122.763 106.468 125.535 105.829 132.537C105.829 132.537 105.729 125.883 99.9574 124.053C99.9574 124.053 104.025 126.242 104.435 131.916C104.688 135.349 104.606 138.798 104.191 142.215C104.191 142.215 108.14 144.433 110.78 150.325C110.78 150.325 109.301 145.076 106.65 142.163C114.784 147.113 110.347 156.48 120.607 158.31C112.824 151.959 116.64 142.226 111.327 133.01C112.638 134.16 113.69 135.577 114.41 137.165C112.909 133.121 110.669 123.99 115.819 116.235C116.492 113.567 117.888 111.137 119.853 109.211C117.183 109.429 114.677 111.773 112.458 115.968L112.114 116.652C109.46 121.909 108.454 128.182 108.454 128.182C106.805 121.469 100.808 120.922 96.7852 122.146Z" fill="#B26F42"/>
<path fill-rule="evenodd" clip-rule="evenodd" d="M116.026 108.86C116.429 108.338 116.88 107.813 117.371 107.285L116.129 106.52C106.017 114.819 86.4285 120.245 74.0684 119.229C79.4812 122.999 96.2079 121.816 102.02 119.229C102.127 119.173 110.469 114.893 116.026 108.878" fill="#B26F42"/>
<path fill-rule="evenodd" clip-rule="evenodd" d="M133.946 137.546C136.656 135.932 139.724 135.015 142.876 134.877C142.876 134.877 138.949 133.904 133.322 136.17C133.322 136.17 137.256 132.411 146.336 132.843C146.336 132.843 140.343 123.513 129.576 114.73C129.443 114.656 121.527 110.053 119.224 113.709C116.92 117.365 118.351 130.965 126.178 134.621C123.059 131.618 120.962 127.71 120.185 123.45C120.185 123.45 122.773 132.854 133.935 137.568" fill="#FFF7D0"/>
<path fill-rule="evenodd" clip-rule="evenodd" d="M129.613 148.119C129.613 148.119 133.643 137.52 144.817 136.452C144.817 136.452 148.551 141.225 148.721 152.444C149.506 147.669 149.244 142.78 147.952 138.116C147.952 138.116 153.228 147.272 151.187 164.536C148.119 165.313 144.98 165.775 141.818 165.915C141.818 165.915 147.531 166.761 151.535 165.778C148.207 168.329 137.836 169.922 134.013 167.353C132.164 166.122 131.773 163.911 132.102 160.569C132.553 156.041 129.935 151.697 129.935 151.697C129.935 151.697 133.163 154.104 133.148 160.876C133.148 160.876 134.017 156.747 132.974 153.043C131.932 149.339 129.613 148.13 129.613 148.13" fill="#E2B164"/>
<path fill-rule="evenodd" clip-rule="evenodd" d="M146.27 139.135C147.335 141.638 148.621 145.967 148.721 152.444C149.506 147.668 149.244 142.779 147.952 138.115C147.952 138.115 153.228 147.272 151.187 164.535C148.119 165.313 144.98 165.775 141.818 165.914C141.818 165.914 147.531 166.761 151.535 165.777C149.849 167.068 146.359 168.11 142.835 168.498C136.764 155.93 140.768 145.464 140.768 145.464C139.94 153.87 143.863 158.916 143.863 158.916C139.474 143.945 146.27 139.135 146.27 139.135Z" fill="#FFF7D0"/>
<path fill-rule="evenodd" clip-rule="evenodd" d="M98.7373 147.456C104.745 148.935 106.199 156.151 110.062 160.184C114.432 164.749 121.816 168.531 131.588 166.439C131.588 166.439 121.934 167.307 116.64 163.027C116.64 163.027 123.631 166.354 131.059 164.845C131.059 164.845 130.638 163.367 130.923 162.332C130.923 162.332 118.414 164.18 112.436 155.84C106.457 147.501 105.348 143.641 99.4953 143.822C99.2071 144.029 98.9702 144.3 98.8029 144.612C98.6356 144.925 98.5424 145.272 98.5303 145.626C98.5303 145.626 105.903 145.948 108.861 155.999C107.278 151.371 103.769 147.867 98.7484 147.456" fill="#B26F42"/>
<path fill-rule="evenodd" clip-rule="evenodd" d="M100.519 141.343C101.384 141.427 102.185 141.837 102.76 142.489C102.34 142.192 101.849 142.012 101.336 141.967C99.4693 141.801 97.7981 143.494 97.5984 145.742C97.3987 147.989 98.7594 149.945 100.623 150.107C101.131 150.148 101.641 150.055 102.102 149.838C101.423 150.379 100.564 150.643 99.6985 150.577C97.5836 150.392 96.0455 148.17 96.2674 145.62C96.4892 143.069 98.3933 141.15 100.508 141.339" fill="#B26F42"/>
<path fill-rule="evenodd" clip-rule="evenodd" d="M84.0366 79.5342C84.8494 79.5335 85.6441 79.7738 86.3202 80.2248C86.9962 80.6758 87.5233 81.3172 87.8347 82.0678C88.146 82.8184 88.2277 83.6445 88.0693 84.4415C87.911 85.2385 87.5196 85.9707 86.9449 86.5453C86.3702 87.1199 85.638 87.5111 84.8408 87.6695C84.0436 87.8278 83.2174 87.7462 82.4667 87.4349C81.7159 87.1236 81.0744 86.5966 80.6234 85.9206C80.1723 85.2447 79.9319 84.4501 79.9326 83.6375C79.9326 82.5492 80.365 81.5055 81.1347 80.736C81.9043 79.9665 82.9482 79.5342 84.0366 79.5342Z" fill="#FFF7D0"/>
<path fill-rule="evenodd" clip-rule="evenodd" d="M90.0296 87.0459C90.3695 87.0466 90.7015 87.1481 90.9838 87.3374C91.266 87.5267 91.4858 87.7955 91.6154 88.1096C91.7449 88.4238 91.7784 88.7693 91.7117 89.1025C91.6449 89.4357 91.4809 89.7416 91.2403 89.9817C90.9997 90.2217 90.6934 90.385 90.36 90.4511C90.0266 90.5171 89.6811 90.4828 89.3671 90.3526C89.0532 90.2224 88.7849 90.0021 88.5962 89.7195C88.4074 89.4369 88.3066 89.1047 88.3066 88.7649C88.3062 88.5387 88.3504 88.3146 88.4369 88.1056C88.5233 87.8966 88.6503 87.7068 88.8104 87.547C88.9706 87.3872 89.1607 87.2607 89.37 87.1747C89.5792 87.0887 89.8034 87.0449 90.0296 87.0459Z" fill="#FFF7D0"/>
<path fill-rule="evenodd" clip-rule="evenodd" d="M151.32 115.621C152.474 125.476 153.539 135.258 154.13 140.718L152.015 141.261C149.553 129.147 140.897 121.185 140.897 121.185C144.878 120.494 148.532 118.544 151.32 115.621Z" fill="#B26F42"/>
<path fill-rule="evenodd" clip-rule="evenodd" d="M140.573 117.747C139.911 117.911 139.235 118.012 138.554 118.046C134.224 112.871 130.013 110.024 126.135 107.585C125.876 105.762 125.443 102.565 125.31 100.676C127.529 96.0252 131.115 88.9201 135.995 86.3694L137.448 96.6795C133.093 99.1932 134.121 105.777 139.038 106.823L140.573 117.747ZM140.813 99.8179C142.957 99.8179 142.957 103.075 140.813 103.075C138.669 103.075 138.669 99.8179 140.82 99.8179H140.813ZM140.813 98.2875C140.189 98.2875 139.578 98.4727 139.059 98.8196C138.54 99.1665 138.135 99.6595 137.896 100.236C137.657 100.813 137.594 101.448 137.716 102.06C137.838 102.673 138.139 103.235 138.58 103.677C139.022 104.118 139.585 104.419 140.197 104.541C140.81 104.663 141.444 104.6 142.021 104.361C142.598 104.122 143.091 103.718 143.438 103.198C143.785 102.679 143.971 102.069 143.971 101.444C143.97 100.609 143.638 99.8075 143.047 99.2159C142.457 98.6242 141.656 98.2905 140.82 98.2875H140.813ZM149.176 102.945L150.064 110.039C150.064 110.039 148.855 113.366 145.479 114.083C145.479 114.083 148.659 111.925 149.176 110.091V102.945ZM120.522 83.8594C127.14 82.3105 146.37 78.684 148.182 88.4728C148.955 92.7203 150.082 101.278 151.195 110.52C149.676 114.475 145.76 116.383 142.51 117.303L141.031 106.897C142.022 106.745 142.952 106.322 143.719 105.677C142.966 106.151 142.1 106.413 141.211 106.439C140.322 106.464 139.442 106.25 138.664 105.82C137.885 105.39 137.236 104.759 136.784 103.993C136.332 103.227 136.094 102.354 136.094 101.465C136.094 100.576 136.332 99.7024 136.784 98.9365C137.236 98.1705 137.885 97.5397 138.664 97.1096C139.442 96.6796 140.322 96.466 141.211 96.4911C142.1 96.5162 142.966 96.7791 143.719 97.2524C143.139 96.7642 142.464 96.4016 141.737 96.1878C141.009 95.974 140.245 95.9136 139.493 96.0104L138.014 85.6338C139.001 85.4268 140.358 85.4416 141.257 85.9776C133.57 80.0185 125.787 93.4634 123.465 98.6683L120.23 99.9843L122.818 100.432L123.443 105.925C121.513 104.773 119.494 103.778 117.405 102.949C122.334 93.0752 120.522 83.8668 120.522 83.8594Z" fill="#FFF7D0"/>
<path fill-rule="evenodd" clip-rule="evenodd" d="M149.176 102.945L150.064 110.039C150.064 110.039 148.855 113.366 145.479 114.083C145.479 114.083 148.659 111.924 149.176 110.091V102.945ZM148.858 92.5943C149.546 97.2115 150.374 103.684 151.195 110.508C149.675 114.464 145.76 116.371 142.51 117.292L141.031 106.886C142.022 106.733 142.952 106.311 143.719 105.666C142.647 106.345 141.354 106.584 140.11 106.331C143.294 106.39 144.059 104.719 144.059 104.719L143.763 103.204L143.608 102.912C143.847 102.462 143.974 101.961 143.978 101.452C143.979 101.001 143.883 100.556 143.697 100.147C145.413 98.801 146.804 97.0849 147.764 95.1265C147.45 97.9286 145.642 100.213 145.642 100.213C149.539 96.8122 148.858 92.6202 148.858 92.5869V92.5943Z" fill="#E2B164"/>
<path fill-rule="evenodd" clip-rule="evenodd" d="M149.176 102.945L150.063 110.039C150.063 110.039 148.854 113.366 145.478 114.083C145.478 114.083 148.658 111.924 149.176 110.09V102.945ZM149.882 99.9873C150.307 103.229 150.751 106.808 151.195 110.493C149.675 114.449 145.759 116.356 142.51 117.277L141.692 111.477C145.075 110.634 147.153 106.73 147.153 106.73C146.772 108.406 146.09 109.999 145.142 111.432C148.081 109.052 148.055 106.153 147.985 103.669C147.966 102.947 148.13 102.231 148.462 101.589C148.793 100.946 149.282 100.398 149.882 99.9947V99.9873Z" fill="#B26F42"/>
<path fill-rule="evenodd" clip-rule="evenodd" d="M140.821 99.8181C142.965 99.8181 142.965 103.075 140.821 103.075C138.676 103.075 138.676 99.8181 140.821 99.8181ZM140.821 98.2877C140.196 98.2877 139.586 98.4728 139.066 98.8197C138.547 99.1666 138.142 99.6597 137.903 100.237C137.664 100.813 137.602 101.448 137.724 102.061C137.846 102.673 138.146 103.235 138.588 103.677C139.029 104.118 139.592 104.419 140.205 104.541C140.817 104.663 141.452 104.6 142.029 104.361C142.606 104.122 143.099 103.718 143.446 103.199C143.793 102.679 143.978 102.069 143.978 101.445C143.977 100.608 143.644 99.8052 143.052 99.2134C142.46 98.6216 141.658 98.2886 140.821 98.2877ZM141.482 97.4707C142.337 97.4707 143.173 97.7242 143.884 98.1992C144.595 98.6742 145.149 99.3494 145.476 100.139C145.803 100.929 145.888 101.798 145.721 102.637C145.554 103.475 145.142 104.245 144.537 104.849C143.932 105.453 143.162 105.865 142.323 106.031C141.485 106.197 140.615 106.111 139.826 105.784C139.036 105.456 138.361 104.901 137.887 104.19C137.412 103.479 137.159 102.643 137.16 101.788C137.161 100.644 137.616 99.5471 138.425 98.7377C139.234 97.9283 140.331 97.4727 141.475 97.4707H141.482Z" fill="#E2B164"/>
<path fill-rule="evenodd" clip-rule="evenodd" d="M126.175 98.8859C129.562 101.503 133.548 105.13 135.766 109.063C135.766 109.063 133.548 102.76 129.318 99.4515C129.318 99.4515 132.102 100.438 135.134 103.566C135.464 104.39 135.994 105.118 136.675 105.687C137.357 106.255 138.169 106.646 139.038 106.823L140.573 117.746C139.911 117.911 139.235 118.011 138.554 118.046C134.224 112.87 130.013 110.024 126.135 107.584C126.02 106.793 125.136 101.037 125.373 100.542L126.175 98.8859ZM124.094 97.3407L123.48 98.6493L120.245 99.9653L122.833 100.413L123.443 105.924C121.513 104.773 119.494 103.777 117.405 102.949C118.694 100.359 119.629 97.6092 120.186 94.7715C120.186 94.7715 121.831 95.7326 124.094 97.3407Z" fill="#E2B164"/>
<path fill-rule="evenodd" clip-rule="evenodd" d="M139.869 112.738C139.869 112.738 132.845 107.452 125.638 104.058C125.838 105.622 126.078 107.189 126.134 107.573C130.012 110.013 134.224 112.852 138.553 118.035C139.234 118 139.91 117.9 140.572 117.736L139.869 112.738ZM123.113 102.96L123.446 105.917C121.516 104.766 119.497 103.77 117.408 102.942C117.652 102.457 117.878 101.969 118.096 101.463C119.816 101.79 121.498 102.295 123.113 102.971V102.96Z" fill="#B26F42"/>
<path fill-rule="evenodd" clip-rule="evenodd" d="M18.0317 88.7091C25.2784 90.7201 30.7209 93.9029 30.1885 95.8326C29.6561 97.7623 23.3484 97.6809 16.1017 95.681C8.8549 93.6811 3.41244 90.4872 3.94855 88.5649C4.48466 86.6427 10.7849 86.7166 18.0317 88.7091ZM17.9725 88.2507C27.1936 90.8014 34.1224 94.8567 33.4458 97.3076C32.7692 99.7585 24.7386 99.6734 15.5138 97.119C6.28896 94.5646 -0.636135 90.5094 0.0441735 88.0622C0.724482 85.615 8.75137 85.7 17.9725 88.2544V88.2507Z" fill="#FFF7D0"/>
<path fill-rule="evenodd" clip-rule="evenodd" d="M22.4614 99.7623C21.3168 100.596 19.9987 101.161 18.6053 101.415C17.2119 101.669 15.7792 101.605 14.4141 101.228C13.0489 100.85 11.7865 100.17 10.7209 99.2374C9.65535 98.3046 8.81412 97.1433 8.25997 95.8401L8.69257 96.0139C10.8234 96.8663 13.0009 97.597 15.2146 98.2023C17.4246 98.8201 19.6675 99.3138 21.9327 99.681L22.4614 99.7623ZM16.9154 82.7576C18.4941 82.7573 20.0475 83.1541 21.4326 83.9115C22.8177 84.6689 23.9899 85.7625 24.8414 87.0917C25.6928 88.4209 26.1961 89.9429 26.3048 91.5176C26.4135 93.0923 26.1243 94.669 25.4636 96.1026C24.1232 96.0721 22.7865 95.9486 21.4631 95.7329C19.755 95.4595 18.0639 95.0892 16.3978 94.6239C14.7322 94.1645 13.093 93.6141 11.4877 92.9752C10.1725 92.46 8.89718 91.8484 7.6721 91.1454L7.57227 91.0899C7.8363 88.7954 8.93499 86.678 10.6592 85.1409C12.3834 83.6038 14.6127 82.7542 16.9228 82.7539L16.9154 82.7576Z" fill="#E2B164"/>
<path fill-rule="evenodd" clip-rule="evenodd" d="M16.9225 82.7538C18.225 82.7476 19.5146 83.0132 20.7086 83.5338C20.7086 83.5597 18.2646 87.1381 12.4487 87.4967C12.4487 87.4967 16.2311 86.4357 17.673 84.872C17.673 84.872 12.7038 87.4227 8.75879 87.4597C9.58245 86.0228 10.7713 84.8291 12.2049 83.9994C13.6386 83.1698 15.266 82.7337 16.9225 82.7354" fill="#E7D8BB"/>
<path fill-rule="evenodd" clip-rule="evenodd" d="M22.4614 99.7622C21.3168 100.596 19.9987 101.161 18.6053 101.415C17.2119 101.668 15.7792 101.604 14.4141 101.227C13.0489 100.85 11.7865 100.17 10.7209 99.2373C9.65535 98.3044 8.81412 97.1432 8.25997 95.84L8.69257 96.0138C10.8234 96.8662 13.0009 97.5969 15.2146 98.2022C17.4246 98.82 19.6675 99.3137 21.9327 99.6809L22.4614 99.7622ZM23.5706 85.5078C24.9321 86.8682 25.8435 88.6133 26.182 90.5078C26.5205 92.4023 26.2698 94.3549 25.4636 96.1025C24.1232 96.072 22.7865 95.9485 21.4631 95.7328C19.755 95.4594 18.0639 95.0891 16.3978 94.6238C14.7322 94.1644 13.093 93.614 11.4877 92.9751C10.1725 92.4599 8.89718 91.8483 7.6721 91.1452L7.57227 91.0898C14.9041 93.5185 19.633 90.3135 19.633 90.3135C16.1242 91.5815 13.414 90.4651 13.414 90.4651C20.6756 91.5778 23.5706 85.5078 23.5706 85.5078Z" fill="#B26F42"/>
<path fill-rule="evenodd" clip-rule="evenodd" d="M168.55 75.0908C166.584 75.0901 164.661 75.6725 163.026 76.7643C161.39 77.8561 160.115 79.4083 159.362 81.2246C158.609 83.0409 158.412 85.0397 158.795 86.9682C159.178 88.8967 160.125 90.6682 161.515 92.0588C162.905 93.4493 164.677 94.3964 166.606 94.7803C168.534 95.1641 170.534 94.9675 172.35 94.2152C174.167 93.463 175.72 92.1889 176.813 90.5541C177.906 88.9194 178.489 86.9974 178.489 85.0312C178.489 83.726 178.232 82.4335 177.733 81.2275C177.234 80.0215 176.502 78.9256 175.579 78.0025C174.656 77.0794 173.56 76.3471 172.354 75.8476C171.148 75.348 169.856 75.0908 168.55 75.0908Z" fill="#1A0A2A"/>
<path fill-rule="evenodd" clip-rule="evenodd" d="M168.55 77.2794C167.492 77.2141 166.432 77.366 165.435 77.7258C164.438 78.0856 163.525 78.6457 162.753 79.3716C161.981 80.0975 161.365 80.9738 160.944 81.9466C160.524 82.9193 160.307 83.9679 160.307 85.0277C160.307 86.0875 160.524 87.136 160.944 88.1088C161.365 89.0815 161.981 89.9578 162.753 90.6838C163.525 91.4097 164.438 91.9698 165.435 92.3296C166.432 92.6894 167.492 92.8413 168.55 92.7759C169.046 92.7757 169.541 92.7286 170.029 92.6354C168.274 92.2791 166.696 91.327 165.562 89.9405C164.429 88.554 163.81 86.8184 163.81 85.0277C163.81 83.237 164.429 81.5013 165.562 80.1148C166.696 78.7283 168.274 77.7763 170.029 77.4199C169.542 77.3237 169.047 77.2754 168.55 77.2757" fill="#FFF7D0"/>
<path fill-rule="evenodd" clip-rule="evenodd" d="M185.498 138.3C186.47 138.301 187.43 138.505 188.317 138.899C189.205 139.292 190.001 139.867 190.653 140.587C191.305 141.306 191.8 142.154 192.105 143.075C192.411 143.997 192.52 144.973 192.426 145.939C192.332 146.905 192.037 147.841 191.56 148.687C191.082 149.533 190.434 150.269 189.655 150.849C188.876 151.43 187.985 151.841 187.038 152.056C186.091 152.271 185.109 152.286 184.156 152.1C185.746 151.794 187.179 150.944 188.21 149.696C189.241 148.448 189.805 146.88 189.805 145.261C189.805 143.643 189.241 142.075 188.21 140.827C187.179 139.579 185.746 138.728 184.156 138.422C184.598 138.336 185.048 138.293 185.498 138.293" fill="#1A0A2A"/>
<path fill-rule="evenodd" clip-rule="evenodd" d="M183.254 93.4893C184.44 93.523 185.566 94.0179 186.393 94.8686C187.22 95.7194 187.683 96.859 187.683 98.0454C187.683 99.2318 187.22 100.371 186.393 101.222C185.566 102.073 184.44 102.568 183.254 102.602C182.959 102.601 182.664 102.573 182.374 102.517C183.412 102.315 184.348 101.759 185.021 100.943C185.694 100.128 186.063 99.1029 186.063 98.0454C186.063 96.9879 185.694 95.9633 185.021 95.1475C184.348 94.3317 183.412 93.7755 182.374 93.5743C182.664 93.5178 182.959 93.4894 183.254 93.4893Z" fill="#1A0A2A"/>
<path fill-rule="evenodd" clip-rule="evenodd" d="M190.937 114.416C192.352 114.453 193.698 115.041 194.686 116.055C195.674 117.069 196.227 118.429 196.227 119.845C196.227 121.26 195.674 122.62 194.686 123.634C193.698 124.648 192.352 125.236 190.937 125.273C190.586 125.272 190.236 125.239 189.891 125.173C191.125 124.929 192.236 124.264 193.035 123.292C193.833 122.32 194.27 121.101 194.27 119.843C194.27 118.585 193.833 117.366 193.035 116.394C192.236 115.422 191.125 114.757 189.891 114.512C190.235 114.446 190.586 114.414 190.937 114.416Z" fill="#1A0A2A"/>
<path fill-rule="evenodd" clip-rule="evenodd" d="M167.581 125.328C166.168 125.327 164.785 125.746 163.61 126.531C162.434 127.315 161.517 128.431 160.976 129.737C160.434 131.042 160.292 132.479 160.568 133.866C160.843 135.252 161.523 136.526 162.523 137.525C163.522 138.525 164.795 139.206 166.182 139.482C167.568 139.758 169.006 139.617 170.312 139.076C171.618 138.535 172.734 137.619 173.52 136.444C174.305 135.269 174.725 133.887 174.725 132.474C174.725 130.579 173.972 128.762 172.633 127.422C171.293 126.082 169.476 125.329 167.581 125.328Z" fill="#1A0A2A"/>
<path fill-rule="evenodd" clip-rule="evenodd" d="M167.581 126.899C166.103 126.899 164.685 127.487 163.639 128.532C162.593 129.578 162.006 130.996 162.006 132.474C162.006 133.953 162.593 135.37 163.639 136.416C164.685 137.461 166.103 138.049 167.581 138.049C167.941 138.048 168.3 138.013 168.654 137.945C167.385 137.697 166.241 137.016 165.419 136.018C164.597 135.02 164.148 133.767 164.148 132.474C164.148 131.181 164.597 129.928 165.419 128.93C166.241 127.932 167.385 127.251 168.654 127.003C168.301 126.933 167.941 126.898 167.581 126.899Z" fill="#FFF7D0"/>
<path fill-rule="evenodd" clip-rule="evenodd" d="M172.987 156.728C173.788 157.18 174.492 157.787 175.057 158.513C175.622 159.239 176.038 160.07 176.28 160.957C176.522 161.845 176.586 162.772 176.468 163.684C176.35 164.596 176.052 165.476 175.592 166.273C175.132 167.07 174.519 167.768 173.787 168.326C173.056 168.884 172.221 169.292 171.331 169.526C170.442 169.76 169.514 169.816 168.603 169.689C167.691 169.563 166.814 169.257 166.021 168.79C165.627 168.565 165.256 168.302 164.912 168.006C166.438 168.527 168.098 168.502 169.608 167.935C171.118 167.369 172.385 166.296 173.192 164.9C173.999 163.504 174.297 161.872 174.034 160.281C173.772 158.69 172.965 157.239 171.752 156.177C172.181 156.318 172.595 156.503 172.987 156.728Z" fill="#1A0A2A"/>
<path fill-rule="evenodd" clip-rule="evenodd" d="M158.09 184.605C158.729 184.959 159.291 185.436 159.743 186.009C160.196 186.583 160.529 187.24 160.725 187.944C160.92 188.648 160.973 189.383 160.881 190.107C160.789 190.832 160.553 191.531 160.188 192.163C159.823 192.795 159.335 193.349 158.754 193.79C158.172 194.232 157.508 194.554 156.801 194.736C156.094 194.919 155.358 194.959 154.635 194.854C153.912 194.749 153.218 194.5 152.592 194.124C152.284 193.948 151.996 193.741 151.73 193.507C152.936 193.918 154.247 193.899 155.439 193.451C156.632 193.004 157.632 192.156 158.269 191.053C158.906 189.95 159.14 188.661 158.931 187.404C158.723 186.148 158.084 185.003 157.125 184.165C157.46 184.28 157.783 184.428 158.09 184.605Z" fill="#1A0A2A"/>
<path fill-rule="evenodd" clip-rule="evenodd" d="M56.5209 56.7362C55.3489 45.698 51.2153 39.1622 42.8408 38.1419C51.2079 37.1216 55.3415 30.5859 56.5209 19.5439C57.693 30.5859 61.8229 37.1216 70.201 38.1419C61.8266 39.1622 57.6967 45.698 56.5209 56.7362Z" fill="#E2B164"/>
<path fill-rule="evenodd" clip-rule="evenodd" d="M56.5209 56.7362C55.3489 45.698 51.2153 39.1622 42.8408 38.1419C51.2079 37.1216 55.3415 30.5859 56.5209 19.5439V56.7362Z" fill="#FFF7D0"/>
<path fill-rule="evenodd" clip-rule="evenodd" d="M64.0484 37.4802C60.8576 35.5099 58.7169 32.4712 57.3008 28.915C57.53 33.3067 59.7299 36.3528 64.0484 37.4802Z" fill="#1A0A2A"/>
<path fill-rule="evenodd" clip-rule="evenodd" d="M89.7046 40.7077C88.9171 33.3144 86.1552 28.9523 80.5537 28.2684C86.1552 27.5845 88.9171 23.2151 89.7046 15.8291C90.4847 23.2225 93.2503 27.5845 98.8518 28.2684C93.2503 28.9523 90.4847 33.3255 89.7046 40.7077Z" fill="#E2B164"/>
<path fill-rule="evenodd" clip-rule="evenodd" d="M89.7046 40.7077C88.9171 33.3144 86.1552 28.9523 80.5537 28.2684C86.1552 27.5845 88.9171 23.2151 89.7046 15.8291V40.7077Z" fill="#FFF7D0"/>
<path fill-rule="evenodd" clip-rule="evenodd" d="M94.7478 27.8248C92.6108 26.5125 91.1799 24.4793 90.2334 22.0986C90.385 25.0375 91.8565 27.0744 94.7478 27.8248Z" fill="#1A0A2A"/>
<path fill-rule="evenodd" clip-rule="evenodd" d="M73.1888 18.2504C72.5529 12.2433 70.3012 8.6834 65.7461 8.1289C70.3012 7.5707 72.5529 4.0145 73.1888 -2C73.8321 4.0145 76.0801 7.5707 80.6352 8.1289C76.0801 8.6834 73.8321 12.2433 73.1888 18.2504Z" fill="#E2B164"/>
<path fill-rule="evenodd" clip-rule="evenodd" d="M73.1888 18.2504C72.5529 12.2433 70.3012 8.6834 65.7461 8.1289C70.3012 7.5707 72.5529 4.0145 73.1888 -2V18.2504Z" fill="#FFF7D0"/>
<path fill-rule="evenodd" clip-rule="evenodd" d="M77.2962 7.75136C75.5585 6.67932 74.3901 5.0269 73.6211 3.08984C73.7431 5.48159 74.9447 7.13771 77.2962 7.75136Z" fill="#1A0A2A"/>
<path fill-rule="evenodd" clip-rule="evenodd" d="M50.7092 140.496C42.1795 140.008 34.918 134.005 34.918 134.005C39.2254 138.618 44.1798 141.724 50.7092 140.496Z" fill="#1A0A2A"/>
</g>
<defs>
<clipPath id="clip0_1181_34924">
<rect width="204" height="267" fill="white" transform="translate(0 -2)"/>
</clipPath>
</defs>
</svg>
