<svg width="701" height="346" viewBox="0 0 701 346" fill="none" xmlns="http://www.w3.org/2000/svg">
<g clip-path="url(#clip0_982_39545)">
<path d="M526.482 178.846C522.865 165.783 517.185 152.901 509.815 142.148C501.573 130.123 492.122 121.277 480.875 112.252C468.919 102.66 457.218 92.6591 446.72 81.4651C436.284 70.3371 429.128 57.7221 420.266 45.5331C403.707 22.7581 377.742 8.61208 350.45 3.40708C307.216 -4.83792 260.696 4.45108 224.767 30.1391C187.282 56.9391 164.694 100.927 157.191 145.731C151.971 176.9 153.845 209.796 165.217 239.454C166.214 242.054 167.28 244.627 168.432 247.163C184.774 283.152 216.879 313.198 253.276 328.329C317.944 355.213 393.51 336.322 438.561 319.61C495.912 298.336 544.326 243.289 526.482 178.846Z" fill="#263238" stroke="#263238" stroke-width="2" stroke-miterlimit="10"/>
<path d="M411.942 176.256H392.541L397.826 133.824V126.226H406.657V133.824L411.942 176.256Z" fill="white" stroke="#263238" stroke-miterlimit="10" stroke-linecap="round" stroke-linejoin="round"/>
<path d="M446.024 176.257H427.656L432.425 134.008V126.227H441.256V133.825L446.024 176.257Z" fill="white" stroke="#263238" stroke-miterlimit="10" stroke-linecap="round" stroke-linejoin="round"/>
<path d="M403.379 34.9646C403.038 33.9806 401.647 33.9806 401.306 34.9646L399.835 39.2116C398.253 43.7786 397.445 48.5776 397.445 53.4106V131.106H407.24V53.4106C407.24 48.5776 406.432 43.7786 404.85 39.2116L403.379 34.9646Z" fill="white" stroke="#263238" stroke-miterlimit="10" stroke-linecap="round" stroke-linejoin="round"/>
<path d="M408.75 130.468H395.934V136.509H408.75V130.468Z" fill="#263238" stroke="white" stroke-miterlimit="10" stroke-linecap="round" stroke-linejoin="round"/>
<path d="M438.038 34.9646C437.697 33.9806 436.306 33.9806 435.965 34.9646L434.494 39.2106C432.912 43.7776 432.104 48.5766 432.104 53.4096V131.105H441.899V53.4096C441.899 48.5766 441.091 43.7776 439.509 39.2106L438.038 34.9646Z" fill="white" stroke="#263238" stroke-miterlimit="10" stroke-linecap="round" stroke-linejoin="round"/>
<path d="M420.737 13.2629C420.301 12.6259 419.362 12.6259 418.926 13.2629L415.701 18.6809C412.077 24.7699 410.164 31.7239 410.164 38.8089V112.979H429.498V38.8089C429.498 31.7239 427.585 24.7689 423.961 18.6809L420.737 13.2629Z" fill="#263238" stroke="white" stroke-miterlimit="10" stroke-linecap="round" stroke-linejoin="round"/>
<path d="M443.41 130.468H430.594V136.509H443.41V130.468Z" fill="#263238" stroke="white" stroke-miterlimit="10" stroke-linecap="round" stroke-linejoin="round"/>
<path d="M413.859 60.0714C413.859 60.0714 408.655 86.3274 398.484 96.4994C393.576 101.407 390.926 104.773 389.498 106.942C388.414 108.589 387.84 110.512 387.84 112.485V122.519H415.989V57.2334L413.859 60.0714Z" fill="white" stroke="#263238" stroke-miterlimit="10" stroke-linecap="round" stroke-linejoin="round"/>
<path d="M388.076 118.498H413.386" stroke="#263238" stroke-miterlimit="10" stroke-linecap="round" stroke-linejoin="round"/>
<path d="M425.805 60.4269C425.805 60.4269 431.009 86.6829 441.18 96.8549C446.088 101.763 448.738 105.129 450.166 107.298C451.25 108.945 451.824 110.869 451.824 112.841V122.875H423.676V57.5889L425.805 60.4269Z" fill="white" stroke="#263238" stroke-miterlimit="10" stroke-linecap="round" stroke-linejoin="round"/>
<path d="M426.16 118.498H451.47" stroke="#263238" stroke-miterlimit="10" stroke-linecap="round" stroke-linejoin="round"/>
<path d="M420.433 41.4225C420.08 41.3865 419.723 41.3865 419.37 41.4225C417.207 41.6445 415.542 43.4505 415.253 45.6045L415.206 45.8335C414.273 50.3845 413.125 56.2865 413.125 61.4485V124.04H426.677V61.4485C426.677 56.2865 425.529 50.3855 424.596 45.8335L424.549 45.6045C424.26 43.4495 422.595 41.6435 420.433 41.4225Z" fill="white" stroke="#263238" stroke-miterlimit="10" stroke-linecap="round" stroke-linejoin="round"/>
<path d="M418.715 123.534H411.871V114.479C411.871 112.648 413.355 111.164 415.186 111.164H415.401C417.232 111.164 418.716 112.648 418.716 114.479V123.534H418.715Z" fill="white" stroke="#263238" stroke-miterlimit="10" stroke-linecap="round" stroke-linejoin="round"/>
<path d="M419.771 122.898H410.816V128.939H419.771V122.898Z" fill="#263238" stroke="#263238" stroke-miterlimit="10" stroke-linecap="round" stroke-linejoin="round"/>
<path d="M427.942 123.534H421.098V114.479C421.098 112.648 422.582 111.164 424.413 111.164H424.628C426.459 111.164 427.943 112.648 427.943 114.479V123.534H427.942Z" fill="white" stroke="#263238" stroke-miterlimit="10" stroke-linecap="round" stroke-linejoin="round"/>
<path d="M428.996 122.898H420.041V128.939H428.996V122.898Z" fill="#263238" stroke="#263238" stroke-miterlimit="10" stroke-linecap="round" stroke-linejoin="round"/>
<path d="M420.435 41.4225C420.082 41.3865 419.725 41.3865 419.372 41.4225C417.358 41.6285 415.791 43.2135 415.35 45.1695H424.458C424.015 43.2135 422.448 41.6285 420.435 41.4225Z" fill="#263238" stroke="#263238" stroke-miterlimit="10" stroke-linecap="round" stroke-linejoin="round"/>
<path d="M417.171 52.6348C415.339 53.7998 414.096 56.0578 414.096 58.6528C414.096 58.8128 414.107 58.9688 414.116 59.1258C414.257 56.7338 415.455 54.6828 417.171 53.5878V52.6348Z" fill="#263238"/>
<path d="M422.139 52.259C421.478 51.962 420.762 51.793 420.01 51.793C419.258 51.793 418.542 51.962 417.881 52.259V53.202C418.542 52.905 419.259 52.739 420.01 52.739C420.761 52.739 421.478 52.905 422.139 53.202V52.259Z" fill="#263238"/>
<path d="M422.848 52.6348V53.5878C424.564 54.6828 425.762 56.7338 425.903 59.1258C425.912 58.9688 425.924 58.8128 425.924 58.6528C425.923 56.0578 424.68 53.7998 422.848 52.6348Z" fill="#263238"/>
<path d="M424.164 44.2735C423.507 42.7465 422.128 41.5955 420.433 41.4215C420.08 41.3855 419.723 41.3855 419.37 41.4215C417.719 41.5905 416.367 42.6875 415.691 44.1555" stroke="white" stroke-width="0.5" stroke-miterlimit="10" stroke-linecap="round" stroke-linejoin="round"/>
<mask id="mask0_982_39545" style="mask-type:luminance" maskUnits="userSpaceOnUse" x="154" y="0" width="377" height="342">
<path d="M526.482 178.846C522.865 165.783 517.185 152.901 509.815 142.148C501.573 130.123 492.122 121.277 480.875 112.252C468.919 102.66 457.218 92.6591 446.72 81.4651C436.284 70.3371 429.128 57.7221 420.266 45.5331C403.707 22.7581 377.742 8.61208 350.45 3.40708C307.216 -4.83792 260.696 4.45108 224.767 30.1391C187.282 56.9391 164.694 100.927 157.191 145.731C151.971 176.9 153.845 209.796 165.217 239.454C166.214 242.054 167.28 244.627 168.432 247.163C184.774 283.152 216.879 313.198 253.276 328.329C317.944 355.213 393.51 336.322 438.561 319.61C495.912 298.336 544.326 243.289 526.482 178.846Z" fill="white"/>
</mask>
<g mask="url(#mask0_982_39545)">
<path d="M546.45 177.163C530.966 170.497 513.009 177.645 506.343 193.13C506.272 193.295 506.211 193.462 506.143 193.628C505.477 193.412 504.803 193.264 504.128 193.162C503.384 186.674 499.299 180.751 492.871 177.983C483.562 173.975 472.824 178.073 468.47 187.12C467.613 186.149 466.541 185.342 465.273 184.796C463.857 184.186 462.371 183.969 460.936 184.09C461.925 177.883 458.655 171.561 452.617 168.962C448.433 167.161 443.864 167.561 440.175 169.628C439.158 168.013 437.661 166.677 435.776 165.866C430.816 163.731 425.064 166.021 422.929 170.98C422.422 172.158 422.172 173.38 422.141 174.589C421.048 174.036 419.841 173.678 418.561 173.568C418.446 172.697 418.22 171.827 417.855 170.98C415.72 166.02 409.968 163.73 405.008 165.866C403.123 166.678 401.626 168.014 400.609 169.628C396.92 167.561 392.351 167.161 388.167 168.962C382.13 171.561 378.859 177.883 379.849 184.09C378.413 183.969 376.928 184.186 375.511 184.796C374.243 185.342 373.171 186.15 372.314 187.12C367.96 178.073 357.222 173.976 347.913 177.983C341.485 180.751 337.4 186.674 336.656 193.162C335.981 193.264 335.308 193.412 334.641 193.628C334.573 193.462 334.513 193.295 334.441 193.13C327.775 177.645 309.818 170.497 294.334 177.163C284.331 181.47 277.814 190.49 276.246 200.51C269.163 204.646 263.776 211.365 261.379 219.379C260.715 219.348 260.048 219.328 259.377 219.328C242.371 219.328 227.728 229.409 221.072 243.917C201.059 245.03 185.172 261.607 185.172 281.899C185.172 302.911 202.206 319.944 223.218 319.944C228.089 319.944 232.741 319.019 237.021 317.351C244.662 328.053 257.174 335.037 271.325 335.037C282.286 335.037 292.267 330.849 299.762 323.989C305.737 339.99 321.156 351.387 339.241 351.387C349.244 351.387 358.427 347.894 365.653 342.071C372.879 347.894 382.062 351.387 392.065 351.387C404.309 351.387 415.329 346.159 423.027 337.82C428.183 340.07 433.872 341.326 439.858 341.326C460.29 341.326 477.32 326.781 481.171 307.482C486.417 309.827 492.224 311.141 498.341 311.141C521.61 311.141 540.474 292.277 540.474 269.008C540.474 266.961 540.32 264.951 540.038 262.982C550.862 257.997 558.38 247.062 558.38 234.364C558.38 231.307 557.936 228.355 557.124 225.56C559.27 223.162 561.077 220.389 562.419 217.27C569.083 201.786 561.934 183.829 546.45 177.163Z" fill="white"/>
</g>
<mask id="mask1_982_39545" style="mask-type:luminance" maskUnits="userSpaceOnUse" x="154" y="0" width="377" height="342">
<path d="M526.482 178.846C522.865 165.783 517.185 152.901 509.815 142.148C501.573 130.123 492.122 121.277 480.875 112.252C468.919 102.66 457.218 92.6591 446.72 81.4651C436.284 70.3371 429.128 57.7221 420.266 45.5331C403.707 22.7581 377.742 8.61208 350.45 3.40708C307.216 -4.83792 260.696 4.45108 224.767 30.1391C187.282 56.9391 164.694 100.927 157.191 145.731C151.971 176.9 153.845 209.796 165.217 239.454C166.214 242.054 167.28 244.627 168.432 247.163C184.774 283.152 216.879 313.198 253.276 328.329C317.944 355.213 393.51 336.322 438.561 319.61C495.912 298.336 544.326 243.289 526.482 178.846Z" fill="white"/>
</mask>
<g mask="url(#mask1_982_39545)">
<path opacity="0.5" d="M558.845 287.824C564.951 281.648 568.528 272.966 567.873 263.454C567.321 255.444 563.702 248.225 558.202 242.958C558.317 241.865 558.378 240.756 558.378 239.632C558.378 222.236 544.275 208.133 526.879 208.133C520.902 208.133 515.315 209.798 510.554 212.688C506.87 207.324 500.696 203.804 493.697 203.804C489.63 203.804 485.844 204.997 482.66 207.044C478.044 199.072 469.428 193.705 459.553 193.705C458.684 193.705 457.826 193.751 456.979 193.833C454.997 190.858 451.614 188.897 447.771 188.897C445.639 188.897 443.654 189.511 441.965 190.556C441.98 190.324 442 190.094 442 189.858C442 183.749 437.048 178.797 430.939 178.797C428.361 178.797 425.995 179.686 424.114 181.165C422.391 179.692 420.159 178.797 417.714 178.797C413.422 178.797 409.782 181.544 408.428 185.372C406.833 184.262 404.897 183.606 402.806 183.606C397.746 183.606 393.582 187.42 393.018 192.329C391.443 191.667 389.714 191.3 387.898 191.3C381.423 191.3 376.056 195.96 374.918 202.105C373.142 200.89 370.996 200.178 368.683 200.178C367.275 200.178 365.934 200.451 364.696 200.933C364.575 200.93 364.456 200.918 364.334 200.918C362.913 200.918 361.535 201.095 360.214 201.414C358.803 200.632 357.186 200.178 355.458 200.178C351.167 200.178 347.526 202.925 346.172 206.753C344.577 205.643 342.641 204.987 340.55 204.987C339.279 204.987 338.066 205.228 336.951 205.666C334.552 205.083 332.049 204.766 329.469 204.766C317.033 204.766 306.275 211.922 301.068 222.337C294.457 222.714 288.836 226.751 286.177 232.453C280.424 228.152 273.171 225.748 265.334 226.201C249.522 227.115 236.625 239.86 235.548 255.662C235.228 260.354 235.933 264.846 237.454 268.94C232.225 265.835 226.036 264.179 219.428 264.561C203.616 265.475 190.719 278.22 189.642 294.022C188.575 309.683 198.876 323.124 213.113 326.917C213.092 327.152 213.064 327.386 213.048 327.623C211.785 346.158 226.447 361.586 244.712 361.586C259.371 361.586 271.702 351.646 275.35 338.14C280.131 346.404 289.06 351.968 299.295 351.968C304.722 351.968 309.78 350.398 314.051 347.697C319.151 353.276 326.487 356.777 334.642 356.777C342.785 356.777 350.111 353.286 355.211 347.72C359.613 360.274 371.56 369.28 385.618 369.28C398.989 369.28 410.457 361.134 415.333 349.535C420.886 358.498 430.806 364.471 442.125 364.471C456.61 364.471 468.801 354.69 472.48 341.376C473.695 341.515 474.922 341.611 476.174 341.611C489.545 341.611 501.013 333.465 505.888 321.866C511.441 330.829 521.361 336.802 532.68 336.802C550.815 336.802 565.37 321.477 564.102 303.071C563.714 297.47 561.824 292.257 558.845 287.824Z" fill="#263238"/>
</g>
<mask id="mask2_982_39545" style="mask-type:luminance" maskUnits="userSpaceOnUse" x="154" y="0" width="377" height="342">
<path d="M526.482 178.846C522.865 165.783 517.185 152.901 509.815 142.148C501.573 130.123 492.122 121.277 480.875 112.252C468.919 102.66 457.218 92.6591 446.72 81.4651C436.284 70.3371 429.128 57.7221 420.266 45.5331C403.707 22.7581 377.742 8.61208 350.45 3.40708C307.216 -4.83792 260.696 4.45108 224.767 30.1391C187.282 56.9391 164.694 100.927 157.191 145.731C151.971 176.9 153.845 209.796 165.217 239.454C166.214 242.054 167.28 244.627 168.432 247.163C184.774 283.152 216.879 313.198 253.276 328.329C317.944 355.213 393.51 336.322 438.561 319.61C495.912 298.336 544.326 243.289 526.482 178.846Z" fill="white"/>
</mask>
<g mask="url(#mask2_982_39545)">
<path d="M562.72 265.568H562.528C561.202 249.392 547.663 236.674 531.145 236.674C525.168 236.674 519.581 238.339 514.82 241.229C511.136 235.865 504.962 232.345 497.963 232.345C493.896 232.345 490.11 233.538 486.926 235.585C482.31 227.613 473.694 222.246 463.819 222.246C462.95 222.246 462.092 222.292 461.245 222.373C459.262 219.398 455.88 217.437 452.037 217.437C449.905 217.437 447.92 218.051 446.231 219.096C446.245 218.864 446.266 218.634 446.266 218.399C446.266 212.29 441.314 207.338 435.205 207.338C432.627 207.338 430.261 208.228 428.38 209.706C426.657 208.233 424.425 207.338 421.98 207.338C417.689 207.338 414.048 210.085 412.694 213.913C411.099 212.803 409.163 212.147 407.072 212.147C402.012 212.147 397.847 215.961 397.284 220.87C395.709 220.208 393.98 219.841 392.164 219.841C384.93 219.841 379.062 225.651 378.95 232.858C376.046 230.731 372.476 229.46 368.6 229.46C361.553 229.46 355.493 233.622 352.7 239.614C347.409 235.659 340.85 233.308 333.735 233.308C319.117 233.308 306.815 243.193 303.129 256.642C297.281 257.945 292.894 263.114 292.797 269.333C289.893 267.206 286.323 265.935 282.447 265.935C275.4 265.935 269.34 270.097 266.547 276.089C261.256 272.134 254.697 269.782 247.582 269.782C230.053 269.782 215.842 283.992 215.842 301.522C215.842 301.696 215.852 301.868 215.855 302.042H215.711V359.445H476.568V322.972H562.721V265.568H562.72Z" fill="#263238"/>
</g>
<path d="M311.04 31.3246C311.04 32.8296 309.82 34.0496 308.315 34.0496C306.81 34.0496 305.59 32.8296 305.59 31.3246C305.59 29.8196 306.81 28.5996 308.315 28.5996C309.82 28.6006 311.04 29.8196 311.04 31.3246Z" fill="white"/>
<path d="M478.012 137.721C478.012 139.226 476.793 140.446 475.288 140.446C473.783 140.446 472.562 139.226 472.562 137.721C472.562 136.216 473.783 134.996 475.288 134.996C476.793 134.996 478.012 136.216 478.012 137.721Z" fill="white"/>
<path d="M186.506 158.57C188.011 158.57 189.231 157.35 189.231 155.845C189.231 154.34 188.011 153.12 186.506 153.12C185.001 153.12 183.781 154.34 183.781 155.845C183.781 157.35 185.001 158.57 186.506 158.57Z" fill="white"/>
<path d="M231.213 69.157C232.718 69.157 233.938 67.937 233.938 66.432C233.938 64.9271 232.718 63.707 231.213 63.707C229.708 63.707 228.488 64.9271 228.488 66.432C228.488 67.937 229.708 69.157 231.213 69.157Z" fill="white"/>
<path d="M342.103 20.154C342.103 20.906 341.493 21.516 340.741 21.516C339.988 21.516 339.379 20.906 339.379 20.154C339.379 19.401 339.989 18.791 340.741 18.791C341.492 18.791 342.103 19.401 342.103 20.154Z" fill="white"/>
<path d="M384.263 66.029C384.263 66.781 383.653 67.391 382.901 67.391C382.148 67.391 381.539 66.781 381.539 66.029C381.539 65.276 382.149 64.666 382.901 64.666C383.653 64.667 384.263 65.277 384.263 66.029Z" fill="white"/>
<path d="M198.186 99.2094C198.938 99.2094 199.548 98.5996 199.548 97.8474C199.548 97.0951 198.938 96.4854 198.186 96.4854C197.434 96.4854 196.824 97.0951 196.824 97.8474C196.824 98.5996 197.434 99.2094 198.186 99.2094Z" fill="white"/>
<path d="M244.504 62.0007C244.504 62.7537 243.894 63.3627 243.141 63.3627C242.389 63.3627 241.779 62.7527 241.779 62.0007C241.779 61.2487 242.389 60.6387 243.141 60.6387C243.894 60.6387 244.504 61.2487 244.504 62.0007Z" fill="white"/>
<path d="M307.335 17.6029C308.087 17.6029 308.697 16.9931 308.697 16.2409C308.697 15.4887 308.087 14.8789 307.335 14.8789C306.582 14.8789 305.973 15.4887 305.973 16.2409C305.973 16.9931 306.582 17.6029 307.335 17.6029Z" fill="white"/>
<path d="M342.624 92.765C343.376 92.765 343.986 92.1552 343.986 91.403C343.986 90.6508 343.376 90.041 342.624 90.041C341.872 90.041 341.262 90.6508 341.262 91.403C341.262 92.1552 341.872 92.765 342.624 92.765Z" fill="white"/>
<path d="M167.979 211.331C168.731 211.331 169.341 210.722 169.341 209.969C169.341 209.217 168.731 208.607 167.979 208.607C167.227 208.607 166.617 209.217 166.617 209.969C166.617 210.722 167.227 211.331 167.979 211.331Z" fill="white"/>
<path d="M190.688 231.718C191.44 231.718 192.05 231.108 192.05 230.356C192.05 229.604 191.44 228.994 190.688 228.994C189.936 228.994 189.326 229.604 189.326 230.356C189.326 231.108 189.936 231.718 190.688 231.718Z" fill="white"/>
<path d="M181.675 240.022C182.427 240.022 183.037 239.412 183.037 238.66C183.037 237.908 182.427 237.298 181.675 237.298C180.922 237.298 180.312 237.908 180.312 238.66C180.312 239.412 180.922 240.022 181.675 240.022Z" fill="white"/>
<path d="M274.309 22.6849C275.061 22.6849 275.671 22.0751 275.671 21.3229C275.671 20.5707 275.061 19.9609 274.309 19.9609C273.557 19.9609 272.947 20.5707 272.947 21.3229C272.947 22.0751 273.557 22.6849 274.309 22.6849Z" fill="white"/>
<path d="M298.475 87.932C299.227 87.932 299.837 87.3222 299.837 86.57C299.837 85.8178 299.227 85.208 298.475 85.208C297.723 85.208 297.113 85.8178 297.113 86.57C297.113 87.3222 297.723 87.932 298.475 87.932Z" fill="white"/>
<path d="M324.251 77.0659C318.95 76.3449 318.366 75.761 317.645 70.46C316.924 75.761 316.34 76.3449 311.039 77.0659C316.34 77.7869 316.924 78.371 317.645 83.672C318.366 78.371 318.95 77.7869 324.251 77.0659Z" fill="white"/>
<path d="M183.044 127.652C177.743 126.931 177.159 126.347 176.438 121.046C175.717 126.347 175.133 126.931 169.832 127.652C175.133 128.373 175.717 128.957 176.438 134.258C177.158 128.957 177.743 128.373 183.044 127.652Z" fill="white"/>
<path d="M225.976 101.795C222.679 101.347 222.316 100.983 221.867 97.6855C221.419 100.983 221.055 101.346 217.758 101.795C221.055 102.243 221.418 102.607 221.867 105.904C222.316 102.607 222.68 102.243 225.976 101.795Z" fill="white"/>
<path d="M381.04 136.432C377.743 135.984 377.38 135.62 376.931 132.323C376.483 135.62 376.119 135.983 372.822 136.432C376.119 136.88 376.482 137.244 376.931 140.541C377.38 137.243 377.743 136.88 381.04 136.432Z" fill="white"/>
<path d="M383.136 30.1832C379.839 29.7352 379.476 29.3712 379.027 26.0742C378.579 29.3712 378.215 29.7342 374.918 30.1832C378.215 30.6312 378.578 30.9952 379.027 34.2922C379.476 30.9952 379.839 30.6322 383.136 30.1832Z" fill="white"/>
<mask id="mask3_982_39545" style="mask-type:luminance" maskUnits="userSpaceOnUse" x="154" y="2" width="376" height="342">
<path d="M526.062 180.362C522.445 167.299 516.765 154.417 509.395 143.664C501.153 131.639 491.702 122.793 480.455 113.768C468.499 104.176 456.798 94.1747 446.3 82.9807C435.864 71.8527 428.708 59.2377 419.846 47.0487C403.287 24.2737 377.322 10.1277 350.03 4.9227C306.796 -3.3223 260.276 5.96671 224.347 31.6547C186.862 58.4547 164.274 102.443 156.771 147.247C151.551 178.416 153.425 211.312 164.797 240.97C165.794 243.57 166.86 246.143 168.012 248.679C184.354 284.668 216.459 314.714 252.856 329.845C317.524 356.729 393.09 337.838 438.141 321.126C495.492 299.852 543.906 244.805 526.062 180.362Z" fill="white"/>
</mask>
<g mask="url(#mask3_982_39545)">
<path opacity="0.5" d="M333.157 127.735C325.338 122.638 316.18 119.852 306.846 119.832C306.796 119.832 306.745 119.832 306.695 119.832C267.761 119.832 236.31 151.869 237.265 191.02C238.157 227.56 267.723 257.438 304.253 258.693C324.998 259.406 343.78 251.001 356.947 237.195C364.805 224.853 369.36 210.202 369.36 194.487C369.359 166.529 354.951 141.942 333.157 127.735Z" fill="white" stroke="#263238" stroke-miterlimit="10"/>
<path d="M327.228 127.736C327.11 127.659 326.989 127.588 326.871 127.512C345.137 143.65 356.843 168.488 356.843 196.356C356.843 213.469 352.421 229.436 344.785 242.953C346.973 241.155 349.064 239.242 351.017 237.194C358.875 224.852 363.43 210.201 363.43 194.486C363.43 166.53 349.022 141.943 327.228 127.736Z" fill="white"/>
<path d="M356.947 237.193C343.78 250.999 324.998 259.404 304.253 258.691C267.724 257.436 238.157 227.558 237.265 191.018C236.31 151.868 267.761 119.831 306.695 119.831C306.745 119.831 306.796 119.831 306.846 119.831C316.18 119.851 325.338 122.637 333.157 127.734C346.956 136.729 357.787 149.889 363.882 165.427C351.841 133.816 321.254 111.355 285.416 111.355C239.055 111.355 201.473 148.938 201.473 195.299C201.473 241.66 239.056 279.243 285.416 279.243C331.777 279.243 369.36 241.66 369.36 195.299C369.36 195.139 369.355 194.98 369.354 194.821C369.289 210.409 364.749 224.939 356.947 237.193Z" fill="#005CE5" stroke="#263238" stroke-miterlimit="10"/>
<path d="M214.056 159.979C209.069 170.715 206.285 182.683 206.285 195.3C206.285 216.571 214.197 235.994 227.238 250.788" fill="#005CE5"/>
<path d="M214.056 159.979C209.069 170.715 206.285 182.683 206.285 195.3C206.285 216.571 214.197 235.994 227.238 250.788" stroke="#263238" stroke-width="2" stroke-miterlimit="10" stroke-linecap="round" stroke-linejoin="round"/>
<path d="M224.531 143.043C222.351 145.78 220.338 148.657 218.508 151.658L224.531 143.043Z" fill="#C6FF00"/>
<path d="M224.531 143.043C222.351 145.78 220.338 148.657 218.508 151.658" stroke="#263238" stroke-width="2" stroke-miterlimit="10" stroke-linecap="round" stroke-linejoin="round"/>
<mask id="mask4_982_39545" style="mask-type:luminance" maskUnits="userSpaceOnUse" x="237" y="119" width="133" height="140">
<path d="M333.157 127.735C325.338 122.638 316.18 119.852 306.846 119.832C306.796 119.832 306.745 119.832 306.695 119.832C267.761 119.832 236.31 151.869 237.265 191.02C238.157 227.56 267.723 257.438 304.253 258.693C324.998 259.406 343.78 251.001 356.947 237.195C364.805 224.853 369.36 210.202 369.36 194.487C369.359 166.529 354.951 141.942 333.157 127.735Z" fill="white"/>
</mask>
<g mask="url(#mask4_982_39545)">
<path d="M240.85 142.267C253.813 129.789 271.981 124.346 289.819 126.7C292.446 127.047 295.231 127.52 298.132 128.159C315.547 131.99 325.647 150.101 327.04 151.146C328.433 152.191 324.95 162.291 324.95 162.291C324.95 162.291 338.882 203.041 337.14 209.31C335.398 215.579 313.804 222.545 313.804 222.545L316.939 235.432L250.763 248.319C250.763 248.319 245.19 223.242 237.876 213.142C230.562 203.041 224.943 191.657 226.731 170.65C227.777 158.373 233.768 149.084 240.85 142.267Z" fill="white"/>
<mask id="mask5_982_39545" style="mask-type:luminance" maskUnits="userSpaceOnUse" x="226" y="126" width="112" height="123">
<path d="M240.85 142.267C253.813 129.789 271.981 124.346 289.819 126.7C292.446 127.047 295.231 127.52 298.132 128.159C315.547 131.99 325.647 150.101 327.04 151.146C328.433 152.191 324.95 162.291 324.95 162.291C324.95 162.291 338.882 203.041 337.14 209.31C335.398 215.579 313.804 222.545 313.804 222.545L316.939 235.432L250.763 248.319C250.763 248.319 245.19 223.242 237.876 213.142C230.562 203.041 224.943 191.657 226.731 170.65C227.777 158.373 233.768 149.084 240.85 142.267Z" fill="white"/>
</mask>
<g mask="url(#mask5_982_39545)">
<path opacity="0.5" d="M315.622 219.464C305.129 220.1 285.097 209.925 277.466 194.026C269.835 178.128 255.526 171.768 255.526 171.768C255.526 171.768 242.41 167.527 226.881 169.307C226.829 169.753 226.77 170.194 226.731 170.648C224.943 191.655 230.562 203.039 237.876 213.14C245.19 223.24 250.763 248.317 250.763 248.317L316.939 235.43L313.804 222.543C313.804 222.543 323.102 219.543 329.988 215.71C325.597 217.49 320.324 219.179 315.622 219.464Z" fill="black"/>
</g>
<path d="M240.85 142.267C253.813 129.789 271.981 124.346 289.819 126.7C292.446 127.047 295.231 127.52 298.132 128.159C315.547 131.99 325.647 150.101 327.04 151.146C328.433 152.191 324.95 162.291 324.95 162.291C324.95 162.291 338.882 203.041 337.14 209.31C335.398 215.579 313.804 222.545 313.804 222.545L316.939 235.432L250.763 248.319C250.763 248.319 245.19 223.242 237.876 213.142C230.562 203.041 224.943 191.657 226.731 170.65C227.777 158.373 233.768 149.084 240.85 142.267Z" stroke="#263238" stroke-miterlimit="10"/>
</g>
<mask id="mask6_982_39545" style="mask-type:luminance" maskUnits="userSpaceOnUse" x="237" y="119" width="133" height="140">
<path d="M333.157 127.735C325.338 122.638 316.18 119.852 306.846 119.832C306.796 119.832 306.745 119.832 306.695 119.832C267.761 119.832 236.31 151.869 237.265 191.02C238.157 227.56 267.723 257.438 304.253 258.693C324.998 259.406 343.78 251.001 356.947 237.195C364.805 224.853 369.36 210.202 369.36 194.487C369.359 166.529 354.951 141.942 333.157 127.735Z" fill="white"/>
</mask>
<g mask="url(#mask6_982_39545)">
<path d="M308.581 146.269C308.581 146.269 309.278 146.966 303.008 146.966C296.738 146.966 285.942 145.921 282.459 149.056C278.976 152.191 273.403 161.246 275.493 161.246C277.583 161.246 280.369 158.111 282.459 158.111C284.549 158.111 287.335 157.415 287.335 157.415C287.335 157.415 278.628 162.639 281.762 162.988C284.897 163.336 298.828 161.247 302.66 158.808C306.491 156.37 309.278 154.628 309.626 152.539C309.974 150.449 311.019 149.055 308.581 146.269Z" fill="#263238" stroke="#263238" stroke-miterlimit="10"/>
</g>
<mask id="mask7_982_39545" style="mask-type:luminance" maskUnits="userSpaceOnUse" x="237" y="119" width="133" height="140">
<path d="M333.157 127.735C325.338 122.638 316.18 119.852 306.846 119.832C306.796 119.832 306.745 119.832 306.695 119.832C267.761 119.832 236.31 151.869 237.265 191.02C238.157 227.56 267.723 257.438 304.253 258.693C324.998 259.406 343.78 251.001 356.947 237.195C364.805 224.853 369.36 210.202 369.36 194.487C369.359 166.529 354.951 141.942 333.157 127.735Z" fill="white"/>
</mask>
<g mask="url(#mask7_982_39545)">
<path d="M323.157 146.032C322.883 146.577 321.51 149.017 319.032 148.707C316.246 148.359 314.852 146.617 314.852 146.617C314.852 146.617 315.2 147.662 315.2 150.448C315.2 153.234 315.548 155.324 317.29 157.414C319.032 159.504 324.953 162.29 324.953 162.29C324.953 162.29 327.043 156.021 327.043 151.145C326.602 150.815 325.291 148.78 323.157 146.032Z" fill="#263238" stroke="#263238" stroke-miterlimit="10"/>
</g>
<mask id="mask8_982_39545" style="mask-type:luminance" maskUnits="userSpaceOnUse" x="237" y="119" width="133" height="140">
<path d="M333.157 127.735C325.338 122.638 316.18 119.852 306.846 119.832C306.796 119.832 306.745 119.832 306.695 119.832C267.761 119.832 236.31 151.869 237.265 191.02C238.157 227.56 267.723 257.438 304.253 258.693C324.998 259.406 343.78 251.001 356.947 237.195C364.805 224.853 369.36 210.202 369.36 194.487C369.359 166.529 354.951 141.942 333.157 127.735Z" fill="white"/>
</mask>
<g mask="url(#mask8_982_39545)">
<path d="M313.805 156.37C313.805 156.37 327.737 162.988 328.433 165.077C329.13 167.167 324.95 175.177 324.95 175.177" fill="white"/>
<path d="M313.805 156.37C313.805 156.37 327.737 162.988 328.433 165.077C329.13 167.167 324.95 175.177 324.95 175.177" stroke="#263238" stroke-miterlimit="10"/>
</g>
<mask id="mask9_982_39545" style="mask-type:luminance" maskUnits="userSpaceOnUse" x="237" y="119" width="133" height="140">
<path d="M333.157 127.735C325.338 122.638 316.18 119.852 306.846 119.832C306.796 119.832 306.745 119.832 306.695 119.832C267.761 119.832 236.31 151.869 237.265 191.02C238.157 227.56 267.723 257.438 304.253 258.693C324.998 259.406 343.78 251.001 356.947 237.195C364.805 224.853 369.36 210.202 369.36 194.487C369.359 166.529 354.951 141.942 333.157 127.735Z" fill="white"/>
</mask>
<g mask="url(#mask9_982_39545)">
<path d="M328.433 165.077C328.433 165.077 307.535 177.964 310.322 179.705C313.108 181.446 320.771 178.66 322.861 176.919C324.95 175.177 328.782 169.605 328.433 165.077Z" fill="#263238" stroke="#263238" stroke-miterlimit="10"/>
</g>
<mask id="mask10_982_39545" style="mask-type:luminance" maskUnits="userSpaceOnUse" x="237" y="119" width="133" height="140">
<path d="M333.157 127.735C325.338 122.638 316.18 119.852 306.846 119.832C306.796 119.832 306.745 119.832 306.695 119.832C267.761 119.832 236.31 151.869 237.265 191.02C238.157 227.56 267.723 257.438 304.253 258.693C324.998 259.406 343.78 251.001 356.947 237.195C364.805 224.853 369.36 210.202 369.36 194.487C369.359 166.529 354.951 141.942 333.157 127.735Z" fill="white"/>
</mask>
<g mask="url(#mask10_982_39545)">
<path d="M325.564 183.568C325.564 183.568 318.021 185.579 315.571 185.834C313.122 186.089 308.464 189.397 310.552 189.476C312.64 189.556 320.443 186.02 322.531 186.099C324.619 186.179 328.09 186.263 328.324 185.371C328.767 183.69 325.564 183.568 325.564 183.568Z" fill="#263238" stroke="#263238" stroke-miterlimit="10"/>
</g>
<mask id="mask11_982_39545" style="mask-type:luminance" maskUnits="userSpaceOnUse" x="237" y="119" width="133" height="140">
<path d="M333.157 127.735C325.338 122.638 316.18 119.852 306.846 119.832C306.796 119.832 306.745 119.832 306.695 119.832C267.761 119.832 236.31 151.869 237.265 191.02C238.157 227.56 267.723 257.438 304.253 258.693C324.998 259.406 343.78 251.001 356.947 237.195C364.805 224.853 369.36 210.202 369.36 194.487C369.359 166.529 354.951 141.942 333.157 127.735Z" fill="white"/>
</mask>
<g mask="url(#mask11_982_39545)">
<path d="M314.099 223.752C313.262 223.831 312.488 223.888 311.807 223.917C304.176 224.235 294.131 223.664 284.462 218.83C280.836 217.017 276.742 213.72 272.879 209.391C279.492 205.724 290.38 200.682 305.06 197.228C307.88 196.564 309.629 193.74 308.966 190.919C308.302 188.098 305.476 186.353 302.657 187.013C285.894 190.957 273.714 196.781 266.532 200.9C258.886 188.615 254.563 172.223 261.886 156.826C271.998 135.565 293.31 130.162 300.835 128.892C299.953 128.613 299.056 128.362 298.133 128.159C295.232 127.521 292.447 127.047 289.82 126.7C271.982 124.346 253.814 129.789 240.851 142.267C233.77 149.083 227.778 158.373 226.733 170.65C224.945 191.657 230.564 203.041 237.878 213.142C245.192 223.242 250.765 248.319 250.765 248.319L316.941 235.432L314.099 223.752Z" fill="#263238"/>
</g>
<path d="M333.157 127.735C325.338 122.638 316.18 119.852 306.846 119.832C306.796 119.832 306.745 119.832 306.695 119.832C267.761 119.832 236.31 151.869 237.265 191.02C238.157 227.56 267.723 257.438 304.253 258.693C324.998 259.406 343.78 251.001 356.947 237.195C364.805 224.853 369.36 210.202 369.36 194.487C369.359 166.529 354.951 141.942 333.157 127.735Z" stroke="#263238" stroke-miterlimit="10"/>
<path d="M228.704 210.072C235.549 209.863 240.858 201.797 240.56 192.056C240.263 182.314 234.473 174.587 227.627 174.796C220.782 175.004 215.473 183.071 215.771 192.812C216.068 202.553 221.858 210.281 228.704 210.072Z" fill="#263238"/>
<path d="M229.613 252.534C229.613 252.534 218.165 253.965 219.596 259.211C221.027 264.457 223.412 266.842 223.412 271.135C223.412 275.428 214.351 281.151 210.535 282.105C206.718 283.059 168.562 304.522 168.562 304.522L183.825 359.372H417.054L416.1 284.967L376.512 270.658C376.512 270.658 369.358 266.365 368.881 259.211C368.404 252.057 369.359 249.195 369.359 249.195C369.359 249.195 324.048 220.101 229.613 252.534Z" fill="#005CE5" stroke="#263238" stroke-miterlimit="10"/>
<path d="M229.612 252.533C229.612 252.533 218.165 253.964 219.596 259.21C221.027 264.456 223.412 266.841 223.412 271.134C223.412 271.921 223.102 272.757 222.581 273.602C245.274 266.762 313.466 248.785 369.095 260.72C368.995 260.231 368.916 259.731 368.882 259.211C368.405 252.057 369.359 249.195 369.359 249.195C369.359 249.195 324.048 220.1 229.612 252.533Z" fill="#263238" stroke="#263238" stroke-miterlimit="10" stroke-linejoin="round"/>
<path d="M219.945 276.595C216.97 279.253 212.818 281.534 210.535 282.105C210.008 282.237 208.826 282.76 207.182 283.563C231.201 302.553 245.364 349.366 248.171 359.372H264.439C252.141 309.689 228.934 284.73 219.945 276.595Z" fill="#263238" stroke="#263238" stroke-miterlimit="10"/>
<path d="M219.057 267.157C216.689 267.157 214.356 266.059 212.864 263.994C210.396 260.577 211.165 255.807 214.582 253.339C227.802 243.791 257.439 235.707 291.929 232.242C325.977 228.819 356.446 230.766 371.448 237.32C375.31 239.007 377.074 243.505 375.387 247.368C373.701 251.23 369.203 252.993 365.339 251.307C355.056 246.816 328.839 243.874 293.455 247.429C257.65 251.026 232.53 259.203 223.519 265.712C222.168 266.687 220.605 267.157 219.057 267.157Z" fill="#005CE5" stroke="#263238" stroke-miterlimit="10"/>
<path d="M277.707 245.795C280.52 245.531 283.377 245.351 286.265 245.27" stroke="#263238" stroke-width="2" stroke-miterlimit="10" stroke-linecap="round" stroke-linejoin="round"/>
<path d="M216.734 263.988C216.734 263.988 239.826 251.282 269.67 246.779" stroke="#263238" stroke-width="2" stroke-miterlimit="10" stroke-linecap="round" stroke-linejoin="round"/>
<path d="M140.581 315.99C138.853 311.613 140.676 306.639 144.825 304.421C160.113 296.249 194.716 278.147 200.995 278.29C221.981 278.767 245.828 331.232 254.891 362.71H159.023L140.581 315.99Z" fill="#005CE5" stroke="#263238" stroke-miterlimit="10"/>
<path d="M398.709 359.37H406.144C403.909 338.462 399.227 298.213 394.255 277.07L381.697 272.531C385.455 285.852 395.852 324.95 398.709 359.37Z" fill="#263238" stroke="#263238" stroke-miterlimit="10" stroke-linejoin="round"/>
<path d="M393.328 280.995L404.177 361.279H439.948L451.7 305.683C452.105 303.767 451.367 301.787 449.796 300.618C443.789 296.147 427.182 284.984 399.975 275.572C396.428 274.345 392.825 277.275 393.328 280.995Z" fill="#005CE5" stroke="#263238" stroke-miterlimit="10"/>
<path d="M348.852 282.582L357.914 324.554L402.747 327.416L397.501 289.736L348.852 282.582Z" fill="#005CE5" stroke="#263238" stroke-miterlimit="10"/>
<path d="M348.851 282.581L343.127 291.166L351.712 333.615L357.913 324.553L348.851 282.581Z" fill="#263238" stroke="#263238" stroke-miterlimit="10" stroke-linejoin="round"/>
<path d="M351.711 333.616L396.068 335.047L402.745 327.416L357.912 324.554L351.711 333.616Z" fill="#263238" stroke="#263238" stroke-miterlimit="10" stroke-linejoin="round"/>
<path d="M269.654 313.947C275.976 313.947 281.101 309.391 281.101 303.772C281.101 298.152 275.976 293.597 269.654 293.597C263.332 293.597 258.207 298.152 258.207 303.772C258.207 309.391 263.332 313.947 269.654 313.947Z" fill="#263238"/>
<path d="M297.634 310.13C303.956 310.13 309.081 305.575 309.081 299.955C309.081 294.336 303.956 289.78 297.634 289.78C291.312 289.78 286.188 294.336 286.188 299.955C286.188 305.575 291.312 310.13 297.634 310.13Z" fill="#263238"/>
</g>
<path d="M678.663 76.1864C679.715 80.1115 678.602 84.5879 675.372 89.5621C672.143 94.5345 666.835 99.9429 659.624 105.687C645.205 117.173 623.271 129.926 595.452 143.16C539.82 169.623 460.743 197.963 371.407 221.9C282.072 245.838 199.418 260.833 138.008 265.731C107.299 268.181 81.9277 268.102 63.6973 265.365C54.5801 263.996 47.2791 261.966 41.9964 259.275C36.7119 256.582 33.5104 253.261 32.4586 249.336C31.4069 245.411 32.5193 240.935 35.7494 235.961C38.9785 230.988 44.2864 225.58 51.4977 219.836C65.917 208.35 87.8503 195.596 115.67 182.363C171.301 155.9 250.379 127.56 339.715 103.622C429.05 79.685 511.703 64.6893 573.113 59.7914C603.822 57.3421 629.194 57.4202 647.424 60.1575C656.542 61.5265 663.843 63.5563 669.125 66.2481C674.41 68.9408 677.611 72.2613 678.663 76.1864Z" stroke="#181818"/>
<path d="M572.018 97.9382C593.287 94.2851 606.968 73.9896 602.575 52.6069C598.182 31.2242 577.379 16.8516 556.109 20.5046C534.84 24.1577 521.159 44.4532 525.552 65.8359C529.945 87.2186 550.749 101.591 572.018 97.9382Z" fill="#BD1313"/>
<path opacity="0.16" d="M553.033 46.9837C555.728 42.9345 555.938 37.5388 554.522 32.758C553.415 29.02 551.408 25.6043 549.077 22.4219C548.239 22.739 547.405 23.0762 546.58 23.4565C534.174 29.1797 526.463 40.7265 525.003 53.4623C530.188 54.947 535.689 55.1958 540.895 54.1463C545.656 53.1867 550.368 50.9869 553.033 46.9837Z" fill="white"/>
<path opacity="0.1" d="M546.783 73.0277C565.429 64.119 580.306 48.0269 587.898 28.8044C577.059 20.2046 562.314 17.4114 549.078 22.4216C551.409 25.6041 553.416 29.0198 554.523 32.7578C555.939 37.5385 555.728 42.9343 553.034 46.9835C550.37 50.9866 545.657 53.1872 540.896 54.1468C535.691 55.1962 530.19 54.9474 525.004 53.4628C524.174 60.6959 525.354 68.3116 528.854 75.4653C529.069 75.905 529.299 76.332 529.528 76.7613C531.238 76.9975 532.978 77.0227 534.675 76.8467C538.931 76.4048 542.96 74.854 546.783 73.0277Z" fill="black"/>
<path opacity="0.15" d="M603.395 59.8398C593.721 67.9553 582.949 74.8387 570.971 78.9985C558.746 83.2438 545.166 84.4945 532.41 81.396C538.158 89.4053 546.467 94.9087 555.562 97.24C556.446 96.9563 557.317 96.651 558.162 96.3346C573.47 90.5973 587.969 82.8665 601.2 73.4082C602.721 69.1035 603.479 64.5107 603.395 59.8398Z" fill="white"/>
<path opacity="0.2" d="M558.162 96.3356C557.317 96.652 556.447 96.9572 555.563 97.2409C564.037 99.4133 573.186 98.8422 581.566 94.9757C591.154 90.5522 597.937 82.6491 601.201 73.4092C587.969 82.8675 573.47 90.5975 558.162 96.3356Z" fill="black"/>
<path opacity="0.13" d="M588.565 67.0581C580.031 74.145 569.442 78.4742 558.558 81.1011C552.306 82.6103 545.801 83.5914 539.347 82.7284C536.845 82.3934 534.346 81.7517 531.978 80.7981C535.315 85.6301 539.576 89.579 544.382 92.5142C555.408 99.2475 569.309 100.63 581.566 94.9755C593.788 89.3369 601.46 78.0471 603.081 65.5356C603.68 60.913 603.444 56.1248 602.314 51.3916C598.348 57.1735 593.942 62.5923 588.565 67.0581Z" fill="black"/>
<path opacity="0.13" d="M544.382 92.5147C555.408 99.2481 569.309 100.63 581.566 94.976C593.788 89.3375 601.46 78.0477 603.081 65.5361C594.453 74.7872 584.774 83.1396 573.196 88.2368C564.302 92.1523 554.092 93.882 544.382 92.5147Z" fill="black"/>
<path opacity="0.08" d="M560.201 48.4196C572.441 46.8401 581.455 39.995 580.335 33.1308C579.215 26.2665 568.386 21.9824 556.146 23.5619C543.906 25.1414 534.892 31.9864 536.012 38.8507C537.132 45.7149 547.962 49.9991 560.201 48.4196Z" fill="white"/>
<g opacity="0.08">
<path d="M542.525 55.544C546.186 48.5077 549.305 45.9758 557.018 43.9245C564.732 41.8731 574.404 42.0053 582.457 42.0952C587.905 42.1561 593.845 42.9047 599.293 42.9656C598.898 41.9645 599.775 43.9512 599.293 42.9656C589.632 23.2165 566.032 14.4809 546.581 23.4549C527.129 32.429 519.192 55.7141 528.853 75.4632C530.782 79.407 533.274 82.9029 536.171 85.9153C538.418 77.8622 538.653 62.9903 542.525 55.544Z" fill="white"/>
</g>
<g opacity="0.69">
<path d="M584.46 26.4009C598.616 16.9054 609.207 12.5866 611.949 15.6339C616.394 20.5744 598.878 43.3901 571.431 67.8376C543.984 92.2851 519.262 107.091 514.817 102.15C512.071 99.0986 517.894 88.6882 528.972 75.7087L528.688 75.1309C516.374 89.4977 509.711 101.431 513.059 105.154C518.318 110.999 545.433 95.3821 573.622 70.2729C601.812 45.1637 620.402 20.0708 615.143 14.2258C611.798 10.5078 599.607 15.475 583.921 26.0459L584.46 26.4009Z" fill="#F1CD7A"/>
</g>
<g opacity="0.69">
<path d="M595.818 37.1385C612.507 34.6846 623.841 35.281 625.054 39.0732C627.019 45.2205 601.795 57.92 566.941 67.9487C532.088 77.9773 503.676 80.7105 501.71 74.5639C500.496 70.7665 509.599 64.2842 524.953 57.5196L524.923 56.8987C507.881 64.3659 497.403 71.8307 498.884 76.4622C501.209 83.7347 532.114 81.2801 567.911 70.9804C603.708 60.6806 630.842 46.4348 628.516 39.1623C627.037 34.536 613.957 33.855 595.444 36.6171L595.818 37.1385Z" fill="#F1CD7A"/>
</g>
<path d="M88.8611 278.526C99.3289 268.058 99.3289 251.086 88.8611 240.619C78.3933 230.151 61.4215 230.151 50.9537 240.619C40.4859 251.086 40.4859 268.058 50.9537 278.526C61.4215 288.994 78.3933 288.994 88.8611 278.526Z" fill="#19BAB4"/>
<path d="M44.6211 250.677C48.2905 240.247 58.2232 232.768 69.908 232.768C81.0991 232.768 90.6844 239.628 94.6981 249.371C91.3689 254.264 85.8715 257.476 80.301 259.674C75.3675 261.62 70.1281 262.973 64.825 262.909C59.5215 262.846 54.1337 261.278 50.0422 257.903C47.6969 255.968 45.8357 253.463 44.6211 250.677Z" fill="#1AC4BE"/>
<path d="M92.4417 255.098C93.5053 259.79 92.8157 263.945 91.536 264.235C90.2564 264.525 88.3573 260.957 87.2936 256.265C86.23 251.574 86.4052 247.536 87.6844 247.245C88.964 246.956 91.378 250.407 92.4417 255.098Z" fill="#005079"/>
<path d="M92.4414 255.098C91.3778 250.407 88.9633 246.956 87.6841 247.245C87.4065 247.309 87.1839 247.557 87.0117 247.942C88.3283 248.756 90.0976 251.758 90.9664 255.59C91.8013 259.273 91.5535 262.615 90.7907 264.027C91.0537 264.211 91.3051 264.288 91.5363 264.235C92.8155 263.945 93.5051 259.79 92.4414 255.098Z" fill="#003A57"/>
<path d="M84.5455 277.455C81.9276 280.101 78.9305 281.38 78.2086 280.666C77.4868 279.952 79.924 277.385 82.5419 274.74C85.1599 272.094 86.9671 270.371 87.6884 271.085C88.4103 271.799 87.1634 274.81 84.5455 277.455Z" fill="#005079"/>
<path d="M87.6894 271.084C87.5986 270.994 87.4905 270.943 87.3658 270.928C87.6122 271.995 86.3719 274.62 84.0543 276.963C81.7609 279.281 79.1768 280.549 78.0859 280.348C78.0905 280.475 78.1268 280.584 78.2091 280.665C78.9305 281.379 81.928 280.101 84.546 277.455C87.1644 274.809 88.4113 271.799 87.6894 271.084Z" fill="#003A57"/>
<path d="M63.4675 282.981C61.4407 282.385 59.9944 281.232 60.157 280.68C60.3195 280.127 62.258 280.653 64.2848 281.249C66.3116 281.844 67.6589 282.283 67.4969 282.836C67.3344 283.389 65.4943 283.577 63.4675 282.981Z" fill="#005079"/>
<path d="M48.6187 271.524C47.3431 269.84 46.866 268.053 47.3254 267.705C47.7848 267.357 49.0301 268.933 50.3058 270.617C51.5814 272.301 52.4038 273.455 51.9444 273.803C51.4855 274.151 49.8944 273.208 48.6187 271.524Z" fill="#005079"/>
<path d="M49.1104 271.523C47.8857 269.907 47.4001 268.199 47.7691 267.757C47.5849 267.65 47.4329 267.623 47.3254 267.705C46.866 268.053 47.3431 269.84 48.6187 271.524C49.8545 273.155 51.3836 274.088 51.8954 273.828C51.1938 273.626 50.064 272.782 49.1104 271.523Z" fill="#003A57"/>
<path d="M56.8234 261.899C58.2868 265.553 58.6826 268.991 57.0586 269.641C55.4346 270.292 52.4068 267.909 50.9428 264.255C49.4794 260.601 50.1341 257.061 51.7581 256.41C53.3821 255.76 55.3594 258.246 56.8234 261.899Z" fill="#005079"/>
<path d="M52.4181 263.763C51.1561 260.612 51.4716 257.551 52.6231 256.349C52.3273 256.285 52.0375 256.298 51.7583 256.41C50.1344 257.06 49.4791 260.601 50.9431 264.254C52.407 267.908 55.4349 270.291 57.0588 269.641C57.2804 269.552 57.4607 269.408 57.6096 269.221C55.9351 268.957 53.6362 266.803 52.4181 263.763Z" fill="#003A57"/>
<path d="M59.1593 275.313C59.961 276.702 59.7565 278.321 58.703 278.929C57.649 279.537 56.1446 278.905 55.343 277.517C54.5414 276.128 54.7458 274.509 55.7993 273.901C56.8534 273.292 58.3572 273.924 59.1593 275.313Z" fill="#005079"/>
<path d="M59.1951 277.946C58.141 278.554 56.6367 277.922 55.8351 276.533C55.3863 275.756 55.2636 274.913 55.4176 274.209C54.7124 274.953 54.6518 276.319 55.3434 277.517C56.145 278.906 57.6494 279.538 58.7034 278.929C59.1678 278.661 59.4566 278.192 59.5777 277.638C59.4651 277.756 59.34 277.862 59.1951 277.946Z" fill="#003A57"/>
<path d="M83.577 268.786C84.9441 267.057 85.2783 265.043 84.3236 264.288C83.3689 263.534 81.4868 264.323 80.1198 266.053C78.7527 267.782 78.4185 269.795 79.3732 270.55C80.3279 271.305 82.21 270.515 83.577 268.786Z" fill="#005079"/>
<path d="M84.3195 264.287C84.2649 264.244 84.2064 264.207 84.1453 264.174C84.6688 265.098 84.2609 266.8 83.0807 268.293C81.7919 269.923 80.0468 270.717 79.0508 270.171C79.1336 270.317 79.2381 270.446 79.3688 270.55C80.3234 271.304 82.2053 270.514 83.5724 268.785C84.9399 267.056 85.2741 265.042 84.3195 264.287Z" fill="#003A57"/>
<path d="M62.0442 268.086C62.773 268.086 63.3638 267.496 63.3638 266.767C63.3638 266.038 62.773 265.447 62.0442 265.447C61.3154 265.447 60.7246 266.038 60.7246 266.767C60.7246 267.496 61.3154 268.086 62.0442 268.086Z" fill="#005079"/>
<path d="M51.0891 252.323C51.8179 252.323 52.4087 251.732 52.4087 251.003C52.4087 250.274 51.8179 249.684 51.0891 249.684C50.3603 249.684 49.7695 250.274 49.7695 251.003C49.7695 251.732 50.3603 252.323 51.0891 252.323Z" fill="#005079"/>
<path d="M85.2707 243.276C85.9995 243.276 86.5903 242.685 86.5903 241.956C86.5903 241.228 85.9995 240.637 85.2707 240.637C84.542 240.637 83.9512 241.228 83.9512 241.956C83.9512 242.685 84.542 243.276 85.2707 243.276Z" fill="#005079"/>
<path d="M82.0325 260.876C82.7612 260.876 83.352 260.286 83.352 259.557C83.352 258.828 82.7612 258.237 82.0325 258.237C81.3037 258.237 80.7129 258.828 80.7129 259.557C80.7129 260.286 81.3037 260.876 82.0325 260.876Z" fill="#005079"/>
<path d="M90.6204 269.707C91.3491 269.707 91.9399 269.116 91.9399 268.387C91.9399 267.658 91.3491 267.067 90.6204 267.067C89.8916 267.067 89.3008 267.658 89.3008 268.387C89.3008 269.116 89.8916 269.707 90.6204 269.707Z" fill="#005079"/>
<path d="M65.7395 278.117C66.4683 278.117 67.0591 277.526 67.0591 276.797C67.0591 276.068 66.4683 275.478 65.7395 275.478C65.0107 275.478 64.4199 276.068 64.4199 276.797C64.4199 277.526 65.0107 278.117 65.7395 278.117Z" fill="#005079"/>
<path d="M80.1027 251.156C78.8109 252.106 77.2036 252.114 76.513 251.174C75.8225 250.235 76.3096 248.703 77.6014 247.753C78.8932 246.803 80.5005 246.795 81.1916 247.734C81.8817 248.674 81.3945 250.205 80.1027 251.156Z" fill="#005079"/>
<path d="M75.9289 277.227C75.418 278.9 73.9869 279.946 72.732 279.563C71.477 279.179 70.8743 277.513 71.3846 275.84C71.8955 274.167 73.3266 273.121 74.5816 273.504C75.8365 273.887 76.4398 275.553 75.9289 277.227Z" fill="#005079"/>
<path d="M74.5834 273.504C74.2452 273.401 73.8944 273.405 73.5521 273.493C73.5677 273.498 73.5839 273.499 73.5995 273.504C74.8545 273.887 75.4572 275.554 74.9469 277.227C74.5738 278.449 73.7091 279.334 72.7812 279.574C74.0246 279.917 75.4264 278.879 75.9308 277.227C76.4416 275.554 75.8384 273.887 74.5834 273.504Z" fill="#003A57"/>
<path d="M64.1963 256.888C67.0094 256.122 68.9175 254.133 68.4581 252.446C67.9988 250.758 65.346 250.01 62.533 250.776C59.7199 251.541 57.8118 253.53 58.2712 255.218C58.7305 256.906 61.3833 257.653 64.1963 256.888Z" fill="#005079"/>
<path d="M62.531 251.762C65.3443 250.996 67.9971 251.744 68.4564 253.432C68.4595 253.442 68.4595 253.453 68.462 253.463C68.5428 253.121 68.5463 252.779 68.4564 252.448C67.9971 250.76 65.3443 250.013 62.531 250.778C59.7349 251.539 57.8353 253.508 58.2633 255.189C58.5945 253.784 60.2689 252.377 62.531 251.762Z" fill="#003A57"/>
<path d="M64.8056 233.259C63.4658 233.517 62.1609 233.874 60.9004 234.324C61.8419 234.026 62.8151 233.748 63.8182 233.496C64.1488 233.413 64.478 233.335 64.8056 233.259Z" fill="#19BAB4"/>
<path d="M68.1619 246.221C76.9662 244.009 82.5232 239.314 82.6504 235.985C78.8603 233.933 74.5209 232.768 69.9085 232.768C68.1629 232.768 66.4576 232.94 64.8049 233.259C64.4773 233.334 64.1481 233.413 63.8175 233.496C62.8144 233.748 61.8412 234.027 60.8997 234.324C55.7178 236.173 51.2765 239.572 48.125 243.962C49.1296 247.223 58.7351 248.59 68.1619 246.221Z" fill="#1CD4CD"/>
<path d="M80.3151 236.713C81.0037 239.453 76.2928 242.826 68.4622 244.794C60.6316 246.761 52.6471 246.579 51.9585 243.839C51.27 241.098 56.5674 236.297 64.398 234.329C72.2286 232.362 79.6266 233.972 80.3151 236.713Z" fill="#4EE8DC"/>
<path d="M76.3171 238.645C76.7896 240.525 73.0656 242.038 67.6929 243.388C62.3202 244.738 57.3337 245.414 56.8612 243.534C56.3887 241.653 59.3772 237.559 64.7499 236.209C70.1225 234.859 75.8446 236.764 76.3171 238.645Z" fill="#67F7ED"/>
<path d="M73.4197 239.773C73.7357 241.03 71.0824 242.045 67.4902 242.947C63.8975 243.85 60.7263 244.299 60.4103 243.042C60.0943 241.785 62.7506 239.541 66.3428 238.639C69.935 237.736 73.1037 238.515 73.4197 239.773Z" fill="#9EF7F1"/>
<g opacity="0.15">
<path d="M86.1083 271.311C82.8164 272.523 79.4599 273.56 76.0616 274.428C70.8979 275.748 64.8604 277.566 59.4872 277.014C56.2367 276.679 53.8576 274.221 52.0175 271.735C51.7914 271.43 51.5718 271.12 51.3537 270.808C47.496 265.295 45.0966 259.91 43.8174 253.305C42.7982 257.672 42.8512 262.352 44.2011 266.963C48.3789 281.234 63.3343 289.416 77.6058 285.238C86.7024 282.576 92.9615 275.893 95.6497 267.068C95.4977 267.474 93.7965 268.099 93.3735 268.295C90.9943 269.401 88.5692 270.405 86.1083 271.311Z" fill="black"/>
</g>
<g opacity="0.15">
<path d="M70.0426 281.826C67.2182 282.136 64.3327 282.246 61.5608 281.62C56.6066 280.501 52.4096 277.094 49.35 273.04C46.8108 269.677 44.9597 265.867 43.2383 262.009C43.4008 263.639 43.7088 265.276 44.1853 266.905C48.3444 281.113 63.2827 289.43 77.49 285.271C83.3125 283.567 88.1713 279.907 91.5278 275.384C84.8749 278.816 77.485 281.007 70.0426 281.826Z" fill="black"/>
</g>
</g>
<defs>
<clipPath id="clip0_982_39545">
<rect width="701" height="346" fill="white"/>
</clipPath>
</defs>
</svg>
