<svg width="155" height="57" viewBox="0 0 155 57" fill="none" xmlns="http://www.w3.org/2000/svg">
<path d="M5.32941 42.5651H1V22.6262C1 19.3774 2.84126 17.1984 6.68703 17.1984C10.1363 17.1984 11.6768 18.971 12.7018 21.8147L19.9306 37.7289C20.2239 38.3194 20.7014 38.7629 21.5079 38.7629C22.4261 38.7629 22.9809 38.2082 22.9809 37.3596V17.6369H27.3471V37.5436C27.3471 40.8308 25.4752 43.0086 21.6601 43.0086C18.2108 43.0086 16.6335 41.2372 15.6061 38.3935L8.37484 22.4792C8.04464 21.7381 7.60397 21.4082 6.83433 21.4082C5.84373 21.4082 5.32941 21.9617 5.32941 22.8474V42.5651Z" fill="white"/>
<path d="M53.0672 17.6369V21.9938H40.6694C38.0634 21.9938 36.9268 23.2118 36.9268 25.1327C36.9268 27.1635 38.2107 28.0862 40.705 28.0862H52.8868V32.0392H40.5921C38.0966 32.0392 36.8126 33.0373 36.8126 35.0681C36.8126 37.0248 38.0229 38.2058 40.5553 38.2058H53.104V42.5651H40.5553C34.6841 42.5651 32.2991 39.6486 32.2991 35.771C32.2991 32.9298 33.5843 31.0077 35.8588 30.0479C33.5474 29.0881 32.3727 27.1684 32.3727 24.436C32.3727 20.4484 34.8277 17.6418 40.6657 17.6418L53.0672 17.6369Z" fill="white"/>
<path d="M71.5521 18.6672C78.7441 18.6672 82.7433 22.803 82.7433 31.1845C82.7433 39.5301 78.7809 43.5917 71.5521 43.5917H68.1765C60.949 43.5917 56.9854 39.5301 56.9854 31.1845C56.9854 22.803 60.9846 18.6672 68.1765 18.6672H71.5521ZM68.1765 23.0241C63.4064 23.0241 61.3148 25.4613 61.3148 31.1845C61.3148 36.8668 63.3696 39.2349 68.1765 39.2349H71.5521C76.3222 39.2349 78.3771 36.8717 78.3771 31.1474C78.3771 25.4651 76.3222 23.0241 71.5521 23.0241H68.1765Z" fill="white"/>
<path d="M89.541 42.5651H84.917L92.5864 21.8122C93.5402 18.971 95.1175 17.1959 98.4195 17.1959C102.09 17.1959 103.924 19.3749 103.924 22.6237V37.3596C103.924 38.2082 104.438 38.7628 105.171 38.7628C105.831 38.7628 106.346 38.3564 106.565 37.7289L112.58 21.8146C113.534 18.9735 115.111 17.1983 118.413 17.1983C122.082 17.1983 123.917 19.3774 123.917 22.6262V42.5651H119.555V22.8473C119.555 21.9616 119.04 21.4082 118.306 21.4082C117.683 21.4082 117.17 21.8504 116.956 22.4792L110.931 38.3898C109.978 41.231 108.364 43.0048 105.062 43.0048C101.429 43.0048 99.5943 40.827 99.5943 37.5399V22.8399C99.5943 21.9542 99.0443 21.4008 98.3103 21.4008C97.6499 21.4008 97.2055 21.843 96.9527 22.4718L89.541 42.5651Z" fill="white"/>
<path d="M132.361 42.5652H127.591L136.288 20.4115C137.205 18.0854 138.893 17.1997 141.497 17.1997C144.065 17.1997 145.754 18.0866 146.635 20.4115L155 42.5652H150.193L142.672 22.5164C142.451 21.9247 142.047 21.6665 141.461 21.6665C140.874 21.6665 140.47 21.9247 140.213 22.5164L132.361 42.5652Z" fill="white"/>
<path d="M48.0072 11.2579C50.822 11.2579 53.1038 8.96157 53.1038 6.12894C53.1038 3.2963 50.822 1 48.0072 1C45.1925 1 42.9106 3.2963 42.9106 6.12894C42.9106 8.96157 45.1925 11.2579 48.0072 11.2579Z" fill="white"/>
<path d="M6.30021 11.2579C9.11498 11.2579 11.3968 8.96157 11.3968 6.12894C11.3968 3.2963 9.11498 1 6.30021 1C3.48544 1 1.20361 3.2963 1.20361 6.12894C1.20361 8.96157 3.48544 11.2579 6.30021 11.2579Z" stroke="white" stroke-width="0.65" stroke-miterlimit="10"/>
<path d="M34.1047 11.2579C36.9194 11.2579 39.2012 8.96157 39.2012 6.12894C39.2012 3.2963 36.9194 1 34.1047 1C31.2899 1 29.0081 3.2963 29.0081 6.12894C29.0081 8.96157 31.2899 11.2579 34.1047 11.2579Z" stroke="white" stroke-width="0.65" stroke-miterlimit="10"/>
<path d="M29.0093 6.12894C29.0093 4.76887 29.5461 3.46449 30.5016 2.50267C31.4571 1.54084 32.7532 1.00033 34.1046 1L33.9218 3.2927C33.772 5.18052 33.772 7.07735 33.9218 8.96517L34.1046 11.2579C33.4354 11.2579 32.7727 11.1252 32.1545 10.8674C31.5362 10.6097 30.9744 10.2318 30.5012 9.75557C30.0281 9.27929 29.6528 8.71387 29.3968 8.0916C29.1408 7.46934 29.0091 6.80242 29.0093 6.12894Z" fill="white"/>
<path d="M20.2028 11.2579C23.0176 11.2579 25.2994 8.96157 25.2994 6.12894C25.2994 3.2963 23.0176 1 20.2028 1C17.388 1 15.1062 3.2963 15.1062 6.12894C15.1062 8.96157 17.388 11.2579 20.2028 11.2579Z" stroke="white" stroke-width="0.65" stroke-miterlimit="10"/>
<path d="M15.1062 6.12894C15.1068 5.18891 15.3644 4.26715 15.8506 3.46452C16.3369 2.66188 17.0331 2.00929 17.8632 1.57812C17.414 3.01773 17.179 4.51633 17.166 6.02518V6.19565C17.1771 7.65822 17.3961 9.11167 17.8165 10.5118L17.8669 10.6859C17.0354 10.2546 16.3379 9.60119 15.851 8.79738C15.364 7.99356 15.1063 7.07036 15.1062 6.12894Z" fill="white"/>
<path d="M109.085 56.9501V52.3956L106.676 56.9501H105.745L103.336 52.3956V56.9501H101.617V48.3339H103.226L106.211 54.2015L109.195 48.3302H110.798V56.9464L109.085 56.9501Z" fill="white"/>
<path d="M119.481 50.2165C119.973 50.2068 120.463 50.2906 120.925 50.4636C121.333 50.6215 121.698 50.8757 121.989 51.2047C122.279 51.5582 122.485 51.9728 122.594 52.4178C122.714 52.9283 122.728 53.4579 122.637 53.9743L122.588 54.3066H117.736C117.734 54.4898 117.785 54.6696 117.883 54.8242C117.983 54.9823 118.117 55.1164 118.274 55.217C118.453 55.3311 118.649 55.4146 118.855 55.464C119.085 55.5219 119.321 55.551 119.558 55.5505C119.893 55.5555 120.225 55.4859 120.531 55.3467C120.803 55.2243 121.046 55.0464 121.246 54.8242L122.249 55.8334C121.938 56.216 121.536 56.5134 121.081 56.6981C120.574 56.905 120.031 57.0075 119.485 56.9995C119.006 57.0067 118.529 56.9277 118.078 56.766C117.678 56.6227 117.314 56.3914 117.014 56.0891C116.713 55.7868 116.484 55.4209 116.341 55.0181C116.032 54.1 116.032 53.1049 116.341 52.1868C116.484 51.784 116.713 51.4182 117.014 51.1158C117.314 50.8135 117.678 50.5822 118.078 50.4389C118.529 50.2815 119.004 50.2062 119.481 50.2165ZM121.173 53.0107C121.148 52.7217 121.038 52.4469 120.855 52.2226C120.553 51.8776 120.059 51.7129 119.374 51.7285C119.2 51.7297 119.026 51.7483 118.855 51.7841C118.673 51.8197 118.498 51.8839 118.336 51.9743C118.168 52.0682 118.025 52.2012 117.92 52.3622C117.797 52.5562 117.725 52.7786 117.711 53.0083L121.173 53.0107Z" fill="white"/>
<path d="M127.493 53.6014C127.486 53.1194 127.564 52.6399 127.725 52.1857C127.868 51.7862 128.093 51.4214 128.385 51.1147C128.678 50.8149 129.033 50.5837 129.425 50.4378C129.868 50.276 130.336 50.1969 130.807 50.2043C131.434 50.1879 132.054 50.3365 132.606 50.6354V47.8289H134.146V56.9503H132.834L132.748 56.4821C132.163 56.8395 131.488 57.0189 130.804 56.9984C130.333 57.0059 129.864 56.9268 129.421 56.765C129.029 56.6195 128.674 56.3883 128.382 56.088C128.089 55.7818 127.864 55.4168 127.721 55.017C127.562 54.5626 127.485 54.0832 127.493 53.6014ZM130.869 55.4729C132.067 55.4729 132.666 54.849 132.667 53.6014C132.668 52.3537 132.069 51.7303 130.87 51.7311C129.671 51.7311 129.072 52.3546 129.072 53.6014C129.072 54.8482 129.671 55.472 130.87 55.4729H130.869Z" fill="white"/>
<path d="M139.83 48.6045C139.83 48.0544 140.104 47.7793 140.65 47.7793C140.875 47.7652 141.095 47.8407 141.264 47.9893C141.342 48.0708 141.4 48.1682 141.436 48.2749C141.472 48.3816 141.485 48.4949 141.473 48.607C141.456 49.1571 141.182 49.4317 140.653 49.4309C140.542 49.4428 140.431 49.4296 140.326 49.3924C140.221 49.3552 140.126 49.2949 140.047 49.2159C139.969 49.1369 139.909 49.0413 139.872 48.9359C139.835 48.8305 139.821 48.7181 139.833 48.607L139.83 48.6045ZM139.88 56.9501V50.2487H141.426V56.9452L139.88 56.9501Z" fill="white"/>
<path d="M146.781 53.6012C146.774 53.1192 146.852 52.6397 147.013 52.1855C147.157 51.7862 147.382 51.4214 147.674 51.1145C147.967 50.8147 148.321 50.5836 148.713 50.4376C149.156 50.276 149.624 50.1969 150.095 50.2041C150.78 50.1842 151.455 50.364 152.041 50.7217L152.125 50.2412H153.435V56.9501H152.125L152.041 56.4819C151.453 56.8352 150.779 57.0142 150.095 56.9982C149.623 57.006 149.155 56.9247 148.713 56.7586C148.323 56.6103 147.968 56.3795 147.674 56.0816C147.381 55.7781 147.156 55.4151 147.013 55.0168C146.852 54.5626 146.774 54.0832 146.781 53.6012ZM150.156 55.4726C151.356 55.4726 151.955 54.8488 151.955 53.6012C151.954 52.3535 151.354 51.726 150.156 51.7186C148.958 51.7186 148.359 52.3461 148.359 53.6012C148.359 54.8562 148.958 55.4801 150.156 55.4726Z" fill="white"/>
<path d="M109.085 56.9501V52.3956L106.676 56.9501H105.745L103.336 52.3956V56.9501H101.617V48.3339H103.226L106.211 54.2015L109.195 48.3302H110.798V56.9464L109.085 56.9501Z" fill="white"/>
<path d="M119.481 50.2165C119.973 50.2068 120.463 50.2906 120.925 50.4636C121.333 50.6215 121.698 50.8757 121.989 51.2047C122.279 51.5582 122.485 51.9728 122.594 52.4178C122.714 52.9283 122.728 53.4579 122.637 53.9743L122.588 54.3066H117.736C117.734 54.4898 117.785 54.6696 117.883 54.8242C117.983 54.9823 118.117 55.1164 118.274 55.217C118.453 55.3311 118.649 55.4146 118.855 55.464C119.085 55.5219 119.321 55.551 119.558 55.5505C119.893 55.5555 120.225 55.4859 120.531 55.3467C120.803 55.2243 121.046 55.0464 121.246 54.8242L122.249 55.8334C121.938 56.216 121.536 56.5134 121.081 56.6981C120.574 56.905 120.031 57.0075 119.485 56.9995C119.006 57.0067 118.529 56.9277 118.078 56.766C117.678 56.6227 117.314 56.3914 117.014 56.0891C116.713 55.7868 116.484 55.4209 116.341 55.0181C116.032 54.1 116.032 53.1049 116.341 52.1868C116.484 51.784 116.713 51.4182 117.014 51.1158C117.314 50.8135 117.678 50.5822 118.078 50.4389C118.529 50.2815 119.004 50.2062 119.481 50.2165ZM121.173 53.0107C121.148 52.7217 121.038 52.4469 120.855 52.2226C120.553 51.8776 120.059 51.7129 119.374 51.7285C119.2 51.7297 119.026 51.7483 118.855 51.7841C118.673 51.8197 118.498 51.8839 118.336 51.9743C118.168 52.0682 118.025 52.2012 117.92 52.3622C117.797 52.5562 117.725 52.7786 117.711 53.0083L121.173 53.0107Z" fill="white"/>
<path d="M127.493 53.6014C127.486 53.1194 127.564 52.6399 127.725 52.1857C127.868 51.7862 128.093 51.4214 128.385 51.1147C128.678 50.8149 129.033 50.5837 129.425 50.4378C129.868 50.276 130.336 50.1969 130.807 50.2043C131.434 50.1879 132.054 50.3365 132.606 50.6354V47.8289H134.146V56.9503H132.834L132.748 56.4821C132.163 56.8395 131.488 57.0189 130.804 56.9984C130.333 57.0059 129.864 56.9268 129.421 56.765C129.029 56.6195 128.674 56.3883 128.382 56.088C128.089 55.7818 127.864 55.4168 127.721 55.017C127.562 54.5626 127.485 54.0832 127.493 53.6014ZM130.869 55.4729C132.067 55.4729 132.666 54.849 132.667 53.6014C132.668 52.3537 132.069 51.7303 130.87 51.7311C129.671 51.7311 129.072 52.3546 129.072 53.6014C129.072 54.8482 129.671 55.472 130.87 55.4729H130.869Z" fill="white"/>
<path d="M139.83 48.6045C139.83 48.0544 140.104 47.7793 140.65 47.7793C140.875 47.7652 141.095 47.8407 141.264 47.9893C141.342 48.0708 141.4 48.1682 141.436 48.2749C141.472 48.3816 141.485 48.4949 141.473 48.607C141.456 49.1571 141.182 49.4317 140.653 49.4309C140.542 49.4428 140.431 49.4296 140.326 49.3924C140.221 49.3552 140.126 49.2949 140.047 49.2159C139.969 49.1369 139.909 49.0413 139.872 48.9359C139.835 48.8305 139.821 48.7181 139.833 48.607L139.83 48.6045ZM139.88 56.9501V50.2487H141.426V56.9452L139.88 56.9501Z" fill="white"/>
<path d="M146.781 53.6012C146.774 53.1192 146.852 52.6397 147.013 52.1855C147.157 51.7862 147.382 51.4214 147.674 51.1145C147.967 50.8147 148.321 50.5836 148.713 50.4376C149.156 50.276 149.624 50.1969 150.095 50.2041C150.78 50.1842 151.455 50.364 152.041 50.7217L152.125 50.2412H153.435V56.9501H152.125L152.041 56.4819C151.453 56.8352 150.779 57.0142 150.095 56.9982C149.623 57.006 149.155 56.9247 148.713 56.7586C148.323 56.6103 147.968 56.3795 147.674 56.0816C147.381 55.7781 147.156 55.4151 147.013 55.0168C146.852 54.5626 146.774 54.0832 146.781 53.6012ZM150.156 55.4726C151.356 55.4726 151.955 54.8488 151.955 53.6012C151.954 52.3535 151.354 51.726 150.156 51.7186C148.958 51.7186 148.359 52.3461 148.359 53.6012C148.359 54.8562 148.958 55.4801 150.156 55.4726Z" fill="white"/>
</svg>
