<svg width="256" height="95" viewBox="0 0 256 95" fill="none" xmlns="http://www.w3.org/2000/svg">
<path d="M7.19693 70.7698H0V37.301C0 31.8476 3.06079 28.1899 9.45376 28.1899C15.1876 28.1899 17.7485 31.1655 19.4523 35.9387L31.469 62.652C31.9567 63.6431 32.7504 64.3875 34.0911 64.3875C35.6174 64.3875 36.5397 63.4565 36.5397 62.032V28.926H43.7978V62.3409C43.7978 67.8586 40.686 71.5142 34.3441 71.5142C28.6102 71.5142 25.9881 68.5408 24.2802 63.7675L12.2595 37.0543C11.7106 35.8102 10.978 35.2565 9.69862 35.2565C8.05191 35.2565 7.19693 36.1855 7.19693 37.6722V70.7698Z" fill="#181818"/>
<path d="M86.5532 28.9263V36.2396H65.9439C61.6119 36.2396 59.7223 38.2841 59.7223 41.5084C59.7223 44.9173 61.8567 46.4662 66.0031 46.4662H86.2532V53.1015H65.8153C61.6669 53.1015 59.5326 54.7769 59.5326 58.1858C59.5326 61.4703 61.5445 63.4526 65.7541 63.4526H86.6144V70.7701H65.7541C55.9943 70.7701 52.0295 65.8745 52.0295 59.3657C52.0295 54.5965 54.166 51.3701 57.9471 49.759C54.1048 48.1479 52.152 44.9256 52.152 40.339C52.152 33.6456 56.233 28.9346 65.9378 28.9346L86.5532 28.9263Z" fill="#181818"/>
<path d="M117.281 30.6558C129.237 30.6558 135.885 37.5979 135.885 51.6668C135.885 65.6756 129.298 72.4933 117.281 72.4933H111.67C99.6553 72.4933 93.0664 65.6756 93.0664 51.6668C93.0664 37.5979 99.7144 30.6558 111.67 30.6558H117.281ZM111.67 37.9691C103.74 37.9691 100.263 42.0602 100.263 51.6668C100.263 61.205 103.679 65.18 111.67 65.18H117.281C125.211 65.18 128.627 61.2133 128.627 51.6046C128.627 42.0664 125.211 37.9691 117.281 37.9691H111.67Z" fill="#181818"/>
<path d="M147.185 70.7701H139.499L152.248 35.9348C153.833 31.1657 156.455 28.186 161.944 28.186C168.045 28.186 171.094 31.8437 171.094 37.2971V62.0322C171.094 63.4567 171.949 64.3878 173.167 64.3878C174.265 64.3878 175.12 63.7056 175.485 62.6522L185.484 35.939C187.069 31.1698 189.691 28.1902 195.18 28.1902C201.28 28.1902 204.33 31.8479 204.33 37.3013V70.7701H197.078V37.6724C197.078 36.1857 196.223 35.2568 195.003 35.2568C193.966 35.2568 193.113 35.9991 192.758 37.0545L182.743 63.7616C181.158 68.5307 178.475 71.5083 172.986 71.5083C166.948 71.5083 163.897 67.8526 163.897 62.335V37.66C163.897 36.1733 162.983 35.2443 161.763 35.2443C160.665 35.2443 159.926 35.9866 159.506 37.0421L147.185 70.7701Z" fill="#181818"/>
<path d="M218.366 70.7702H210.437L224.894 33.5836C226.418 29.6791 229.224 28.1924 233.554 28.1924C237.823 28.1924 240.631 29.6812 242.094 33.5836L256 70.7702H248.009L235.507 37.1168C235.14 36.1236 234.468 35.6903 233.493 35.6903C232.518 35.6903 231.846 36.1236 231.42 37.1168L218.366 70.7702Z" fill="#181818"/>
<path d="M78.1419 18.2186C82.821 18.2186 86.6142 14.3641 86.6142 9.60929C86.6142 4.85451 82.821 1 78.1419 1C73.4628 1 69.6697 4.85451 69.6697 9.60929C69.6697 14.3641 73.4628 18.2186 78.1419 18.2186Z" fill="#181818"/>
<path d="M8.81089 18.2186C13.49 18.2186 17.2831 14.3641 17.2831 9.60929C17.2831 4.85451 13.49 1 8.81089 1C4.13178 1 0.338623 4.85451 0.338623 9.60929C0.338623 14.3641 4.13178 18.2186 8.81089 18.2186Z" stroke="#181818" stroke-width="0.65" stroke-miterlimit="10"/>
<path d="M55.0311 18.2186C59.7102 18.2186 63.5034 14.3641 63.5034 9.60929C63.5034 4.85451 59.7102 1 55.0311 1C50.352 1 46.5588 4.85451 46.5588 9.60929C46.5588 14.3641 50.352 18.2186 55.0311 18.2186Z" stroke="#181818" stroke-width="0.65" stroke-miterlimit="10"/>
<path d="M46.5608 9.60929C46.5608 7.32632 47.4531 5.13683 49.0415 3.52234C50.63 1.90784 52.7844 1.00055 55.031 1L54.727 4.84847C54.478 8.01731 54.478 11.2013 54.727 14.3701L55.031 18.2186C53.9185 18.2186 52.8169 17.9959 51.7891 17.5632C50.7613 17.1305 49.8275 16.4963 49.0409 15.6968C48.2544 14.8974 47.6305 13.9483 47.205 12.9038C46.7794 11.8592 46.5605 10.7398 46.5608 9.60929Z" fill="#181818"/>
<path d="M31.9217 18.2186C36.6008 18.2186 40.394 14.3641 40.394 9.60929C40.394 4.85451 36.6008 1 31.9217 1C27.2426 1 23.4495 4.85451 23.4495 9.60929C23.4495 14.3641 27.2426 18.2186 31.9217 18.2186Z" stroke="#181818" stroke-width="0.65" stroke-miterlimit="10"/>
<path d="M23.4495 9.60909C23.4505 8.03117 23.8786 6.48394 24.6869 5.13666C25.4953 3.78938 26.6526 2.69395 28.0325 1.97021C27.2858 4.3867 26.8952 6.9022 26.8735 9.43491V9.72106C26.8919 12.1761 27.2561 14.6158 27.9549 16.966L28.0386 17.2583C26.6564 16.5343 25.497 15.4375 24.6875 14.0882C23.878 12.739 23.4497 11.1893 23.4495 9.60909Z" fill="#181818"/>
<path d="M179.675 94.9163V87.2712L175.669 94.9163H174.122L170.117 87.2712V94.9163H167.26V80.4535H169.935L174.896 90.3027L179.856 80.4473H182.521V94.9101L179.675 94.9163Z" fill="#181818"/>
<path d="M196.955 83.6134C197.774 83.5971 198.588 83.7378 199.355 84.0281C200.034 84.2932 200.641 84.7198 201.124 85.2722C201.606 85.8655 201.95 86.5615 202.13 87.3084C202.329 88.1652 202.353 89.0543 202.202 89.9211L202.12 90.4788H194.054C194.051 90.7864 194.136 91.0882 194.299 91.3477C194.466 91.6131 194.688 91.8381 194.95 92.007C195.247 92.1986 195.573 92.3387 195.915 92.4217C196.297 92.5189 196.69 92.5677 197.084 92.5669C197.641 92.5753 198.193 92.4584 198.7 92.2248C199.152 92.0193 199.557 91.7206 199.89 91.3477L201.557 93.0417C201.04 93.6839 200.372 94.1832 199.614 94.4932C198.772 94.8405 197.87 95.0125 196.962 94.9991C196.165 95.0113 195.373 94.8785 194.623 94.6072C193.958 94.3666 193.353 93.9784 192.854 93.4709C192.355 92.9634 191.973 92.3493 191.736 91.6732C191.222 90.1321 191.222 88.4618 191.736 86.9207C191.973 86.2445 192.355 85.6304 192.854 85.1229C193.353 84.6154 193.958 84.2273 194.623 83.9866C195.373 83.7224 196.162 83.596 196.955 83.6134ZM199.767 88.3037C199.727 87.8185 199.543 87.3572 199.239 86.9808C198.737 86.4016 197.916 86.1251 196.778 86.1514C196.488 86.1534 196.199 86.1846 195.915 86.2447C195.612 86.3045 195.321 86.4123 195.052 86.564C194.773 86.7215 194.536 86.9448 194.36 87.2151C194.155 87.5407 194.036 87.914 194.013 88.2996L199.767 88.3037Z" fill="#181818"/>
<path d="M210.274 89.2951C210.262 88.4859 210.393 87.6812 210.66 86.9188C210.898 86.2482 211.272 85.6358 211.757 85.1211C212.244 84.6177 212.834 84.2297 213.486 83.9848C214.222 83.7132 215 83.5804 215.783 83.5929C216.825 83.5653 217.855 83.8148 218.773 84.3165V79.6055H221.334V94.9164H219.152L219.009 94.1305C218.037 94.7305 216.914 95.0316 215.777 94.9973C214.994 95.0098 214.216 94.877 213.48 94.6054C212.828 94.3612 212.238 93.9731 211.751 93.4691C211.265 92.9551 210.891 92.3424 210.654 91.6713C210.389 90.9086 210.26 90.1038 210.274 89.2951ZM215.885 92.4365C217.877 92.4365 218.873 91.3893 218.875 89.2951C218.876 87.2008 217.88 86.1544 215.887 86.1557C213.895 86.1557 212.898 87.2022 212.898 89.2951C212.898 91.3879 213.895 92.4351 215.887 92.4365H215.885Z" fill="#181818"/>
<path d="M230.783 80.9075C230.783 79.9841 231.238 79.5224 232.146 79.5224C232.519 79.4986 232.885 79.6253 233.167 79.8748C233.295 80.0115 233.393 80.1752 233.453 80.3542C233.513 80.5333 233.533 80.7236 233.513 80.9116C233.485 81.835 233.03 82.296 232.15 82.2947C231.967 82.3145 231.781 82.2925 231.607 82.23C231.433 82.1676 231.275 82.0663 231.144 81.9338C231.013 81.8012 230.913 81.6406 230.852 81.4637C230.79 81.2869 230.768 81.0982 230.787 80.9116L230.783 80.9075ZM230.865 94.9162V83.6673H233.436V94.9079L230.865 94.9162Z" fill="#181818"/>
<path d="M242.337 89.295C242.325 88.4859 242.455 87.6811 242.722 86.9188C242.962 86.2484 243.337 85.6361 243.822 85.121C244.308 84.6177 244.898 84.2297 245.548 83.9847C246.285 83.7135 247.063 83.5807 247.846 83.5928C248.984 83.5595 250.107 83.8612 251.08 84.4616L251.221 83.655H253.398V94.9164H251.221L251.08 94.1305C250.104 94.7236 248.983 95.024 247.846 94.9972C247.062 95.0102 246.283 94.8737 245.548 94.595C244.9 94.3461 244.311 93.9586 243.822 93.4587C243.335 92.9491 242.96 92.3398 242.722 91.6713C242.455 90.9089 242.325 90.1041 242.337 89.295ZM247.948 92.4364C249.942 92.4364 250.939 91.3893 250.938 89.295C250.936 87.2008 249.94 86.1474 247.948 86.135C245.957 86.135 244.961 87.1883 244.961 89.295C244.961 91.4017 245.957 92.4489 247.948 92.4364Z" fill="#181818"/>
<path d="M179.675 94.9163V87.2712L175.669 94.9163H174.122L170.117 87.2712V94.9163H167.26V80.4535H169.935L174.896 90.3027L179.856 80.4473H182.521V94.9101L179.675 94.9163Z" fill="#181818"/>
<path d="M196.955 83.6134C197.774 83.5971 198.588 83.7378 199.355 84.0281C200.034 84.2932 200.641 84.7198 201.124 85.2722C201.606 85.8655 201.95 86.5615 202.13 87.3084C202.329 88.1652 202.353 89.0543 202.202 89.9211L202.12 90.4788H194.054C194.051 90.7864 194.136 91.0882 194.299 91.3477C194.466 91.6131 194.688 91.8381 194.95 92.007C195.247 92.1986 195.573 92.3387 195.915 92.4217C196.297 92.5189 196.69 92.5677 197.084 92.5669C197.641 92.5753 198.193 92.4584 198.7 92.2248C199.152 92.0193 199.557 91.7206 199.89 91.3477L201.557 93.0417C201.04 93.6839 200.372 94.1832 199.614 94.4932C198.772 94.8405 197.87 95.0125 196.962 94.9991C196.165 95.0113 195.373 94.8785 194.623 94.6072C193.958 94.3666 193.353 93.9784 192.854 93.4709C192.355 92.9634 191.973 92.3493 191.736 91.6732C191.222 90.1321 191.222 88.4618 191.736 86.9207C191.973 86.2445 192.355 85.6304 192.854 85.1229C193.353 84.6154 193.958 84.2273 194.623 83.9866C195.373 83.7224 196.162 83.596 196.955 83.6134ZM199.767 88.3037C199.727 87.8185 199.543 87.3572 199.239 86.9808C198.737 86.4016 197.916 86.1251 196.778 86.1514C196.488 86.1534 196.199 86.1846 195.915 86.2447C195.612 86.3045 195.321 86.4123 195.052 86.564C194.773 86.7215 194.536 86.9448 194.36 87.2151C194.155 87.5407 194.036 87.914 194.013 88.2996L199.767 88.3037Z" fill="#181818"/>
<path d="M210.274 89.2951C210.262 88.4859 210.393 87.6812 210.66 86.9188C210.898 86.2482 211.272 85.6358 211.757 85.1211C212.244 84.6177 212.834 84.2297 213.486 83.9848C214.222 83.7132 215 83.5804 215.783 83.5929C216.825 83.5653 217.855 83.8148 218.773 84.3165V79.6055H221.334V94.9164H219.152L219.009 94.1305C218.037 94.7305 216.914 95.0316 215.777 94.9973C214.994 95.0098 214.216 94.877 213.48 94.6054C212.828 94.3612 212.238 93.9731 211.751 93.4691C211.265 92.9551 210.891 92.3424 210.654 91.6713C210.389 90.9086 210.26 90.1038 210.274 89.2951ZM215.885 92.4365C217.877 92.4365 218.873 91.3893 218.875 89.2951C218.876 87.2008 217.88 86.1544 215.887 86.1557C213.895 86.1557 212.898 87.2022 212.898 89.2951C212.898 91.3879 213.895 92.4351 215.887 92.4365H215.885Z" fill="#181818"/>
<path d="M230.783 80.9075C230.783 79.9841 231.238 79.5224 232.146 79.5224C232.519 79.4986 232.885 79.6253 233.167 79.8748C233.295 80.0115 233.393 80.1752 233.453 80.3542C233.513 80.5333 233.533 80.7236 233.513 80.9116C233.485 81.835 233.03 82.296 232.15 82.2947C231.967 82.3145 231.781 82.2925 231.607 82.23C231.433 82.1676 231.275 82.0663 231.144 81.9338C231.013 81.8012 230.913 81.6406 230.852 81.4637C230.79 81.2869 230.768 81.0982 230.787 80.9116L230.783 80.9075ZM230.865 94.9162V83.6673H233.436V94.9079L230.865 94.9162Z" fill="#181818"/>
<path d="M242.337 89.295C242.325 88.4859 242.455 87.6811 242.722 86.9188C242.962 86.2484 243.337 85.6361 243.822 85.121C244.308 84.6177 244.898 84.2297 245.548 83.9847C246.285 83.7135 247.063 83.5807 247.846 83.5928C248.984 83.5595 250.107 83.8612 251.08 84.4616L251.221 83.655H253.398V94.9164H251.221L251.08 94.1305C250.104 94.7236 248.983 95.024 247.846 94.9972C247.062 95.0102 246.283 94.8737 245.548 94.595C244.9 94.3461 244.311 93.9586 243.822 93.4587C243.335 92.9491 242.96 92.3398 242.722 91.6713C242.455 90.9089 242.325 90.1041 242.337 89.295ZM247.948 92.4364C249.942 92.4364 250.939 91.3893 250.938 89.295C250.936 87.2008 249.94 86.1474 247.948 86.135C245.957 86.135 244.961 87.1883 244.961 89.295C244.961 91.4017 245.957 92.4489 247.948 92.4364Z" fill="#181818"/>
</svg>
