<svg width="462" height="229" viewBox="0 0 462 229" fill="none" xmlns="http://www.w3.org/2000/svg">
<g opacity="0.5">
<path d="M118.324 37.4355C119.336 37.2283 120.392 36.9315 121.424 36.8483C122.684 36.7441 123.954 36.6988 125.22 36.6565C127.63 36.5733 130.039 36.5841 132.449 36.6539C137.586 36.8019 142.72 37.2006 147.822 37.8163C158.535 39.1236 169.139 41.2101 179.549 44.0592C189.017 46.6379 198.494 49.6946 207.312 54.0432C216.131 58.3919 224.289 63.931 232.097 69.8629C247.659 81.672 261.998 95.2839 279.096 104.938C283.355 107.361 287.779 109.481 292.335 111.282C297.146 113.169 302.132 114.554 307.152 115.755C316.783 118.087 326.622 119.458 336.524 119.846C355.696 120.559 374.518 117.114 393.194 113.151C395.612 112.637 398.007 112.163 400.454 111.797C401.15 111.691 401.264 112.764 400.644 112.974C395.855 114.606 390.887 115.727 385.948 116.823C381.219 117.873 376.465 118.791 371.688 119.575C362.41 121.084 353.039 122.062 343.632 122.151C333.995 122.24 324.371 121.401 314.894 119.646C304.835 117.785 294.875 115.104 285.59 110.748C267.847 102.424 253.076 89.2031 237.982 76.9481C230.36 70.7643 222.558 64.758 214.129 59.7014C205.7 54.6449 196.663 50.879 187.293 47.8806C177.177 44.6631 166.842 42.1826 156.368 40.4587C146.088 38.7479 135.687 37.7434 125.256 37.8214C124.095 37.8301 122.93 37.8521 121.77 37.899C120.643 37.9436 119.506 37.7994 118.376 37.7591C118.2 37.7526 118.129 37.4752 118.324 37.4355Z" fill="#231F20"/>
<path d="M342.69 193.155C336.212 195.394 329.265 195.922 322.523 194.687C315.765 193.463 309.325 190.754 303.412 187.308C291.078 180.123 280.654 169.88 271.583 158.96C259.782 144.757 250.471 128.691 239.209 114.076C232.901 105.892 225.971 98.1492 218.005 91.5424C210.266 85.1169 201.516 79.8871 192.44 75.5816C184.233 71.7182 175.673 68.6518 166.88 66.4245C157.934 64.1311 148.836 62.753 139.699 61.4855C137.408 61.1677 135.141 60.8373 132.873 60.3956C132.165 60.2571 132.27 59.1412 132.997 59.1353C142.174 59.0914 151.507 60.7772 160.453 62.6734C169.249 64.5121 177.866 67.12 186.205 70.467C195.085 74.0476 203.558 78.5631 211.481 83.9372C220.041 89.7775 227.599 96.8984 234.344 104.746C241.034 112.502 246.973 120.859 252.746 129.307C258.061 137.087 263.195 145.022 268.91 152.515C277.364 163.596 287.088 174.05 298.521 182.106C304.246 186.139 310.512 189.578 317.209 191.678C323.692 193.718 330.543 194.314 337.281 193.422C339.027 193.19 340.754 192.83 342.448 192.347C342.977 192.199 343.211 192.984 342.694 193.161L342.69 193.155Z" fill="#231F20"/>
<path d="M116.907 66.8224C116.936 66.8069 116.963 66.7898 116.989 66.771C117.147 66.6414 117.246 66.4549 117.267 66.2522L121.036 28.8506C121.054 28.6483 120.993 28.4466 120.864 28.2892C120.736 28.1318 120.55 28.0313 120.348 28.0094L38.3633 19.7472C37.8768 19.6342 35.1861 19.1378 28.5017 20.0806C28.3316 20.1054 28.1746 20.1861 28.0554 20.31C27.9363 20.4339 27.8617 20.594 27.8436 20.7649L24.3202 55.7269C24.3041 55.8936 24.3426 56.0611 24.4297 56.2041C24.5169 56.3471 24.6481 56.4579 24.8037 56.52C30.2631 58.672 33.9251 58.6852 34.4348 58.6786L116.423 66.9344C116.592 66.9523 116.763 66.9129 116.907 66.8224ZM119.425 29.4582L115.811 65.3287L34.534 57.1321C34.4984 57.129 34.4625 57.1278 34.4268 57.1285C34.3956 57.1298 31.0442 57.2187 25.9024 55.2855L29.3096 21.5152C35.7333 20.6628 38.0031 21.2381 38.0244 21.243C38.066 21.2554 38.1088 21.2638 38.152 21.2681L119.425 29.4582Z" fill="#231F20"/>
<path d="M117.568 60.2664C117.597 60.2509 117.624 60.2337 117.65 60.215C117.808 60.0853 117.907 59.8989 117.928 59.6962L120.375 35.4065C120.394 35.2037 120.333 35.0015 120.204 34.8437C120.075 34.6859 119.889 34.5853 119.687 34.5636L37.7024 26.3031C37.2149 26.1884 34.5242 25.692 27.8398 26.6348C27.6697 26.6596 27.5127 26.7403 27.3935 26.8642C27.2743 26.9881 27.1998 27.1482 27.1817 27.3191L24.981 49.1709C24.9653 49.3372 25.0037 49.5041 25.0907 49.6468C25.1776 49.7894 25.3084 49.9001 25.4635 49.9623C30.9239 52.116 34.5767 52.1327 35.094 52.1236L117.087 60.3833C117.256 60.3991 117.425 60.3579 117.568 60.2664ZM118.765 36.0114L116.472 58.7727L35.1932 50.577C35.1579 50.5743 35.1224 50.5736 35.087 50.5751C35.0531 50.5758 31.7055 50.667 26.5642 48.7311L28.6456 28.0662C35.0683 27.212 37.3381 27.7874 37.3604 27.7939C37.4019 27.8051 37.4443 27.8129 37.487 27.8174L118.765 36.0114Z" fill="#231F20"/>
<path d="M25.5082 56.449C25.6444 56.3652 25.75 56.2398 25.8092 56.0913C25.8487 55.9823 25.8662 55.8666 25.8607 55.7508L29.3248 21.4264C29.4432 21.3421 29.5331 21.2237 29.5824 21.0869C29.6315 20.96 29.6464 20.8225 29.6255 20.6881C29.6046 20.5536 29.5486 20.4271 29.4632 20.3212C29.3779 20.2138 29.2648 20.1318 29.1363 20.084C29.0077 20.0362 28.8685 20.0245 28.7337 20.05L28.719 20.0593C28.6609 20.0637 28.6016 20.0712 28.5412 20.0816C28.3979 20.1007 28.1904 20.1303 27.9342 20.1698C27.4776 20.2391 26.7632 20.349 25.9592 20.4945C20.0222 21.5077 13.1818 25.6882 10.5173 27.4338C6.58531 30.0173 1.91158 33.7417 1.72204 35.7307C1.49208 38.0123 6.80827 43.3529 9.10619 45.5434C12.786 49.053 18.2066 53.5038 22.385 55.4883C22.9461 55.7532 23.738 56.0949 24.7394 56.5085L24.7792 56.5246L24.8163 56.5401C24.9309 56.579 25.0529 56.591 25.1729 56.5752C25.2929 56.5594 25.4076 56.5162 25.5082 56.449ZM27.7394 21.7352L24.4174 54.687C23.8509 54.4462 23.3832 54.2392 23.0207 54.0691C19.6676 52.483 14.7359 48.783 10.1521 44.4105C5.25829 39.7437 3.16257 36.6044 3.23809 35.8651C3.31784 35.0707 5.94937 32.2451 11.3471 28.6994C16.7448 25.1537 22.2801 22.6545 26.2023 21.9862C26.765 21.8893 27.3014 21.8088 27.7394 21.7352Z" fill="#231F20"/>
<path d="M57.8459 54.1437C58.4228 53.7817 58.9767 53.3841 59.5043 52.9534C61.141 51.6236 62.4977 49.9824 63.4958 48.1247C64.4939 46.2671 65.1136 44.2299 65.319 42.1312C65.5366 40.0333 65.3358 37.9132 64.7283 35.8935C64.1208 33.8738 63.1186 31.9947 61.7799 30.365C60.4496 28.7282 58.8079 27.3714 56.9498 26.3733C55.0918 25.3751 53.0542 24.7553 50.955 24.5497C48.8576 24.3322 46.7378 24.5331 44.7185 25.1407C42.6993 25.7484 40.8207 26.7506 39.1915 28.0894C37.554 29.4192 36.1967 31.0606 35.198 32.9186C34.1993 34.7767 33.5792 36.8143 33.3735 38.9137C33.1566 41.0114 33.358 43.1313 33.9661 45.1507C34.5741 47.17 35.5768 49.0487 36.9159 50.6778C38.2453 52.315 39.8863 53.6722 41.7439 54.6707C43.6014 55.6693 45.6386 56.2894 47.7375 56.4952C51.275 56.8618 54.8334 56.0341 57.8459 54.1437ZM41.6631 28.2072C44.3875 26.4985 47.6053 25.7507 50.804 26.083C52.7019 26.2688 54.5441 26.8292 56.2239 27.7318C57.9037 28.6344 59.3878 29.8613 60.5902 31.3414C61.8009 32.815 62.7072 34.5143 63.2567 36.3407C63.8061 38.1671 63.9878 40.0843 63.7911 41.9814C63.6047 43.8791 63.0441 45.7211 62.1415 47.4009C61.2389 49.0806 60.0123 50.5648 58.5327 51.7676C57.0591 52.9779 55.3601 53.8839 53.534 54.4332C51.7079 54.9824 49.791 55.164 47.8943 54.9674C45.9963 54.7819 44.154 54.2216 42.4742 53.319C40.7943 52.4163 39.3103 51.1893 38.1081 49.709C36.8976 48.2357 35.9913 46.5369 35.4418 44.711C34.8923 42.8851 34.7104 40.9683 34.9066 39.0716C35.0925 37.1733 35.653 35.3307 36.5557 33.6505C37.4584 31.9702 38.6854 30.4857 40.1656 29.2828C40.6391 28.8939 41.1363 28.5349 41.6545 28.208L41.6631 28.2072ZM55.4175 50.2515C55.829 49.9933 56.2238 49.7092 56.5994 49.401C57.7681 48.4521 58.7369 47.2806 59.4497 45.9546C60.1625 44.6285 60.6051 43.1742 60.7519 41.6759C60.9081 40.1779 60.7653 38.6637 60.3315 37.2213C59.8978 35.779 59.1819 34.4371 58.2253 33.2736C57.2761 32.1045 56.1042 31.1356 54.7775 30.4231C53.4508 29.7106 51.9958 29.2687 50.4969 29.1231C48.9995 28.9669 47.486 29.1097 46.0442 29.5431C44.6024 29.9765 43.2611 30.6918 42.0979 31.6477C40.9288 32.5969 39.9597 33.7688 39.2467 35.0953C38.5338 36.4218 38.0913 37.8766 37.9447 39.3754C37.7895 40.8731 37.9329 42.3867 38.3664 43.8286C38.7999 45.2706 39.515 46.6123 40.4703 47.7761C41.42 48.9448 42.5919 49.9135 43.9184 50.6264C45.2448 51.3393 46.6994 51.7821 48.1981 51.9293C50.7208 52.1901 53.2583 51.6002 55.4072 50.2534L55.4175 50.2515ZM44.0939 32.1069C45.9565 30.9382 48.1567 30.4264 50.3439 30.6531C51.6415 30.7793 52.9011 31.1619 54.0497 31.7786C55.1983 32.3953 56.2131 33.2339 57.0352 34.2457C57.8629 35.2532 58.4825 36.415 58.858 37.6638C59.2335 38.9125 59.3574 40.2233 59.2226 41.5203C59.095 42.8177 58.7115 44.077 58.0944 45.2254C57.4773 46.3738 56.6388 47.3885 55.6273 48.2109C54.6196 49.0382 53.458 49.6576 52.2096 50.0333C50.9611 50.409 49.6506 50.5336 48.3538 50.3999C47.0565 50.272 45.7975 49.8883 44.6494 49.271C43.5013 48.6538 42.4869 47.8151 41.6647 46.8036C40.8375 45.7959 40.2181 44.6343 39.8424 43.3859C39.4666 42.1375 39.342 40.827 39.4757 39.5301C39.6027 38.2325 39.9859 36.973 40.603 35.8245C41.2201 34.6761 42.059 33.6614 43.071 32.8394C43.3938 32.575 43.7325 32.3306 44.0853 32.1077L44.0939 32.1069Z" fill="#231F20"/>
<path d="M55.4061 50.2526C55.8176 49.9944 56.2124 49.7104 56.588 49.4022C57.7567 48.4529 58.7256 47.2812 59.4387 45.9551C60.1517 44.6289 60.5948 43.1745 60.7422 41.6761C60.898 40.178 60.7549 38.664 60.3212 37.2216C59.8874 35.7793 59.1717 34.4374 58.2156 33.2737C57.2664 32.1046 56.0944 31.1357 54.7677 30.4232C53.441 29.7107 51.986 29.2688 50.4872 29.1232C48.9898 28.9671 47.4763 29.1098 46.0345 29.5432C44.5927 29.9766 43.2513 30.6919 42.0882 31.6478C40.919 32.597 39.9499 33.7689 39.237 35.0954C38.5241 36.4219 38.0815 37.8767 37.9349 39.3756C37.7798 40.8732 37.9231 42.3868 38.3566 43.8288C38.7901 45.2707 39.5052 46.6124 40.4605 47.7762C41.4102 48.9449 42.5822 49.9137 43.9086 50.6266C45.2351 51.3394 46.6897 51.7822 48.1883 51.9294C50.714 52.1919 53.2548 51.6017 55.4061 50.2526ZM44.0825 32.1081C45.9451 30.9393 48.1453 30.4275 50.3325 30.6542C51.6301 30.7805 52.8897 31.1631 54.0383 31.7798C55.1869 32.3965 56.2017 33.235 57.0238 34.2469C57.8516 35.2544 58.4711 36.4162 58.8466 37.6649C59.2221 38.9136 59.346 40.2244 59.2112 41.5214C59.0836 42.8188 58.7001 44.0781 58.083 45.2265C57.4659 46.3749 56.6274 47.3896 55.6159 48.2121C54.6082 49.0393 53.4466 49.6587 52.1982 50.0344C50.9498 50.4102 49.6392 50.5348 48.3424 50.4011C47.0452 50.2731 45.7861 49.8894 44.638 49.2722C43.4899 48.6549 42.4755 47.8163 41.6533 46.8047C40.8261 45.7971 40.2067 44.6355 39.831 43.3871C39.4552 42.1386 39.3306 40.8281 39.4643 39.5313C39.5913 38.2337 39.9745 36.9742 40.5916 35.8257C41.2087 34.6772 42.0476 33.6626 43.0596 32.8406C43.3856 32.5751 43.7278 32.3301 44.0841 32.107L44.0825 32.1081Z" fill="#231F20"/>
<path d="M47.6875 51.6702C47.803 51.5996 47.898 51.4999 47.9629 51.3811L57.7253 33.476C57.8032 33.3322 57.8334 33.1675 57.8119 33.0054C57.7903 32.8434 57.7179 32.6923 57.6052 32.5739C56.1117 31.0172 54.2084 29.9145 52.1151 29.393C51.9502 29.3533 51.7769 29.3688 51.6217 29.4372C51.4666 29.5056 51.3382 29.623 51.2562 29.7715L41.3496 47.9383C41.269 48.0878 41.2398 48.2596 41.2665 48.4273C41.2932 48.5951 41.3744 48.7493 41.4974 48.8664C43.0656 50.3448 45.0208 51.3481 47.1363 51.76C47.3248 51.7997 47.5213 51.7677 47.6875 51.6702ZM56.0905 33.254L46.8816 50.1407C45.4513 49.7762 44.1209 49.0954 42.9886 48.1486L52.3089 31.0573C53.7175 31.4981 55.0097 32.2487 56.0905 33.254Z" fill="#231F20"/>
<path d="M148.34 45.2602C149.021 44.844 149.668 44.3742 150.275 43.8554C150.41 43.7317 150.497 43.5641 150.52 43.3822C150.544 43.2004 150.502 43.0163 150.402 42.8626C145.876 36.1704 139.757 34.308 135.422 33.9243C132.601 33.663 129.756 33.9286 127.033 34.7076C126.891 34.7544 126.766 34.841 126.673 34.9571C126.58 35.0731 126.522 35.2136 126.506 35.3617L125.507 45.2616C125.492 45.4183 125.525 45.576 125.602 45.7135C125.679 45.851 125.796 45.9618 125.937 46.0311C133.298 49.5948 139.514 48.8267 143.432 47.5538C145.155 46.992 146.803 46.2218 148.34 45.2602ZM148.718 43.1347C146.949 44.4344 144.98 45.4373 142.888 46.1041C137.756 47.7524 132.44 47.3374 127.088 44.869L127.98 36.0296C130.385 35.4304 132.872 35.2363 135.341 35.4552C140.904 35.962 145.403 38.545 148.718 43.1347Z" fill="#231F20"/>
<path d="M143.723 43.0325C143.82 42.9713 143.902 42.8892 143.963 42.7923C144.025 42.6955 144.064 42.5862 144.078 42.4724C144.092 42.3526 144.078 42.2311 144.037 42.1176C143.996 42.0042 143.929 41.9018 143.842 41.8188C138.468 36.7767 131.043 36.1403 127.096 36.212C126.908 36.2173 126.728 36.2911 126.59 36.4194C126.452 36.5478 126.366 36.7219 126.348 36.9092L125.663 43.7048C125.646 43.8911 125.696 44.0775 125.805 44.2295C125.914 44.3815 126.075 44.4888 126.257 44.5316C136.686 46.8999 143.415 43.2145 143.697 43.056L143.723 43.0325ZM127.805 37.7447C131.412 37.7676 137.323 38.4512 141.912 42.1764C139.783 43.0341 134.476 44.6454 127.259 43.1682L127.805 37.7447Z" fill="#231F20"/>
<path d="M126.569 47.0351L126.612 47.0084C126.7 46.9451 126.774 46.8635 126.829 46.7692C126.883 46.6749 126.917 46.57 126.927 46.4616L128.167 34.1661C128.177 34.0578 128.165 33.9486 128.131 33.8454C128.096 33.7422 128.04 33.6474 127.967 33.5672C127.893 33.4874 127.803 33.4241 127.702 33.3815C127.602 33.3389 127.494 33.318 127.385 33.3201L124.739 33.38C124.552 33.3857 124.372 33.4595 124.235 33.5876C124.098 33.7157 124.012 33.8894 123.993 34.0762L122.819 45.7342C122.802 45.921 122.852 46.1078 122.962 46.26C123.072 46.4122 123.233 46.5194 123.416 46.5616L126 47.1431C126.196 47.1822 126.401 47.1435 126.569 47.0351ZM126.548 34.8744L125.483 45.4413L124.417 45.1966L125.456 34.8947L126.548 34.8744Z" fill="#231F20"/>
<path d="M123.918 47.1279C124.017 47.0653 124.1 46.981 124.162 46.8814C124.224 46.7818 124.262 46.6694 124.274 46.5528L125.584 33.542C125.603 33.3392 125.542 33.137 125.413 32.9792C125.284 32.8215 125.098 32.7208 124.896 32.6992L120.928 32.3C120.696 32.2754 120.461 32.2972 120.237 32.3642C120.013 32.4312 119.805 32.5419 119.624 32.6901C119.443 32.8377 119.293 33.0197 119.182 33.2255C119.071 33.4313 119.002 33.657 118.979 33.8896L117.871 44.8944C117.846 45.126 117.869 45.3601 117.935 45.5831C118.002 45.8062 118.113 46.0137 118.26 46.1938C118.408 46.3765 118.59 46.5279 118.797 46.6391C119.003 46.7504 119.23 46.8193 119.463 46.8418L123.434 47.2416C123.603 47.2579 123.773 47.2179 123.918 47.1279ZM123.977 34.1519L122.822 45.6342L119.618 45.3134C119.585 45.3102 119.554 45.3004 119.526 45.2848C119.498 45.2691 119.473 45.2479 119.453 45.2223C119.433 45.1986 119.418 45.1711 119.409 45.1416C119.4 45.112 119.397 45.0809 119.4 45.0501L120.51 34.0443C120.513 34.0127 120.522 33.9821 120.537 33.9542C120.552 33.9263 120.573 33.9017 120.597 33.8819C120.647 33.8424 120.709 33.8236 120.772 33.8294L123.977 34.1519Z" fill="#231F20"/>
<path d="M146.739 61.131C147.421 60.7147 148.068 60.2449 148.675 59.7262C148.81 59.6025 148.897 59.4348 148.92 59.253C148.943 59.0712 148.901 58.8871 148.801 58.7334C144.275 52.0411 138.157 50.1788 133.832 49.7889C131.01 49.5276 128.165 49.7926 125.441 50.5705C125.299 50.6174 125.175 50.704 125.081 50.82C124.988 50.9361 124.93 51.0766 124.915 51.2247L123.917 61.1235C123.902 61.2803 123.935 61.4379 124.012 61.5755C124.089 61.713 124.206 61.8238 124.347 61.8931C131.706 65.4578 137.921 64.6907 141.839 63.4194C143.56 62.8587 145.205 62.0902 146.739 61.131ZM147.118 59.0055C145.348 60.3052 143.379 61.3081 141.288 61.9748C136.155 63.6232 130.841 63.2071 125.49 60.736L126.38 51.8977C128.784 51.2995 131.271 51.1057 133.739 51.3244C139.295 51.8379 143.802 54.4158 147.118 59.0055Z" fill="#231F20"/>
<path d="M142.124 58.9017C142.22 58.8404 142.302 58.7583 142.364 58.6615C142.425 58.5646 142.464 58.4553 142.478 58.3415C142.492 58.2217 142.478 58.1002 142.437 57.9867C142.396 57.8733 142.329 57.771 142.242 57.688C136.873 52.6454 129.445 52.0084 125.498 52.0801C125.31 52.0854 125.13 52.1592 124.992 52.2876C124.855 52.4159 124.768 52.59 124.75 52.7774L124.064 59.5712C124.047 59.7575 124.097 59.9439 124.206 60.0959C124.315 60.2479 124.476 60.3553 124.658 60.398C135.084 62.7684 141.814 59.082 142.094 58.9245L142.124 58.9017ZM126.207 53.6128C129.814 53.6357 135.728 54.3199 140.313 58.0455C138.185 58.9022 132.878 60.5161 125.659 59.0373L126.207 53.6128Z" fill="#231F20"/>
<path d="M124.972 62.9033L125.014 62.8766C125.102 62.8126 125.176 62.7309 125.23 62.6367C125.284 62.5425 125.318 62.4379 125.329 62.3298L126.569 50.0342C126.58 49.926 126.567 49.8167 126.533 49.7136C126.499 49.6104 126.443 49.5156 126.369 49.4354C126.295 49.3556 126.205 49.2923 126.105 49.2497C126.004 49.2071 125.896 49.1862 125.787 49.1882L123.142 49.2481C122.954 49.2539 122.775 49.3277 122.637 49.4558C122.5 49.5839 122.414 49.7575 122.395 49.9444L121.222 61.6024C121.204 61.7891 121.254 61.976 121.363 62.1284C121.473 62.2808 121.634 62.3882 121.816 62.4308L124.402 63.014C124.599 63.0524 124.803 63.0128 124.972 62.9033ZM124.951 50.7425L123.886 61.3095L122.819 61.0648L123.856 50.7735L124.951 50.7425Z" fill="#231F20"/>
<path d="M122.314 62.9989C122.413 62.9366 122.497 62.8526 122.559 62.7532C122.621 62.6539 122.659 62.5418 122.672 62.4254L123.98 49.413C124.001 49.2096 123.94 49.0064 123.811 48.8478C123.681 48.6905 123.495 48.5908 123.292 48.5701L119.324 48.171C119.092 48.1467 118.857 48.1689 118.634 48.2361C118.41 48.3034 118.202 48.4144 118.022 48.5628C117.84 48.7098 117.689 48.8914 117.578 49.097C117.467 49.3025 117.398 49.5281 117.375 49.7606L116.267 60.7654C116.221 61.2344 116.362 61.7027 116.66 62.068C116.958 62.4332 117.388 62.6657 117.857 62.7148L121.829 63.1136C121.999 63.1299 122.169 63.0896 122.314 62.9989ZM122.374 50.0228L121.218 61.5052L118.011 61.1838C117.948 61.1763 117.89 61.1444 117.85 61.0948C117.81 61.0452 117.791 60.9819 117.797 60.9185L118.897 49.923C118.904 49.8585 118.935 49.7992 118.986 49.758C119.009 49.7381 119.037 49.7232 119.067 49.7144C119.097 49.7055 119.128 49.7028 119.159 49.7065L122.374 50.0228Z" fill="#231F20"/>
<path d="M116.825 29.0335C116.853 29.0181 116.881 29.0009 116.907 28.9821C117.065 28.8525 117.165 28.6656 117.186 28.4623L118.545 14.6261C119.221 7.74445 117.657 2.7073 114.254 0.807903C111.45 -0.750395 107.792 0.00100021 103.94 2.93405L76.3415 23.7875C76.2186 23.8809 76.1265 24.009 76.0769 24.1552C76.0274 24.3014 76.0227 24.4591 76.0635 24.608C76.1058 24.7564 76.1914 24.8887 76.3094 24.9881C76.4274 25.0874 76.5725 25.1493 76.7259 25.1656L116.34 29.1552C116.51 29.1704 116.681 29.1276 116.825 29.0335ZM106.219 3.21386C109.026 1.45452 111.573 1.0703 113.501 2.14553C116.307 3.70874 117.617 8.31838 117.011 14.4708L115.728 27.5382L78.8321 23.8225L104.867 4.15295C105.326 3.80347 105.775 3.49236 106.219 3.21386Z" fill="#231F20"/>
<path d="M116.825 29.0328C116.853 29.0174 116.881 29.0002 116.907 28.9814C117.065 28.8518 117.165 28.6649 117.186 28.4615L118.368 16.5037C118.961 10.469 117.58 6.0479 114.577 4.37235C112.111 2.98834 108.875 3.65387 105.492 6.22861L81.5605 24.3059C81.438 24.3997 81.3463 24.528 81.2972 24.6744C81.2482 24.8207 81.244 24.9783 81.2852 25.127C81.3274 25.2754 81.4131 25.4078 81.5311 25.5071C81.6491 25.6065 81.7941 25.6683 81.9475 25.6846L116.343 29.1497C116.512 29.1655 116.682 29.1243 116.825 29.0328ZM107.583 6.63952C109.995 5.12784 112.177 4.79454 113.821 5.71201C116.229 7.05466 117.355 11.0326 116.834 16.3484L115.738 27.5399L84.054 24.3528L106.416 7.45817C106.808 7.15424 107.196 6.88203 107.58 6.64156L107.583 6.63952Z" fill="#231F20"/>
<path d="M106.494 91.7589C109.401 89.9369 111.366 85.6882 111.988 79.7585L113.414 65.928C113.435 65.7253 113.374 65.5228 113.246 65.3644C113.116 65.2063 112.929 65.1059 112.726 65.0851L73.1141 61.0945C72.9604 61.0796 72.8057 61.111 72.67 61.1847C72.5343 61.2584 72.4237 61.371 72.3525 61.508C72.2826 61.6457 72.2554 61.8011 72.2746 61.9544C72.2937 62.1076 72.3582 62.2516 72.4599 62.3678L95.345 88.3117C98.536 91.945 101.97 93.4164 105.017 92.4476C105.536 92.2813 106.033 92.0499 106.494 91.7589ZM111.802 66.5505L110.454 79.6128C109.819 85.7629 107.612 90.0166 104.552 90.9893C102.12 91.7649 99.258 90.4557 96.4996 87.3048L74.9067 62.8322L111.802 66.5505Z" fill="#231F20"/>
<path d="M107.349 88.404C109.908 86.7998 111.638 83.0711 112.171 77.8819L113.403 65.934C113.423 65.7314 113.362 65.5289 113.234 65.3705C113.105 65.2124 112.918 65.112 112.714 65.0912L78.3213 61.6268C78.1676 61.6118 78.013 61.6432 77.8772 61.7169C77.7415 61.7906 77.631 61.9032 77.5597 62.0402C77.4898 62.1779 77.4627 62.3333 77.4818 62.4866C77.501 62.6398 77.5655 62.7838 77.6671 62.9L97.5051 85.3853C100.307 88.5842 103.338 89.8745 106.037 89.014C106.498 88.8672 106.939 88.6622 107.349 88.404ZM111.802 66.5494L110.648 77.7291C110.098 83.0451 108.203 86.7176 105.578 87.5544C103.498 88.2169 101.043 87.0882 98.6673 84.3759L80.1166 63.3468L111.802 66.5494Z" fill="#231F20"/>
<path d="M383.563 139.025C382.131 140.151 380.7 141.318 379.168 142.298C377.675 143.239 376.129 144.092 374.538 144.854C371.355 146.412 368.061 147.732 364.682 148.803C357.95 150.938 350.935 152.067 343.885 152.372C329.637 152.986 315.263 150.304 302.027 145.042C288.395 139.627 276.425 130.99 265.548 121.259C253.948 110.881 243.598 99.23 232.41 88.4312C221.305 77.7243 209.142 67.7811 195.22 60.9705C193.527 60.1429 191.895 59.2043 190.185 58.4036C189.937 58.285 190.134 57.9174 190.383 58.0264C192.209 58.8228 193.97 59.742 195.804 60.5333C197.54 61.2907 199.253 62.0968 200.944 62.9517C204.363 64.6801 207.68 66.6019 210.88 68.7077C217.239 72.8992 223.118 77.743 228.745 82.8572C240.119 93.1921 250.501 104.519 261.633 115.086C272.243 125.157 283.784 134.607 297.084 140.901C309.809 146.925 323.895 150.336 337.973 150.645C345.033 150.817 352.088 150.127 358.981 148.59C365.936 147.021 372.41 144.388 378.681 141.037C380.22 140.214 381.763 139.45 383.251 138.531C383.579 138.326 383.854 138.801 383.559 139.023L383.563 139.025Z" fill="#231F20"/>
<path d="M152.374 53.4347C153.43 53.6179 154.518 53.7441 155.551 54.0329C156.617 54.335 157.679 54.6446 158.734 54.9834C160.872 55.6732 163.009 56.3779 165.13 57.1172C167.319 57.8803 169.495 58.6812 171.647 59.5356C173.799 60.3901 175.893 61.3658 177.958 62.3912C180.228 63.5005 182.399 64.8001 184.449 66.2762C184.704 66.4637 184.406 66.8489 184.139 66.7173C180.089 64.7048 176.016 62.757 171.8 61.1134C169.687 60.2918 167.594 59.4567 165.467 58.6894C163.339 57.9221 161.208 57.2073 159.071 56.5009C157.897 56.1136 156.759 55.7262 155.589 55.3176C155.291 55.2056 154.969 55.1149 154.667 54.9824C154.364 54.8499 154.11 54.7145 153.837 54.5887C153.302 54.3339 152.765 54.0774 152.227 53.8193C152 53.7125 152.142 53.3842 152.372 53.4245L152.374 53.4347Z" fill="#231F20"/>
<path d="M156.731 46.1372C157.048 46.137 157.342 46.0808 157.66 46.0935C157.979 46.1062 158.321 46.1357 158.653 46.1697C159.291 46.2503 159.921 46.3858 160.535 46.5748C161.831 46.9632 163.088 47.4682 164.292 48.0836C166.765 49.3078 169.107 50.7742 171.427 52.2749C172.069 52.6902 172.714 53.1035 173.364 53.5066C173.676 53.7026 173.989 53.8948 174.306 54.0833C174.644 54.2909 174.968 54.5223 175.274 54.7757C175.665 55.09 175.3 55.8329 174.808 55.664C174.475 55.5617 174.152 55.4303 173.842 55.2713C173.565 55.1164 173.286 54.9599 173.01 54.7996C172.435 54.4675 171.864 54.1306 171.296 53.7889C170.119 53.0811 168.955 52.352 167.785 51.6304C166.616 50.9088 165.456 50.2202 164.25 49.5829C163.085 48.9661 161.884 48.4309 160.663 47.9334C160.021 47.6737 159.361 47.4888 158.682 47.2502C158.37 47.1394 158.036 47.0361 157.71 46.9459C157.523 46.9118 157.339 46.8621 157.16 46.7973C157.006 46.7229 156.842 46.6719 156.673 46.6461C156.613 46.6304 156.56 46.5937 156.525 46.5427C156.489 46.4918 156.473 46.4298 156.479 46.3679C156.485 46.3061 156.513 46.2484 156.558 46.2053C156.603 46.1622 156.661 46.1365 156.723 46.1327L156.731 46.1372Z" fill="#231F20"/>
<path d="M255.407 121.108C256.486 122.299 257.343 123.676 258.273 124.988C259.203 126.3 260.132 127.59 261.078 128.881C262.914 131.384 264.8 133.846 266.736 136.267C270.445 140.963 274.428 145.436 278.664 149.664C282.78 153.754 287.214 157.511 291.924 160.901C296.75 164.346 301.891 167.328 307.277 169.806C313.123 172.481 319.154 174.73 325.324 176.534C326.137 176.774 326.95 177.008 327.759 177.259C327.798 177.273 327.831 177.3 327.851 177.336C327.871 177.372 327.877 177.414 327.868 177.454C327.858 177.494 327.835 177.53 327.801 177.553C327.767 177.577 327.726 177.587 327.685 177.582C324.392 176.966 321.144 176.128 317.964 175.073C314.923 174.104 311.936 172.975 309.014 171.691C303.512 169.23 298.239 166.287 293.256 162.896C288.429 159.601 283.879 155.918 279.649 151.884C275.337 147.756 271.287 143.363 267.522 138.731C263.519 133.848 259.811 128.721 256.245 123.517C255.78 122.858 255.361 122.168 254.994 121.451C254.869 121.201 255.184 120.862 255.407 121.108Z" fill="#231F20"/>
<path d="M447.213 97.9708C447.158 97.8163 447.096 97.6631 447.034 97.51C446.985 97.3835 447.044 97.5264 447.019 97.4854C446.993 97.4444 446.966 97.441 446.938 97.4193C446.884 97.3732 446.83 97.3298 446.778 97.2913L447.003 97.4087L446.955 97.402C446.856 97.379 446.764 97.3303 446.69 97.2607C446.615 97.1912 446.56 97.1032 446.531 97.0057C446.491 96.8983 446.611 97.1336 446.55 97.0369L446.519 96.9877C446.494 96.9467 446.468 96.9057 446.442 96.8648C446.391 96.7828 446.349 96.6946 446.301 96.6106C446.199 96.4467 446.096 96.2827 445.993 96.1188C445.945 96.0417 445.896 95.9647 445.837 95.8948C445.777 95.825 445.567 95.527 445.772 95.7916C445.681 95.6725 445.585 95.5549 445.491 95.4379C445.451 95.374 445.32 95.2527 445.523 95.4888C445.484 95.449 445.449 95.4046 445.414 95.3628C445.287 95.2142 445.164 95.0879 445.035 94.9543C445.02 94.9426 445.006 94.9301 444.993 94.9166L444.839 94.7324L444.956 94.8759C444.931 94.8365 444.895 94.8044 444.864 94.7691C444.798 94.6964 444.732 94.6237 444.662 94.553C444.406 94.2839 444.133 94.031 443.845 93.7957C443.696 93.6744 443.546 93.5585 443.396 93.4443C443.358 93.4158 443.319 93.3901 443.279 93.36C443.565 93.5757 443.419 93.4594 443.35 93.4113C443.282 93.3632 443.184 93.2988 443.098 93.2453C442.771 93.035 442.434 92.8427 442.086 92.6693C441.739 92.4942 441.384 92.3361 441.021 92.1949L440.88 92.1399C440.654 92.0531 441.061 92.2041 440.948 92.1655C440.835 92.1269 440.756 92.0962 440.657 92.065C440.463 91.9994 440.266 91.9375 440.07 91.8799C439.257 91.6443 438.426 91.4702 437.586 91.3592L437.278 91.3237C437.223 91.3195 437.169 91.3126 437.114 91.3057C436.973 91.2888 437.312 91.3257 437.287 91.3229L436.933 91.2866L436.619 91.2553C437.075 91.3051 436.636 91.2579 436.526 91.2494C436.076 91.2118 435.625 91.1901 435.172 91.1846C434.246 91.1675 433.319 91.2042 432.396 91.2945C431.928 91.3388 431.459 91.3954 430.994 91.4656L430.816 91.4922L430.745 91.5053C430.577 91.5301 431.05 91.4532 430.881 91.4817L430.526 91.5421C430.288 91.5859 430.05 91.6323 429.813 91.6804C427.91 92.0711 426.054 92.6621 424.275 93.4436L424.124 93.5086L424.041 93.5471C424.098 93.516 424.158 93.4888 424.218 93.4656C424.103 93.5352 423.98 93.5922 423.852 93.6357C423.64 93.7371 423.427 93.8428 423.216 93.9501C422.79 94.1669 422.371 94.3963 421.958 94.6385C421.131 95.1197 420.337 95.654 419.581 96.2381C419.398 96.3774 419.219 96.5216 419.041 96.6674C419.371 96.3992 419.112 96.6093 418.992 96.7122L418.714 96.9546C418.372 97.2607 418.04 97.5804 417.716 97.9117C417.391 98.2429 417.088 98.586 416.798 98.9435C416.653 99.1193 416.511 99.2973 416.374 99.4792L416.191 99.7263L416.091 99.8663C415.996 99.999 416.263 99.6167 416.19 99.722L416.124 99.8206C415.617 100.557 415.18 101.338 414.818 102.156C414.727 102.365 414.64 102.572 414.556 102.776L414.533 102.841C414.472 102.998 414.645 102.543 414.586 102.696C414.568 102.744 414.55 102.792 414.534 102.84C414.495 102.952 414.45 103.069 414.42 103.179C414.281 103.61 414.165 104.048 414.072 104.491C413.977 104.946 413.913 105.401 413.86 105.859C413.914 105.392 413.865 105.834 413.854 105.959L413.834 106.317C413.819 106.554 413.818 106.801 413.82 107.045C413.824 107.544 413.854 108.043 413.91 108.539C413.924 108.653 413.937 108.769 413.953 108.882C413.961 108.945 413.971 109.009 413.979 109.073L413.995 109.171C414.029 109.378 413.951 108.908 413.972 109.032C414.016 109.292 414.069 109.551 414.12 109.811C414.369 110.913 414.703 111.994 415.119 113.044C415.229 113.329 415.347 113.612 415.468 113.892L415.554 114.085C415.646 114.292 415.432 113.821 415.539 114.06C415.614 114.221 415.689 114.379 415.766 114.539C416.055 115.127 416.33 115.722 416.632 116.303C416.66 116.347 416.687 116.391 416.705 116.442C416.723 116.492 416.867 116.875 416.761 116.53C416.806 116.668 416.881 116.806 416.929 116.945C416.978 117.084 417.039 117.251 417.094 117.401C417.248 117.732 417.368 118.078 417.451 118.433L417.375 118.18L417.403 118.226C417.474 118.341 417.496 118.478 417.466 118.609C417.436 118.74 417.356 118.855 417.243 118.927C417.128 118.996 416.991 119.017 416.86 118.987C416.73 118.957 416.616 118.877 416.543 118.765L416.514 118.719L416.709 118.899C416.377 118.734 416.09 118.389 415.823 118.138C415.704 118.028 415.586 117.917 415.469 117.803C415.391 117.729 415.017 117.337 415.298 117.614C415.183 117.489 415.079 117.355 414.987 117.213C414.591 116.677 414.229 116.117 413.904 115.535C413.259 114.398 412.731 113.2 412.325 111.957C411.647 109.822 411.414 107.571 411.639 105.343C411.851 103.408 412.458 101.537 413.423 99.8467C414.385 98.1665 415.621 96.6591 417.081 95.3868C418.599 94.0546 420.282 92.9229 422.088 92.0196C423.931 91.0953 425.868 90.3739 427.866 89.8681C429.821 89.3693 431.823 89.0841 433.839 89.0175C435.724 88.9433 437.611 89.1327 439.444 89.5802C441.168 90.0032 442.798 90.7407 444.254 91.7558C444.881 92.1974 445.454 92.7124 445.96 93.2898C446.256 93.6248 446.514 93.991 446.731 94.3819C446.78 94.4606 446.834 94.5458 446.865 94.6315L446.931 94.759C446.94 94.7738 446.951 94.7902 446.961 94.8065C447.07 95.0421 447.077 95.0605 446.992 94.8557L447.014 94.8918C447.105 95.1247 447.221 95.3491 447.31 95.5857C447.445 95.9395 447.519 96.3131 447.648 96.6683C447.678 96.7638 447.681 96.8654 447.659 96.9627C447.637 97.0601 447.589 97.1499 447.521 97.2231L447.493 97.2545L447.609 97.0285L447.558 97.2413C447.552 97.2757 447.542 97.3093 447.529 97.3414C447.498 97.4044 447.507 97.2549 447.525 97.3644C447.558 97.5446 447.581 97.7267 447.601 97.9082C447.62 98.1245 447.302 98.1596 447.23 97.9675L447.213 97.9708Z" fill="#231F20"/>
<path d="M426.985 122.228C426.777 122.112 426.566 121.998 426.349 121.903C426.243 121.858 426.133 121.81 426.036 121.768L425.887 121.709L425.695 121.621C425.59 121.573 425.481 121.527 425.381 121.484C425.331 121.463 425.282 121.446 425.232 121.425C425.141 121.386 425.332 121.46 425.326 121.458C425.227 121.425 425.131 121.387 425.037 121.344C424.823 121.25 424.604 121.145 424.382 121.056C424.284 121.017 424.185 120.983 424.083 120.944C424.356 121.058 424.163 120.972 424.089 120.954L423.915 120.894C423.692 120.819 423.467 120.75 423.239 120.69C422.782 120.566 422.319 120.467 421.851 120.395C421.616 120.36 421.38 120.332 421.143 120.298C421.03 120.28 420.917 120.264 420.803 120.25L420.645 120.231L420.54 120.219C420.407 120.204 420.805 120.242 420.671 120.233C420.192 120.197 419.718 120.17 419.239 120.174C418.759 120.177 418.297 120.205 417.829 120.252C417.588 120.277 417.35 120.308 417.112 120.343L417.032 120.354L417.169 120.332C417.115 120.338 417.063 120.348 417.011 120.36L416.643 120.429C415.694 120.618 414.765 120.895 413.867 121.255L413.545 121.389L413.398 121.453C413.175 121.552 413.632 121.346 413.462 121.413C413.243 121.516 413.028 121.621 412.815 121.732C412.388 121.954 411.967 122.202 411.571 122.459C411.171 122.72 410.784 123.002 410.412 123.302C410.366 123.331 410.21 123.468 410.391 123.315C410.572 123.163 410.391 123.315 410.35 123.341C410.257 123.421 410.164 123.502 410.071 123.585C409.895 123.745 409.724 123.909 409.557 124.076C409.228 124.405 408.917 124.753 408.626 125.116C408.556 125.204 408.485 125.296 408.417 125.386L408.307 125.535C408.274 125.581 408.141 125.77 408.276 125.577C408.411 125.385 408.276 125.577 408.248 125.62L408.16 125.753L407.962 126.064C407.714 126.472 407.491 126.895 407.294 127.33C407.201 127.546 407.102 127.773 407.008 127.996C406.964 128.103 406.917 128.215 406.881 128.32C406.809 128.502 406.977 128.045 406.914 128.231L406.841 128.436C406.678 128.904 406.563 129.373 406.438 129.844C406.367 130.095 406.339 130.345 406.266 130.585C406.192 130.825 406.099 131.073 406.023 131.32C405.936 131.632 405.77 131.917 405.542 132.148C405.457 132.244 405.339 132.305 405.211 132.318C405.083 132.331 404.955 132.297 404.852 132.22C404.372 131.765 404.243 131.06 404.182 130.423C404.171 130.171 404.181 129.919 404.212 129.669C404.233 129.33 404.275 128.993 404.337 128.659C404.551 127.59 404.922 126.558 405.439 125.598C406.471 123.732 407.914 122.124 409.658 120.897C411.35 119.697 413.256 118.834 415.274 118.355C417.355 117.848 419.516 117.756 421.633 118.084C422.662 118.273 423.662 118.599 424.604 119.053C425.547 119.452 426.398 120.041 427.103 120.784C427.27 120.972 427.44 121.155 427.603 121.345C427.698 121.436 427.757 121.556 427.771 121.686C427.784 121.816 427.751 121.947 427.677 122.055C427.602 122.162 427.491 122.239 427.364 122.271C427.236 122.303 427.102 122.288 426.985 122.228Z" fill="#231F20"/>
<path d="M407.231 126.373C406.276 125.738 405.255 125.209 404.187 124.794C404.036 124.736 404.356 124.853 404.166 124.787C404.105 124.765 404.043 124.743 403.98 124.723C403.787 124.656 403.6 124.58 403.41 124.502C403.358 124.482 403.305 124.463 403.253 124.441C403.408 124.496 403.032 124.351 403.253 124.441C403.097 124.386 402.992 124.349 402.86 124.306C402.37 124.146 401.871 124.018 401.365 123.921C401.119 123.874 400.872 123.835 400.623 123.801L400.254 123.759C400.254 123.759 400.537 123.784 400.37 123.77L400.292 123.765L400.082 123.747C399.583 123.716 399.077 123.692 398.581 123.709C398.078 123.721 397.577 123.76 397.078 123.826L396.711 123.881C396.592 123.898 396.892 123.849 396.868 123.855L396.763 123.873L396.557 123.909C396.312 123.955 396.068 124.007 395.824 124.065C394.815 124.309 393.83 124.64 392.879 125.054C392.775 125.099 392.359 125.291 392.756 125.106L392.403 125.271C392.158 125.387 391.916 125.51 391.675 125.636C391.197 125.887 390.727 126.157 390.267 126.438C389.327 127.02 388.423 127.656 387.558 128.344L387.238 128.602L387.101 128.715C386.95 128.837 387.212 128.622 387.214 128.621C387.181 128.642 387.148 128.662 387.124 128.696C386.905 128.879 386.689 129.067 386.476 129.255C386.055 129.629 385.641 130.007 385.244 130.407C384.441 131.193 383.69 132.027 382.937 132.858C382.563 133.268 382.211 133.696 381.821 134.091C381.432 134.486 381.059 134.868 380.686 135.26C380.554 135.427 380.39 135.565 380.203 135.667C380.033 135.734 379.851 135.77 379.668 135.774C379.53 135.777 379.396 135.735 379.284 135.655C379.172 135.575 379.09 135.46 379.049 135.329C378.998 135.19 378.967 135.044 378.955 134.896C378.974 134.643 379.057 134.398 379.195 134.185C379.323 133.942 379.453 133.701 379.585 133.46C379.894 132.899 380.244 132.361 380.631 131.85C381.334 130.94 382.096 130.077 382.911 129.265C384.575 127.587 386.417 126.094 388.403 124.814C390.295 123.586 392.363 122.653 394.536 122.047C396.671 121.478 398.922 121.289 401.097 121.72C402.205 121.945 403.282 122.306 404.301 122.795C404.844 123.073 405.357 123.404 405.835 123.784C406.298 124.132 406.739 124.508 407.155 124.911C407.375 125.123 407.588 125.343 407.796 125.569C407.882 125.651 407.935 125.761 407.947 125.879C407.959 125.997 407.929 126.115 407.862 126.213C407.795 126.312 407.695 126.383 407.579 126.414C407.464 126.444 407.341 126.431 407.234 126.377L407.231 126.373Z" fill="#231F20"/>
<path d="M423.175 77.4424C422.934 77.396 422.688 77.38 422.442 77.395C422.193 77.4015 421.944 77.3889 421.697 77.3574C421.199 77.3316 420.698 77.3331 420.199 77.317C419.184 77.3015 418.17 77.3689 417.167 77.5185C417.083 77.5274 417.218 77.5092 417.222 77.5088L417.115 77.5261L416.956 77.5545C416.823 77.5786 416.691 77.6044 416.552 77.637C416.305 77.6886 416.059 77.7472 415.816 77.8123C415.326 77.9414 414.842 78.0928 414.363 78.2665C414.124 78.3548 413.888 78.448 413.652 78.5455L413.303 78.6984C413.221 78.7315 413.354 78.6665 413.355 78.6655L413.256 78.7116L413.057 78.8048C412.595 79.0258 412.142 79.2687 411.701 79.5312C411.26 79.7937 410.829 80.0779 410.403 80.3746C410.193 80.5244 409.986 80.6791 409.78 80.8381L409.475 81.0797L409.347 81.1851C409.483 81.0746 409.347 81.1851 409.291 81.234C408.506 81.9015 407.779 82.6339 407.117 83.4234C406.946 83.6285 406.779 83.8359 406.619 84.0461C406.545 84.1401 406.474 84.2348 406.404 84.3311L406.292 84.4863L406.244 84.5526C406.301 84.4688 406.159 84.6721 406.244 84.5526C405.96 84.9773 405.683 85.4022 405.431 85.8456C405.179 86.2889 404.951 86.7377 404.746 87.2001C404.642 87.4291 404.544 87.662 404.453 87.8951L404.386 88.072C404.335 88.2021 404.435 87.9317 404.37 88.1135L404.247 88.4697C403.935 89.4311 403.704 90.4164 403.554 91.4158L403.506 91.7612L403.484 91.9458L403.476 92.0267C403.467 92.1075 403.484 91.9093 403.481 92.0349C403.456 92.279 403.445 92.539 403.435 92.7921C403.416 93.3016 403.408 93.8066 403.433 94.3162C403.445 94.5715 403.411 94.8277 403.399 95.0845C403.385 95.3945 402.91 95.6307 402.747 95.2831C402.613 95.0366 402.505 94.777 402.423 94.5085C402.362 94.2545 402.317 93.9955 402.273 93.7371C402.182 93.1884 402.132 92.6335 402.123 92.0773C402.104 90.9928 402.236 89.9108 402.515 88.8629C403.122 86.7524 404.132 84.7794 405.489 83.0529C406.822 81.3278 408.44 79.8436 410.274 78.6649C412.089 77.4804 414.108 76.6444 416.228 76.1999C417.293 75.9739 418.381 75.8807 419.469 75.9227C420.02 75.9283 420.57 75.9918 421.108 76.1121C421.362 76.1815 421.61 76.2539 421.861 76.341C422.136 76.4119 422.4 76.5182 422.646 76.6572C422.867 76.7943 423.096 76.9168 423.333 77.0238C423.57 77.147 423.422 77.4751 423.179 77.4404L423.175 77.4424Z" fill="#231F20"/>
<path d="M409.111 96.7456C408.914 96.702 408.716 96.6959 408.52 96.6592C408.323 96.6226 408.114 96.5802 407.908 96.547C407.521 96.4862 407.171 96.4426 406.837 96.4192C406.627 96.4047 406.42 96.3839 406.21 96.3555L405.921 96.3199L405.855 96.3133L405.758 96.3052C405.399 96.2747 405.044 96.2577 404.677 96.2662C404.31 96.2747 403.974 96.2889 403.624 96.3252C403.468 96.3412 403.31 96.3626 403.158 96.3894C402.959 96.4155 403.312 96.3589 403.179 96.3761L403.066 96.3965C402.982 96.4108 402.896 96.4277 402.812 96.4463C402.163 96.5649 401.524 96.7362 400.902 96.9585C400.764 97.011 400.627 97.0694 400.49 97.1278C400.309 97.2044 400.665 97.0431 400.541 97.096L400.441 97.1447L400.218 97.2549C399.924 97.4073 399.64 97.5758 399.365 97.7598C399.239 97.8389 399.121 97.9285 399.003 98.0164L398.827 98.1516L398.741 98.2217C398.579 98.3486 398.924 98.0615 398.771 98.2032C398.52 98.4165 398.281 98.6427 398.054 98.8809C397.83 99.1276 397.619 99.3862 397.423 99.6556L397.286 99.8418C397.247 99.8933 397.206 99.9904 397.328 99.7786C397.31 99.8108 397.284 99.8428 397.263 99.8744C397.163 100.021 397.067 100.171 396.976 100.324C396.61 100.946 396.299 101.599 396.048 102.275L396.003 102.396C395.936 102.563 396.052 102.255 396.01 102.37L395.902 102.683C395.836 102.884 395.773 103.085 395.714 103.291C395.592 103.726 395.492 104.168 395.408 104.624C395.325 105.081 395.248 105.563 395.144 106.024C395.086 106.27 395.029 106.515 394.98 106.764C394.918 107.027 394.826 107.283 394.705 107.525C394.57 107.819 394.053 107.872 393.913 107.565C393.782 107.32 393.69 107.057 393.638 106.784C393.604 106.555 393.576 106.321 393.549 106.092C393.496 105.583 393.498 105.071 393.557 104.563C393.648 103.739 393.81 102.924 394.042 102.128C394.498 100.59 395.277 99.1677 396.327 97.9558C397.287 96.8521 398.483 95.9798 399.828 95.4045C401.172 94.8292 402.629 94.5657 404.09 94.6338C404.981 94.6664 405.865 94.8019 406.724 95.0374C407.174 95.1815 407.612 95.3589 408.034 95.5681C408.247 95.6632 408.462 95.7729 408.674 95.8846C408.885 95.9963 409.084 96.15 409.298 96.2763C409.352 96.3067 409.394 96.3554 409.415 96.4137C409.437 96.4721 409.437 96.5361 409.415 96.5944C409.394 96.6527 409.352 96.7015 409.298 96.7319C409.244 96.7623 409.181 96.7724 409.12 96.7604L409.111 96.7456Z" fill="#231F20"/>
<path d="M396.445 99.4772C396.197 99.3634 395.962 99.2238 395.743 99.0608C395.547 98.905 395.351 98.7518 395.151 98.6007C394.951 98.4496 394.788 98.3307 394.604 98.1972L394.455 98.0916C394.601 98.1966 394.445 98.0752 394.415 98.0641C394.26 97.9583 394.111 97.8484 393.959 97.7378L393.713 97.5634C393.888 97.6821 393.593 97.4811 393.541 97.4426C393.35 97.3116 393.151 97.1847 392.957 97.0574C392.574 96.8093 392.176 96.5765 391.782 96.3415C391.034 95.8969 390.258 95.4983 389.461 95.1479C389.262 95.0602 389.063 94.9751 388.862 94.8954C388.779 94.8608 388.694 94.8273 388.61 94.7954L388.46 94.7386C388.632 94.7976 388.202 94.6401 388.46 94.7386C388.071 94.5988 387.68 94.4671 387.283 94.3507C386.494 94.1192 385.709 93.8985 384.899 93.7437C384.516 93.6706 384.129 93.6086 383.739 93.5576L383.436 93.519L383.284 93.5024C383.083 93.4801 383.57 93.5287 383.367 93.5101C383.163 93.4915 382.966 93.4757 382.764 93.4631C381.98 93.4148 381.194 93.4135 380.41 93.4592C380.01 93.4813 379.611 93.5189 379.216 93.5658C379.034 93.5886 378.853 93.613 378.673 93.6391C378.574 93.653 378.191 93.7126 378.618 93.6462L378.273 93.7047C376.727 93.9905 375.218 94.4464 373.773 95.0643L373.495 95.1858L373.356 95.248C373.713 95.09 373.56 95.1544 373.477 95.1928C373.285 95.2809 373.095 95.3706 372.905 95.4645C372.556 95.6373 372.213 95.8182 371.875 96.0074C371.158 96.4086 370.461 96.8481 369.788 97.3155C369.461 97.5453 369.143 97.7812 368.828 98.0246C368.664 98.1526 368.501 98.2822 368.34 98.4151L368.239 98.4987C368.122 98.5926 368.499 98.279 368.34 98.4151C368.247 98.4936 368.152 98.5715 368.061 98.6516C367.436 99.1918 366.836 99.7644 366.266 100.364C365.696 100.963 365.138 101.61 364.621 102.272C364.353 102.613 364.095 102.962 363.842 103.317C363.722 103.49 364.017 103.064 363.893 103.244L363.8 103.38C363.748 103.454 363.697 103.529 363.647 103.606C363.515 103.803 363.382 104 363.256 104.203C362.316 105.687 361.519 107.257 360.876 108.891L360.752 109.211C360.732 109.265 360.713 109.32 360.692 109.373C360.829 109.017 360.747 109.224 360.717 109.304C360.638 109.52 360.563 109.739 360.49 109.958C360.341 110.398 360.222 110.85 360.073 111.29C359.925 111.73 359.793 112.151 359.667 112.586C359.513 113.103 359.327 113.609 359.11 114.102C359.088 114.155 359.067 114.209 359.043 114.261C358.947 114.455 359.129 114.002 359.011 114.32C358.965 114.444 358.913 114.564 358.863 114.684C358.769 114.899 358.688 115.109 358.604 115.324C358.543 115.439 358.446 115.531 358.327 115.585C358.209 115.64 358.076 115.653 357.949 115.625C357.824 115.593 357.711 115.522 357.629 115.422C357.546 115.322 357.498 115.198 357.491 115.069C357.468 114.83 357.445 114.594 357.427 114.354L357.412 114.178C357.407 114.101 357.358 113.972 357.435 114.163C357.391 113.986 357.374 113.803 357.383 113.621C357.365 113.078 357.407 112.534 357.509 112C357.679 111.071 357.92 110.157 358.23 109.264C358.839 107.471 359.62 105.741 360.561 104.097C362.366 100.966 364.768 98.2192 367.63 96.0121C370.278 93.9601 373.336 92.5025 376.598 91.7384C379.91 90.9684 383.359 91.0153 386.649 91.8752C388.377 92.3514 390.031 93.0634 391.565 93.991C391.953 94.2231 392.332 94.4646 392.706 94.7188C392.852 94.8169 392.996 94.9186 393.139 95.0187C392.845 94.8124 393.342 95.1678 393.413 95.2235C393.596 95.3623 393.778 95.5064 393.956 95.6526C394.702 96.2573 395.399 96.9185 396.043 97.6305C396.211 97.8177 396.377 98.006 396.539 98.1963C396.721 98.409 396.87 98.647 396.982 98.9029C397.15 99.2431 396.835 99.6664 396.452 99.4635L396.445 99.4772Z" fill="#231F20"/>
<path d="M387.409 144.162L387.101 144.268L386.965 144.317C386.945 144.329 386.83 144.401 386.89 144.343C386.949 144.285 386.866 144.385 386.853 144.398C386.772 144.481 386.672 144.544 386.562 144.581C386.447 144.632 386.46 144.624 386.366 144.669C386.015 144.835 385.675 145.022 385.346 145.228C385.035 145.424 384.723 145.619 384.432 145.847C384.352 145.897 384.278 145.964 384.205 146.024C384.009 146.176 384.341 145.902 384.156 146.054C384.035 146.16 383.913 146.264 383.785 146.362C383.721 146.402 383.688 146.485 383.843 146.312C383.806 146.348 383.766 146.382 383.725 146.413C383.196 146.881 382.719 147.406 382.303 147.976C382.181 148.146 382.42 147.798 382.343 147.92L382.275 148.019L382.142 148.223C382.046 148.375 381.952 148.532 381.864 148.69C381.693 149 381.521 149.309 381.372 149.628C381.303 149.777 381.238 149.925 381.176 150.073L381.076 150.328C381.059 150.371 381.007 150.506 381.076 150.328C381.145 150.15 381.076 150.328 381.065 150.362C380.945 150.714 380.843 151.071 380.759 151.433C380.677 151.772 380.613 152.114 380.567 152.467C380.554 152.548 380.543 152.63 380.535 152.715C380.527 152.801 380.495 153.088 380.517 152.875C380.539 152.663 380.51 152.964 380.507 153.005L380.488 153.314C380.453 154.03 380.481 154.747 380.571 155.458L380.604 155.707C380.612 155.748 380.619 155.789 380.624 155.829C380.585 155.495 380.596 155.664 380.61 155.746C380.645 155.933 380.68 156.116 380.727 156.297C380.807 156.653 380.902 157.006 381.012 157.356C381.131 157.738 381.259 158.114 381.394 158.487C381.432 158.584 381.47 158.681 381.512 158.776C381.553 158.871 381.714 159.19 381.538 158.846C381.627 159.019 381.712 159.208 381.804 159.385C381.897 159.562 381.995 159.763 382.098 159.948C382.148 160.028 382.2 160.112 382.237 160.196C382.26 160.232 382.282 160.268 382.305 160.304C382.37 160.418 382.421 160.539 382.458 160.665C382.472 160.551 382.359 160.485 382.432 160.587C382.466 160.641 382.5 160.696 382.535 160.751C382.591 160.84 382.647 160.93 382.703 161.019C382.862 161.279 382.956 161.573 382.979 161.878C382.981 161.989 382.958 162.099 382.912 162.201C382.865 162.302 382.796 162.391 382.71 162.462C382.624 162.533 382.524 162.583 382.415 162.609C382.307 162.636 382.194 162.637 382.086 162.613C381.604 162.527 381.254 162.19 380.944 161.831L380.911 161.778C380.733 161.552 380.689 161.504 380.781 161.632L380.819 161.693C380.787 161.667 380.755 161.639 380.723 161.613C380.614 161.5 380.514 161.378 380.424 161.248C380.305 161.095 380.183 160.926 380.071 160.762C379.61 160.048 379.229 159.285 378.936 158.488C378.385 156.998 378.127 155.416 378.174 153.828C378.197 152.18 378.532 150.552 379.161 149.03C379.805 147.549 380.797 146.246 382.053 145.231C382.769 144.648 383.58 144.19 384.45 143.879C384.869 143.728 385.3 143.611 385.738 143.528C386.005 143.475 386.316 143.376 386.589 143.451C386.69 143.478 386.796 143.481 386.898 143.461C387.028 143.446 387.158 143.435 387.29 143.425C387.726 143.392 387.81 144.033 387.41 144.163L387.409 144.162Z" fill="#231F20"/>
<path d="M370.8 159.731C370.486 159.67 370.169 159.62 369.852 159.577L369.421 159.527C369.257 159.509 369.55 159.536 369.389 159.524L369.297 159.516L368.977 159.488C368.883 159.481 368.79 159.468 368.697 159.458C368.651 159.453 368.383 159.427 368.594 159.447C368.436 159.434 368.277 159.418 368.115 159.412C367.8 159.393 367.483 159.383 367.166 159.379C365.904 159.361 364.643 159.443 363.394 159.624L363.276 159.643C363.581 159.598 363.46 159.613 363.394 159.624L363.155 159.666C362.997 159.695 362.84 159.725 362.683 159.757C362.367 159.822 362.054 159.898 361.741 159.975C361.132 160.129 360.526 160.296 359.93 160.499C359.333 160.701 358.738 160.94 358.157 161.197C357.941 161.293 358.435 161.068 358.188 161.177L357.971 161.279C357.827 161.348 357.683 161.418 357.542 161.491C357.257 161.634 356.977 161.785 356.701 161.942C356.166 162.246 355.644 162.575 355.136 162.924C354.878 163.103 354.628 163.29 354.38 163.482L354.052 163.745C353.828 163.926 354.303 163.53 354.088 163.722L353.894 163.887C352.991 164.665 352.173 165.536 351.452 166.486C351.367 166.599 351.285 166.715 351.208 166.825C351.13 166.935 351.41 166.531 351.301 166.69L351.252 166.765L351.103 166.986C350.947 167.225 350.797 167.47 350.653 167.725C350.368 168.225 350.118 168.745 349.903 169.279L349.833 169.463C349.744 169.685 349.949 169.137 349.86 169.389C349.811 169.525 349.765 169.663 349.721 169.8C349.633 170.076 349.554 170.354 349.485 170.633C349.415 170.913 349.359 171.198 349.318 171.489C349.299 171.62 349.276 171.744 349.266 171.88C349.256 172.017 349.238 172.298 349.269 171.823C349.265 171.897 349.257 171.971 349.25 172.044C349.208 172.64 349.213 173.24 349.265 173.835C349.291 174.128 349.332 174.415 349.376 174.705C349.393 174.815 349.452 175.125 349.367 174.66C349.381 174.738 349.393 174.815 349.407 174.893C349.437 175.05 349.469 175.206 349.505 175.361C349.649 175.993 349.87 176.596 350.057 177.215C350.261 177.886 350.496 178.556 350.763 179.204C350.826 179.356 350.894 179.508 350.96 179.658C351.032 179.866 351.053 180.088 351.021 180.305C351 180.636 350.705 180.996 350.329 180.873C350.078 180.82 349.844 180.704 349.648 180.538C349.472 180.358 349.314 180.146 349.156 179.953C348.917 179.664 348.689 179.367 348.471 179.06C348.03 178.423 347.676 177.729 347.42 176.997C346.956 175.724 346.713 174.381 346.703 173.026C346.717 170.465 347.487 167.966 348.915 165.841C350.399 163.637 352.36 161.796 354.654 160.453C357.014 159.039 359.63 158.105 362.353 157.705C365 157.327 367.746 157.489 370.23 158.541C370.519 158.663 370.806 158.796 371.088 158.937C371.529 159.156 371.263 159.818 370.797 159.726L370.8 159.731Z" fill="#231F20"/>
<path d="M340.62 182.482C340.479 182.548 340.34 182.617 340.201 182.688L340.359 182.516C340.247 182.815 339.909 182.928 339.66 183.091C339.556 183.156 339.46 183.232 339.36 183.306C339.216 183.411 339.407 183.256 339.306 183.34L339.193 183.443C339.12 183.512 339.053 183.584 338.983 183.659L338.874 183.791C338.832 183.843 338.707 183.947 338.858 183.802C338.732 183.955 338.628 184.125 338.55 184.308C338.517 184.369 338.476 184.555 338.417 184.596C338.473 184.561 338.472 184.436 338.426 184.591C338.409 184.64 338.395 184.688 338.381 184.738C338.351 184.848 338.327 184.961 338.306 185.074L338.277 185.264C338.27 185.314 338.262 185.502 338.273 185.283C338.253 185.553 338.247 185.824 338.246 186.097C338.228 186.444 338.178 186.788 338.097 187.126C338.064 187.266 337.986 187.39 337.875 187.481C337.765 187.572 337.628 187.624 337.485 187.629C337.345 187.63 337.208 187.587 337.094 187.507C336.98 187.427 336.893 187.313 336.846 187.182C336.694 186.839 336.604 186.471 336.581 186.097C336.575 185.756 336.596 185.416 336.645 185.079C336.708 184.536 336.878 184.011 337.144 183.533C337.433 183.052 337.846 182.658 338.339 182.391C338.596 182.248 338.864 182.126 339.14 182.026C339.471 181.905 339.834 181.751 340.171 181.926L339.831 181.885C339.985 181.848 340.139 181.813 340.296 181.781C340.385 181.755 340.48 181.761 340.565 181.8C340.65 181.838 340.718 181.905 340.757 181.99C340.797 182.076 340.803 182.173 340.776 182.264C340.748 182.354 340.689 182.431 340.608 182.481L340.62 182.482Z" fill="#231F20"/>
<path d="M301.17 191.033C300.924 191.179 300.669 191.311 300.408 191.427C300.176 191.517 299.945 191.607 299.716 191.705L299.537 191.783C299.503 191.805 299.324 191.88 299.462 191.816C299.6 191.753 299.401 191.854 299.371 191.86L299.174 191.954C298.954 192.059 298.738 192.174 298.52 192.281C297.583 192.745 296.683 193.28 295.829 193.882C295.394 194.183 294.971 194.503 294.562 194.838L294.424 194.952C294.755 194.683 294.549 194.846 294.476 194.919C294.303 195.066 294.13 195.209 293.955 195.351C293.804 195.475 294.221 195.127 294.01 195.316L293.874 195.431L293.567 195.699C292.784 196.399 292.058 197.16 291.395 197.974C291.24 198.167 291.087 198.361 290.939 198.559L290.709 198.877C290.598 199.031 290.917 198.575 290.772 198.784L290.656 198.963C290.379 199.374 290.123 199.798 289.887 200.235C289.657 200.659 289.446 201.095 289.26 201.541C289.214 201.647 289.167 201.757 289.125 201.854L289.068 202.004C289.24 201.549 289.137 201.815 289.099 201.923C289.023 202.144 288.953 202.366 288.891 202.592C288.767 203.037 288.674 203.49 288.612 203.947L288.59 204.123C288.562 204.369 288.611 203.882 288.605 203.982C288.599 204.082 288.588 204.221 288.579 204.334C288.569 204.561 288.566 204.791 288.572 205.023C288.576 205.249 288.589 205.469 288.618 205.705C288.63 205.815 288.64 205.919 288.661 206.036C288.699 206.304 288.61 205.757 288.64 205.914L288.674 206.089C288.766 206.551 288.897 207.003 289.066 207.443C289.11 207.561 289.158 207.674 289.207 207.788C289.307 208.029 289.1 207.563 289.146 207.657C289.184 207.718 289.206 207.786 289.236 207.852C289.342 208.08 289.456 208.303 289.58 208.522C289.842 208.984 290.139 209.424 290.47 209.839C290.503 209.892 290.548 209.939 290.591 209.992C290.698 210.123 290.352 209.71 290.554 209.933C290.651 210.045 290.751 210.156 290.847 210.27C291.042 210.497 291.241 210.708 291.455 210.93C291.669 211.152 291.904 211.37 292.138 211.579C292.372 211.789 292.603 212.044 292.839 212.282C293.003 212.436 293.153 212.604 293.288 212.784C293.421 212.987 293.491 213.225 293.489 213.468C293.49 213.605 293.447 213.739 293.367 213.85C293.287 213.961 293.173 214.044 293.043 214.086C292.559 214.28 292.119 214.106 291.669 213.894C291.293 213.719 290.933 213.511 290.594 213.272C290.074 212.91 289.58 212.513 289.116 212.083C288.635 211.617 288.197 211.109 287.806 210.566C287.488 210.146 287.207 209.698 286.967 209.228C285.981 207.228 285.69 204.956 286.141 202.772C286.57 200.617 287.64 198.67 288.987 196.953C290.372 195.189 292.053 193.68 293.956 192.493C295.801 191.314 297.84 190.468 299.978 189.995C300.269 189.947 300.564 189.929 300.858 189.941C301.414 189.944 301.755 190.76 301.197 191.053L301.17 191.033Z" fill="#231F20"/>
<path d="M430.678 131.542C430.649 131.496 430.63 131.444 430.605 131.396C430.605 131.396 430.532 131.243 430.573 131.308C430.5 131.192 430.392 131.107 430.326 130.984C430.193 130.729 430.083 130.451 429.973 130.191C429.773 129.753 429.612 129.298 429.495 128.831C429.257 127.787 429.104 126.727 429.034 125.659C428.912 123.516 429.042 121.365 429.421 119.252C429.795 117.19 430.436 115.09 431.479 113.264C432.5 111.431 433.931 109.859 435.659 108.668C436.666 107.997 437.773 107.491 438.938 107.168C439.592 106.989 440.264 106.885 440.941 106.858C441.265 106.842 441.589 106.84 441.914 106.847C442.285 106.859 442.653 106.915 443.01 107.015C443.103 107.039 443.185 107.092 443.244 107.167C443.303 107.241 443.337 107.333 443.34 107.428C443.344 107.523 443.316 107.617 443.261 107.695C443.207 107.773 443.129 107.831 443.038 107.861C442.762 107.962 442.48 108.046 442.194 108.114C441.913 108.171 441.632 108.238 441.354 108.311C440.843 108.45 440.348 108.636 439.845 108.801C439.591 108.88 439.341 108.968 439.096 109.062L438.793 109.187L438.613 109.265C438.515 109.308 438.533 109.301 438.666 109.232L438.549 109.287C438.114 109.493 437.691 109.724 437.281 109.977C436.863 110.239 436.486 110.548 436.085 110.834C436.355 110.642 436.085 110.834 436.015 110.898L435.746 111.142C435.569 111.305 435.398 111.476 435.233 111.653C434.906 111.998 434.6 112.362 434.317 112.743C434.25 112.833 434.188 112.927 434.119 113.013C434.338 112.739 434.084 113.07 434.036 113.143C433.901 113.347 433.771 113.554 433.648 113.766C433.152 114.604 432.726 115.482 432.375 116.391L432.309 116.566C432.42 116.303 432.351 116.451 432.327 116.519L432.212 116.849C432.134 117.089 432.058 117.331 431.984 117.578C431.837 118.072 431.713 118.57 431.604 119.073C431.494 119.576 431.409 120.049 431.333 120.54C431.299 120.776 431.267 121.013 431.237 121.25L431.193 121.646C431.185 121.72 431.2 121.92 431.193 121.646C431.194 121.732 431.176 121.823 431.17 121.907C431.085 122.912 431.057 123.921 431.086 124.928C431.113 126.032 431.163 127.139 431.283 128.23C431.341 128.749 431.359 129.265 431.373 129.788C431.379 130.038 431.391 130.289 431.406 130.539C431.423 130.832 431.368 131.05 431.392 131.325C431.425 131.699 430.852 131.892 430.674 131.546L430.678 131.542Z" fill="#231F20"/>
</g>
</svg>
