<svg width="56" height="55" viewBox="0 0 56 55" fill="none" xmlns="http://www.w3.org/2000/svg">
<path d="M52.8804 16.9457C54.9093 21.8217 55.448 27.1896 54.4287 32.3717C53.4094 37.5537 50.8776 42.3176 47.153 46.0619C43.4284 49.8063 38.6779 52.3632 33.5013 53.4099C28.3247 54.4566 22.9541 53.9461 18.0673 51.943C13.1806 49.9398 8.99684 46.5338 6.04429 42.1549C3.09174 37.7759 1.50271 32.6204 1.47784 27.3391C1.45296 22.0578 2.99334 16.8875 5.90451 12.4809C8.81568 8.07436 12.9671 4.62905 17.8348 2.57996C21.0782 1.21459 24.5594 0.503202 28.0785 0.486625C31.5976 0.470047 35.0853 1.1486 38.3415 2.48336C41.5977 3.81812 44.5582 5.78278 47.0532 8.26461C49.5482 10.7464 51.5284 13.6966 52.8804 16.9457Z" fill="#FF5E1B"/>
<path d="M52.8815 16.9453V17.3796C52.8815 17.6803 53.1822 18.1146 53.3827 18.716C53.9713 20.393 54.3746 22.1295 54.5854 23.8943C55.4815 30.3039 54.0214 36.821 50.4761 42.2356C49.335 43.9829 48.0015 45.5966 46.5005 47.0464C44.8564 48.5576 43.0398 49.8697 41.0883 50.9553C36.8701 53.3125 32.0863 54.468 27.2572 54.2961C22.1228 54.1245 17.1373 52.5282 12.8581 49.6857C9.57343 47.5014 6.80326 44.6287 4.73979 41.2668C4.04183 40.1327 3.4277 38.9491 2.9023 37.7254C2.38368 36.5092 1.94837 35.259 1.59937 33.9837C1.35649 32.6355 1.18921 31.2747 1.09826 29.9079C0.692752 26.019 1.13372 22.0884 2.3909 18.3861C3.64808 14.6838 5.69164 11.2974 8.38131 8.45956C10.0684 6.65806 12.0032 5.1057 14.1276 3.84916L15.6978 2.98055L16.4996 2.57964L17.3348 2.24556C17.8694 1.97829 18.4039 1.81123 18.9384 1.57737L20.6089 1.04285C22.7839 0.418951 25.0287 0.0710083 27.2906 0.00719317C29.3751 -0.0393246 31.4586 0.139885 33.5046 0.541717C37.1006 1.29179 40.509 2.75742 43.5271 4.85143C45.8165 6.44467 47.8451 8.38311 49.5407 10.5977C50.629 12.007 51.58 13.5173 52.3804 15.1079C52.6477 15.6758 52.8147 16.1101 52.9484 16.4108L52.8815 16.9453ZM52.8815 16.9453L52.6811 16.511C52.5141 16.2103 52.347 15.776 52.0797 15.2415C51.276 13.6558 50.3134 12.1559 49.2066 10.7647C48.423 9.77452 47.5629 8.84738 46.6342 7.99184C45.5998 6.98613 44.4822 6.0697 43.2933 5.25234C40.0413 3.13205 36.3711 1.73629 32.5319 1.15984C28.6928 0.583394 24.7745 0.839746 21.0432 1.91148L19.4396 2.446L18.6378 2.74669H18.2369H17.8359L17.0676 3.08078L16.2992 3.48166C15.7696 3.72696 15.2563 4.00594 14.7624 4.31688C13.7525 4.92353 12.7817 5.59304 11.8558 6.32141L10.4861 7.49071L9.21652 8.76022C5.69461 12.4602 3.30677 17.0919 2.33574 22.1069C1.36471 27.1219 1.85116 32.3102 3.73752 37.0573C4.23485 38.2115 4.81548 39.3281 5.47478 40.3981C6.1267 41.5644 6.8637 42.6811 7.67976 43.739C9.33152 45.7465 11.2673 47.5022 13.426 48.9507C17.6375 51.7752 22.5873 53.2974 27.6581 53.3273C28.2701 53.3604 28.8835 53.3604 29.4956 53.3273C30.0969 53.3273 30.6983 53.3273 31.2662 53.3273C32.4512 53.1804 33.6238 52.9459 34.7741 52.6257C35.3421 52.4586 35.91 52.325 36.4445 52.1246C36.7171 52.0391 36.9848 51.9387 37.2464 51.8239L38.0816 51.5232C38.6161 51.3228 39.1172 51.0555 39.6183 50.8216L41.1217 50.0532C44.7902 47.9899 47.934 45.1091 50.3091 41.6343C52.3273 38.6916 53.7359 35.3747 54.4518 31.8789C54.7679 30.429 54.9469 28.9525 54.9863 27.469C55.0362 26.2082 54.9803 24.9454 54.8192 23.6939C54.6083 21.9352 54.2279 20.201 53.6834 18.5155C53.5163 17.9142 53.3159 17.4799 53.2157 17.1792L52.8815 16.9453Z" fill="#7C0D0E"/>
<g style="mix-blend-mode:multiply">
<path d="M21.1422 53.0921C23.1611 53.628 25.2349 53.9306 27.3228 53.9941C28.1985 53.6988 28.9355 53.0926 29.3941 52.2902C30.8975 48.9494 23.7146 48.2812 25.5855 45.0072C26.6212 43.2031 29.1936 42.5015 30.9977 41.6663C32.8017 40.8311 37.0446 39.762 35.9087 37.5236C35.5585 36.874 35.0829 36.3004 34.5095 35.8359C33.936 35.3714 33.2761 35.0253 32.5679 34.8176C31.4326 34.619 30.3153 34.3285 29.227 33.9489C28.7558 33.6734 28.3506 33.2982 28.0398 32.8495C27.7289 32.4008 27.52 31.8895 27.4277 31.3516C27.3354 30.8136 27.3619 30.2619 27.5054 29.7353C27.6488 29.2086 27.9058 28.7197 28.2582 28.3029C29.2939 27.0334 30.9309 26.0311 31.3652 24.3607C31.581 23.5042 31.4924 22.5993 31.1145 21.8009C30.7367 21.0025 30.0931 20.3603 29.2939 19.9842C28.3952 19.5128 27.3607 19.3684 26.3673 19.5756C25.374 19.7828 24.4835 20.3288 23.8482 21.1201C23.0999 22.5064 22.4846 23.9606 22.0108 25.4632C20.6744 28.5367 17.367 28.1358 14.9282 29.9733C13.3246 31.176 12.2221 34.5503 14.4938 35.7196C15.6529 36.2163 16.6987 36.9438 17.5674 37.8577C19.3381 39.7954 20.9083 43.3033 18.9038 45.7088C18.2356 46.5106 15.0952 49.0496 14.9282 50.553C16.8805 51.6654 18.9694 52.5189 21.1422 53.0921Z" fill="#BF4B18"/>
</g>
<g style="mix-blend-mode:multiply">
<path d="M37.7796 2.3125C37.6006 2.48296 37.4625 2.69174 37.3757 2.92318C37.2889 3.15463 37.2557 3.40272 37.2785 3.64885C37.2785 6.9897 40.9534 8.09219 43.0581 9.96307C44.4613 11.1992 45.1295 14.1391 43.2252 15.3753C42.0893 16.1103 40.4857 15.9432 39.4166 16.8118C38.7129 17.3985 38.2163 18.1956 37.9997 19.0857C37.7832 19.9759 37.8583 20.912 38.2139 21.7563C38.8821 23.6272 42.3231 28.438 44.4613 25.5315C45.664 23.9279 46.1317 21.8231 47.8021 20.42C48.5287 19.688 49.4514 19.1818 50.4592 18.9625C51.4669 18.7431 52.5166 18.82 53.4816 19.1838L53.9493 19.4177C53.6821 18.5825 53.4148 17.7807 53.0807 16.9455C51.6613 13.5928 49.572 10.5655 46.9409 8.04927C44.3097 5.53301 41.1922 3.58083 37.7796 2.3125Z" fill="#BF4B18"/>
</g>
<g style="mix-blend-mode:multiply">
<path d="M24.084 0.841054C24.3399 1.41983 24.4721 2.04567 24.4721 2.67851C24.4721 3.31135 24.3399 3.93721 24.084 4.51599C22.5533 6.68104 21.4219 9.10225 20.7432 11.6654C20.7432 12.8347 21.879 14.7056 23.2822 13.9038C24.0888 13.2105 24.6897 12.3091 25.0195 11.2979C25.8547 9.6275 27.0908 7.95706 29.2289 8.25774C30.8087 8.86139 32.2851 9.70667 33.6054 10.7634C34.2068 11.0975 35.5765 12.0663 36.3115 11.6988C37.0465 11.3313 35.8104 8.35796 35.3761 7.65638C33.7057 5.45141 31.033 4.31554 29.4962 1.87671C29.2237 1.47141 29.0309 1.01786 28.9283 0.540364C27.3078 0.498806 25.6869 0.599431 24.084 0.841054Z" fill="#BF4B18"/>
</g>
<g style="mix-blend-mode:multiply">
<path d="M6.10743 13.4695C7.17555 13.0506 8.30298 12.8025 9.44829 12.7345C9.64874 12.7345 9.71558 12.9349 9.68217 13.102C9.64877 13.269 9.14762 14.9729 9.98284 14.7724C10.6148 14.5456 11.1944 14.1933 11.6867 13.7367C12.9154 12.7445 14.0352 11.6246 15.0275 10.3959C15.7658 9.64822 16.3241 8.74214 16.6598 7.74647C16.9956 6.75079 17.1 5.69169 16.9652 4.64961C16.8037 4.18654 16.5789 3.74806 16.2971 3.34668C11.509 5.65844 7.51915 9.34578 4.83789 13.9372C5.27644 13.8267 5.70203 13.6699 6.10743 13.4695Z" fill="#BF4B18"/>
</g>
<g style="mix-blend-mode:multiply">
<path d="M8.17957 9.86181C8.61388 9.86181 8.91457 10.4966 9.18184 10.7972C9.91683 11.6659 10.8189 11.1313 11.4536 10.4966C12.0884 9.86182 13.9927 7.8573 13.7254 6.32051C13.6523 5.87375 13.5291 5.43667 13.3579 5.01758C11.321 6.37729 9.47792 8.00686 7.87891 9.86181H8.17957Z" fill="#BF4B18"/>
</g>
<g style="mix-blend-mode:multiply">
<path d="M50.574 19.5171C47.2331 20.3189 46.7654 23.0584 45.095 25.5306C41.988 30.0074 36.9099 22.8245 37.4445 19.3834C37.5087 18.7759 37.6995 18.1886 38.0044 17.6592C38.3094 17.1299 38.7218 16.6702 39.2151 16.3099C40.4178 15.5415 43.0571 15.6083 43.5916 14.1049C45.0616 10.0624 39.2819 8.95998 37.5781 6.15366C37.1423 5.58018 36.8846 4.8913 36.8371 4.1726C36.7896 3.4539 36.9543 2.73708 37.3108 2.11122C34.7363 1.17322 32.0309 0.643416 29.2928 0.541016C29.3336 0.69105 29.3896 0.836552 29.4598 0.975318C30.126 2.11761 31.0116 3.11681 32.0657 3.91529C34.2629 5.29182 35.9066 7.39666 36.7095 9.86201C36.9767 10.8977 37.0101 12.6683 35.4065 12.3342C33.6283 11.7011 31.9684 10.7752 30.4955 9.59474C28.1903 8.12476 26.3862 9.26066 25.2503 11.5659C24.7158 12.7017 23.8806 14.9067 22.1767 14.606C21.764 14.5063 21.3793 14.3142 21.0516 14.0442C20.7239 13.7743 20.4618 13.4335 20.2849 13.0475C20.108 12.6615 20.0209 12.2405 20.0304 11.816C20.0398 11.3915 20.1454 10.9747 20.3392 10.597C21.1076 8.22499 22.6778 6.32071 23.6801 3.91529C24.0818 2.90702 24.0818 1.78315 23.6801 0.774875C21.7241 1.13654 19.81 1.69623 17.9673 2.4453L17.0986 2.84622C17.5654 3.44739 17.8129 4.18993 17.8002 4.95095C17.7106 7.27221 16.7574 9.47635 15.1275 11.1315C13.9209 12.806 12.3429 14.1782 10.5172 15.1406C9.114 15.6083 9.14741 14.2385 9.31445 13.2363C7.82886 13.6901 6.30955 14.0253 4.77088 14.2385C4.33657 15.0069 3.96906 15.8087 3.60156 16.6105C3.69444 16.9547 3.81741 17.2901 3.96906 17.6128C4.83768 19.2498 6.27427 18.6819 7.74424 18.8155C8.86459 19.1197 9.90098 19.6748 10.775 20.4388C11.649 21.2029 12.3377 22.1558 12.7889 23.2254C13.2403 24.1969 13.4285 25.27 13.3347 26.3371C13.2409 27.4042 12.8684 28.428 12.2544 29.3058C11.1185 31.2769 8.31217 33.8159 9.44806 36.3216C10.1496 37.9252 11.2855 37.992 12.4548 39.0277C12.7424 39.34 12.9598 39.7104 13.0924 40.1138C13.2249 40.5171 13.2696 40.9442 13.2232 41.3663C13.2232 43.2372 10.7176 44.5067 9.88239 46.1771C9.77877 46.4052 9.68951 46.6395 9.61511 46.8787C11.0681 48.222 12.6582 49.4089 14.3591 50.42C14.5546 49.8428 14.8611 49.3094 15.2612 48.8498C17.0652 46.6782 20.0052 45.0412 19.0697 41.7004C18.4888 39.738 17.1882 38.0675 15.4282 37.0232C14.6264 36.6223 13.5239 36.3216 13.123 35.4196C12.6243 34.372 12.5327 33.1764 12.8661 32.0651C13.1995 30.9538 13.9341 30.0061 14.9271 29.406C16.0253 28.633 17.2614 28.0773 18.5686 27.769C20.8404 27.2679 21.4752 25.6308 22.1433 23.6597C22.8115 21.6886 24.1812 19.183 26.7871 19.016C27.8388 18.9141 28.8947 19.1639 29.7893 19.7261C30.684 20.2883 31.367 21.1312 31.7316 22.1229C31.9358 23.2125 31.8205 24.3378 31.3997 25.3633C30.9788 26.3888 30.2703 27.2707 29.3596 27.9026C27.923 29.3392 26.7871 32.1789 29.1591 33.3816C30.3618 34.0164 31.7316 33.9496 32.9343 34.4507C34.137 34.9518 36.2751 36.5555 36.2751 38.2259C36.2751 39.8963 35.0056 40.4643 33.9032 41.0322C32.0991 41.9677 30.128 42.569 28.2905 43.4376C27.3917 43.7598 26.5798 44.2858 25.9185 44.9744C24.8494 46.3442 26.5198 47.5803 27.5889 48.3153C29.2259 49.3844 30.7293 51.2218 29.2259 53.1595C28.8951 53.5476 28.4995 53.8755 28.0567 54.1284C31.4991 54.0842 34.9013 53.3811 38.0792 52.057L39.1149 51.5893C37.542 51.3139 36.1198 50.4842 35.1058 49.2507C34.4042 48.4489 33.2684 46.6783 34.1704 45.5758C35.1869 44.6309 36.4294 43.9636 37.7785 43.6381C38.726 43.3411 39.5778 42.7981 40.2468 42.0644C40.9159 41.3308 41.3784 40.4328 41.5871 39.462C41.988 36.7893 38.9478 36.1211 37.2106 34.7848C36.8784 34.6291 36.5863 34.3996 36.3564 34.1137C36.1266 33.8277 35.9653 33.4931 35.8847 33.1352C35.8041 32.7773 35.8064 32.4058 35.8914 32.049C35.9765 31.6921 36.142 31.3595 36.3754 31.0764C37.4444 29.7067 41.4869 28.9383 42.6227 30.4751C43.7586 32.0119 43.7587 33.1812 44.7609 34.1166C46.4982 35.6868 47.4336 33.2814 47.5673 31.9117C47.7009 30.5419 47.5672 27.2011 49.104 25.9984C51.5762 24.1943 53.5808 26.2322 54.583 28.7713C54.7451 25.9345 54.4404 23.0903 53.681 20.3523C53.2479 20.0078 52.7486 19.756 52.2142 19.6123C51.6798 19.4686 51.1215 19.4362 50.574 19.5171Z" fill="#E82225"/>
</g>
<g style="mix-blend-mode:multiply">
<path d="M51.911 25.9639C48.3363 24.9951 48.5701 29.9061 48.3363 32.0443C48.3363 33.3472 47.3006 35.8529 45.4631 34.9842C44.4781 34.2994 43.74 33.3153 43.3584 32.1779C43.0243 31.4764 42.6568 30.5409 41.8216 30.3739C41.0366 30.2405 40.2346 30.2405 39.4496 30.3739C37.846 30.6411 35.3738 32.2447 37.278 33.7147C38.0466 34.2749 38.8626 34.7668 39.7169 35.1847C41.1868 36.0533 42.6902 37.2226 42.4229 39.1603C41.9552 42.5012 39.4162 43.5368 36.6433 44.7061C35.7412 45.0736 34.4049 45.6082 34.7724 46.8777C35.0242 47.6499 35.4599 48.3492 36.0419 48.9156C37.0165 50.0203 38.3821 50.7031 39.8505 50.8199C40.0176 50.8199 40.0844 50.8199 40.051 51.154C44.11 49.1523 47.5942 46.1526 50.177 42.4362C52.7598 38.7198 54.3565 34.4084 54.8175 29.9062C54.7109 29.0553 54.3876 28.246 53.8787 27.5558C53.3698 26.8655 52.6923 26.3174 51.911 25.9639Z" fill="#BF4B18"/>
</g>
<g style="mix-blend-mode:multiply">
<path d="M10.9886 43.8386C12.0243 42.7027 14.0288 40.6982 11.9908 39.3285C11.0124 38.8928 10.153 38.2282 9.48519 37.3908C6.14433 32.4797 15.3317 28.6711 12.4252 23.5262C11.5545 21.7668 10.0686 20.3879 8.24909 19.6508C7.1132 19.417 5.9439 19.6508 4.90823 19.417C4.49539 19.2659 4.12816 19.0115 3.84158 18.6782C3.555 18.3448 3.3586 17.9435 3.27119 17.5127C0.724138 23.963 0.784046 31.1508 3.43825 37.5578C4.80652 40.9531 6.85272 44.0338 9.4518 46.6116C9.76483 45.5901 10.2884 44.6455 10.9886 43.8386Z" fill="#BF4B18"/>
</g>
<g style="mix-blend-mode:multiply">
<path d="M23.0812 33.2465C22.844 33.0316 22.6556 32.7683 22.5288 32.4743C22.402 32.1804 22.3398 31.8627 22.3462 31.5427C22.3933 31.1513 22.5697 30.7868 22.8473 30.507C23.0144 30.3066 23.2148 30.1729 23.3819 30.0059C23.3819 29.0704 23.1814 28.6362 22.4464 28.7698C21.6546 28.7287 20.868 28.9194 20.1829 29.3186C19.4978 29.7178 18.9441 30.3082 18.5895 31.0174C18.2349 31.7266 18.0948 32.5238 18.1865 33.3114C18.2782 34.099 18.5976 34.8427 19.1056 35.4515L19.6401 35.819C20.5712 36.5553 21.3248 37.4916 21.8451 38.5585C22.555 39.5996 22.9728 40.8119 23.055 42.0693C23.1373 43.3267 22.881 44.5832 22.3128 45.7079C21.4108 46.944 18.972 49.3495 21.3774 50.5522C22.1124 50.9531 23.5823 51.4876 24.2171 50.5522C24.5178 50.051 23.9498 49.6835 23.7494 49.3495C23.4584 48.8955 23.2122 48.4144 23.0144 47.9129C22.8078 47.3504 22.7199 46.7512 22.7562 46.153C22.7924 45.5549 22.9521 44.9707 23.2251 44.4373C23.4981 43.9038 23.8786 43.4326 24.3425 43.0534C24.8064 42.6741 25.3438 42.3949 25.9209 42.2334C27.2573 41.6989 30.3977 40.5296 29.9634 38.5585C29.8074 38.0966 29.5618 37.67 29.2408 37.3031C28.9198 36.9362 28.5296 36.6363 28.0925 36.4203C26.2964 35.5753 24.6129 34.5091 23.0812 33.2465Z" fill="#BF4B18"/>
</g>
<g style="mix-blend-mode:multiply">
<path d="M27.358 21.488C27.3275 21.5056 27.293 21.5148 27.2578 21.5148C27.2226 21.5148 27.188 21.5056 27.1576 21.488C26.4062 21.4967 25.683 21.7746 25.119 22.2711C24.5551 22.7676 24.1878 23.4499 24.084 24.194C24.084 25.5304 25.554 27.5349 27.0573 26.7331C28.5607 25.9313 30.5318 21.3877 27.358 21.488Z" fill="#BF4B18"/>
</g>
<g style="mix-blend-mode:multiply">
<path d="M44.0273 16.8448C43.2255 17.3125 40.6864 18.1477 41.2877 19.6177C41.8891 21.0877 43.4259 21.9563 44.6286 20.7202C45.8313 19.484 46.1988 17.3793 47.5351 16.3436C48.1496 15.8502 48.9188 15.5898 49.7067 15.6087C50.5128 15.7583 51.3395 15.7583 52.1455 15.6087C49.5506 10.1748 45.1778 5.79018 39.751 3.18066C39.9214 4.40913 40.4304 5.56591 41.2209 6.52152C42.6575 8.05832 44.7622 8.79331 45.8981 10.6308C46.2302 11.15 46.4461 11.7349 46.5311 12.3454C46.616 12.9558 46.568 13.5774 46.3903 14.1676C46.2126 14.7578 45.9095 15.3026 45.5016 15.7646C45.0937 16.2267 44.5908 16.5952 44.0273 16.8448Z" fill="#BF4B18"/>
</g>
<g style="mix-blend-mode:multiply">
<path d="M25.2847 4.91634C24.7167 5.85178 21.3759 9.32628 23.0463 10.1949C24.7167 11.0635 25.9194 6.85404 26.1867 5.75156C26.6138 4.06084 26.7605 2.31149 26.621 0.573242H25.7189C25.948 1.28829 26.0277 2.0428 25.953 2.78992C25.8783 3.53704 25.6508 4.26081 25.2847 4.91634Z" fill="#BF4B18"/>
</g>
<g style="mix-blend-mode:multiply">
<path d="M51.6791 29.6721C49.6746 29.9728 49.6078 34.1155 49.4408 35.5186C49.336 37.3404 48.8099 39.113 47.904 40.697C46.9017 42.334 45.0308 42.5344 43.3938 43.1692C41.7568 43.804 40.053 44.8062 41.1555 46.5101C41.492 47.0601 41.9442 47.5303 42.4808 47.888C43.0173 48.2456 43.6253 48.4822 44.2624 48.5814C48.8646 45.1238 52.2274 40.2728 53.8507 34.7502C53.6168 32.6455 52.8818 29.4717 51.6791 29.6721Z" fill="#BF4B18"/>
</g>
<g style="mix-blend-mode:multiply">
<path d="M40.9865 32.5801C40.9865 32.5801 40.7192 32.0121 40.619 32.0121C40.5823 32.045 40.5346 32.0632 40.4853 32.0632C40.436 32.0632 40.3885 32.045 40.3517 32.0121C40.1859 31.9834 40.0164 31.9834 39.8506 32.0121C39.6168 32.0121 39.2827 32.3462 39.4163 32.6469C39.5499 32.9476 40.4519 33.7828 40.9531 33.3819C41.4542 32.981 41.5544 32.0121 41.2203 31.7449C40.8863 31.4776 41.1201 32.6469 40.9865 32.5801Z" fill="#BF4B18"/>
</g>
<g style="mix-blend-mode:multiply">
<path d="M9.01625 28.4711C9.1724 28.1305 9.25324 27.7601 9.25324 27.3854C9.25324 27.0106 9.1724 26.6403 9.01625 26.2996C8.54853 25.431 7.8804 26.6337 7.64654 26.9009C7.41268 27.1682 6.8113 28.0368 6.20994 28.1371C5.60859 28.2373 4.47272 28.1371 4.03841 28.9389C3.78434 29.564 3.59407 30.2132 3.47047 30.8766C3.30621 32.1602 2.94562 33.4109 2.40137 34.5849C3.35007 37.8282 4.87812 40.8729 6.91154 43.5718C7.38203 43.27 7.76925 42.8549 8.03774 42.3646C8.30623 41.8743 8.44738 41.3245 8.44831 40.7655C8.44831 38.5271 5.74222 37.6919 5.10745 35.654C4.00497 32.0459 8.01399 31.3109 9.01625 28.4711Z" fill="#BF4B18"/>
</g>
<g style="mix-blend-mode:multiply">
<path d="M3.06874 25.3316C3.97077 25.3316 4.77261 25.9329 5.24033 24.6634C5.70805 23.3939 5.80828 22.0241 4.67239 21.3226C3.5365 20.621 3.80377 21.3226 3.00196 21.3226C2.82826 21.3484 2.65094 21.3348 2.48321 21.2827C2.31549 21.2307 2.16163 21.1415 2.03308 21.0219C1.38719 23.7217 1.17294 26.5069 1.39831 29.2738C1.76581 27.7036 2.06648 25.3984 3.06874 25.3316Z" fill="#BF4B18"/>
</g>
<g style="mix-blend-mode:multiply">
<path d="M49.5399 32.4795C48.6712 32.4795 48.1033 33.4484 47.9363 34.2168C47.8533 34.5796 47.8533 34.9565 47.9363 35.3193V35.5865C47.9212 35.7086 47.9212 35.832 47.9363 35.954C48.0806 36.2274 48.3174 36.4405 48.6044 36.5554C48.7149 36.6042 48.8344 36.6294 48.9552 36.6294C49.076 36.6294 49.1955 36.6042 49.306 36.5554C49.6735 36.5554 50.041 36.2213 50.2415 35.8872C50.5285 35.3555 50.6561 34.7523 50.609 34.15C50.7092 33.2479 50.4753 32.4461 49.5399 32.4795Z" fill="#BF4B18"/>
</g>
<g style="mix-blend-mode:multiply">
<path d="M50.7773 30.2427C50.6081 30.1587 50.4131 30.1431 50.2327 30.199C50.0523 30.255 49.9004 30.3783 49.8085 30.5433C49.7334 30.629 49.6792 30.7309 49.6502 30.841C49.6212 30.9512 49.6182 31.0666 49.6415 31.1781V31.4119C49.6197 31.5192 49.6261 31.6303 49.6599 31.7344C49.6938 31.8385 49.7539 31.9321 49.8346 32.0061C49.9153 32.08 50.0138 32.1319 50.1204 32.1566C50.2271 32.1813 50.3383 32.1779 50.4433 32.1469C51.2117 31.9131 51.5457 30.677 50.7773 30.2427Z" fill="#BF4B18"/>
</g>
<g style="mix-blend-mode:multiply">
<path d="M45.9 39.4616C45.6772 39.3969 45.4389 39.4115 45.2256 39.5029C45.0124 39.5943 44.8375 39.7568 44.7307 39.9628C44.6166 40.167 44.5566 40.397 44.5566 40.6309C44.5566 40.8649 44.6166 41.0949 44.7307 41.2991C44.7974 41.456 44.919 41.5833 45.0727 41.657C45.2264 41.7308 45.4017 41.7461 45.5659 41.7C45.7791 41.6181 45.9646 41.4773 46.1006 41.2939C46.2367 41.1105 46.3177 40.8921 46.3343 40.6644C46.3533 40.4979 46.3533 40.3297 46.3343 40.1632C46.3453 40.0154 46.3092 39.8679 46.2312 39.7418C46.1532 39.6158 46.0372 39.5177 45.9 39.4616Z" fill="#BF4B18"/>
</g>
<g style="mix-blend-mode:multiply">
<path d="M46.201 27.5689C46.0682 27.4013 45.9011 27.2639 45.711 27.166C45.5209 27.0681 45.3121 27.0118 45.0985 27.001C44.6307 27.001 44.1965 27.4019 43.9292 27.7694C43.699 28.1467 43.5771 28.5802 43.5771 29.0222C43.5771 29.4642 43.699 29.8977 43.9292 30.275C44.1268 30.5833 44.4203 30.818 44.7644 30.9432H44.9982C45.1955 30.9941 45.4024 30.9941 45.5996 30.9432C46.3012 30.9432 46.5685 29.9409 46.6353 29.3062C46.6824 29.0023 46.6683 28.692 46.5937 28.3937C46.5191 28.0953 46.3856 27.8149 46.201 27.5689Z" fill="#BF4B18"/>
</g>
<g style="mix-blend-mode:multiply">
<path d="M46.7001 16.8467H46.3995C46.3618 16.804 46.3156 16.7698 46.2638 16.7464C46.2119 16.723 46.1557 16.7109 46.0988 16.7109C46.0419 16.7109 45.9857 16.723 45.9338 16.7464C45.882 16.7698 45.8357 16.804 45.7981 16.8467C45.6916 16.9329 45.6127 17.0485 45.5711 17.1791C45.5296 17.3098 45.5272 17.4497 45.5642 17.5817C45.6356 17.9218 45.7596 18.2486 45.9317 18.5505C45.9774 18.6194 46.0395 18.676 46.1124 18.7151C46.1853 18.7542 46.2666 18.7746 46.3493 18.7746C46.432 18.7746 46.5135 18.7542 46.5863 18.7151C46.6592 18.676 46.7212 18.6194 46.7669 18.5505L46.9674 18.2164C47.1021 18.1407 47.2095 18.0244 47.2744 17.8841C47.3392 17.7438 47.3582 17.5867 47.3286 17.435C47.299 17.2833 47.2223 17.1448 47.1095 17.0392C46.9967 16.9336 46.8534 16.8662 46.7001 16.8467Z" fill="#BF4B18"/>
</g>
<g style="mix-blend-mode:multiply">
<path d="M49.1077 12.8695C48.9099 12.6397 48.6382 12.4861 48.3393 12.4352C48.1189 12.3982 47.8924 12.4335 47.6937 12.5359C47.495 12.6383 47.3347 12.8022 47.2368 13.0031C46.941 13.6965 46.9103 14.4744 47.1505 15.1889C47.3907 15.9034 47.8851 16.5047 48.5398 16.8785C48.5965 16.9717 48.6725 17.0517 48.7626 17.1133C48.8528 17.1748 48.955 17.2164 49.0624 17.2354C49.1699 17.2544 49.2802 17.2502 49.3859 17.2233C49.4916 17.1963 49.5904 17.1471 49.6756 17.079C49.9226 16.993 50.1499 16.8587 50.3445 16.684C50.539 16.5093 50.6968 16.2976 50.8088 16.0613C50.9207 15.825 50.9845 15.5688 50.9964 15.3076C51.0084 15.0464 50.9682 14.7855 50.8784 14.5399C50.7215 14.15 50.482 13.7988 50.1763 13.5104C49.8707 13.222 49.5061 13.0034 49.1077 12.8695Z" fill="#BF4B18"/>
</g>
<g style="mix-blend-mode:multiply">
<path d="M45.1986 8.52669C45.0578 8.57814 44.9291 8.65774 44.8201 8.76063C44.7112 8.86351 44.6243 8.98754 44.5649 9.12511C44.5055 9.26269 44.4748 9.41092 44.4746 9.56077C44.4744 9.71062 44.5048 9.85895 44.5638 9.99668C44.6061 10.0947 44.6703 10.1817 44.7514 10.2512C44.8324 10.3207 44.9282 10.3708 45.0315 10.3976C45.1371 10.4755 45.2616 10.5237 45.3921 10.5373C45.5226 10.5509 45.6543 10.5292 45.7737 10.4747C45.893 10.4201 45.9955 10.3347 46.0706 10.2271C46.1457 10.1196 46.1907 9.99384 46.2009 9.86304C46.2678 9.57736 46.2678 9.28008 46.2009 8.99441C46.1769 8.8905 46.1297 8.79341 46.0626 8.71052C45.9955 8.62762 45.9105 8.56113 45.8138 8.51604C45.7172 8.47095 45.6116 8.44845 45.505 8.4503C45.3984 8.45215 45.2936 8.47828 45.1986 8.52669Z" fill="#BF4B18"/>
</g>
<g style="mix-blend-mode:multiply">
<path d="M40.8212 8.29066C40.6205 8.16641 40.3891 8.10059 40.153 8.10059C39.917 8.10059 39.6856 8.16641 39.4849 8.29066C39.3716 8.28949 39.2617 8.3295 39.1757 8.40324C39.0897 8.47697 39.0333 8.57943 39.0171 8.69157C38.7165 9.86087 40.1864 12.0324 41.4559 10.8965C41.5935 10.6861 41.6865 10.4497 41.729 10.2019C41.7716 9.95415 41.7628 9.70029 41.7033 9.45602C41.6438 9.21176 41.5348 8.9823 41.3831 8.78185C41.2314 8.5814 41.0401 8.41422 40.8212 8.29066Z" fill="#BF4B18"/>
</g>
<g style="mix-blend-mode:multiply">
<path d="M38.2482 24.8647C37.6802 24.1297 36.7114 25.0652 36.8785 25.7667V26.1342V26.3681C36.8785 26.6354 37.1791 26.936 37.4464 26.9026C37.6503 26.8764 37.8429 26.7937 38.0023 26.6638C38.1617 26.5339 38.2815 26.3621 38.3484 26.1676C38.4085 26.0366 38.4395 25.8942 38.4395 25.75C38.4395 25.6059 38.4085 25.4634 38.3484 25.3324C38.3458 25.1715 38.3117 25.0126 38.2482 24.8647Z" fill="#BF4B18"/>
</g>
<g style="mix-blend-mode:multiply">
<path d="M38.3167 39.7315C38.1308 39.5076 37.8767 39.3505 37.5933 39.2842C37.3099 39.2179 37.0126 39.2459 36.7465 39.364C36.517 39.5082 36.3228 39.7023 36.1786 39.9319C35.7768 40.4916 35.5343 41.1497 35.477 41.8362C35.31 42.8051 35.477 44.108 36.5127 44.5089C37.5484 44.9098 38.3502 43.54 38.6842 42.7717C38.8698 42.2723 38.9333 41.7358 38.8693 41.207C38.8054 40.6781 38.6159 40.1722 38.3167 39.7315Z" fill="#BF4B18"/>
</g>
<g style="mix-blend-mode:multiply">
<path d="M31.6659 46.8795C31.5842 46.7095 31.4562 46.5661 31.2966 46.4656C31.1371 46.3652 30.9524 46.3118 30.7639 46.3115C30.1959 46.3115 29.7282 46.8126 29.4943 47.247C29.3139 47.5195 29.1963 47.8287 29.1501 48.1523C29.1039 48.4759 29.1302 48.8057 29.2271 49.1178C29.2973 49.3041 29.4197 49.4662 29.5797 49.5847C29.7397 49.7032 29.9304 49.7731 30.1291 49.786C30.4212 49.7718 30.7015 49.6667 30.9309 49.4853C31.1945 49.2941 31.421 49.0564 31.5991 48.7838C31.7758 48.4814 31.8464 48.1286 31.7995 47.7815C31.8593 47.4744 31.8121 47.1561 31.6659 46.8795Z" fill="#BF4B18"/>
</g>
<g style="mix-blend-mode:multiply">
<path d="M38.8508 47.115C38.7875 47.0412 38.7072 46.9839 38.6169 46.9479C38.4315 46.9179 38.2416 46.9601 38.0863 47.0657C37.931 47.1713 37.822 47.3324 37.7817 47.5158C37.7817 47.5158 37.7817 47.5158 37.7817 47.7497C37.7497 47.887 37.7544 48.0304 37.7955 48.1653C37.8366 48.3002 37.9125 48.4219 38.0156 48.5181C38.1464 48.5571 38.2857 48.5571 38.4165 48.5181C39.0512 48.5181 39.2851 47.7497 39.1181 47.2486C39.046 47.176 38.9521 47.1291 38.8508 47.115Z" fill="#BF4B18"/>
</g>
<g style="mix-blend-mode:multiply">
<path d="M52.6795 22.2575C52.6803 21.9457 52.6118 21.6376 52.479 21.3555C52.4196 21.1893 52.3243 21.0381 52.1999 20.9129C52.0755 20.7876 51.9251 20.6912 51.7593 20.6307C51.5934 20.5701 51.4163 20.5467 51.2405 20.5623C51.0646 20.5779 50.8943 20.6319 50.7417 20.7207C50.4568 20.9704 50.2398 21.2884 50.1113 21.6448C49.9827 22.0013 49.9468 22.3845 50.0068 22.7586C50.0397 22.9842 50.1193 23.2004 50.2406 23.3934C50.2926 23.6415 50.4261 23.865 50.6199 24.0285C50.8136 24.1919 51.0564 24.2859 51.3097 24.2954C51.9444 24.2954 52.4456 23.6607 52.5792 23.0593C52.6389 22.796 52.6725 22.5274 52.6795 22.2575Z" fill="#BF4B18"/>
</g>
<g style="mix-blend-mode:multiply">
<path d="M23.0474 49.4872C22.8365 49.2065 22.5376 49.0047 22.1984 48.9138C21.8593 48.823 21.4995 48.8484 21.1765 48.9861H20.7088C20.2534 48.9016 19.783 48.9722 19.3724 49.1865C19.1073 49.3789 18.914 49.6543 18.8232 49.969C18.7324 50.2837 18.7494 50.6198 18.8713 50.9238C19.1468 51.3838 19.5899 51.7192 20.1074 51.8592C20.8645 52.124 21.689 52.124 22.446 51.8592C22.6553 51.757 22.8397 51.6104 22.9865 51.4296C23.1334 51.2489 23.2391 51.0383 23.2963 50.8125C23.3536 50.5868 23.3609 50.3513 23.3179 50.1224C23.275 49.8936 23.1826 49.6768 23.0474 49.4872Z" fill="#BF4B18"/>
</g>
<g style="mix-blend-mode:multiply">
<path d="M26.5874 49.9534H26.3201C26.1478 49.9208 25.9695 49.9456 25.8126 50.0241C25.6557 50.1025 25.5288 50.2303 25.4515 50.3877C25.4515 50.6884 25.2511 51.3566 25.652 51.557H25.9192C26.0544 51.5862 26.1952 51.5765 26.3252 51.5293C26.4552 51.482 26.5692 51.399 26.6542 51.2898C26.8016 51.1078 26.8943 50.8876 26.9214 50.655C26.9216 50.5205 26.8916 50.3878 26.8338 50.2664C26.776 50.145 26.6918 50.0381 26.5874 49.9534Z" fill="#BF4B18"/>
</g>
<g style="mix-blend-mode:multiply">
<path d="M14.996 44.9419C14.8843 44.8774 14.7575 44.8434 14.6285 44.8434C14.4995 44.8434 14.3727 44.8774 14.261 44.9419C13.8164 44.7941 13.3359 44.7941 12.8912 44.9419C12.7177 45.0181 12.564 45.1332 12.4421 45.2784C12.3201 45.4235 12.2332 45.5947 12.188 45.7788C12.1428 45.9628 12.1405 46.1548 12.1814 46.3399C12.2222 46.525 12.3051 46.6982 12.4235 46.8462C12.7485 47.2018 13.1841 47.4372 13.6596 47.5143C13.9 47.5813 14.1542 47.5813 14.3946 47.5143C14.6673 47.524 14.9334 47.4291 15.1384 47.249C15.3434 47.0689 15.4717 46.8172 15.4971 46.5455C15.5295 46.38 15.5295 46.2098 15.4971 46.0444C15.5303 45.8318 15.5005 45.6141 15.4115 45.4182C15.3224 45.2223 15.178 45.0567 14.996 44.9419Z" fill="#BF4B18"/>
</g>
<g style="mix-blend-mode:multiply">
<path d="M20.5078 43.7711C20.4056 43.8184 20.3145 43.8867 20.2405 43.9715C20.141 44.0593 20.0613 44.1673 20.0067 44.2882C19.9521 44.4092 19.9238 44.5404 19.9238 44.6731C19.9238 44.8058 19.9521 44.937 20.0067 45.058C20.0613 45.179 20.141 45.2869 20.2405 45.3747C20.8084 45.7422 21.4766 44.9738 21.3096 44.4058C21.3252 44.3062 21.3252 44.2048 21.3096 44.1052C21.2847 44.0263 21.2429 43.9538 21.187 43.8927C21.1312 43.8316 21.0627 43.7835 20.9864 43.7517C20.91 43.7199 20.8276 43.7051 20.7449 43.7085C20.6623 43.7118 20.5813 43.7332 20.5078 43.7711Z" fill="#BF4B18"/>
</g>
<g style="mix-blend-mode:multiply">
<path d="M34.7081 30.9771C34.5312 31.1048 34.4113 31.2966 34.374 31.5116C34.374 31.8457 34.374 32.3134 34.9085 32.1798C35.0153 32.1396 35.1122 32.0771 35.1929 31.9964C35.2735 31.9157 35.336 31.8188 35.3762 31.7121C35.4011 31.654 35.4139 31.5915 35.4139 31.5283C35.4139 31.4652 35.4011 31.4027 35.3762 31.3446C35.3094 31.0439 35.0422 30.7432 34.7081 30.9771Z" fill="#BF4B18"/>
</g>
<g style="mix-blend-mode:multiply">
<path d="M39.2501 13.4368C39.0497 12.9357 38.4149 12.2007 37.7801 12.468C37.4761 12.6437 37.2312 12.9059 37.0765 13.2211C36.9218 13.5364 36.8644 13.8906 36.9115 14.2386C36.8842 14.555 36.9409 14.8729 37.0758 15.1604C37.2107 15.4478 37.4191 15.6945 37.6799 15.8756C37.7961 15.9706 37.9327 16.0373 38.0791 16.0705C38.2254 16.1036 38.3775 16.1024 38.5232 16.0667C38.669 16.0311 38.8045 15.9621 38.9191 15.8651C39.0336 15.7682 39.124 15.646 39.1833 15.5081C39.281 15.2726 39.3484 15.0257 39.3838 14.7732C39.3995 14.6512 39.3995 14.5276 39.3838 14.4057C39.429 14.2304 39.429 14.0464 39.3838 13.8711C39.3498 13.7233 39.3051 13.5782 39.2501 13.4368Z" fill="#BF4B18"/>
</g>
<g style="mix-blend-mode:multiply">
<path d="M21.8101 30.5093C21.6838 30.561 21.5721 30.6428 21.4847 30.7477C21.3974 30.8525 21.3371 30.9771 21.309 31.1107C21.254 31.2673 21.2468 31.4367 21.2884 31.5973C21.3301 31.758 21.4187 31.9026 21.5429 32.0127C21.6448 32.0606 21.7565 32.0844 21.8691 32.0823C21.9817 32.0802 22.0923 32.0522 22.1924 32.0006C22.2925 31.9489 22.3793 31.8749 22.4463 31.7844C22.5132 31.6938 22.5585 31.589 22.5785 31.4782C22.6626 31.2404 22.6626 30.981 22.5785 30.7432C22.5018 30.6164 22.3809 30.5223 22.2391 30.4792C22.0973 30.436 21.9445 30.4468 21.8101 30.5093Z" fill="#BF4B18"/>
</g>
<path style="mix-blend-mode:multiply" d="M53.0826 17.4139C55.1382 22.2841 55.7035 27.6545 54.7068 32.846C53.7101 38.0374 51.1964 42.8167 47.4834 46.5795C43.7704 50.3422 39.0249 52.9194 33.8472 53.9851C28.6695 55.0507 23.292 54.557 18.3948 52.5664C13.4977 50.5758 9.30083 47.1776 6.33504 42.8017C3.36924 38.4258 1.76772 33.2686 1.733 27.9825C1.69828 22.6963 3.23194 17.5186 6.14 13.1041C9.04805 8.6896 13.1999 5.2366 18.0705 3.18181C24.6007 0.426825 31.9578 0.3785 38.5237 3.04746C45.0896 5.71641 50.3265 10.8841 53.0826 17.4139Z" fill="url(#paint0_radial_1109_15661)"/>
<path d="M5.04052 15.2061C5.04052 15.2061 -4.98206 34.6498 11.7222 47.913C7.56861 43.6891 4.72726 38.3525 3.54152 32.5483C2.35578 26.7441 2.87641 20.7207 5.04052 15.2061Z" fill="white"/>
<g style="mix-blend-mode:multiply" opacity="0.7">
<path d="M45.1631 7.62402C45.1631 7.62402 57.992 22.7581 52.3459 38.0926C52.3459 38.0926 60.8985 23.5933 45.1631 7.62402Z" fill="#3B0300"/>
</g>
<g style="mix-blend-mode:screen">
<path d="M16.9325 31.376C16.7934 31.3029 16.6386 31.2646 16.4814 31.2646C16.3243 31.2646 16.1695 31.3029 16.0304 31.376C15.6872 31.5357 15.3972 31.7909 15.1952 32.111C15.0413 32.3386 14.9404 32.5978 14.8999 32.8695C14.8595 33.1413 14.8804 33.4186 14.9613 33.6812C15.0123 33.9174 15.1419 34.1294 15.3288 34.2826C15.5 34.4181 15.7119 34.4918 15.9302 34.4918C16.1485 34.4918 16.3604 34.4181 16.5315 34.2826C16.9002 33.9937 17.169 33.5964 17.3 33.1467C17.4448 32.8528 17.4872 32.5189 17.4207 32.1981C17.3541 31.8774 17.1823 31.588 16.9325 31.376Z" fill="#EF4928"/>
</g>
<g style="mix-blend-mode:screen">
<path d="M16.1328 17.3464C15.7319 17.0457 15.3644 17.3464 15.164 17.6805C15.099 17.8412 15.099 18.0209 15.164 18.1816C15.1495 18.2476 15.1495 18.316 15.164 18.3821C15.1864 18.5003 15.2481 18.6075 15.3391 18.6863C15.43 18.7651 15.5449 18.811 15.6651 18.8164C15.8054 18.8674 15.9592 18.8674 16.0994 18.8164C16.2124 18.7549 16.3052 18.662 16.3667 18.5491C16.4346 18.4562 16.4825 18.3504 16.5076 18.2381C16.5327 18.1258 16.5343 18.0096 16.5123 17.8967C16.4904 17.7838 16.4454 17.6766 16.3801 17.5819C16.3148 17.4872 16.2306 17.407 16.1328 17.3464Z" fill="#EF4928"/>
</g>
<g style="mix-blend-mode:screen">
<path d="M15.5642 22.6568C15.4226 22.5276 15.2379 22.4561 15.0463 22.4561C14.8548 22.4561 14.6701 22.5276 14.5285 22.6568C14.2229 22.8722 14.0084 23.1938 13.9271 23.5588C13.7756 23.9569 13.7756 24.3968 13.9271 24.7949C13.9691 24.9283 14.0427 25.0496 14.1415 25.1485C14.2404 25.2473 14.3617 25.3209 14.4951 25.3628C14.6248 25.4275 14.7677 25.4612 14.9127 25.4612C15.0576 25.4612 15.2006 25.4275 15.3303 25.3628C15.5489 25.1997 15.7179 24.9789 15.8182 24.7252C15.9185 24.4715 15.9462 24.1948 15.8982 23.9263C15.9422 23.7032 15.9349 23.473 15.8771 23.2531C15.8192 23.0332 15.7122 22.8293 15.5642 22.6568Z" fill="#EF4928"/>
</g>
<g style="mix-blend-mode:screen">
<path d="M9.4516 24.1614C8.71661 24.4621 8.85027 25.932 9.68548 25.5645C10.5207 25.1971 10.22 23.7939 9.4516 24.1614Z" fill="#EF4928"/>
</g>
<g style="mix-blend-mode:screen">
<path d="M30.9989 14.2055C30.881 14.1411 30.749 14.1074 30.6147 14.1074C30.4805 14.1074 30.3483 14.1411 30.2305 14.2055C29.8346 14.4963 29.542 14.906 29.3953 15.3748C29.2395 15.6377 29.1572 15.9378 29.1572 16.2434C29.1572 16.5491 29.2395 16.8491 29.3953 17.112C29.5279 17.2561 29.6998 17.3583 29.8898 17.4058C30.0798 17.4533 30.2795 17.4441 30.4643 17.3793C30.7274 17.2726 30.9548 17.0936 31.1204 16.863C31.2859 16.6324 31.3828 16.3597 31.3998 16.0763C31.5171 15.7182 31.5171 15.332 31.3998 14.9739C31.3903 14.8249 31.3497 14.6796 31.2807 14.5472C31.2116 14.4149 31.1157 14.2985 30.9989 14.2055Z" fill="#EF4928"/>
</g>
<g style="mix-blend-mode:screen">
<path d="M22.5456 14.8749C21.9108 15.1422 22.011 16.4117 22.746 16.111C23.481 15.8103 23.2806 14.5742 22.5456 14.8749Z" fill="#EF4928"/>
</g>
<g style="mix-blend-mode:screen">
<path d="M28.0922 9.8627C27.7663 9.81179 27.4331 9.88318 27.1567 10.0631C26.704 10.4057 26.3756 10.8866 26.2213 11.4329C26.1247 11.6186 26.0742 11.8249 26.0742 12.0343C26.0742 12.2436 26.1247 12.4499 26.2213 12.6356C26.2899 12.7871 26.4039 12.9135 26.5476 12.9973C26.6913 13.0811 26.8574 13.1182 27.0231 13.1033C27.2951 13.0495 27.5499 12.93 27.7653 12.7554C27.9808 12.5807 28.1503 12.3561 28.2592 12.1011C28.5497 11.6324 28.6678 11.0772 28.5933 10.5309C28.5627 10.39 28.5021 10.2574 28.4156 10.1421C28.3291 10.0268 28.2188 9.93149 28.0922 9.8627Z" fill="#EF4928"/>
</g>
<g style="mix-blend-mode:screen">
<path d="M5.44189 21.42C5.20939 21.5258 5.01109 21.6945 4.86941 21.907C4.72773 22.1195 4.64828 22.3674 4.64006 22.6227C4.5731 22.8631 4.5731 23.1173 4.64006 23.3577C4.63609 23.4822 4.6612 23.6059 4.71337 23.719C4.76553 23.8322 4.84331 23.9316 4.94057 24.0094C5.03784 24.0872 5.1519 24.1413 5.27371 24.1673C5.39552 24.1934 5.52174 24.1907 5.64233 24.1595C5.85582 24.0791 6.04967 23.9541 6.21098 23.7927C6.3723 23.6314 6.49735 23.4376 6.57777 23.2241C6.61031 23.0924 6.61031 22.9548 6.57777 22.8232C6.62649 22.5693 6.62649 22.3086 6.57777 22.0548C6.50785 21.8222 6.35026 21.626 6.13829 21.5075C5.92632 21.3891 5.67658 21.3577 5.44189 21.42Z" fill="#EF4928"/>
</g>
<g style="mix-blend-mode:screen">
<path d="M5.67547 25.2637C5.0407 25.5309 5.14092 26.7671 5.87591 26.4664C6.6109 26.1657 6.37704 24.963 5.67547 25.2637Z" fill="#EF4928"/>
</g>
<path style="mix-blend-mode:screen" d="M15.4976 46.8109C16.1976 46.1374 16.6557 45.2516 16.8007 44.2911C16.9457 43.3305 16.7695 42.349 16.2994 41.4989C14.8294 38.8596 12.0231 37.1892 11.0542 34.2827C10.7741 33.399 10.7412 32.4555 10.9591 31.5544C11.177 30.6534 11.6374 29.8292 12.2904 29.1711C13.8635 27.8201 15.6177 26.6956 17.5021 25.8303C18.2879 25.5062 18.9805 24.9913 19.5172 24.3321C20.0539 23.6729 20.4177 22.8903 20.5757 22.0551C20.568 20.931 20.6913 19.8098 20.9432 18.7143C21.3651 17.5559 22.184 16.5846 23.2544 15.9729C24.3249 15.3612 25.5775 15.1488 26.7897 15.3734C28.0926 15.5739 29.7965 16.7097 31.1328 16.3757C33.5048 15.7409 32.703 13.6696 32.6362 11.9323C32.6362 11.9323 32.6362 11.5982 32.9035 11.5982C34.4737 11.5982 35.977 13.0348 37.5138 12.9012C39.6185 12.9012 38.3156 8.75852 37.5138 7.85649C36.665 6.80757 35.7617 5.80393 34.8077 4.84972C33.9725 3.88087 32.703 2.67817 32.87 1.30842C26.8716 0.167508 20.6631 1.16086 15.3202 4.11638C9.97721 7.0719 5.83644 11.8034 3.61534 17.491C1.39423 23.1786 1.23273 29.464 3.15879 35.2582C5.08484 41.0524 8.97713 45.9903 14.1612 49.2163C14.3062 48.281 14.78 47.428 15.4976 46.8109Z" fill="url(#paint1_radial_1109_15661)"/>
<defs>
<radialGradient id="paint0_radial_1109_15661" cx="0" cy="0" r="1" gradientUnits="userSpaceOnUse" gradientTransform="translate(11.2598 26.9774) rotate(-22.4428) scale(38.0432 38.0432)">
<stop stop-color="white"/>
<stop offset="0.37" stop-color="#FEFDFD"/>
<stop offset="0.51" stop-color="#FAF7F6"/>
<stop offset="0.6" stop-color="#F4EBEB"/>
<stop offset="0.68" stop-color="#EADBDA"/>
<stop offset="0.75" stop-color="#DEC6C4"/>
<stop offset="0.8" stop-color="#CFACA8"/>
<stop offset="0.86" stop-color="#BD8D88"/>
<stop offset="0.91" stop-color="#A86862"/>
<stop offset="0.95" stop-color="#903F37"/>
<stop offset="0.99" stop-color="#771309"/>
<stop offset="1" stop-color="#720A00"/>
</radialGradient>
<radialGradient id="paint1_radial_1109_15661" cx="0" cy="0" r="1" gradientUnits="userSpaceOnUse" gradientTransform="translate(38.1593 36.2645) rotate(-22.4428) scale(38.5087)">
<stop stop-color="#2B2B2B"/>
<stop offset="0.24" stop-color="#2E2D2C"/>
<stop offset="0.38" stop-color="#363230"/>
<stop offset="0.5" stop-color="#443C37"/>
<stop offset="0.61" stop-color="#594A40"/>
<stop offset="0.71" stop-color="#735B4C"/>
<stop offset="0.8" stop-color="#94715B"/>
<stop offset="0.88" stop-color="#BB8B6D"/>
<stop offset="0.96" stop-color="#E6A881"/>
<stop offset="0.99" stop-color="#F9B48A"/>
</radialGradient>
</defs>
</svg>
