<svg width="80" height="86" viewBox="0 0 80 86" fill="none" xmlns="http://www.w3.org/2000/svg">
<path d="M63.1455 50.2131C61.8253 54.531 59.2532 58.36 55.7551 61.2148C52.2569 64.0697 47.9902 65.8221 43.4952 66.2499C39.0003 66.6777 34.4795 65.7617 30.5056 63.618C26.5317 61.4743 23.2835 58.1994 21.1724 54.208C19.0614 50.2167 18.1825 45.6885 18.6472 41.1973C19.1119 36.706 20.8991 32.4537 23.7826 28.9791C26.666 25.5045 30.5159 22.9638 34.8446 21.6791C39.1732 20.3944 43.7857 20.4234 48.0978 21.7624C53.8584 23.5511 58.6757 27.5488 61.4959 32.8808C64.316 38.2128 64.9091 44.4448 63.1455 50.2131Z" fill="#00BDF1"/>
<path d="M63.1785 50.2323L63.0539 50.6151C62.908 50.8538 62.8567 51.2596 62.6481 51.7441C62.1224 53.1709 61.4364 54.5334 60.6033 55.8055C57.683 60.4685 53.1815 63.9243 47.9224 65.5407C46.2265 66.0519 44.4782 66.3693 42.7108 66.4867C40.8156 66.5969 38.914 66.4632 37.0528 66.0889C33.0196 65.3164 29.2737 63.458 26.2187 60.7139C23.7574 58.5233 21.7872 55.8369 20.4374 52.8311C19.0876 49.8253 18.3888 46.5681 18.3867 43.2732C18.3954 42.1543 18.4793 41.0373 18.6378 39.9296C18.7981 38.8151 19.0401 37.7138 19.3618 36.6347C19.6829 35.5544 20.086 34.5002 20.5677 33.4813C21.0433 32.459 21.5944 31.4735 22.2164 30.533C24.0655 27.7695 26.4923 25.4404 29.3293 23.7063C32.1663 21.9722 35.3458 20.8745 38.6484 20.4891C40.7326 20.2293 42.8431 20.268 44.9164 20.604C45.4274 20.6977 45.9322 20.7658 46.4237 20.8913L47.1708 21.0637L47.8983 21.2679L49.2501 21.8098C49.6638 22.0627 50.1748 22.1564 50.6177 22.3615C52.3507 23.148 53.9807 24.1441 55.4712 25.3275C56.8624 26.431 58.1257 27.6868 59.2373 29.0715C62.6376 33.3949 64.3784 38.7925 64.1448 44.2879C64.1111 45.811 63.9177 47.3263 63.5675 48.809C63.4819 49.2013 63.3762 49.5891 63.251 49.9706L63.1785 50.2323ZM63.1785 50.2323L63.2873 49.8398C63.4042 49.46 63.5013 49.0743 63.5781 48.6843C63.9319 47.2136 64.119 45.7077 64.136 44.1951C64.1597 43.1136 64.0893 42.0322 63.9255 40.963C63.7717 39.7078 63.5045 38.4692 63.1272 37.2623C62.2372 34.3632 60.7757 31.6716 58.8289 29.3464C56.5429 26.6045 53.6499 24.4325 50.379 23.0024C49.9812 22.7593 49.5056 22.6435 49.0688 22.464L48.3607 22.228L48.0584 22.0432L47.7719 21.8682L47.07 21.6578L46.3548 21.5048C45.8791 21.389 45.3841 21.305 44.889 21.2211C43.8985 21.0698 42.8991 20.9848 41.8973 20.9665C41.389 20.9399 40.893 20.9647 40.3653 20.97C39.8375 20.9753 39.3477 21.0257 38.8482 21.092C34.5818 21.5354 30.5327 23.1956 27.183 25.8748C23.7042 28.6534 21.1162 32.3909 19.7393 36.625C19.4175 37.683 19.1609 38.7598 18.9711 39.8492C18.7948 40.9372 18.6929 42.036 18.6661 43.1379C18.646 45.3451 18.9526 47.5431 19.5758 49.6605C20.7895 53.8336 23.2028 57.558 26.5157 60.3709C26.9454 60.6334 27.3229 61.0171 27.7233 61.3274C28.1238 61.6377 28.5986 61.8623 29.0282 62.1248C29.8828 62.673 30.772 63.1652 31.6901 63.5985C32.1039 63.8514 32.6016 64.0025 33.048 64.1661L33.7465 64.4181L34.4546 64.6541C34.8524 64.8972 35.3864 64.9175 35.8425 65.0652C36.2987 65.2128 36.7779 65.2871 37.2411 65.3516C40.7644 66.0077 44.3918 65.8379 47.8384 64.8556C50.7557 64.0303 53.4804 62.6349 55.855 60.75C56.8673 59.9497 57.8058 59.0604 58.6593 58.0925C59.3748 57.2963 60.0266 56.4449 60.6086 55.5464C61.4371 54.2808 62.13 52.9313 62.6755 51.5204C62.9478 51.0748 62.999 50.669 63.0972 50.4012C63.1953 50.1333 63.1051 50.2093 63.1051 50.2093L63.1785 50.2323Z" fill="#007CD8"/>
<path d="M63.1455 50.2131C61.8253 54.531 59.2532 58.36 55.7551 61.2148C52.2569 64.0697 47.9902 65.8221 43.4952 66.2499C39.0003 66.6777 34.4795 65.7617 30.5056 63.618C26.5317 61.4743 23.2835 58.1994 21.1724 54.208C19.0614 50.2167 18.1825 45.6885 18.6472 41.1973C19.1119 36.706 20.8991 32.4537 23.7826 28.9791C26.666 25.5045 30.5159 22.9638 34.8446 21.6791C39.1732 20.3944 43.7857 20.4234 48.0978 21.7624C53.8584 23.5511 58.6757 27.5488 61.4959 32.8808C64.316 38.2128 64.9091 44.4448 63.1455 50.2131Z" fill="#7259A5"/>
<path d="M63.1785 50.2323L63.0539 50.6151C62.908 50.8538 62.8567 51.2596 62.6481 51.7441C62.1224 53.1709 61.4364 54.5334 60.6033 55.8055C57.683 60.4685 53.1815 63.9243 47.9224 65.5407C46.2265 66.0519 44.4782 66.3693 42.7108 66.4867C40.8156 66.5969 38.914 66.4632 37.0528 66.0889C33.0196 65.3164 29.2737 63.458 26.2187 60.7139C23.7574 58.5233 21.7872 55.8369 20.4374 52.8311C19.0876 49.8253 18.3888 46.5681 18.3867 43.2732C18.3954 42.1543 18.4793 41.0373 18.6378 39.9296C18.7981 38.8151 19.0401 37.7138 19.3618 36.6347C19.6829 35.5544 20.086 34.5002 20.5677 33.4813C21.0433 32.459 21.5944 31.4735 22.2164 30.533C24.0655 27.7695 26.4923 25.4404 29.3293 23.7063C32.1663 21.9722 35.3458 20.8745 38.6484 20.4891C40.7326 20.2293 42.8431 20.268 44.9164 20.604C45.4274 20.6977 45.9322 20.7658 46.4237 20.8913L47.1708 21.0637L47.8983 21.2679L49.2501 21.8098C49.6638 22.0627 50.1748 22.1564 50.6177 22.3615C52.3507 23.148 53.9807 24.1441 55.4712 25.3275C56.8624 26.431 58.1257 27.6868 59.2373 29.0715C62.6376 33.3949 64.3784 38.7925 64.1448 44.2879C64.1111 45.811 63.9177 47.3263 63.5675 48.809C63.4819 49.2013 63.3762 49.5891 63.251 49.9706L63.1785 50.2323ZM63.1785 50.2323L63.2873 49.8398C63.4042 49.46 63.5013 49.0743 63.5781 48.6843C63.9319 47.2136 64.119 45.7077 64.136 44.1951C64.1597 43.1136 64.0893 42.0322 63.9255 40.963C63.7717 39.7078 63.5045 38.4692 63.1272 37.2623C62.2372 34.3632 60.7757 31.6716 58.8289 29.3464C56.5429 26.6045 53.6499 24.4325 50.379 23.0024C49.9812 22.7593 49.5056 22.6435 49.0688 22.464L48.3607 22.228L48.0584 22.0432L47.7719 21.8682L47.07 21.6578L46.3548 21.5048C45.8791 21.389 45.3841 21.305 44.889 21.2211C43.8985 21.0698 42.8991 20.9848 41.8973 20.9665C41.389 20.9399 40.893 20.9647 40.3653 20.97C39.8375 20.9753 39.3477 21.0257 38.8482 21.092C34.5818 21.5354 30.5327 23.1956 27.183 25.8748C23.7042 28.6534 21.1162 32.3909 19.7393 36.625C19.4175 37.683 19.1609 38.7598 18.9711 39.8492C18.7948 40.9372 18.6929 42.036 18.6661 43.1379C18.646 45.3451 18.9526 47.5431 19.5758 49.6605C20.7895 53.8336 23.2028 57.558 26.5157 60.3709C26.9454 60.6334 27.3229 61.0171 27.7233 61.3274C28.1238 61.6377 28.5986 61.8623 29.0282 62.1248C29.8828 62.673 30.772 63.1652 31.6901 63.5985C32.1039 63.8514 32.6016 64.0025 33.048 64.1661L33.7465 64.4181L34.4546 64.6541C34.8524 64.8972 35.3864 64.9175 35.8425 65.0652C36.2987 65.2128 36.7779 65.2871 37.2411 65.3516C40.7644 66.0077 44.3918 65.8379 47.8384 64.8556C50.7557 64.0303 53.4804 62.6349 55.855 60.75C56.8673 59.9497 57.8058 59.0604 58.6593 58.0925C59.3748 57.2963 60.0266 56.4449 60.6086 55.5464C61.4371 54.2808 62.13 52.9313 62.6755 51.5204C62.9478 51.0748 62.999 50.669 63.0972 50.4012C63.1953 50.1333 63.1051 50.2093 63.1051 50.2093L63.1785 50.2323Z" fill="#642D90"/>
<path d="M26.5002 28.2794C27.6847 27.5446 28.8216 26.7356 29.9039 25.8571C30.6351 25.2848 31.286 24.6166 31.8391 23.8706C32.1809 23.4333 32.4713 22.9581 32.7045 22.4544C28.942 24.003 25.6555 26.5185 23.1779 29.7461C24.3797 29.5073 25.514 29.0065 26.5002 28.2794Z" fill="#CA7BB2"/>
<path d="M24.1516 32.3737C25.9861 31.5018 27.7577 30.503 29.4533 29.3847C31.2055 28.2699 33.0479 27.079 34.7187 25.7397C36.5255 24.4487 38.0299 22.7803 39.1275 20.8499C37.0786 21.0448 35.0664 21.5214 33.1477 22.2662C32.6162 23.546 31.8161 24.6968 30.8015 25.6407C29.2746 26.9828 27.6145 28.1653 25.8472 29.1699C24.9104 29.7755 23.8469 30.1575 22.7389 30.2864C21.977 31.3188 21.3068 32.4157 20.7356 33.5645C21.9225 33.3224 23.0714 32.9219 24.1516 32.3737Z" fill="#FFF8BF"/>
<path d="M30.9268 31.4433C33.5308 29.7902 35.9219 27.8235 38.0461 25.5872C38.9435 24.5838 39.7612 23.5318 40.5887 22.4638C41.0291 21.9218 41.4252 21.3453 41.7733 20.7399C41.0634 20.7214 40.35 20.7443 39.5791 20.7541C38.5769 22.632 37.1749 24.267 35.4718 25.5439C33.5036 27.1118 31.4433 28.5605 29.3019 29.882C27.2141 31.3088 24.9677 32.4884 22.6079 33.3971C21.9376 33.6432 21.2438 33.8197 20.5374 33.924C20.1276 34.8157 19.7782 35.734 19.4915 36.6725C19.4915 36.6725 19.4915 36.6725 19.4332 36.768C23.4813 35.5047 27.3457 33.7145 30.9268 31.4433Z" fill="#F8A477"/>
<path d="M21.1953 40.9694C24.6196 39.4935 27.9034 37.7111 31.0066 35.6438C34.3705 33.3206 37.398 30.5447 40.0037 27.3946C41.2572 25.8734 42.386 24.2536 43.379 22.5508C43.6902 22.0416 44.0111 21.5165 44.3514 20.9595L44.24 20.8914C43.5107 22.0849 42.5586 23.1423 41.747 24.2199C39.5606 27.2931 36.9629 30.0517 34.0265 32.4187C31.0355 34.6998 27.7695 36.5956 24.3054 38.0617C22.6717 38.7681 20.9831 39.5284 19.2672 40.1189L18.7765 40.2781C18.6881 40.9234 18.6254 41.5626 18.5882 42.1956C19.5315 41.8322 20.3705 41.3177 21.1953 40.9694Z" fill="#FFF8BF"/>
<path d="M48.0985 21.7639L47.355 21.5499C47.2091 21.7886 47.0535 22.0432 46.9076 22.2819C45.9352 23.8732 44.8354 25.3867 43.7197 26.8905C40.9599 30.69 37.6699 34.0744 33.95 36.9405C30.1779 39.7277 25.9964 41.9131 21.5546 43.419C20.599 43.7311 19.5664 44.0617 18.5152 44.3154C19.0023 44.1978 19.4576 44.0608 19.9129 43.9238C22.0638 43.3368 24.1988 42.74 26.2746 41.9541C30.2872 40.4912 34.0572 38.4334 37.458 35.8496C41.0601 33.1362 44.1702 29.8251 46.653 26.0604C47.5303 24.7837 48.3386 23.4611 49.0745 22.098C48.7014 21.9575 48.4017 21.8399 48.0985 21.7639Z" fill="#9E73B1"/>
<path d="M22.11 42.7955C26.1484 41.3777 29.9682 39.4009 33.4578 36.9226C36.9131 34.3173 39.9981 31.2542 42.6281 27.8177C43.7756 26.3333 44.8754 24.8198 45.9796 23.156C46.3102 22.615 46.6603 22.0421 46.952 21.5647C46.2101 21.3679 45.4574 21.2144 44.6977 21.105C44.5129 21.4073 44.3379 21.6938 44.1531 21.9961C43.1764 23.7193 42.0792 25.3713 40.8697 26.9398C38.202 30.3109 35.0626 33.28 31.5482 35.7557C28.1971 38.0259 24.6486 39.9903 20.9457 41.625L18.5313 42.7504C18.5119 43.1757 18.5181 43.5947 18.5243 44.0137C19.7435 43.6822 20.9411 43.2753 22.11 42.7955Z" fill="#CA7BB2"/>
<path d="M38.0829 38.154C41.4335 35.9507 44.3154 33.1067 46.5628 29.7854C47.5708 28.1479 48.4498 26.4345 49.1919 24.6605C49.4952 23.9497 49.8338 23.2169 50.0733 22.4672L49.3528 22.1798C48.6963 23.3949 47.9757 24.5741 47.1939 25.7126C44.6501 29.7298 41.4163 33.266 37.6417 36.1578C33.8213 39.0333 29.5603 41.2713 25.0244 42.7847C22.946 43.5035 20.8172 44.1259 18.6698 44.6713L18.4647 44.7208L18.5682 45.7676C25.5739 44.7712 32.2534 42.1652 38.0829 38.154Z" fill="#FAC8C2"/>
<path d="M51.4782 23.172L50.5128 22.7132C50.3086 23.0474 50.2414 23.4435 50.0849 23.8068C49.3089 25.8137 48.36 27.7494 47.2489 29.5921C44.984 33.0263 42.0646 35.9805 38.6576 38.286C32.7028 42.4554 25.8715 45.2043 18.6885 46.3213C18.7636 46.9136 18.8706 47.5254 18.9873 48.1212L19.6503 48.0019C22.2269 47.576 24.7627 46.9322 27.2303 46.0773C31.6416 44.4023 35.776 42.0736 39.4948 39.1692C44.3748 35.3323 50.5782 29.616 51.4782 23.172Z" fill="#CA7BB2"/>
<path d="M29.3301 56.1254C34.3976 54.8029 39.3111 52.9484 43.9887 50.5929C51.1734 46.9187 58.4731 42.0909 62.5159 35.0104C62.2586 34.3942 61.9916 33.7939 61.683 33.1901C60.8344 34.114 59.9671 34.9609 59.1741 35.7221C54.9882 39.5939 50.3318 42.9237 45.3147 45.6333C43.3692 46.708 41.3645 47.672 39.3102 48.5207C35.0177 50.9813 30.4555 52.9384 25.7143 54.3529C24.5279 54.7206 23.2778 55.0495 21.9349 55.3872C22.3981 56.1391 22.9038 56.864 23.4493 57.5585C25.4676 57.1527 27.4585 56.5771 29.3301 56.1254Z" fill="#FAC8C2"/>
<path d="M49.257 52.4145C53.7481 49.484 57.755 45.8714 61.1334 41.7067C61.9317 40.6865 62.7848 39.6124 63.6353 38.471C63.3896 37.4736 63.0847 36.4918 62.722 35.5307C58.5696 42.3256 51.5608 47.1782 44.5237 50.7896C39.6776 53.2604 34.5788 55.2007 29.3161 56.5767C27.502 57.0418 25.6367 57.5191 23.7625 57.9037C24.4223 58.714 25.1409 59.4746 25.9125 60.1793C34.252 59.7442 42.3184 57.0612 49.257 52.4145Z" fill="#F8A477"/>
<path d="M38.2754 65.9859C39.8884 65.6022 41.4738 65.1107 43.021 64.5148C47.2335 62.8153 51.1903 60.5409 54.779 57.7562C58.1803 55.2187 61.1449 52.1433 63.5559 48.6512C63.946 47.0226 64.1442 45.3539 64.1464 43.6792C61.0088 48.4844 57.1064 52.7441 52.5936 56.2895C48.4733 59.6571 43.7908 62.2707 38.7616 64.0101C37.4435 64.4503 36.052 64.8676 34.6163 65.2142C35.8123 65.5731 37.0363 65.8312 38.2754 65.9859Z" fill="#477BBD"/>
<path d="M55.0149 58.1194C51.0249 61.2018 46.5813 63.6472 41.8424 65.3688C41.1431 65.619 40.3766 65.8718 39.5491 66.1529C44.6989 66.5633 49.8353 65.2118 54.1161 62.32C58.397 59.4282 61.5684 55.1677 63.1102 50.2371L63.2419 49.7712C60.926 52.9442 58.1537 55.7574 55.0149 58.1194Z" fill="#9E73B1"/>
<path d="M39.4705 63.2409C44.1671 61.5209 48.5397 59.0207 52.4043 55.8457C57.0404 52.1881 61.0245 47.7727 64.188 42.7864C64.1538 41.4734 64.0017 40.1662 63.7335 38.8806C63.2375 39.6921 62.586 40.3649 62.0202 41.1119C58.625 45.491 54.545 49.293 49.9378 52.3714C42.9626 57.1341 34.8436 59.9509 26.4174 60.5313C28.5962 62.4448 31.1262 63.9167 33.8665 64.865C35.7696 64.4531 37.6421 63.9104 39.4705 63.2409Z" fill="#CA7BB2"/>
<path d="M44.8521 45.3515C49.7856 42.7303 54.3755 39.5081 58.517 35.7585C59.4647 34.8515 60.5123 33.8525 61.5192 32.7412C60.6822 31.1876 59.6713 29.734 58.5063 28.4084C58.3526 29.1362 58.1239 29.8461 57.8238 30.5266C56.7251 32.9407 55.265 35.1733 53.4937 37.1474C50.2186 40.8445 46.4364 44.0593 42.26 46.6962C43.0309 46.293 43.9521 45.8943 44.8521 45.3515Z" fill="#FAC8C2"/>
<path d="M23.1563 53.031C25.3841 52.4254 27.6305 51.8967 29.868 51.2752C33.0135 50.4393 36.1037 49.408 39.1206 48.1871L40.3256 47.5029C44.8247 44.8579 48.9118 41.5678 52.4566 37.7375C54.3553 35.7317 55.9358 33.4471 57.143 30.963C57.5311 30.0374 57.826 29.0755 58.0235 28.0915C57.2066 27.2137 56.3212 26.4023 55.3758 25.6648C54.5251 28.3635 53.1215 30.8553 51.2543 32.9813C47.809 36.9347 43.7149 40.2718 39.148 42.8492C34.4741 45.6164 29.543 47.9243 24.424 49.7405C22.8875 50.2877 21.3961 50.7969 19.8543 51.2098C20.1595 52.0504 20.5204 52.8696 20.9346 53.6622C21.7073 53.435 22.4446 53.2299 23.1563 53.031Z" fill="#9E73B1"/>
<path d="M29.4101 51.8463C26.9259 52.5138 24.4576 53.191 21.9575 53.8487L21.1211 54.037C21.3006 54.3871 21.4801 54.7372 21.679 55.0555C23.0696 54.7469 24.4258 54.3518 25.6891 53.9654C29.33 52.8637 32.8696 51.451 36.2686 49.7431C34.0363 50.499 31.7405 51.216 29.4101 51.8463Z" fill="#CA7BB2"/>
<path d="M26.109 48.6284C30.7042 46.8872 35.134 44.7374 39.3451 42.2048C43.4584 39.8808 47.1706 36.9098 50.3393 33.4057C52.488 31.1022 54.0805 28.3372 54.9947 25.3227C54.0159 24.6152 52.9838 23.9844 51.9076 23.4362C50.8087 29.9552 44.6336 35.7326 39.7544 39.4607C33.762 44.2706 26.6213 47.4389 19.0339 48.6541C19.2008 49.4202 19.419 50.1743 19.6872 50.9111C21.8697 50.2736 24.0138 49.5114 26.109 48.6284Z" fill="#FAC8C2"/>
<path d="M20.9541 38.9654C22.4562 38.3315 23.9767 37.7745 25.4505 37.0797C28.5476 35.6851 31.4595 33.9114 34.1195 31.7991C36.8159 29.5157 39.2313 26.9198 41.3149 24.0662C42.0911 23.0107 42.915 21.9843 43.6691 20.8933C43.2377 20.8483 42.8125 20.8288 42.3872 20.8094C41.5424 22.2759 40.5218 23.6339 39.3478 24.8531C37.2086 27.3284 34.7369 29.4954 32.0031 31.2926C28.1134 33.841 23.9023 35.8611 19.4804 37.2998C19.2513 38.1304 19.0651 38.9723 18.9226 39.822C19.5547 39.5745 20.2513 39.2571 20.9541 38.9654Z" fill="#B75DB1"/>
<path style="mix-blend-mode:multiply" d="M63.1059 50.21C61.7838 54.5313 59.2089 58.3629 55.7073 61.2195C52.2057 64.0761 47.935 65.8291 43.4363 66.2564C38.9376 66.6837 34.4133 65.7661 30.4365 63.6199C26.4597 61.4736 23.2095 58.1953 21.0975 54.2002C18.9855 50.2051 18.1068 45.6731 18.5728 41.1782C19.0388 36.6833 20.8285 32.4279 23.715 28.951C26.6016 25.4741 30.4553 22.9322 34.7877 21.6474C39.1202 20.3625 43.7366 20.3925 48.052 21.7336C53.8166 23.5251 58.637 27.527 61.4582 32.8638C64.2795 38.2005 64.8719 44.4375 63.1059 50.21Z" fill="url(#paint0_radial_1109_15614)"/>
<path style="mix-blend-mode:screen" d="M54.4247 27.0052C52.7155 24.4274 50.0803 22.6057 47.0649 21.9174C42.2577 20.5143 37.116 20.7913 32.4873 22.7026C27.8587 24.614 24.0197 28.0456 21.6031 32.4317C20.6407 34.1585 19.9329 36.0153 19.5017 37.9446C18.8378 41.6822 18.9416 45.5158 19.8068 49.212C20.1401 51.0443 20.9465 52.7576 22.146 54.1822C23.0122 54.0273 23.8683 53.8206 24.7098 53.5633C24.6479 50.9465 26.179 48.6913 27.4061 46.4687C28.4714 45.0427 29.0343 43.304 29.0071 41.5242C28.7225 39.558 26.1172 39.3865 25.2366 37.9305C24.3561 36.4744 26.293 34.6639 27.147 33.8744C27.8064 33.1288 28.7055 32.6368 29.6891 32.4837C30.6726 32.3305 31.6787 32.5256 32.5336 33.0354C36.29 34.8283 37.7964 28.9298 41.1611 29.325C42.1964 29.4549 42.8939 30.6025 43.6728 31.1877C44.3249 31.6922 45.1257 31.9664 45.9501 31.9674C46.7852 31.8875 47.5795 31.5686 48.2381 31.0489C49.4583 30.297 50.7541 29.675 52.104 29.1932C52.8113 28.9937 53.5037 28.745 54.1763 28.4488C54.3069 27.9771 54.3902 27.4935 54.4247 27.0052Z" fill="url(#paint1_radial_1109_15614)"/>
<path d="M76.7605 24.8969C74.0296 21.6763 67.9942 23.2552 64.5393 24.1163C62.0223 24.7434 59.5481 25.531 57.1317 26.4741C57.5935 26.8789 58.0014 27.3412 58.3455 27.8497L59.1482 29.0396C61.4592 28.4411 63.7666 27.8842 66.127 27.4907C67.515 27.5084 69.1594 27.8576 68.4097 29.5851C67.4685 31.4892 66.2058 33.2167 64.6772 34.6914C61.0479 38.1501 56.9793 41.1162 52.5762 43.5135C48.1233 46.1728 43.4437 48.4328 38.5922 50.2669C32.0941 52.9124 25.2523 54.6187 18.273 55.3344C17.1272 55.421 13.2188 55.8083 13.1242 54.0675C12.9942 51.9555 15.0426 49.8196 16.4129 48.4714C17.1546 47.7226 17.9025 46.9995 18.6504 46.2763C18.4977 45.3847 18.4429 44.479 18.4869 43.5755C16.7714 44.4003 15.0987 45.3112 13.4751 46.3046C10.6911 47.8697 8.04347 49.666 5.56017 51.6744C3.86086 53.1175 2.71531 55.1058 2.31921 57.2997C2.38076 58.3825 2.80633 59.4127 3.52687 60.2233C6.70154 63.9337 13.0473 63.1345 17.3209 62.6862C28.2549 61.6748 38.8831 57.3729 48.5697 52.4301C56.1149 48.7022 63.1726 44.0599 69.5837 38.6078C72.4596 36.1908 80.4002 29.2411 76.7605 24.8969Z" fill="url(#paint2_radial_1109_15614)"/>
<g style="mix-blend-mode:multiply">
<path d="M9.41788 53.6591C10.7811 49.6402 14.6559 47.0906 18.5299 45.0431L18.514 44.6399C17.7298 45.1005 16.9739 45.6221 16.2251 46.0606C14.2835 47.1717 12.4458 48.4553 10.7342 49.8957C9.1332 51.2996 6.6994 53.2436 6.31661 55.4794C6.22609 56.2731 6.4168 57.0733 6.85555 57.7408C7.2943 58.4083 7.95328 58.9007 8.71773 59.1324C10.7871 59.8262 12.9708 60.1143 15.1493 59.981C17.5358 59.9336 19.915 59.6995 22.2651 59.2808C26.9569 58.4109 31.5653 57.1397 36.0396 55.4811C49.1307 50.761 62.4942 44.8086 71.44 33.818C72.7386 32.2293 75.3466 29.3207 74.6932 27.0637C73.9232 24.2109 69.182 25.5317 67.23 26.0436L65.4098 26.4829C66.4833 26.3543 67.5676 26.3427 68.6437 26.4485C69.1962 26.4165 69.7465 26.5419 70.2307 26.81C70.715 27.0781 71.1133 27.4779 71.3795 27.9632C71.6457 28.4484 71.7689 28.9992 71.7349 29.5516C71.7008 30.1041 71.5109 30.6356 71.1871 31.0845C69.2867 34.0813 66.8381 36.6928 63.9697 38.782C61.5307 40.8084 58.986 42.7041 56.3464 44.4612C50.7974 47.9961 44.8648 50.8891 38.6626 53.0844C31.8803 55.8642 24.684 57.5004 17.3665 57.9265C15.006 57.9265 8.00251 57.7992 9.41788 53.6591Z" fill="#DD8ABA"/>
</g>
<g style="mix-blend-mode:screen" opacity="0.6">
<path d="M13.1433 54.035C13.0134 51.9229 15.0617 49.787 16.432 48.4388C17.1737 47.69 17.9216 46.9669 18.6696 46.2437L18.5573 45.4976C15.4414 46.9209 12.7534 49.1367 10.7617 51.9238C9.7892 53.5151 9.15092 55.3107 11.0605 56.4776C12.5637 57.1568 14.1974 57.4987 15.8468 57.4792C21.0032 57.4845 26.1303 56.7043 31.0517 55.1656C36.6183 53.5999 42.0308 51.5306 47.2221 48.9833C55.055 45.4126 62.1717 40.4447 68.2237 34.3229C69.6886 32.7483 73.3592 28.5659 69.6983 27.2247C66.5413 26.0605 62.503 27.4829 59.338 28.0841L58.5468 28.2344L59.1188 29.0866C61.4297 28.4881 63.7371 27.9311 66.0975 27.5377C67.4855 27.5554 69.1299 27.9046 68.3802 29.6321C67.439 31.5362 66.1764 33.2637 64.6477 34.7384C61.0245 38.1782 56.966 41.1281 52.5759 43.5127C48.1229 46.172 43.4433 48.432 38.5919 50.2661C32.0938 52.9116 25.252 54.618 18.2726 55.3336C17.1464 55.3884 13.2061 55.7562 13.1433 54.035Z" fill="white"/>
</g>
<g style="mix-blend-mode:screen" opacity="0.6">
<path d="M71.4199 23.6219C71.4199 23.6219 78.5312 23.072 76.5085 29.9226C76.5085 29.9226 75.4866 33.6692 65.1157 41.7346C65.1157 41.7346 75.0101 34.0556 76.0055 29.637C77.0009 25.2185 73.8086 24.0763 71.4199 23.6219Z" fill="white"/>
</g>
<path d="M16.0555 44.8001C15.6603 45.0176 15.2713 45.2607 14.8664 45.4941L13.703 46.1819C13.2981 46.4153 12.9091 46.6584 12.5202 46.9016L11.3629 47.615C10.585 48.1012 9.80697 48.5875 9.04491 49.0834L7.91596 49.8579L6.82505 50.6774C6.45817 50.9559 6.12309 51.2538 5.78803 51.5517C5.45298 51.8497 5.44327 51.8656 5.28856 52.0114C5.13385 52.1573 4.95969 52.335 4.81116 52.5065C4.50356 52.8381 4.21657 53.1883 3.95185 53.555C3.83516 53.746 3.71846 53.9369 3.60176 54.1279L3.25168 54.7008C3.05509 55.1102 2.88503 55.5319 2.74249 55.9632C2.60702 56.393 2.49982 56.8313 2.42158 57.2751C2.46714 57.8491 2.6119 58.4109 2.84945 58.9354C3.09438 59.4667 3.44028 59.9453 3.86789 60.3446C4.69419 61.1774 5.70968 61.798 6.82773 62.1534C7.9407 62.526 9.09845 62.7484 10.2703 62.8146C11.4526 62.8929 12.639 62.8876 13.8207 62.7987C14.9982 62.7315 16.1316 62.5936 17.3445 62.5043L20.8666 62.034C21.4528 61.9628 22.0346 61.8586 22.6091 61.7219L24.3454 61.3842C25.5176 61.1826 26.643 60.8431 27.7906 60.539L29.5021 60.0987L31.1889 59.5559C32.3178 59.1749 33.4821 58.7718 34.5342 58.4093C35.5862 58.0468 36.7638 57.5862 37.8485 57.1345L41.1124 55.7633L44.3357 54.2798C45.424 53.7865 46.4742 53.2481 47.483 52.7061C49.6056 51.6647 51.6937 50.5367 53.7501 49.3891C54.7782 48.8154 55.8099 48.2001 56.8222 47.6166C57.8344 47.0331 58.8281 46.3727 59.812 45.7282C61.7897 44.4233 63.7452 43.0831 65.6088 41.643L67.0154 40.5573L68.3839 39.4266C69.2759 38.6822 70.1874 37.906 71.0414 37.1166C72.8144 35.5641 74.4087 33.8188 75.7949 31.913C76.4811 30.96 77.0091 29.9027 77.3588 28.7816C77.5222 28.2219 77.5833 27.6373 77.5392 27.0559C77.4901 26.4862 77.3108 25.9354 77.0149 25.4461C76.9503 25.3162 76.8708 25.1942 76.778 25.0827L76.6029 24.9757L76.4279 24.8688C76.2309 24.6534 76.0152 24.4557 75.7834 24.2782L75.0355 23.8212C74.7756 23.6905 74.5046 23.5834 74.2257 23.5011C73.1017 23.1586 71.9245 23.0244 70.7522 23.1051C68.3932 23.2879 66.0594 23.7148 63.7885 24.3791C61.4923 24.9583 59.232 25.6714 57.0192 26.515C59.2244 25.6463 61.4785 24.9075 63.7699 24.3021C66.0422 23.6175 68.3775 23.1629 70.7407 22.9451C71.9373 22.8543 73.1404 22.9823 74.2911 23.3226C74.5819 23.4084 74.8637 23.5221 75.1327 23.662L75.5147 23.8954L75.8966 24.1288C76.1427 24.2983 76.3649 24.5002 76.557 24.7291L76.7479 24.8458L76.9389 24.9625L77.1917 25.3356C77.5044 25.8563 77.6924 26.4425 77.7407 27.048C77.794 27.6515 77.7338 28.2596 77.5631 28.8409C77.2166 29.9834 76.6837 31.0609 75.9859 32.0297C74.5984 33.9539 73.0054 35.7213 71.235 37.3005C70.3456 38.112 69.4598 38.882 68.5421 39.6326L67.1895 40.7731L65.783 41.8587C63.9097 43.3148 61.8967 44.6417 59.9827 45.9855C58.9987 46.63 57.9829 47.255 56.9831 47.8898C55.9832 48.5245 54.955 49.0983 53.9171 49.688C51.8511 50.8514 49.7727 51.9635 47.6403 53.0209C46.5839 53.5336 45.5398 54.0977 44.4834 54.6104L41.2442 56.0842L37.9802 57.4554C36.8699 57.9133 35.7506 58.2784 34.6341 58.7108C33.5175 59.1431 32.3727 59.5144 31.2729 59.8477L29.5702 60.3808L27.8489 60.8369C26.7111 61.1251 25.5698 61.4549 24.3976 61.6565L22.6356 62.0004C22.0611 62.1371 21.4794 62.2413 20.8931 62.3125L17.3649 62.7572C16.1837 62.8659 15.0345 62.9941 13.7994 63.048C12.6122 63.1305 11.4207 63.1326 10.2331 63.0542C9.03842 62.9782 7.85925 62.7427 6.72696 62.3541C6.44465 62.2628 6.16879 62.1526 5.90125 62.0243C5.62733 61.8896 5.36632 61.7301 5.1215 61.5478C4.85294 61.4163 4.59723 61.26 4.35768 61.081C4.11727 60.9044 3.89594 60.7033 3.69728 60.4807C3.26626 60.0547 2.91213 59.5573 2.65054 59.0106C2.40385 58.4561 2.25604 57.8628 2.21381 57.2575C2.31011 56.8071 2.42901 56.3618 2.57007 55.9234C2.70583 55.4831 2.87947 55.0554 3.08902 54.6451L3.44883 54.0563C3.56553 53.8653 3.68222 53.6744 3.80864 53.4675C4.07489 53.0928 4.37082 52.7401 4.69358 52.4128C4.81028 52.2218 5.00654 52.0795 5.17098 51.9177C5.33541 51.7559 5.49985 51.5942 5.67048 51.458C5.8411 51.3219 6.36623 50.856 6.74903 50.5872C7.13182 50.3185 7.47307 50.0462 7.85586 49.7774C8.23866 49.5087 8.61174 49.2558 9.00072 49.0127C9.76278 48.5167 10.531 48.0464 11.3249 47.5699L12.4981 46.8662C12.887 46.6231 13.276 46.3799 13.6712 46.1625L14.8603 45.4685L16.0555 44.8001Z" fill="#A760A6"/>
<path style="mix-blend-mode:screen" d="M42.6458 52.5036C40.6379 52.9722 38.6892 53.6656 36.8366 54.5705C34.8616 55.418 32.7894 56.1624 30.6199 56.8037C26.2353 58.1835 21.6724 58.9148 17.0761 58.9741C14.8916 58.9723 6.88645 59.3039 7.79525 55.7066C8.24258 53.7944 10.5005 51.8521 11.9061 50.4818C13.3118 49.1115 15.0772 47.5459 16.7454 46.1393C16.9903 45.9174 16.6535 45.646 16.4157 45.7848C12.357 48.1347 6.36748 50.7471 4.45882 55.3725C2.55015 59.9979 7.98977 61.6829 11.5013 62.124C16.878 62.488 22.2748 61.8252 27.4037 60.1711C30.1764 59.4216 32.9091 58.531 35.591 57.503C38.2317 56.6975 40.7426 55.5158 43.0463 53.9941C43.658 53.4937 43.6863 52.3745 42.6458 52.5036Z" fill="url(#paint3_radial_1109_15614)"/>
<g style="mix-blend-mode:multiply">
<path d="M64.0978 44.9374L64.1022 44.0003L64.1005 43.0375C64.8599 42.4744 65.6095 41.9271 66.3468 41.3286C66.7137 41.0501 67.0744 40.746 67.4351 40.4419C67.7958 40.1378 68.1786 39.869 68.5234 39.5552C69.2448 38.947 69.9892 38.2653 70.6557 37.711C71.3223 37.1567 72.0579 36.3823 72.6705 35.7731C74.0194 34.452 75.2167 32.9845 76.2403 31.3979C76.7345 30.6091 77.1221 29.7583 77.3932 28.8678C77.6523 27.9828 77.6421 27.0408 77.3639 26.1616C77.0346 25.2973 76.4288 24.566 75.6409 24.0814C74.8577 23.5978 73.9781 23.2915 73.0639 23.1841C71.2005 23.0081 69.3209 23.1365 67.4987 23.5643C66.5855 23.7712 65.6882 23.9878 64.7714 24.2362L63.4188 24.5898C62.9573 24.7012 62.502 24.8382 62.0564 24.9594C61.6109 25.0805 61.1556 25.2175 60.7162 25.3643L59.3724 25.8107C58.9172 25.9478 58.4999 26.1299 58.0605 26.2766C57.6211 26.4234 57.1879 26.5958 56.7609 26.7938C56.7351 26.7915 56.7103 26.7833 56.6882 26.7698C56.6661 26.7564 56.6474 26.7379 56.6336 26.716L56.1669 26.2996L55.6417 25.9787C55.2916 25.7648 54.9999 25.4554 54.6595 25.2255C54.3191 24.9956 53.9434 24.7879 53.5933 24.574C53.2432 24.36 52.8932 24.1461 52.5272 23.9224L52.002 23.6015L51.4769 23.2806C51.3018 23.1736 51.1109 23.0569 50.9358 22.9499L50.4107 22.629L49.2535 22.1623L48.0733 21.7688L47.3616 21.5744L47.42 21.4789L47.3324 21.6221L46.062 21.3047L44.7687 21.0607C43.9082 20.9261 43.0406 20.8411 42.1704 20.8061C41.7354 20.8026 41.2943 20.7734 40.8496 20.7858C40.4049 20.7982 39.9859 20.8044 39.5474 20.8424L38.8976 20.9043L38.2381 20.9821C37.8155 21.0298 37.3735 21.1094 36.9412 21.173C36.0762 21.3338 35.2204 21.5404 34.3774 21.7919L33.1362 22.2136C32.7384 22.3639 32.3308 22.5301 31.9392 22.706C30.3232 23.4069 28.7992 24.3033 27.4013 25.375C26.7084 25.9101 26.045 26.4823 25.4139 27.0892L24.5042 28.0413L23.6582 29.0324C23.4248 29.4143 23.1057 29.7219 22.8502 30.0685C22.5947 30.415 22.3931 30.8164 22.1694 31.1824C21.6936 31.9128 21.2654 32.6733 20.8876 33.4589C20.121 35.0284 19.5367 36.6806 19.146 38.3831C18.951 39.2321 18.8052 40.0917 18.7093 40.9575C18.6191 41.8203 18.5864 42.6964 18.5793 43.5663C18.5788 43.586 18.5732 43.6051 18.563 43.6219C18.5527 43.6387 18.5382 43.6524 18.521 43.6618C17.6024 44.1277 16.6936 44.5777 15.7972 45.079C14.9008 45.5802 13.9813 46.1549 13.1362 46.6438L10.5132 48.2537C9.65475 48.8 8.77688 49.3782 7.9662 49.9537C7.12861 50.5354 6.33061 51.1722 5.57748 51.8597C4.8328 52.5516 4.17362 53.3301 3.61399 54.1786C3.02995 54.9875 2.65131 55.9262 2.51069 56.9139C2.50745 57.9009 2.82519 58.8621 3.41599 59.6527C4.02293 60.4554 4.7981 61.1156 5.68715 61.5871C6.58814 62.0503 7.55376 62.3751 8.55151 62.5507C10.5746 62.8635 12.6295 62.9146 14.6657 62.7027L17.7386 62.395C18.7597 62.2978 19.7844 62.159 20.7639 62.0582C22.7911 61.7452 24.8032 61.3138 26.787 60.8214C26.8377 60.8304 26.8832 60.8582 26.9143 60.8992C27.6354 61.4859 28.3915 62.0283 29.1784 62.5232C29.9691 63.0209 30.7889 63.4708 31.6334 63.8705C32.0313 64.1136 32.4875 64.2613 32.9339 64.4248C33.3804 64.5884 33.8011 64.7581 34.2414 64.896L34.5437 65.0808L34.8143 65.2461L35.5003 65.4468L36.8635 65.7553C37.3232 65.8614 37.7706 65.9162 38.2498 65.9905L39.643 66.1425C40.5752 66.2146 41.5112 66.2243 42.4446 66.1717C43.3755 66.1268 44.3032 66.0297 45.2232 65.8808L46.6041 65.5882L47.2963 65.4211L47.9664 65.2186C48.8597 64.9436 49.737 64.6186 50.5939 64.2453C51.4451 63.8591 52.2731 63.4237 53.0736 62.9413C53.4785 62.7079 53.8772 62.4488 54.26 62.1801C54.6428 61.9113 55.0256 61.6426 55.3863 61.3385C56.1272 60.7742 56.826 60.1567 57.4771 59.4908C58.14 58.8228 58.7621 58.1154 59.3398 57.3726C59.9115 56.6335 60.4309 55.8554 60.894 55.0439C61.3711 54.2389 61.7998 53.4061 62.1777 52.55C62.5375 51.6809 62.8532 50.7943 63.1236 49.8934L63.4268 48.7892L63.6133 47.876C63.6735 47.563 63.7239 47.266 63.7681 46.9433C63.8123 46.6206 63.8627 46.3236 63.8971 46.0168L64.0978 44.9374ZM64.0978 44.9374L64.02 45.8515C64.0015 46.168 63.9413 46.4809 63.9069 46.7877C63.8724 47.0945 63.8123 47.4074 63.7522 47.7204L63.5656 48.6336L63.2686 49.7635C62.7596 51.5872 62.0198 53.3386 61.0673 54.975C60.6008 55.7917 60.0783 56.5751 59.5034 57.3195C58.9367 58.0683 58.3253 58.7822 57.6725 59.4572C57.0464 60.1321 56.38 60.7686 55.6772 61.3632C55.3165 61.6673 54.9337 61.9361 54.5509 62.2049C54.1681 62.4736 53.7694 62.7326 53.3707 62.9917C52.5639 63.4845 51.7295 63.9305 50.8715 64.3275C50.0113 64.7181 49.1272 65.0538 48.2246 65.3327L47.5448 65.5511L46.8525 65.7181C46.395 65.8466 45.9308 65.9497 45.4619 66.0267C44.5341 66.1986 43.5963 66.3117 42.6541 66.3653C41.7038 66.422 40.7508 66.4164 39.8013 66.3485C39.3345 66.3255 38.8456 66.2672 38.3824 66.2026C37.9191 66.1381 37.4461 66.0895 36.9864 65.9834L35.5817 65.6713L34.9115 65.4804L34.5605 65.3752L34.2741 65.2001C33.8763 64.957 33.3715 64.8889 32.9348 64.7095C32.498 64.53 32.071 64.3346 31.6184 64.1455C29.9189 63.3623 28.3167 62.3832 26.8445 61.2281L26.9718 61.3059C24.9879 61.7983 22.9599 62.22 20.923 62.5489C19.8984 62.6877 18.8738 62.8265 17.8819 62.876L14.793 63.1739C12.7313 63.3748 10.6525 63.316 8.60542 62.9989C7.56934 62.8197 6.56748 62.4803 5.63586 61.9928C4.69683 61.5057 3.88019 60.8124 3.24712 59.9648C2.62292 59.095 2.28996 58.05 2.29588 56.9794C2.43425 55.9253 2.83622 54.9231 3.4646 54.0655C4.04297 53.2048 4.72265 52.4168 5.48907 51.7183C6.25769 51.0275 7.06719 50.3837 7.91317 49.7902C8.75921 49.1925 9.63353 48.6559 10.5017 48.0936L13.1309 46.5094C14.0211 45.9825 14.9308 45.4238 15.8078 44.9543C16.6848 44.4849 17.6873 43.9173 18.5634 43.5566L18.5051 43.6521C18.5026 40.121 19.3089 36.6363 20.8619 33.4651C21.2789 32.6934 21.7366 31.9444 22.2331 31.2213C22.4568 30.8553 22.6902 30.4734 22.9138 30.1074C23.1375 29.7414 23.4505 29.4081 23.7316 29.0554L24.5935 28.0741C24.8841 27.7416 25.1873 27.4243 25.5032 27.1219C26.1356 26.5078 26.8024 25.9302 27.5003 25.3918C28.8873 24.3118 30.3979 23.4007 32.0002 22.6777C32.4015 22.4859 32.8091 22.3197 33.2069 22.1694C33.6047 22.0191 34.0441 21.8723 34.4738 21.7415C35.3135 21.4778 36.17 21.271 37.0375 21.1226C37.4637 21.0333 37.896 20.9697 38.3442 20.9158L38.9878 20.8282L39.6535 20.7761C40.0892 20.7289 40.5271 20.7047 40.9654 20.7036C41.4198 20.6753 41.861 20.7045 42.2959 20.708C43.1803 20.7401 44.0619 20.8263 44.9357 20.9661L46.2388 21.1942L47.5349 21.5054L47.3678 21.6C47.3814 21.577 47.4028 21.5596 47.4281 21.5511C47.4534 21.5425 47.4809 21.5432 47.5057 21.5531L47.8081 21.7379L47.9513 21.8254L48.1104 21.9227C48.4605 22.1366 48.9016 22.1658 49.3065 22.3258C49.7114 22.4858 50.0942 22.6105 50.4638 22.7926L51.0048 23.1232C51.1799 23.2302 51.3549 23.3372 51.5299 23.4441L52.071 23.7748L53.6623 24.7472C54.0283 24.9709 54.3784 25.1848 54.7444 25.4085L55.7522 26.1555L56.2773 26.4764L56.76 26.9025L56.6327 26.8248C57.0438 26.617 57.5089 26.4641 57.9421 26.2917C58.3752 26.1193 58.8084 25.9469 59.2637 25.8099L60.6075 25.3634L61.9574 24.9426C62.8521 24.6588 63.7653 24.4519 64.6185 24.1646C65.4716 23.8773 66.4387 23.7252 67.3679 23.5281C69.2188 23.1108 71.1255 22.9989 73.0126 23.1965C73.9709 23.3109 74.8921 23.635 75.7108 24.146C76.5267 24.6681 77.1511 25.4409 77.4904 26.3482C77.7886 27.2672 77.795 28.256 77.5089 29.1789C77.2224 30.0832 76.8198 30.9465 76.3111 31.7471C75.2712 33.3263 74.0578 34.7841 72.6935 36.0932C71.3391 37.4511 69.9476 38.6552 68.4987 39.846C68.1539 40.1599 67.7772 40.4543 67.4165 40.7584C67.0558 41.0625 66.689 41.341 66.3221 41.6195C65.5689 42.2083 64.8192 42.7555 64.0598 43.3186L64.1022 44.0003L64.0978 44.9374Z" fill="#341C66"/>
</g>
<g style="mix-blend-mode:multiply">
<path d="M59.149 29.0397C59.599 29.5551 60.0198 30.1182 60.361 30.6327C60.7023 31.1472 61.1514 31.7714 61.4855 32.369L61.7314 32.8252C61.8284 32.9686 61.9107 33.1214 61.9771 33.2814C62.1422 33.5903 62.2912 33.9075 62.4236 34.2317L62.634 34.71L62.809 35.2104L62.9584 35.717L63.0822 36.2297L62.8435 36.0838C64.1121 35.0461 65.2879 33.8998 66.3576 32.6581C66.8864 32.0422 67.3576 31.379 67.7651 30.6769C67.9575 30.3301 68.1147 29.9649 68.2345 29.5869C68.3641 29.2224 68.4003 28.8312 68.3397 28.4491C68.2824 28.2825 68.1809 28.1347 68.046 28.0215C67.9112 27.9082 67.748 27.8339 67.5741 27.8064C67.1854 27.7158 66.7876 27.6707 66.3886 27.672C65.5963 27.711 64.8078 27.8062 64.029 27.9567C63.206 28.0875 62.405 28.2537 61.5625 28.4164L59.149 29.0397ZM59.149 29.0397C60.7297 28.5631 62.3263 28.0964 63.9441 27.7737C64.7608 27.6074 65.5894 27.5072 66.4221 27.474C66.852 27.4576 67.2821 27.4998 67.7005 27.5995C67.9111 27.6806 68.1052 27.7992 68.2734 27.9496C68.3824 27.9965 68.4842 28.0587 68.5757 28.1343L68.6703 28.3015C68.6994 28.3516 68.7174 28.4073 68.7233 28.465C68.7977 28.9047 68.7622 29.356 68.6199 29.7787C68.5002 30.1839 68.335 30.5742 68.1275 30.9421C67.7155 31.6707 67.231 32.3558 66.6812 32.987C66.1419 33.6191 65.5646 34.2061 64.9714 34.7834C64.3782 35.3607 63.7532 35.9185 63.0902 36.4313C63.0743 36.4456 63.0556 36.4563 63.0352 36.4628C63.0148 36.4692 62.9933 36.4712 62.9721 36.4686C62.9509 36.466 62.9305 36.4589 62.9123 36.4477C62.894 36.4365 62.8784 36.4216 62.8665 36.4039L62.7586 35.9008C62.7269 35.732 62.6823 35.566 62.6252 35.404L62.4819 34.9231L62.2971 34.4386C62.1654 34.1177 62.0337 33.7968 61.8825 33.5077C61.7313 33.2186 61.7252 33.193 61.6465 33.0356L61.4166 32.5891C60.7453 31.354 59.9875 30.1679 59.149 29.0397Z" fill="#341C66"/>
</g>
<g style="mix-blend-mode:multiply">
<path d="M18.6685 46.2446L18.9152 47.3789L19.1972 48.491L19.3431 49.0392L19.5146 49.5811L19.8638 50.6906L20.274 51.7718C20.4022 52.1342 20.5755 52.4587 20.7293 52.815L20.9777 53.3383C21.0523 53.5131 21.1385 53.6826 21.2359 53.8458L21.7875 54.8386C21.7914 54.8788 21.7821 54.9191 21.761 54.9535C21.74 54.9879 21.7083 55.0146 21.6708 55.0295C20.1105 55.3597 18.5256 55.5608 16.9323 55.6307C16.1174 55.6449 15.3039 55.5588 14.51 55.3744C14.1061 55.2488 13.7398 55.0249 13.4438 54.7228C13.3445 54.6842 13.2529 54.6282 13.1733 54.5575L13.03 54.47L12.9346 54.4116C12.8869 54.307 12.8513 54.1972 12.8285 54.0845C12.8111 53.9734 12.8066 53.8607 12.8152 53.7486C12.8209 53.3311 12.9159 52.9196 13.0937 52.5418C13.2723 52.1784 13.4839 51.8322 13.7258 51.5075C14.1665 50.8455 14.6536 50.2156 15.1836 49.6227C15.7082 49.0208 16.2682 48.4508 16.8606 47.9155C17.4258 47.3194 18.0298 46.7612 18.6685 46.2446ZM18.6685 46.2446C17.4863 47.2968 16.3825 48.4338 15.3657 49.6465C14.8624 50.2431 14.4029 50.8754 13.991 51.5384C13.766 51.852 13.5645 52.1818 13.3881 52.525C13.2332 52.8689 13.1476 53.2399 13.1361 53.6168L13.1467 53.8856C13.1703 53.9708 13.1995 54.0544 13.2343 54.1358L13.3297 54.1941L13.4252 54.2525C13.4851 54.3079 13.5554 54.3509 13.6321 54.3789C13.9192 54.6192 14.2621 54.7837 14.6293 54.8572C15.3846 55.0374 16.1607 55.1147 16.9367 55.087C18.5119 55.0456 20.0808 54.8711 21.6267 54.5654L21.4905 54.7882L20.9424 53.7538C20.845 53.5907 20.7587 53.4212 20.6842 53.2464L20.4455 52.7071C20.3174 52.3447 20.1379 51.9946 20.0194 51.6162L19.6508 50.5385C19.5848 50.3563 19.5308 50.1699 19.489 49.9807L19.3369 49.4069L19.191 48.8588L19.0549 48.2948C18.9621 47.9102 18.9011 47.5451 18.8339 47.1543C18.7667 46.7636 18.7676 46.6549 18.6685 46.2446Z" fill="#341C66"/>
</g>
<g style="mix-blend-mode:multiply">
<path d="M21.6472 54.9281L22.1564 54.8459L23.5886 54.5409C24.2122 54.4265 24.9459 54.263 25.7899 54.0502C26.6298 53.8203 27.5943 53.6011 28.6233 53.312L30.2518 52.8647L31.9607 52.3572L33.7597 51.7737C34.3839 51.5869 35.0124 51.3809 35.6454 51.1558L37.57 50.4741C38.218 50.2363 38.882 50.0082 39.5335 49.7289C40.8331 49.2117 42.1742 48.6981 43.4649 48.0881L45.4293 47.234C46.0746 46.929 46.7041 46.6143 47.3725 46.2359C48.0408 45.8575 48.6376 45.6321 49.2511 45.3077L51.0828 44.2415L52.8209 43.2929C53.3611 42.9454 53.9074 42.6236 54.4281 42.308C54.9488 41.9924 55.4537 41.6671 55.9646 41.3674C56.4756 41.0677 56.8973 40.7353 57.3508 40.4223L59.744 38.7594L61.5271 37.3794C62.5217 36.6102 63.0884 36.1479 63.0884 36.1479L61.5908 37.4183L59.8359 38.8593C59.1472 39.3782 58.3366 39.9538 57.4711 40.5832C57.0432 40.89 56.5861 41.2445 56.091 41.5539C55.596 41.8633 55.1168 42.1825 54.5864 42.514C54.056 42.8455 53.5255 43.1771 52.9756 43.5404C52.4257 43.9038 51.8414 44.1805 51.2694 44.5084L49.4376 45.5746C48.8241 45.8991 48.1787 46.2041 47.5104 46.5825L45.5672 47.5806C44.9156 47.8599 44.2544 48.1552 43.5604 48.5398C42.2635 49.1242 40.9064 49.6281 39.5972 50.1612C38.9394 50.4149 38.2755 50.643 37.6275 50.8808L35.687 51.5527C34.4042 51.9709 33.1727 52.3767 31.9898 52.7029L30.2491 53.1909L28.6145 53.6126C27.5952 53.8858 26.6245 54.0794 25.7625 54.2739C24.9006 54.4684 24.1606 54.6063 23.5488 54.7133C22.9371 54.8202 22.4279 54.9025 22.114 54.9511L21.6472 54.9281Z" fill="#341C66"/>
</g>
<g style="mix-blend-mode:overlay">
<path d="M30.4339 23.7753C30.4339 23.7753 14.482 33.3913 20.8932 50.5102C20.8932 50.5102 16.4455 34.2196 30.4339 23.7753Z" fill="white"/>
</g>
<g style="mix-blend-mode:multiply" opacity="0.7">
<path d="M63.0761 47.8981C63.0761 47.8981 56.6835 63.5088 42.8772 65.3221C42.8772 65.3221 57.2069 66.0143 63.0761 47.8981Z" fill="#0225C5"/>
</g>
<defs>
<radialGradient id="paint0_radial_1109_15614" cx="0" cy="0" r="1" gradientUnits="userSpaceOnUse" gradientTransform="translate(18.6477 24.2898) rotate(17.5322) scale(46.2527 45.8034)">
<stop stop-color="white"/>
<stop offset="0.4" stop-color="#FEFDFE"/>
<stop offset="0.55" stop-color="#F9F6FA"/>
<stop offset="0.65" stop-color="#F2EBF4"/>
<stop offset="0.73" stop-color="#E7DAEA"/>
<stop offset="0.8" stop-color="#D8C4DE"/>
<stop offset="0.87" stop-color="#C6A8CF"/>
<stop offset="0.92" stop-color="#B188BD"/>
<stop offset="0.98" stop-color="#9A64A9"/>
<stop offset="1" stop-color="#8C4F9E"/>
</radialGradient>
<radialGradient id="paint1_radial_1109_15614" cx="0" cy="0" r="1" gradientUnits="userSpaceOnUse" gradientTransform="translate(61.129 67.7912) rotate(7.93077) scale(50.4577 49.9965)">
<stop stop-color="#2B2B2B"/>
<stop offset="0.39" stop-color="#2D2D2D"/>
<stop offset="0.53" stop-color="#343434"/>
<stop offset="0.63" stop-color="#3F3F3F"/>
<stop offset="0.71" stop-color="#505050"/>
<stop offset="0.77" stop-color="#666666"/>
<stop offset="0.84" stop-color="#828282"/>
<stop offset="0.89" stop-color="#A2A2A2"/>
<stop offset="0.94" stop-color="#C8C8C8"/>
<stop offset="0.99" stop-color="#F1F1F1"/>
<stop offset="1" stop-color="white"/>
</radialGradient>
<radialGradient id="paint2_radial_1109_15614" cx="0" cy="0" r="1" gradientUnits="userSpaceOnUse" gradientTransform="translate(29.4566 37.9608) rotate(8.98662) scale(71.8585 71.8585)">
<stop offset="0.06" stop-color="#7FCFE6"/>
<stop offset="0.24" stop-color="#7EC6E1"/>
<stop offset="0.55" stop-color="#7BACD4"/>
<stop offset="0.93" stop-color="#7783BE"/>
<stop offset="1" stop-color="#767BBA"/>
</radialGradient>
<radialGradient id="paint3_radial_1109_15614" cx="0" cy="0" r="1" gradientUnits="userSpaceOnUse" gradientTransform="translate(48.5859 16.6785) rotate(17.5322) scale(65.6521 65.0143)">
<stop stop-color="#2B2B2B"/>
<stop offset="0.39" stop-color="#2D2D2D"/>
<stop offset="0.53" stop-color="#343434"/>
<stop offset="0.63" stop-color="#3F3F3F"/>
<stop offset="0.71" stop-color="#505050"/>
<stop offset="0.77" stop-color="#666666"/>
<stop offset="0.84" stop-color="#828282"/>
<stop offset="0.89" stop-color="#A2A2A2"/>
<stop offset="0.94" stop-color="#C8C8C8"/>
<stop offset="0.99" stop-color="#F1F1F1"/>
<stop offset="1" stop-color="white"/>
</radialGradient>
</defs>
</svg>
