<svg width="76" height="51" viewBox="0 0 76 51" fill="none" xmlns="http://www.w3.org/2000/svg">
<path d="M39.014 50.1237C52.8553 50.1237 64.0759 38.9032 64.0759 25.0619C64.0759 11.2206 52.8553 0 39.014 0C25.1727 0 13.9521 11.2206 13.9521 25.0619C13.9521 38.9032 25.1727 50.1237 39.014 50.1237Z" fill="#005DC6"/>
<path opacity="0.63" d="M39.014 2.09395e-08C38.2129 2.09395e-08 37.4262 0.0429168 36.6466 0.11444C36.2603 0.150202 35.2733 3.46175 35.1303 3.89804C34.3607 6.009 33.9427 8.2319 33.8929 10.4782C33.8643 11.5659 34.1061 12.6437 34.5967 13.6149C35.0873 14.5861 35.8113 15.4203 36.7038 16.0427C38.3917 17.1728 40.28 17.0083 42.2755 17.0155C44.9433 17.0155 47.6254 16.5434 50.2575 16.9654C52.3149 17.29 54.307 17.942 56.1582 18.8965C58.4051 20.0469 60.2615 21.8361 61.4939 24.0391C62.1651 25.4131 62.5473 26.9102 62.6168 28.4378C62.6811 29.1959 62.7026 29.9612 62.7527 30.7265C62.8838 31.2828 62.9605 31.8505 62.9815 32.4216C64.1316 28.6728 64.3863 24.7064 63.725 20.8412C63.0637 16.9761 61.5048 13.32 59.1738 10.1667C56.8428 7.01347 53.8045 4.45102 50.3033 2.6853C46.802 0.919583 42.9353 -0.000160238 39.014 2.09395e-08Z" fill="#247EE2"/>
<path opacity="0.63" d="M14.5031 30.2833C15.6194 35.5482 18.4028 40.3131 22.4405 43.8715C26.4781 47.4299 31.5551 49.5923 36.9186 50.0381C38.2346 50.1454 36.0031 42.5925 35.6454 41.913C33.4568 37.7718 29.6446 34.8322 26.7837 31.1845C25.879 30.1711 25.3578 28.8729 25.3103 27.5153C25.4748 21.8936 35.7456 24.6973 35.388 18.7608C35.2602 17.4761 34.6304 16.2937 33.6356 15.4707C31.6544 13.747 29.0581 13.0604 26.6478 12.1878C25.508 11.8169 24.4231 11.2948 23.4221 10.6357C23.1288 10.4283 20.461 8.18965 20.7972 7.83203C18.0051 10.7828 15.9731 14.3686 14.8766 18.2801C13.78 22.1916 13.6518 26.3112 14.5031 30.2833Z" fill="#247EE2"/>
<path opacity="0.47" d="M28.2071 28.0153C28.2571 29.6532 30.2169 30.8404 31.6402 31.3197C31.873 31.4053 32.1218 31.4388 32.369 31.4178C32.6161 31.3968 32.8557 31.3217 33.0707 31.1981C33.8288 30.6831 33.5928 29.8677 33.6357 29.1167C33.6786 28.3657 33.9576 27.2714 33.4855 26.5919C32.4627 25.1185 28.8651 25.4833 28.2929 27.2357C28.2166 27.488 28.1875 27.7523 28.2071 28.0153Z" fill="#154B86"/>
<path opacity="0.63" d="M22.2705 6.41485C23.0445 7.2147 24.0415 7.763 25.1315 7.98837C26.1328 8.21725 27.3773 8.19578 27.9924 7.3518C28.6075 6.50782 28.2642 5.45642 28.6576 4.57668C28.8869 4.18458 29.1967 3.84549 29.5666 3.58169C29.9364 3.31788 30.3578 3.13535 30.8033 3.04609C31.6882 2.86916 32.5465 2.57826 33.3567 2.18066C34.032 1.76507 34.5387 1.12411 34.7871 0.371094C30.1281 1.16378 25.7886 3.25915 22.2705 6.41485Z" fill="#247EE2"/>
<path opacity="0.25" d="M52.3749 20.6201C51.894 20.6247 51.4148 20.6774 50.9445 20.7775C49.4711 21.1065 47.3111 22.3796 48.5985 24.2034C49.1507 24.8436 49.8798 25.3065 50.6941 25.5338C51.5069 25.7519 52.2567 26.1587 52.8827 26.7211C53.9127 27.8154 53.7553 29.582 53.0973 30.9553C52.4393 32.3285 51.3879 33.4371 50.7013 34.7818C50.0147 36.1264 49.7643 37.8787 50.7013 39.0732C51.1933 39.5847 51.8335 39.9289 52.5316 40.0572C53.2296 40.1855 53.9504 40.0915 54.5922 39.7884C55.8668 39.1521 56.9281 38.1579 57.6462 36.9275C59.2578 34.6213 60.1171 31.8733 60.1066 29.0599C60.0857 27.6682 59.7461 26.2998 59.1137 25.0599C58.4814 23.82 57.5732 22.7416 56.4589 21.9075C55.261 21.0714 53.8358 20.6221 52.3749 20.6201Z" fill="#154B86"/>
<path opacity="0.47" d="M26.0039 33.4084C24.899 32.5971 23.8825 31.6717 22.9713 30.6476C22.5161 30.1333 22.1796 29.5253 21.9855 28.8665C21.7915 28.2077 21.7447 27.5143 21.8484 26.8354C22.3061 24.7541 24.4947 23.6526 26.2971 22.5082C27.1158 22.0459 27.818 21.4025 28.3498 20.6272C28.6092 20.2344 28.7598 19.7799 28.7862 19.3099C28.8126 18.84 28.7138 18.3715 28.5 17.9522C27.8635 16.8936 26.4688 16.6576 25.2886 16.2928C24.0172 15.8841 22.8409 15.2239 21.8297 14.3515C20.8185 13.4792 19.993 12.4124 19.4022 11.2146C19.2257 10.8359 19.0728 10.4465 18.9445 10.0488C16.5199 13.2789 14.9127 17.0477 14.2604 21.0335C13.608 25.0193 13.9297 29.1038 15.198 32.9383C16.4664 36.7729 18.6437 40.2436 21.5441 43.0543C24.4446 45.8649 27.982 47.932 31.8545 49.0792C32.3011 48.341 32.6361 47.5409 32.8487 46.7047C33.0828 45.4394 33.0067 44.1362 32.627 42.9067C31.6328 39.1231 29.0222 35.9189 26.0039 33.4084Z" fill="#368BEA"/>
<path opacity="0.47" d="M39.501 0.0136719C38.9932 1.02931 38.5998 2.11649 38.3424 2.73874C37.4511 4.8872 36.8428 7.14237 36.5328 9.44763C36.3583 10.3239 36.4124 11.2305 36.6902 12.0797C36.9365 12.5858 37.2931 13.0303 37.7337 13.3806C38.1743 13.7308 38.6878 13.978 39.2364 14.1038C40.3355 14.3445 41.4681 14.3929 42.5837 14.2469C45.0441 14.0466 47.4974 13.6747 49.9649 13.6747C52.4507 13.5921 54.9152 14.1565 57.1173 15.3126C58.9465 16.4467 60.5003 17.9737 61.6662 19.7828C62.5871 21.1126 63.382 22.5254 64.0408 24.0027C63.7759 17.6305 61.0889 11.5998 56.5283 7.14158C51.9678 2.68337 45.8776 0.133899 39.501 0.0136719Z" fill="#368BEA"/>
<path opacity="0.47" d="M53.1834 25.3261C54.8499 26.6565 55.2219 29.124 54.7069 31.1982C54.2992 32.879 53.398 34.474 53.4123 36.2049C53.3997 36.3954 53.4393 36.5858 53.5267 36.7556C53.7914 37.1847 54.4422 37.0989 54.9 36.8843C57.1816 35.8472 58.3403 33.1866 58.4118 30.6761C58.5054 28.7354 57.9464 26.8192 56.824 25.2331C56.3229 24.5352 55.6831 23.9481 54.9446 23.5088C54.2062 23.0694 53.3851 22.7872 52.5326 22.6797C51.8173 22.6368 51.3238 22.8657 51.5026 23.6811C51.6814 24.4965 52.6112 24.8755 53.1834 25.3261Z" fill="#368BEA"/>
<g opacity="0.32">
<path d="M49.7138 28.4808C49.6209 30.1974 47.9114 30.6766 47.2963 32.057C46.9959 32.7722 47.2963 33.8236 48.2548 33.7306C50.6508 33.5018 52.6749 30.4692 51.8309 28.1876C51.75 27.9435 51.5863 27.7354 51.3681 27.5994C51.1499 27.4633 50.891 27.4079 50.6363 27.4428C50.3815 27.4776 50.147 27.6004 49.9733 27.79C49.7996 27.9796 49.6977 28.224 49.6852 28.4808H49.7138Z" fill="#368BEA"/>
</g>
<g opacity="0.32">
<path d="M47.1245 35.3973C45.5152 36.8278 45.5796 39.56 46.6596 41.298C47.5894 42.7857 49.8281 44.4522 51.4517 43.0289C51.6321 42.8345 51.7324 42.579 51.7324 42.3137C51.7324 42.0484 51.6321 41.7929 51.4517 41.5984C50.6935 40.7259 49.4705 40.733 48.8911 39.6101C48.3118 38.4872 48.555 37.0066 48.3046 35.7192C48.269 35.6021 48.204 35.4961 48.1158 35.4114C48.0276 35.3266 47.9191 35.2659 47.8007 35.235C47.6823 35.2042 47.5579 35.2042 47.4395 35.2351C47.3211 35.2661 47.2127 35.3268 47.1245 35.4117V35.3973Z" fill="#368BEA"/>
</g>
<g opacity="0.32">
<path d="M43.3915 37.6067C43.17 37.7882 43.0184 38.041 42.9624 38.3219C42.7764 39.2303 42.8337 40.8253 43.8922 41.1829C44.0255 41.2231 44.1683 41.2174 44.298 41.1668C44.4276 41.1163 44.5366 41.0237 44.6075 40.9039C45.0652 40.1887 44.7076 39.4091 44.6075 38.6652C44.5359 38.1574 44.5502 37.2991 43.7563 37.4565C43.6245 37.4768 43.4994 37.5283 43.3915 37.6067Z" fill="#368BEA"/>
</g>
<g opacity="0.47">
<path d="M30.9891 5.29982C30.5664 5.69748 30.2682 6.20933 30.1308 6.77321C29.902 8.53269 29.6945 9.18356 27.8278 9.44104C27.7349 9.46498 27.6478 9.50735 27.5716 9.56565C27.4954 9.62396 27.4317 9.69698 27.3843 9.78039C27.337 9.86381 27.3068 9.95591 27.2958 10.0512C27.2847 10.1465 27.293 10.243 27.32 10.3351C27.8635 11.8728 30.1237 11.0503 31.0607 10.2922C31.9976 9.53403 32.2193 8.35388 32.1693 7.15944C32.1407 6.57295 32.0977 4.29134 30.9891 5.29982Z" fill="#154B86"/>
</g>
<path opacity="0.47" d="M32.5909 28.0087C32.493 27.4416 32.1869 26.9315 31.7327 26.5782C31.4273 26.4049 31.0722 26.3403 30.7253 26.3948C30.3785 26.4494 30.0604 26.62 29.823 26.8787C27.5771 29.1817 33.3491 31.5849 32.5909 28.0087Z" fill="#368BEA"/>
<g opacity="0.47">
<path d="M26.7479 20.1911C25.5463 19.6332 23.9656 20.2412 22.9357 20.9707C21.9057 21.7003 20.6612 22.9233 21.076 24.2537C21.1454 24.4225 21.2685 24.5638 21.4262 24.6556C21.584 24.7474 21.7676 24.7846 21.9486 24.7615C22.9356 24.6113 23.5579 23.5813 24.3518 23.0449C25.7322 22.1079 26.0326 22.3297 26.9052 21.5215C27.0105 21.4381 27.0926 21.3291 27.1439 21.205C27.1951 21.0809 27.2137 20.9457 27.198 20.8123C27.1822 20.679 27.1325 20.5519 27.0538 20.4432C26.975 20.3344 26.8697 20.2477 26.7479 20.1911Z" fill="#154B86"/>
</g>
<g opacity="0.47">
<path d="M18.9523 27.0575C17.7578 29.7397 19.2885 32.6435 21.4485 34.3458C23.0291 35.5903 24.4882 36.4128 25.5968 38.158C26.7054 39.9032 26.8056 41.9487 28.0215 43.5652C28.0929 43.6789 28.1921 43.7727 28.3097 43.8377C28.4273 43.9028 28.5594 43.9368 28.6938 43.9368C28.8282 43.9368 28.9603 43.9028 29.0779 43.8377C29.1955 43.7727 29.2947 43.6789 29.3661 43.5652C31.1184 40.9832 29.1587 37.3855 27.2848 35.4043C26.085 34.2828 24.7344 33.3343 23.2723 32.5863C21.0622 31.2631 20.6045 29.4822 19.8821 27.1791C19.7605 26.8 19.1668 26.6355 18.9523 27.0575Z" fill="#154B86"/>
</g>
<g opacity="0.47">
<path d="M22.4136 39.1297C22.6854 39.7305 23.0001 40.317 23.2505 40.9178C23.5652 41.633 23.6296 42.3483 24.3233 42.8203C24.5352 42.9475 24.7838 42.9997 25.029 42.9686C25.2742 42.9375 25.5017 42.8248 25.6751 42.6487C26.4404 41.7904 26.1329 40.646 25.5035 39.7877C24.9482 39.0624 24.2067 38.5013 23.3578 38.1641C23.2234 38.0951 23.0707 38.0703 22.9214 38.0934C22.7721 38.1164 22.634 38.1862 22.5268 38.2926C22.4196 38.399 22.3488 38.5366 22.3247 38.6857C22.3005 38.8348 22.3241 38.9877 22.3922 39.1226L22.4136 39.1297Z" fill="#154B86"/>
</g>
<g opacity="0.47">
<path d="M41.4681 2.55997C40.8032 2.98867 40.2375 3.55438 39.8088 4.2193C39.1574 5.02369 38.6999 5.96721 38.4716 6.9768C38.2434 7.98639 38.2506 9.03497 38.4927 10.0413C38.6824 10.6494 39.0142 11.2036 39.4605 11.658C39.9069 12.1125 40.455 12.4541 41.0596 12.6547C41.6641 12.8553 42.3078 12.9091 42.9373 12.8116C43.5667 12.7141 44.1639 12.4681 44.6795 12.0941C44.7993 11.9928 44.8909 11.8622 44.9453 11.715C44.9997 11.5679 45.015 11.4091 44.9898 11.2543C44.9646 11.0994 44.8997 10.9538 44.8014 10.8314C44.7032 10.7091 44.575 10.6143 44.4292 10.5563C43.9803 10.3529 43.4915 10.2527 42.9987 10.263C42.5096 10.2678 42.0281 10.1419 41.604 9.89827C41.3874 9.7267 41.211 9.50968 41.0875 9.26251C40.9639 9.01534 40.896 8.74405 40.8888 8.4678C40.7457 6.77269 41.7327 5.05612 42.6053 3.68287C42.6735 3.54731 42.7042 3.39598 42.6943 3.24456C42.6844 3.09313 42.6341 2.94713 42.5488 2.82165C42.4634 2.69618 42.346 2.59579 42.2089 2.53091C42.0717 2.46604 41.9197 2.43903 41.7685 2.45266C41.663 2.47099 41.5614 2.5073 41.4681 2.55997Z" fill="#005DC6"/>
</g>
<g opacity="0.47">
<path d="M44.3148 5.26379C44.0645 5.31682 43.8282 5.42192 43.6211 5.57225C43.4141 5.72259 43.241 5.91479 43.1132 6.13638C42.9437 6.46954 42.883 6.84742 42.9395 7.21689C42.9959 7.58637 43.1667 7.92886 43.4279 8.19624C44.0859 8.76128 45.3948 8.51094 45.4591 7.52392C45.4591 7.63835 45.4162 7.7528 45.3876 7.86724C45.5521 7.08763 45.5593 5.03491 44.3148 5.26379Z" fill="#005DC6"/>
</g>
<g style="mix-blend-mode:screen" opacity="0.38">
<path d="M47.3691 28.7245C49.2501 28.7245 49.2501 25.8135 47.3691 25.8135C45.488 25.8135 45.4951 28.7245 47.3691 28.7245Z" fill="#59A7FF"/>
<path d="M44.4295 30.9559C44.6353 30.9367 44.8266 30.8414 44.9658 30.6886C45.105 30.5358 45.1822 30.3365 45.1822 30.1298C45.1822 29.9231 45.105 29.7238 44.9658 29.571C44.8266 29.4182 44.6353 29.3229 44.4295 29.3037C44.2237 29.3229 44.0324 29.4182 43.8932 29.571C43.7539 29.7238 43.6768 29.9231 43.6768 30.1298C43.6768 30.3365 43.7539 30.5358 43.8932 30.6886C44.0324 30.8414 44.2237 30.9367 44.4295 30.9559Z" fill="#59A7FF"/>
<path d="M42.9638 34.6527C43.1568 34.6341 43.3359 34.5443 43.4663 34.4009C43.5966 34.2574 43.6688 34.0705 43.6688 33.8766C43.6688 33.6828 43.5966 33.4959 43.4663 33.3524C43.3359 33.2089 43.1568 33.1191 42.9638 33.1006C42.7708 33.1191 42.5917 33.2089 42.4614 33.3524C42.331 33.4959 42.2588 33.6828 42.2588 33.8766C42.2588 34.0705 42.331 34.2574 42.4614 34.4009C42.5917 34.5443 42.7708 34.6341 42.9638 34.6527Z" fill="#59A7FF"/>
<path d="M39.8017 36.5633C39.8833 36.5514 39.958 36.5105 40.0119 36.4481C40.0659 36.3857 40.0956 36.306 40.0956 36.2235C40.0956 36.141 40.0659 36.0613 40.0119 35.9989C39.958 35.9365 39.8833 35.8957 39.8017 35.8838C39.7201 35.8957 39.6454 35.9365 39.5915 35.9989C39.5375 36.0613 39.5078 36.141 39.5078 36.2235C39.5078 36.306 39.5375 36.3857 39.5915 36.4481C39.6454 36.5105 39.7201 36.5514 39.8017 36.5633Z" fill="#59A7FF"/>
<path d="M47.0689 46.7629C47.3535 46.7629 47.6264 46.6499 47.8276 46.4487C48.0288 46.2475 48.1418 45.9746 48.1418 45.69C48.1418 45.4055 48.0288 45.1326 47.8276 44.9314C47.6264 44.7302 47.3535 44.6172 47.0689 44.6172C46.7844 44.6172 46.5115 44.7302 46.3103 44.9314C46.1091 45.1326 45.9961 45.4055 45.9961 45.69C45.9961 45.9746 46.1091 46.2475 46.3103 46.4487C46.5115 46.6499 46.7844 46.7629 47.0689 46.7629Z" fill="#59A7FF"/>
<path d="M49.9369 46.7195C50.1266 46.7195 50.3085 46.6442 50.4427 46.51C50.5768 46.3759 50.6522 46.194 50.6522 46.0043C50.6522 45.8146 50.5768 45.6327 50.4427 45.4985C50.3085 45.3644 50.1266 45.2891 49.9369 45.2891C49.7472 45.2891 49.5653 45.3644 49.4312 45.4985C49.297 45.6327 49.2217 45.8146 49.2217 46.0043C49.2217 46.194 49.297 46.3759 49.4312 46.51C49.5653 46.6442 49.7472 46.7195 49.9369 46.7195Z" fill="#59A7FF"/>
<path d="M43.8431 48.0921C43.9067 48.0817 43.9645 48.049 44.0063 47.9998C44.048 47.9507 44.0709 47.8883 44.0709 47.8239C44.0709 47.7594 44.048 47.6971 44.0063 47.6479C43.9645 47.5988 43.9067 47.5661 43.8431 47.5557C43.7795 47.5661 43.7216 47.5988 43.6799 47.6479C43.6382 47.6971 43.6152 47.7594 43.6152 47.8239C43.6152 47.8883 43.6382 47.9507 43.6799 47.9998C43.7216 48.049 43.7795 48.0817 43.8431 48.0921Z" fill="#59A7FF"/>
<path d="M50.0804 19.4115C50.2056 19.3966 50.321 19.3364 50.4048 19.2421C50.4885 19.1479 50.5348 19.0262 50.5348 18.9001C50.5348 18.774 50.4885 18.6523 50.4048 18.558C50.321 18.4638 50.2056 18.4035 50.0804 18.3887C49.9552 18.4035 49.8398 18.4638 49.756 18.558C49.6723 18.6523 49.626 18.774 49.626 18.9001C49.626 19.0262 49.6723 19.1479 49.756 19.2421C49.8398 19.3364 49.9552 19.3966 50.0804 19.4115Z" fill="#59A7FF"/>
<path d="M52.4327 19.5759C52.5817 19.5597 52.7194 19.489 52.8195 19.3775C52.9195 19.266 52.9749 19.1214 52.9749 18.9716C52.9749 18.8217 52.9195 18.6772 52.8195 18.5656C52.7194 18.4541 52.5817 18.3834 52.4327 18.3672C52.2838 18.3834 52.1461 18.4541 52.046 18.5656C51.946 18.6772 51.8906 18.8217 51.8906 18.9716C51.8906 19.1214 51.946 19.266 52.046 19.3775C52.1461 19.489 52.2838 19.5597 52.4327 19.5759Z" fill="#59A7FF"/>
<path d="M35.3968 9.3267C35.5447 9.3267 35.6866 9.26793 35.7912 9.1633C35.8959 9.05868 35.9546 8.91678 35.9546 8.76882C35.9546 8.62086 35.8959 8.47896 35.7912 8.37434C35.6866 8.26971 35.5447 8.21094 35.3968 8.21094C35.2488 8.21094 35.1069 8.26971 35.0023 8.37434C34.8976 8.47896 34.8389 8.62086 34.8389 8.76882C34.8389 8.91678 34.8976 9.05868 35.0023 9.1633C35.1069 9.26793 35.2488 9.3267 35.3968 9.3267Z" fill="#59A7FF"/>
<path d="M35.0314 11.5007C35.1803 11.4845 35.318 11.4138 35.4181 11.3023C35.5181 11.1907 35.5735 11.0462 35.5735 10.8964C35.5735 10.7465 35.5181 10.602 35.4181 10.4904C35.318 10.3789 35.1803 10.3082 35.0314 10.292C34.8824 10.3082 34.7447 10.3789 34.6446 10.4904C34.5446 10.602 34.4893 10.7465 34.4893 10.8964C34.4893 11.0462 34.5446 11.1907 34.6446 11.3023C34.7447 11.4138 34.8824 11.4845 35.0314 11.5007Z" fill="#59A7FF"/>
<path d="M35.7679 14.1187C35.9792 14.115 36.1808 14.0295 36.3302 13.88C36.4797 13.7306 36.5652 13.529 36.5689 13.3177C36.5635 13.1069 36.4774 12.9063 36.3283 12.7572C36.1792 12.6082 35.9786 12.522 35.7679 12.5166C35.5554 12.5166 35.3516 12.601 35.2014 12.7512C35.0512 12.9015 34.9668 13.1052 34.9668 13.3177C34.9668 13.5301 35.0512 13.7339 35.2014 13.8841C35.3516 14.0343 35.5554 14.1187 35.7679 14.1187Z" fill="#59A7FF"/>
<path d="M37.985 13.9613L37.9493 13.9256C37.8159 13.7967 37.6377 13.7246 37.4522 13.7246C37.2667 13.7246 37.0885 13.7967 36.9551 13.9256L36.9193 13.9613C36.8148 14.0666 36.7438 14.2004 36.7152 14.3459C36.6867 14.4915 36.7018 14.6422 36.7588 14.7791C36.8158 14.9161 36.9121 15.033 37.0355 15.1153C37.1589 15.1976 37.3039 15.2415 37.4522 15.2415C37.6005 15.2415 37.7455 15.1976 37.8689 15.1153C37.9923 15.033 38.0885 14.9161 38.1455 14.7791C38.2025 14.6422 38.2177 14.4915 38.1891 14.3459C38.1606 14.2004 38.0895 14.0666 37.985 13.9613Z" fill="#59A7FF"/>
</g>
<path style="mix-blend-mode:multiply" opacity="0.51" d="M39.014 50.1237C52.8553 50.1237 64.0759 38.9032 64.0759 25.0619C64.0759 11.2206 52.8553 0 39.014 0C25.1727 0 13.9521 11.2206 13.9521 25.0619C13.9521 38.9032 25.1727 50.1237 39.014 50.1237Z" fill="url(#paint0_linear_1109_12579)"/>
<g style="mix-blend-mode:multiply" opacity="0.07">
<path d="M39.0142 50.1239C42.487 50.0777 45.9123 49.3094 49.0721 47.8678C52.2319 46.4262 55.0572 44.3428 57.3683 41.7501C59.6793 39.1575 61.4256 36.1123 62.496 32.8082C63.5665 29.5042 63.9377 26.0135 63.586 22.5582C63.2344 19.1029 62.1676 15.7586 60.4534 12.7379C58.7393 9.71725 56.4153 7.0863 53.6293 5.01241C50.8434 2.93851 47.6563 1.46703 44.2708 0.691547C40.8854 -0.0839357 37.3756 -0.146456 33.9646 0.507958C38.5054 1.01145 42.839 2.6794 46.5456 5.35012C48.2086 6.5448 49.7152 7.94327 51.0302 9.5128C53.1759 12.0733 54.8424 15.156 55.1356 18.4818C55.4289 21.8077 54.1629 25.3767 51.4307 27.3007C48.0262 29.6967 42.7549 29.4464 40.5734 33.0226C39.2502 35.1683 39.6293 38.0292 38.4277 40.3037C36.9972 43.0717 33.6213 44.1803 30.5601 44.7167C28.4251 45.1203 26.251 45.2786 24.0801 45.1887C28.395 48.4024 33.634 50.1337 39.0142 50.1239Z" fill="#005DC6"/>
</g>
<g style="mix-blend-mode:multiply" opacity="0.21">
<path d="M39.0137 50.1232C45.2119 50.1866 51.2131 47.9482 55.8558 43.8414C60.4985 39.7345 63.4525 34.0512 64.1459 27.8916C64.8393 21.7321 63.2228 15.5343 59.6094 10.498C55.9959 5.46171 50.6425 1.94511 44.5854 0.628906C44.7697 0.775093 44.9715 0.897643 45.1862 0.993684C50.1496 3.39419 54.2202 7.31201 56.8088 12.18C58.2435 14.8611 59.1652 17.7864 59.5267 20.8057C59.8074 22.4139 59.6442 24.0683 59.0546 25.5906C57.5812 28.7949 53.5902 29.7461 50.622 31.6415C50.0242 31.9763 49.52 32.4559 49.1558 33.0362C48.5192 34.1735 48.8768 35.5825 48.7481 36.8771C48.5264 39.1944 46.7454 41.0683 44.8 42.3486C38.7062 46.3682 30.4953 46.0964 23.8507 43.0638C22.189 42.2944 20.5996 41.3776 19.1016 40.3245C21.4439 43.3787 24.459 45.8515 27.9125 47.551C31.3659 49.2504 35.1648 50.1307 39.0137 50.1232Z" fill="#005DC6"/>
</g>
<g style="mix-blend-mode:overlay" opacity="0.28">
<path d="M39.0142 0.0360104C34.4284 0.0361073 29.9306 1.29587 26.012 3.67785C22.0933 6.05982 18.9042 9.47247 16.7927 13.5433C14.6813 17.6142 13.7286 22.1868 14.0388 26.7621C14.3489 31.3375 15.9098 35.7397 18.5513 39.4884C17.6644 35.8049 16.9062 32.007 17.4141 28.2592C17.9219 24.5114 19.946 20.7707 23.3505 19.1113C27.5847 17.0515 32.7416 18.6178 37.2833 17.3519C39.8582 16.6366 42.29 14.9844 44.965 15.3635C45.6719 15.5296 46.3885 15.6514 47.1107 15.7283C47.4782 15.7593 47.8466 15.6782 48.1671 15.4956C48.4876 15.313 48.7452 15.0375 48.9059 14.7055C49.2492 13.7256 48.3051 12.7529 48.2765 11.7158C48.2407 10.2067 50.036 9.37699 51.538 9.21964C54.4747 8.9273 57.4214 9.66841 59.8705 11.3153C57.6723 8.01911 54.7328 5.28343 51.2875 3.32728C47.8422 1.37113 43.9867 0.248854 40.0298 0.0503073C39.7151 0.0360026 39.3647 0.0288581 39.0142 0.0360104Z" fill="#70B2FF"/>
</g>
<g style="mix-blend-mode:screen" opacity="0.58">
<path d="M39.0144 7.71995e-05C34.1481 -0.0120055 29.3839 1.39449 25.3044 4.04751C21.225 6.70053 18.0072 10.485 16.0448 14.938C14.0824 19.3911 13.4604 24.3195 14.2549 29.1205C15.0494 33.9214 17.226 38.3867 20.5184 41.9701C17.0691 37.6481 15.148 32.3057 15.0548 26.7768C14.9617 21.248 16.7017 15.8439 20.0034 11.4081C21.3283 13.4711 23.408 14.9336 25.7975 15.4827C28.187 16.0318 30.6965 15.6239 32.7891 14.3463C34.8817 13.0687 36.3911 11.0228 36.9945 8.64647C37.5979 6.27009 37.2472 3.75194 36.0175 1.63081C37.3725 1.41004 38.743 1.29763 40.1158 1.29465C43.5974 1.29231 47.0413 2.01626 50.2273 3.42021C53.4133 4.82417 56.2714 6.87726 58.619 9.44834C56.273 6.4995 53.2916 4.11834 49.8971 2.48238C46.5026 0.846425 42.7825 -0.00210738 39.0144 7.71995e-05Z" fill="#005DC6"/>
</g>
<path style="mix-blend-mode:screen" opacity="0.32" d="M61.7661 14.5479C61.9071 20.3748 60.0255 26.0706 56.4411 30.6668C52.8568 35.263 47.791 38.4758 42.1054 39.7587C36.4197 41.0417 30.4652 40.3156 25.2544 37.704C20.0436 35.0925 15.8983 30.7566 13.5234 25.4337C13.6086 29.1688 14.5223 32.8383 16.1985 36.1772C17.8747 39.516 20.2716 42.4409 23.2161 44.7405C26.1605 47.0401 29.579 48.6569 33.2245 49.4742C36.87 50.2916 40.6516 50.289 44.296 49.4666C47.9403 48.6443 51.3566 47.0227 54.2978 44.7191C57.2391 42.4154 59.632 39.4873 61.3036 36.1461C62.9752 32.8049 63.8839 29.1342 63.9638 25.399C64.0438 21.6638 63.2932 17.9575 61.7661 14.5479Z" fill="url(#paint1_linear_1109_12579)"/>
<path style="mix-blend-mode:screen" opacity="0.32" d="M49.0196 1.83887C53.0229 6.07896 55.4335 11.575 55.8415 17.3921C56.2495 23.2091 54.6296 28.9879 51.2574 33.7453C47.8851 38.5026 42.9689 41.9448 37.3449 43.4862C31.721 45.0275 25.7367 44.5729 20.4102 42.1996C22.9725 44.9136 26.1052 47.0251 29.5824 48.382C33.0595 49.7388 36.7944 50.3072 40.5177 50.046C44.241 49.7849 47.86 48.7008 51.1137 46.8719C54.3674 45.0429 57.1747 42.5148 59.3332 39.4697C61.4916 36.4247 62.9475 32.9386 63.5957 29.2628C64.244 25.5871 64.0685 21.8133 63.0819 18.2135C62.0953 14.6138 60.3223 11.2779 57.8905 8.44624C55.4588 5.61463 52.429 3.35794 49.0196 1.83887Z" fill="url(#paint2_linear_1109_12579)"/>
<path style="mix-blend-mode:overlay" opacity="0.43" d="M32.6638 23.7954C38.6957 23.7954 43.5855 18.9057 43.5855 12.8738C43.5855 6.84193 38.6957 1.95215 32.6638 1.95215C26.632 1.95215 21.7422 6.84193 21.7422 12.8738C21.7422 18.9057 26.632 23.7954 32.6638 23.7954Z" fill="url(#paint3_radial_1109_12579)"/>
<path opacity="0.78" d="M15.8483 33.9809C15.7124 33.7163 15.598 33.4445 15.4764 33.1727C5.16984 39.5741 0.656698 43.6652 0.163185 45.4891C0.129199 45.5961 0.129199 45.711 0.163185 45.8181L0.198938 45.8825C0.198938 45.9611 0.406367 46.0255 0.477891 46.047C1.77962 46.4761 8.50283 46.5834 40.2164 29.9255C59.306 19.9122 72.3233 10.2709 75.8494 6.32276C75.9345 6.21319 75.9859 6.08126 75.9973 5.94301C76.0087 5.80477 75.9796 5.6662 75.9137 5.54416C75.8478 5.42213 75.7478 5.32188 75.6259 5.25567C75.504 5.18946 75.3655 5.16014 75.2272 5.17124C72.6023 5.60038 67.4383 7.18105 59.9784 10.2637C60.0856 10.4568 60.2072 10.6428 60.3145 10.8431C66.4727 8.33973 70.5066 7.23111 70.9715 8.11085C71.9013 9.87748 58.0973 18.9753 40.102 28.4379C22.1066 37.9004 6.80058 44.1301 5.87077 42.3706C5.30574 41.4194 9.23952 38.208 15.8483 33.9809Z" fill="url(#paint4_linear_1109_12579)"/>
<defs>
<linearGradient id="paint0_linear_1109_12579" x1="21.2905" y1="7.33832" x2="56.7376" y2="42.7854" gradientUnits="userSpaceOnUse">
<stop stop-color="white"/>
<stop offset="0.09" stop-color="#EBEBF6"/>
<stop offset="0.54" stop-color="#8B8FCE"/>
<stop offset="0.85" stop-color="#4F55B4"/>
<stop offset="1" stop-color="#383EAA"/>
</linearGradient>
<linearGradient id="paint1_linear_1109_12579" x1="36.3858" y1="14.9305" x2="44.6803" y2="49.4999" gradientUnits="userSpaceOnUse">
<stop offset="0.24" stop-color="white"/>
<stop offset="0.92" stop-color="white"/>
<stop offset="1" stop-color="white"/>
</linearGradient>
<linearGradient id="paint2_linear_1109_12579" x1="29.1234" y1="18.2788" x2="58.2707" y2="38.3449" gradientUnits="userSpaceOnUse">
<stop offset="0.24" stop-color="white"/>
<stop offset="0.39" stop-color="#FCFFFF"/>
<stop offset="0.5" stop-color="#F2FFFF"/>
<stop offset="0.6" stop-color="#E2FEFF"/>
<stop offset="0.7" stop-color="#CBFDFF"/>
<stop offset="0.78" stop-color="#AEFCFF"/>
<stop offset="0.87" stop-color="#8AFBFF"/>
<stop offset="0.95" stop-color="#5FF9FF"/>
<stop offset="1" stop-color="#40F8FF"/>
</linearGradient>
<radialGradient id="paint3_radial_1109_12579" cx="0" cy="0" r="1" gradientUnits="userSpaceOnUse" gradientTransform="translate(32.6638 12.8738) scale(10.9216)">
<stop stop-color="#ECECEC"/>
<stop offset="0.47" stop-color="#F1F1F1"/>
<stop offset="1" stop-color="white"/>
</radialGradient>
<linearGradient id="paint4_linear_1109_12579" x1="-0.429277" y1="44.7646" x2="76.7137" y2="7.27268" gradientUnits="userSpaceOnUse">
<stop stop-color="#77EDF6"/>
<stop offset="0.16" stop-color="#6BE1F0"/>
<stop offset="0.44" stop-color="#4CC0E1"/>
<stop offset="0.82" stop-color="#1A8CC8"/>
<stop offset="0.99" stop-color="#0071BB"/>
</linearGradient>
</defs>
</svg>
