<svg width="90" height="54" viewBox="0 0 90 54" fill="none" xmlns="http://www.w3.org/2000/svg">
<path d="M44.7354 49.2618C58.3327 49.2618 69.3555 38.239 69.3555 24.6416C69.3555 11.0443 58.3327 0.0214844 44.7354 0.0214844C31.138 0.0214844 20.1152 11.0443 20.1152 24.6416C20.1152 38.239 31.138 49.2618 44.7354 49.2618Z" fill="#E7A993"/>
<g style="mix-blend-mode:multiply" opacity="0.66">
<path d="M23.0239 18.4159C25.2386 18.3498 27.4156 17.8259 29.4178 16.8771C29.9097 16.6663 29.6146 15.9637 29.1649 15.9426C27.2256 15.8583 25.3707 15.7248 23.4104 15.8091C22.8834 15.8091 22.3142 15.8091 21.7451 15.8091C21.4183 16.6468 21.1414 17.5032 20.916 18.3737C21.6327 18.451 22.3705 18.4229 23.0239 18.4159Z" fill="#B2AFFF"/>
<path d="M51.7901 7.10329C48.9002 10.4199 45.4756 13.2294 41.6582 15.4154C37.9893 17.5677 33.9772 19.0722 29.7978 19.863C27.1278 20.3478 23.4741 20.9029 20.5231 20.2073C20.4247 20.7413 20.3474 21.2824 20.2842 21.8304C22.0498 22.1697 23.849 22.3018 25.6452 22.2239C30.8483 22.0656 35.9587 20.8059 40.6394 18.528C45.4015 16.2272 49.6707 13.0222 53.2094 9.09172C54.7807 7.37807 56.1765 5.51149 57.376 3.51987C56.6438 3.07933 55.8886 2.67824 55.1136 2.31836C54.1956 4.03717 53.0803 5.64301 51.7901 7.10329Z" fill="#B2AFFF"/>
<path d="M35.2708 6.79473C37.6175 5.83915 41.6366 3.14105 42.4095 0.133789C41.5606 0.212213 40.7164 0.334155 39.88 0.499149C39.8117 0.659294 39.7318 0.814281 39.6411 0.962887C38.6103 2.47988 37.2135 3.71237 35.5799 4.5463C33.7531 5.5862 30.5069 6.90714 27.851 6.75958C27.4716 7.11793 27.1062 7.46222 26.7549 7.86272C29.4108 8.67074 32.9872 7.68707 35.2708 6.79473Z" fill="#B2AFFF"/>
<path d="M29.8467 30.2059C36.1001 29.5946 41.9178 27.2338 47.4124 24.2827C52.4925 21.6832 56.9895 18.0755 60.6289 13.6801C61.8148 12.23 62.8705 10.6782 63.7837 9.04269C62.5659 7.55426 61.1768 6.2147 59.6452 5.05176C58.3666 7.22604 56.8489 9.25049 55.1203 11.0873C51.7733 14.5112 47.8848 17.36 43.6112 19.5189C39.1846 21.8587 34.477 23.819 29.4672 24.5708C27.0068 24.9313 24.5159 25.0395 22.0334 24.894C21.387 24.8589 20.7476 24.7886 20.1152 24.7184C20.1216 26.4597 20.3124 28.1955 20.6844 29.8967C23.709 30.4271 26.7931 30.5312 29.8467 30.2059Z" fill="#B2AFFF"/>
<path d="M68.7647 29.9952C68.8771 29.5034 68.9685 29.0116 69.0528 28.5127C65.0316 31.7695 60.6878 34.6065 56.0893 36.9794C51.578 39.3241 46.8772 41.2843 42.0367 42.8393C38.6567 43.9661 35.2064 44.8698 31.708 45.5444C32.2631 45.8958 32.8392 46.2471 33.4224 46.5211C41.4675 45.2985 49.4424 41.9962 56.3563 38.2722C60.7464 35.9144 64.9014 33.1428 68.7647 29.9952Z" fill="#B2AFFF"/>
<path d="M43.9906 3.148C42.0279 5.44923 39.561 7.26693 36.7816 8.45988C32.882 10.2375 28.35 11.5515 24.0359 11.2704C23.7197 11.7552 23.4246 12.247 23.1436 12.7529C27.8933 13.3642 33.4933 11.692 37.2734 10.1111C40.6138 8.81124 43.5737 6.69222 45.8807 3.94899C46.7934 2.81351 47.5628 1.56985 48.1712 0.246134C47.4194 0.140739 46.6536 0.0634518 45.8877 0.0283203C45.4083 1.15387 44.7694 2.20454 43.9906 3.148Z" fill="#B2AFFF"/>
<path d="M53.7147 36.7267C59.5702 33.7034 64.8592 29.6909 69.3482 24.8663C69.3482 24.7891 69.3482 24.7188 69.3482 24.6415C69.3482 23.8405 69.306 23.0465 69.2358 22.2666C67.8179 23.9581 66.3073 25.5696 64.7108 27.0937C61.5037 30.1189 57.9494 32.7534 54.1222 34.9421C49.9932 37.1996 45.6014 38.9389 41.0463 40.1204C36.8305 41.2587 32.1369 42.5656 27.6963 42.3969C28.1179 42.7974 28.5535 43.1909 29.0032 43.5633C32.418 43.6125 36.0927 42.5375 39.2054 41.8278C44.2349 40.7367 49.1089 39.0232 53.7147 36.7267Z" fill="#B2AFFF"/>
<path d="M32.6989 40.2399C39.6765 39.2534 46.4043 36.9552 52.5271 33.4666C58.1496 30.4211 63.2378 26.4791 67.5915 21.7959C68.0553 21.283 68.512 20.756 68.9546 20.222C68.3933 17.1323 67.2436 14.1793 65.568 11.5234C64.2932 13.5356 62.8247 15.4182 61.1835 17.1445C57.3831 21.0394 53.0061 24.3263 48.206 26.89C43.2491 29.6904 37.8305 31.5799 32.2071 32.4688C29.1818 32.8985 26.1177 32.9857 23.0729 32.7288C22.5459 32.6867 22.0049 32.6164 21.4639 32.5461C22.4576 35.4715 23.9926 38.184 25.9888 40.5421C28.23 40.6277 30.4745 40.5266 32.6989 40.2399Z" fill="#B2AFFF"/>
<path d="M45.5083 7.08261C43.8572 8.30519 42.6486 9.89313 40.7937 10.8979C38.9388 11.9026 36.6552 12.4999 34.997 13.9051C34.1819 14.6078 35.0813 15.7671 35.9737 15.5844C38.2572 15.1066 40.7024 13.5187 42.7189 12.3383C44.356 11.3757 46.1758 9.80178 46.492 7.84144C46.5693 7.34257 46.0353 6.69616 45.5083 7.08261Z" fill="#B2AFFF"/>
</g>
<path d="M65.5261 16.1181C65.5236 15.9942 65.4932 15.8724 65.437 15.762C65.3808 15.6515 65.3004 15.5552 65.2018 15.4802C65.1031 15.4051 64.9888 15.3534 64.8673 15.3288C64.7458 15.3042 64.6204 15.3075 64.5003 15.3382C62.1886 15.9073 60.2072 19.3994 58.7528 21.1771C56.6449 23.7698 53.8344 25.5755 51.073 27.4515C50.9929 27.504 50.9338 27.583 50.9061 27.6747C50.8784 27.7664 50.8839 27.865 50.9216 27.9531C50.9594 28.0411 51.0269 28.1131 51.1124 28.1563C51.1979 28.1995 51.2959 28.2112 51.3892 28.1893C54.6705 27.2407 57.1578 25.0556 59.7575 22.9406C61.7741 21.2965 65.2732 18.8584 65.5261 16.1181Z" fill="#E79174"/>
<path d="M41.8829 18.4233C38.8078 19.9738 35.5221 21.0651 32.1304 21.6625C30.3879 21.9857 28.6173 22.2105 26.8888 22.3651C25.6592 22.4705 24.9987 22.4143 24.0783 23.1661C24.0344 23.2103 24.0012 23.2639 23.9813 23.3229C23.9614 23.382 23.9553 23.4447 23.9635 23.5065C23.9716 23.5682 23.9938 23.6273 24.0283 23.6791C24.0628 23.7309 24.1088 23.7742 24.1626 23.8055C26.3197 25.2107 31.0975 23.9179 33.4795 23.3136C36.725 22.5824 39.7382 21.0565 42.2483 18.873C42.4731 18.6411 42.1569 18.2828 41.8829 18.4233Z" fill="#E79174"/>
<g style="mix-blend-mode:multiply" opacity="0.63">
<path d="M51.6553 43.2264C51.2694 43.4858 50.9156 43.7901 50.6013 44.1328C50.2641 44.4911 50.6997 45.1375 51.1494 44.8354C51.4708 44.6121 51.8205 44.4325 52.1893 44.3014C52.5559 44.1406 52.8987 43.9302 53.2081 43.6761C53.2738 43.6302 53.3237 43.5651 53.3508 43.4896C53.3778 43.4141 53.3807 43.3321 53.3591 43.2549C53.3375 43.1777 53.2924 43.1092 53.2301 43.0587C53.1678 43.0083 53.0914 42.9785 53.0114 42.9735C52.5436 42.8887 52.061 42.9787 51.6553 43.2264Z" fill="#E79174"/>
<path d="M52.8849 16.1183C52.1114 16.3988 51.3966 16.8205 50.777 17.362C50.0744 17.889 49.3718 18.437 48.62 18.9851C48.455 19.0867 48.3266 19.2381 48.2534 19.4174C48.1801 19.5968 48.1658 19.7948 48.2124 19.9828C48.2807 20.2017 48.4253 20.3887 48.62 20.5098C48.7546 20.5909 48.9089 20.6338 49.0661 20.6338C49.2234 20.6338 49.3776 20.5909 49.5123 20.5098C50.9176 19.4839 52.7374 18.2965 53.4049 16.6172C53.5032 16.3291 53.159 16.0481 52.8849 16.1183Z" fill="#E79174"/>
<path d="M39.1706 25.0492C42.2573 24.6745 45.1468 23.3343 47.4265 21.2199C47.5293 21.1076 47.5928 20.9649 47.6074 20.8134C47.6221 20.6619 47.5872 20.5098 47.508 20.3798C47.4288 20.2499 47.3095 20.1491 47.1681 20.0928C47.0266 20.0365 46.8708 20.0276 46.7239 20.0675C43.8781 21.0674 41.2309 22.5611 38.9036 24.4801C38.8567 24.5293 38.8258 24.5915 38.8149 24.6585C38.804 24.7256 38.8136 24.7944 38.8425 24.8559C38.8713 24.9175 38.9181 24.9688 38.9767 25.0033C39.0352 25.0378 39.1028 25.0538 39.1706 25.0492Z" fill="#E79174"/>
<path d="M59.6448 27.4028C59.9118 27.0655 59.68 26.3699 59.153 26.5667C56.4198 27.6136 54.08 29.5739 51.5224 30.9792C48.523 32.6423 45.4178 34.107 42.2266 35.3636C42.1559 35.4071 42.1013 35.4726 42.0714 35.5501C42.0415 35.6276 42.0378 35.7127 42.0609 35.7925C42.084 35.8723 42.1327 35.9423 42.1995 35.9917C42.2662 36.0412 42.3473 36.0673 42.4304 36.0662C45.5955 35.3121 48.6715 34.2239 51.6067 32.8201C54.4102 31.464 57.6845 29.9182 59.6448 27.4028Z" fill="#E79174"/>
<path d="M51.0164 1.06099C49.8501 2.87378 48.2902 4.34228 47.0466 6.09183C46.6391 6.66096 47.433 7.40573 47.9951 7.04036C50.0517 5.59542 51.6921 3.63513 52.7519 1.35609C52.225 1.1734 51.6839 1.01181 51.1429 0.864258L51.0164 1.06099Z" fill="#E79174"/>
<path d="M58.4433 10.2657C57.3823 11.671 56.0333 12.8373 55.0285 14.2426C54.6491 14.7695 55.3658 15.3879 55.8716 15.0928C58.7384 13.4416 60.5512 9.82303 61.6192 6.72444L61.0289 6.19043C60.2882 7.62202 59.423 8.9857 58.4433 10.2657Z" fill="#E79174"/>
<path d="M64.1837 35.0194C61.9002 36.5371 59.0123 37.577 57.0731 39.5233C56.9717 39.6319 56.9038 39.7674 56.8775 39.9136C56.8511 40.0597 56.8675 40.2104 56.9246 40.3476C56.9817 40.4847 57.077 40.6025 57.1993 40.6869C57.3216 40.7712 57.4656 40.8185 57.6141 40.8231C60.5652 40.5702 63.3827 38.4834 65.7576 36.8533C65.9614 36.7198 66.1511 36.5792 66.3478 36.4387C67.1118 35.0464 67.7378 33.5826 68.2168 32.0684C66.9029 33.1012 65.5609 34.0989 64.1837 35.0194Z" fill="#E79174"/>
<path d="M37.7791 7.39207C39.4368 6.76376 40.9355 5.77742 42.1682 4.50339C43.401 3.22935 44.3374 1.699 44.9108 0.0214844H44.7351C44.2222 0.0214844 43.7233 0.0214895 43.2174 0.0706736C42.7225 1.12339 42.0605 2.0891 41.2571 2.93038C40.0134 4.23727 38.4466 5.17177 37.3153 6.59811C37.0554 6.92835 37.2732 7.57475 37.7791 7.39207Z" fill="#E79174"/>
<path d="M34.0407 13.4978C34.5536 13.1324 34.4342 12.1557 33.6894 12.2049C31.3918 12.3525 29.1926 13.301 26.8668 13.5329C25.4801 13.6689 24.0859 13.7135 22.6932 13.6664C22.4262 14.2074 22.1733 14.7625 21.9414 15.3246C26.0518 15.8516 30.907 15.704 34.0407 13.4978Z" fill="#E79174"/>
<path d="M48.2059 45.6989C48.8312 45.1649 48.1286 44.371 47.5033 44.4623C45.2759 44.7996 43.154 46.0643 40.9688 46.7037C39.5214 47.1253 38.074 47.5188 36.6055 47.8701C37.7506 48.2755 38.9251 48.5926 40.1186 48.8186C43.1188 48.3619 46.098 47.4625 48.2059 45.6989Z" fill="#E79174"/>
<path d="M32.1932 35.693C35.007 35.2337 37.7882 34.5929 40.5193 33.7749C42.7116 33.0722 45.6485 32.3696 46.9976 30.4022C47.0471 30.299 47.0707 30.1851 47.0662 30.0707C47.0617 29.9562 47.0293 29.8446 46.9718 29.7456C46.9143 29.6465 46.8335 29.563 46.7363 29.5023C46.6392 29.4417 46.5287 29.4057 46.4144 29.3975C44.3065 29.4888 42.3673 30.8379 40.3577 31.5054C37.9144 32.2629 35.4272 32.8706 32.9099 33.3252C29.307 34.0344 25.6269 34.2706 21.9629 34.0278C22.3033 34.8501 22.6856 35.6545 23.1082 36.4378C26.1557 36.5683 29.2076 36.3181 32.1932 35.693Z" fill="#E79174"/>
<path d="M36.851 1.31445C34.5983 2.07187 32.468 3.15359 30.5273 4.52548C31.8462 4.60512 33.1632 4.34123 34.3497 3.75961C35.3956 3.19443 36.2622 2.34732 36.851 1.31445Z" fill="#E79174"/>
</g>
<g style="mix-blend-mode:multiply" opacity="0.36">
<path d="M44.7492 0.0210958C45.6634 0.481557 46.3617 1.28074 46.6954 2.24844C46.9228 3.15986 46.9034 4.11537 46.6392 5.01681C45.768 8.52996 43.1823 11.2983 41.8051 14.6217C41.4257 15.5492 41.1587 16.6804 41.7419 17.4955C42.3251 18.3105 43.3158 18.4019 44.2292 18.423C48.445 18.5284 52.5273 16.9615 56.729 16.7367C58.7455 16.6242 60.9448 16.8842 62.4695 18.1419C63.5753 19.1842 64.4037 20.4859 64.8795 21.9291C65.8973 24.4616 66.6439 27.0947 67.1068 29.7845C67.3106 30.986 67.4722 32.2016 67.7462 33.382C69.1724 29.6554 69.6704 25.6378 69.1973 21.6758C68.7241 17.7138 67.294 13.9265 65.0303 10.6406C62.7666 7.35471 59.7374 4.66898 56.204 2.81519C52.6707 0.961397 48.7393 -0.00478098 44.7492 1.77886e-05V0.0210958Z" fill="#E7A993"/>
</g>
<g style="mix-blend-mode:multiply" opacity="0.36">
<path d="M44.7351 49.261C49.3524 49.2659 53.8774 47.9678 57.7899 45.516C57.3613 45.4387 56.9327 45.3544 56.5111 45.249C55.52 45.0691 54.594 44.6304 53.8271 43.9772C52.3375 42.5228 52.5553 40.0214 53.4617 38.1524C54.3681 36.2834 55.8226 34.6955 56.6306 32.7773C56.8751 32.2938 56.9588 31.7448 56.8695 31.2104C56.5603 29.9738 54.9513 29.6927 53.6795 29.749C51.0677 29.8679 48.4863 30.3601 46.0138 31.2104C44.9996 31.6309 43.9378 31.9259 42.852 32.0887C42.3072 32.1625 41.7527 32.104 41.2354 31.9181C40.718 31.7322 40.2531 31.4244 39.8799 31.0207C39.0929 30.0441 39.0016 28.428 37.8352 27.9643C37.2845 27.8015 36.6962 27.8188 36.1559 28.0135C32.0596 29.0604 27.8298 31.4845 23.881 29.9598C22.2975 29.3144 20.9933 28.1297 20.1992 26.6152C20.689 32.7847 23.487 38.5427 28.0349 42.7403C32.5828 46.9378 38.5461 49.2663 44.7351 49.261Z" fill="#E7A993"/>
</g>
<g style="mix-blend-mode:multiply" opacity="0.15">
<path d="M58.4294 4.17383C59.4596 8.96799 59.0351 13.9605 57.2103 18.5119C55.3856 23.0634 52.2436 26.9664 48.187 29.7212C44.1303 32.4759 39.3437 33.9569 34.4401 33.9745C29.5366 33.9921 24.7394 32.5454 20.6631 29.8198C21.5216 33.7476 23.3301 37.4051 25.9302 40.4718C28.5302 43.5385 31.8425 45.9209 35.577 47.4105C39.3114 48.9 43.3541 49.4512 47.351 49.0158C51.348 48.5804 55.1772 47.1717 58.5033 44.913C61.8295 42.6543 64.5511 39.6146 66.4298 36.06C68.3086 32.5054 69.2872 28.5444 69.2799 24.5238C69.2726 20.5033 68.2797 16.5458 66.388 12.9981C64.4964 9.45031 61.7638 6.42044 58.4294 4.17383Z" fill="#E7A993"/>
</g>
<g style="mix-blend-mode:multiply" opacity="0.15">
<path d="M61.0926 6.28223C63.648 11.4061 64.3354 17.261 63.0363 22.8375C61.7371 28.4139 58.5329 33.3622 53.9761 36.8291C49.4193 40.296 43.7956 42.0643 38.0747 41.8289C32.3538 41.5935 26.8943 39.3693 22.6377 35.5397C24.2526 38.7779 26.5622 41.6197 29.4018 43.8625C32.2413 46.1054 35.5408 47.694 39.0649 48.515C42.589 49.336 46.2509 49.3692 49.7893 48.6122C53.3277 47.8553 56.6555 46.3268 59.5352 44.1358C62.415 41.9448 64.7757 39.1453 66.4491 35.937C68.1225 32.7287 69.0672 29.1907 69.216 25.5753C69.3647 21.9599 68.7138 18.3562 67.3096 15.0213C65.9055 11.6863 63.7827 8.70237 61.0926 6.28223Z" fill="#E7A993"/>
</g>
<g style="mix-blend-mode:screen" opacity="0.45">
<path d="M60.9377 6.11332C56.4583 2.17836 50.6974 0.0123872 44.7351 0.0215131C43.31 0.0235054 41.8878 0.148095 40.4841 0.393906H40.3436C39.8752 0.478222 39.4068 0.576599 38.9384 0.68902H38.8821C37.4372 1.02877 36.0262 1.49912 34.6664 2.09428L34.5329 2.15751C34.1253 2.34722 33.7178 2.54396 33.3173 2.75475L33.24 2.78988C31.9605 3.46418 30.7426 4.24945 29.6004 5.13666L29.4739 5.24205C29.1296 5.50905 28.7713 5.7901 28.4621 6.07818L28.3778 6.14845C27.6536 6.79308 26.9662 7.47807 26.3191 8.20014C26.01 8.55145 25.7078 8.90276 25.4198 9.26813L25.3144 9.40866C25.0474 9.74592 24.7874 10.1113 24.5415 10.4485L24.4642 10.5539C20.785 15.8457 19.3303 22.3703 20.4131 28.7238C21.4959 35.0772 25.0296 40.7517 30.2538 44.5261C26.094 40.8945 23.2774 35.9685 22.2578 30.5414C21.2381 25.1143 22.0747 19.5019 24.6328 14.6081C26.3459 15.9134 28.3896 16.7142 30.5335 16.92C32.6774 17.1258 34.8361 16.7285 36.7662 15.7729C38.6964 14.8174 40.3211 13.3415 41.4573 11.5119C42.5934 9.68217 43.1957 7.57143 43.1963 5.41771C43.1961 4.14511 42.9823 2.88158 42.5639 1.67973C45.7584 1.1672 49.0225 1.29002 52.1694 2.04117C55.3163 2.79232 58.284 4.15703 60.9026 6.0571L60.9377 6.11332Z" fill="#E7A993"/>
</g>
<g style="mix-blend-mode:screen" opacity="0.25">
<path d="M21.0137 18.0437C23.5837 21.2152 27.226 23.3362 31.2528 24.0062C35.2796 24.6761 39.4124 23.8488 42.8709 21.6803C46.3295 19.5118 48.8745 16.1521 50.0256 12.2356C51.1767 8.3191 50.8541 4.11669 49.1189 0.421704C43.0801 -0.678423 36.8481 0.519578 31.6476 3.7803C26.4471 7.04101 22.654 12.1287 21.0137 18.0437Z" fill="#E7A993"/>
</g>
<path style="mix-blend-mode:multiply" opacity="0.76" d="M44.7354 49.2618C58.3327 49.2618 69.3555 38.239 69.3555 24.6416C69.3555 11.0443 58.3327 0.0214844 44.7354 0.0214844C31.138 0.0214844 20.1152 11.0443 20.1152 24.6416C20.1152 38.239 31.138 49.2618 44.7354 49.2618Z" fill="url(#paint0_linear_1109_12462)"/>
<path style="mix-blend-mode:screen" opacity="0.15" d="M67.3455 14.3545C67.4841 20.0787 65.6356 25.6742 62.1144 30.1894C58.5932 34.7046 53.6168 37.8607 48.0313 39.121C42.4459 40.3814 36.5963 39.6681 31.4774 37.1026C26.3584 34.537 22.2862 30.2775 19.9531 25.0485C20.0368 28.7177 20.9343 32.3226 22.581 35.6026C24.2277 38.8826 26.5824 41.756 29.4749 44.015C32.3675 46.274 35.7257 47.8624 39.307 48.6653C42.8882 49.4682 46.6031 49.4657 50.1833 48.6578C53.7634 47.85 57.1194 46.257 60.0089 43.9939C62.8983 41.7309 65.249 38.8544 66.8912 35.5721C68.5334 32.2898 69.426 28.6837 69.5045 25.0144C69.5831 21.3451 68.8457 17.7041 67.3455 14.3545Z" fill="url(#paint1_linear_1109_12462)"/>
<path style="mix-blend-mode:screen" opacity="0.15" d="M54.8532 1.82715C58.786 5.99251 61.1541 11.3917 61.5549 17.1062C61.9557 22.8208 60.3644 28.4977 57.0516 33.1712C53.7388 37.8447 48.9092 41.2262 43.3843 42.7404C37.8595 44.2546 31.9807 43.808 26.748 41.4766C29.2653 44.1427 32.3428 46.217 35.7586 47.5499C39.1744 48.8829 42.8435 49.4412 46.5012 49.1847C50.1589 48.9281 53.7141 47.8631 56.9105 46.0664C60.1068 44.2698 62.8646 41.7862 64.985 38.7948C67.1055 35.8034 68.5357 32.3787 69.1725 28.7678C69.8093 25.1568 69.6369 21.4495 68.6677 17.9132C67.6985 14.3769 65.9567 11.0998 63.5678 8.31807C61.1789 5.53637 58.2025 3.31945 54.8532 1.82715Z" fill="url(#paint2_linear_1109_12462)"/>
<g opacity="0.72">
<path d="M22.7634 35.7916C22.6299 35.5317 22.5175 35.2647 22.391 34.9977C12.2732 41.2792 7.83254 45.2982 7.31962 47.0899C7.27888 47.1938 7.27888 47.3093 7.31962 47.4131V47.4834C7.36177 47.5607 7.5304 47.6239 7.59364 47.645C8.87945 48.0666 15.4842 48.172 46.6318 31.8007C65.385 21.9639 78.1728 12.4995 81.6438 8.61392C81.7257 8.50572 81.7745 8.37614 81.7843 8.24082C81.7941 8.10549 81.7646 7.97022 81.6992 7.85133C81.6338 7.73245 81.5354 7.63504 81.4158 7.57086C81.2963 7.50669 81.1607 7.4785 81.0255 7.4897C78.4539 7.91128 73.3809 9.46409 66.0454 12.4924C66.1578 12.6821 66.2773 12.8648 66.3757 13.0616C72.4253 10.6023 76.3952 9.51327 76.8519 10.3775C77.7653 12.113 64.2045 21.0505 46.5264 30.3392C28.8482 39.628 13.8119 45.762 12.8985 44.0265C12.4067 43.0709 16.2641 39.9512 22.7634 35.7916Z" fill="url(#paint3_linear_1109_12462)"/>
<path d="M64.6406 10.2725C64.746 10.4201 64.8444 10.5746 64.9497 10.7292C74.2947 6.83665 81.2226 4.77796 83.3938 5.49464C83.7255 5.58443 84.0215 5.77424 84.2415 6.03826C84.4616 6.30227 84.5949 6.62768 84.6234 6.97017C84.6866 7.6728 84.8693 9.85095 73.6413 17.8328C65.3072 23.651 56.6044 28.9225 47.5878 33.6139C43.5547 35.7218 39.2475 37.928 34.9966 40.0008C22.7147 45.9661 10.8262 50.8564 6.96873 49.5847C6.65988 49.4969 6.37191 49.3477 6.12201 49.1461C5.87211 48.9445 5.66542 48.6946 5.51429 48.4113C5.36435 48.1248 5.27342 47.8112 5.24687 47.4889C5.22031 47.1667 5.25868 46.8424 5.35971 46.5353C6.28718 43.3313 13.5032 38.1037 21.6115 33.108C21.5694 32.9885 21.5202 32.8761 21.478 32.7567C7.87512 41.3288 -0.64076 48.6431 0.70829 51.2077C2.64052 54.8684 24.0637 47.3925 48.5574 34.4992C73.0511 21.6059 91.3546 8.18571 89.4294 4.51798C88.1436 2.0658 78.2857 4.56716 64.6406 10.2725Z" fill="url(#paint4_linear_1109_12462)"/>
<path d="M71.0419 12.7524C71.2387 12.7524 70.1707 13.9679 70.1426 14.0031C69.6741 14.4162 69.1814 14.801 68.667 15.1554C67.332 16.1531 65.9408 17.0946 64.5215 17.9659C62.5261 19.2306 60.3057 20.2565 58.514 21.7741C58.3103 21.9498 58.514 22.2168 58.76 22.1395C63.0249 20.6781 67.7817 17.4249 71.07 14.3333C71.5408 13.8977 72.3277 13.2653 71.9624 12.5276C71.9277 12.4197 71.8674 12.3218 71.7867 12.2423C71.706 12.1627 71.6073 12.1039 71.4989 12.0707C71.3906 12.0376 71.2758 12.0312 71.1644 12.052C71.053 12.0728 70.9483 12.1203 70.8592 12.1903C70.8007 12.2244 70.7557 12.2777 70.7318 12.3411C70.7079 12.4045 70.7065 12.4742 70.728 12.5385C70.7494 12.6028 70.7923 12.6578 70.8495 12.6942C70.9067 12.7305 70.9746 12.7461 71.0419 12.7383V12.7524Z" fill="url(#paint5_linear_1109_12462)"/>
<path d="M87.0618 10.0061C80.7873 17.1237 72.152 21.0725 64.8517 26.9184C64.8063 26.9543 64.7759 27.0059 64.7667 27.0631C64.7574 27.1202 64.7698 27.1788 64.8015 27.2272C64.8332 27.2757 64.8819 27.3105 64.938 27.3248C64.9941 27.3392 65.0535 27.3321 65.1046 27.3048C69.5663 24.9932 73.754 21.8805 77.8995 19.0349C81.1105 16.8286 86.0711 14.1586 87.5326 10.3152C87.6239 10.0623 87.2585 9.7742 87.0618 10.0061Z" fill="url(#paint6_linear_1109_12462)"/>
<path d="M60.6146 29.2851C57.516 30.9995 53.8272 32.4961 51.0729 34.7305C51.042 34.7594 51.0213 34.7976 51.0138 34.8393C51.0064 34.8811 51.0126 34.924 51.0315 34.9619C51.0505 34.9998 51.0811 35.0306 51.119 35.0497C51.1568 35.0687 51.1998 35.0751 51.2415 35.0677C54.6352 34.1684 57.9868 31.7654 60.8886 29.8472C61.2048 29.6364 60.9729 29.0883 60.6146 29.2851Z" fill="url(#paint7_linear_1109_12462)"/>
<path d="M39.0719 40.5635C34.0552 43.2265 28.673 45.2992 23.7335 48.0676C23.4665 48.2151 23.586 48.6859 23.9162 48.6086C29.3756 47.3158 34.4557 43.7675 39.2898 41.0132C39.5708 40.8516 39.36 40.4089 39.0719 40.5635Z" fill="url(#paint8_linear_1109_12462)"/>
<path d="M17.2343 40.6472C16.4193 40.7316 15.3583 42.2211 16.2366 42.8676C16.6793 43.1978 17.3538 42.9027 17.7964 42.7622C18.6828 42.5636 19.509 42.1565 20.2065 41.5747C20.2418 41.5418 20.2656 41.4984 20.2744 41.4509C20.2832 41.4034 20.2764 41.3544 20.2551 41.311C20.2338 41.2677 20.1992 41.2324 20.1562 41.2102C20.1133 41.1881 20.0644 41.1804 20.0168 41.1883C19.3221 41.3328 18.6457 41.5543 18.0002 41.8487C17.7402 41.9401 16.9603 42.3687 16.7636 41.9893C16.6441 41.7434 17.2203 41.0969 17.3889 40.9564C17.5576 40.8159 17.3889 40.6332 17.2343 40.6472Z" fill="url(#paint9_linear_1109_12462)"/>
<path d="M1.32595 52.9715C2.61176 53.8779 4.91639 54.0324 6.16707 52.9715C6.1906 52.9456 6.20652 52.9137 6.21306 52.8793C6.21961 52.845 6.21654 52.8095 6.20418 52.7768C6.19182 52.7441 6.17066 52.7154 6.14303 52.694C6.1154 52.6725 6.08238 52.6591 6.04762 52.6553C5.337 52.7618 4.63318 52.9096 3.93973 53.0979C3.10204 53.2297 2.24413 53.0944 1.48755 52.7115C1.45047 52.6928 1.40782 52.6885 1.36775 52.6994C1.32769 52.7102 1.29303 52.7354 1.27041 52.7702C1.24779 52.805 1.2388 52.847 1.24515 52.888C1.25151 52.929 1.27278 52.9662 1.30487 52.9925L1.32595 52.9715Z" fill="url(#paint10_linear_1109_12462)"/>
<path d="M6.4413 47.835C6.9124 48.4334 7.59342 48.8302 8.34626 48.945C9.09911 49.0598 9.86744 48.884 10.4955 48.4533C10.5224 48.4368 10.543 48.4118 10.554 48.3822C10.5649 48.3526 10.5656 48.3201 10.5558 48.2901C10.5461 48.2601 10.5265 48.2342 10.5003 48.2166C10.474 48.1991 10.4426 48.1909 10.4112 48.1933C9.00591 48.3831 7.72009 48.6711 6.53265 47.7296C6.46239 47.6734 6.39915 47.7718 6.4413 47.835Z" fill="url(#paint11_linear_1109_12462)"/>
<path d="M12.0205 48.4815C14.276 48.0178 17.0795 47.6032 19.0468 46.3736C19.2225 46.2612 19.2295 45.9169 18.9625 45.9239C16.6157 45.9239 14.0441 47.1395 11.8589 48.0318C11.5779 48.1442 11.7325 48.601 12.0276 48.5377L12.0205 48.4815Z" fill="url(#paint12_linear_1109_12462)"/>
<path d="M20.1505 32.0473C17.9489 32.891 15.9183 34.1265 14.157 35.6939C13.9322 35.8906 14.157 36.2841 14.4451 36.1436C16.5359 35.0741 18.5073 33.7857 20.3261 32.3002C20.4667 32.1808 20.3261 31.9911 20.1505 32.0473Z" fill="url(#paint13_linear_1109_12462)"/>
<path d="M77.1473 7.20227C78.2048 6.99147 79.2752 6.85063 80.3513 6.78069C80.8267 6.7463 81.3042 6.80599 81.7565 6.95635C82.3608 7.20929 82.4591 7.72221 82.7402 8.20703C82.7542 8.23562 82.7744 8.26068 82.7995 8.28032C82.8245 8.29996 82.8537 8.31368 82.8848 8.32044C82.9159 8.3272 82.9481 8.32681 82.979 8.31934C83.01 8.31187 83.0388 8.2975 83.0634 8.2773C84.033 7.41306 82.5575 6.2748 81.7495 6.06402C80.1194 5.63541 78.4893 6.23264 77.0138 6.865C76.8241 6.94229 76.9295 7.23038 77.1262 7.20227H77.1473Z" fill="url(#paint14_linear_1109_12462)"/>
<path d="M82.2694 9.15513C82.0514 9.25381 81.868 9.41528 81.7424 9.61887C81.599 9.80468 81.5004 10.0211 81.4543 10.2512C81.4529 10.2864 81.4592 10.3214 81.4729 10.3538C81.4866 10.3862 81.5073 10.4152 81.5334 10.4387C81.5596 10.4622 81.5906 10.4796 81.6243 10.4897C81.658 10.4998 81.6935 10.5024 81.7283 10.4972C81.9735 10.4094 82.1859 10.2484 82.3367 10.0361C82.4875 9.82371 82.5694 9.57016 82.5715 9.30971C82.5715 9.16216 82.3818 9.11297 82.2694 9.15513Z" fill="url(#paint15_linear_1109_12462)"/>
</g>
<defs>
<linearGradient id="paint0_linear_1109_12462" x1="27.3242" y1="7.23047" x2="62.1466" y2="42.0528" gradientUnits="userSpaceOnUse">
<stop stop-color="#FF0000"/>
<stop offset="0.11" stop-color="#F30007"/>
<stop offset="0.3" stop-color="#D20119"/>
<stop offset="0.56" stop-color="#9D0236"/>
<stop offset="0.87" stop-color="#55045E"/>
<stop offset="1" stop-color="#340570"/>
</linearGradient>
<linearGradient id="paint1_linear_1109_12462" x1="42.4154" y1="14.7379" x2="50.557" y2="48.6957" gradientUnits="userSpaceOnUse">
<stop offset="0.24" stop-color="white"/>
<stop offset="0.92" stop-color="white"/>
<stop offset="1" stop-color="white"/>
</linearGradient>
<linearGradient id="paint2_linear_1109_12462" x1="35.7707" y1="17.958" x2="64.3978" y2="37.6731" gradientUnits="userSpaceOnUse">
<stop offset="0.24" stop-color="white"/>
<stop offset="0.92" stop-color="white"/>
<stop offset="1" stop-color="white"/>
</linearGradient>
<linearGradient id="paint3_linear_1109_12462" x1="6.7693" y1="46.3819" x2="82.5526" y2="9.55082" gradientUnits="userSpaceOnUse">
<stop stop-color="#FFB6A0"/>
<stop offset="0.15" stop-color="#F3ACA1"/>
<stop offset="0.42" stop-color="#D293A5"/>
<stop offset="0.77" stop-color="#9E6BAB"/>
<stop offset="0.99" stop-color="#7A4FAF"/>
</linearGradient>
<linearGradient id="paint4_linear_1109_12462" x1="0.083231" y1="49.9523" x2="90.1992" y2="6.15548" gradientUnits="userSpaceOnUse">
<stop stop-color="#FFB6A0"/>
<stop offset="0.15" stop-color="#F3ACA1"/>
<stop offset="0.42" stop-color="#D293A5"/>
<stop offset="0.77" stop-color="#9E6BAB"/>
<stop offset="0.99" stop-color="#7A4FAF"/>
</linearGradient>
<linearGradient id="paint5_linear_1109_12462" x1="57.9776" y1="20.5964" x2="72.1775" y2="13.6952" gradientUnits="userSpaceOnUse">
<stop stop-color="#FFB6A0"/>
<stop offset="0.15" stop-color="#F3ACA1"/>
<stop offset="0.42" stop-color="#D293A5"/>
<stop offset="0.77" stop-color="#9E6BAB"/>
<stop offset="0.99" stop-color="#7A4FAF"/>
</linearGradient>
<linearGradient id="paint6_linear_1109_12462" x1="63.7739" y1="24.6315" x2="88.4452" y2="12.6412" gradientUnits="userSpaceOnUse">
<stop stop-color="#FFB6A0"/>
<stop offset="0.15" stop-color="#F3ACA1"/>
<stop offset="0.42" stop-color="#D293A5"/>
<stop offset="0.77" stop-color="#9E6BAB"/>
<stop offset="0.99" stop-color="#7A4FAF"/>
</linearGradient>
<linearGradient id="paint7_linear_1109_12462" x1="51.0938" y1="34.6912" x2="60.908" y2="29.9214" gradientUnits="userSpaceOnUse">
<stop stop-color="#FFB6A0"/>
<stop offset="0.15" stop-color="#F3ACA1"/>
<stop offset="0.42" stop-color="#D293A5"/>
<stop offset="0.77" stop-color="#9E6BAB"/>
<stop offset="0.99" stop-color="#7A4FAF"/>
</linearGradient>
<linearGradient id="paint8_linear_1109_12462" x1="23.9252" y1="48.5527" x2="39.2878" y2="41.0863" gradientUnits="userSpaceOnUse">
<stop stop-color="#FFB6A0"/>
<stop offset="0.15" stop-color="#F3ACA1"/>
<stop offset="0.42" stop-color="#D293A5"/>
<stop offset="0.77" stop-color="#9E6BAB"/>
<stop offset="0.99" stop-color="#7A4FAF"/>
</linearGradient>
<linearGradient id="paint9_linear_1109_12462" x1="16.2359" y1="42.3912" x2="19.699" y2="40.7081" gradientUnits="userSpaceOnUse">
<stop stop-color="#FFB6A0"/>
<stop offset="0.15" stop-color="#F3ACA1"/>
<stop offset="0.42" stop-color="#D293A5"/>
<stop offset="0.77" stop-color="#9E6BAB"/>
<stop offset="0.99" stop-color="#7A4FAF"/>
</linearGradient>
<linearGradient id="paint10_linear_1109_12462" x1="1.8145" y1="53.8214" x2="5.61253" y2="51.9756" gradientUnits="userSpaceOnUse">
<stop stop-color="#FFB6A0"/>
<stop offset="0.15" stop-color="#F3ACA1"/>
<stop offset="0.42" stop-color="#D293A5"/>
<stop offset="0.77" stop-color="#9E6BAB"/>
<stop offset="0.99" stop-color="#7A4FAF"/>
</linearGradient>
<linearGradient id="paint11_linear_1109_12462" x1="6.92371" y1="48.8539" x2="9.95707" y2="47.3797" gradientUnits="userSpaceOnUse">
<stop stop-color="#FFB6A0"/>
<stop offset="0.15" stop-color="#F3ACA1"/>
<stop offset="0.42" stop-color="#D293A5"/>
<stop offset="0.77" stop-color="#9E6BAB"/>
<stop offset="0.99" stop-color="#7A4FAF"/>
</linearGradient>
<linearGradient id="paint12_linear_1109_12462" x1="12.2106" y1="48.769" x2="18.6818" y2="45.624" gradientUnits="userSpaceOnUse">
<stop stop-color="#FFB6A0"/>
<stop offset="0.15" stop-color="#F3ACA1"/>
<stop offset="0.42" stop-color="#D293A5"/>
<stop offset="0.77" stop-color="#9E6BAB"/>
<stop offset="0.99" stop-color="#7A4FAF"/>
</linearGradient>
<linearGradient id="paint13_linear_1109_12462" x1="14.1445" y1="35.5801" x2="20.3819" y2="32.5488" gradientUnits="userSpaceOnUse">
<stop stop-color="#FFB6A0"/>
<stop offset="0.15" stop-color="#F3ACA1"/>
<stop offset="0.42" stop-color="#D293A5"/>
<stop offset="0.77" stop-color="#9E6BAB"/>
<stop offset="0.99" stop-color="#7A4FAF"/>
</linearGradient>
<linearGradient id="paint14_linear_1109_12462" x1="77.8651" y1="8.65024" x2="82.453" y2="6.42048" gradientUnits="userSpaceOnUse">
<stop stop-color="#FFB6A0"/>
<stop offset="0.15" stop-color="#F3ACA1"/>
<stop offset="0.42" stop-color="#D293A5"/>
<stop offset="0.77" stop-color="#9E6BAB"/>
<stop offset="0.99" stop-color="#7A4FAF"/>
</linearGradient>
<linearGradient id="paint15_linear_1109_12462" x1="81.5383" y1="10.0675" x2="82.4988" y2="9.6007" gradientUnits="userSpaceOnUse">
<stop stop-color="#FFB6A0"/>
<stop offset="0.15" stop-color="#F3ACA1"/>
<stop offset="0.42" stop-color="#D293A5"/>
<stop offset="0.77" stop-color="#9E6BAB"/>
<stop offset="0.99" stop-color="#7A4FAF"/>
</linearGradient>
</defs>
</svg>
