<svg width="40" height="20" viewBox="0 0 40 20" fill="none" xmlns="http://www.w3.org/2000/svg">
<path d="M30.457 13.5031C27.6936 13.5031 10.5358 13.5031 10.5358 13.5031L10.5358 6.05916C10.5358 6.05916 27.6935 6.05916 30.457 6.05916C33.2203 6.05916 34.8236 5.87196 37.1484 7.51798C39.1726 8.95183 39.4395 9.51674 39.4395 9.78115C39.4395 10.0454 39.1726 10.6116 37.1484 12.0443C34.8236 13.6902 33.2203 13.5031 30.457 13.5031Z" fill="#004AB8"/>
<path d="M38.1666 11.2821L38.1666 8.28027C39.2688 9.1661 39.4395 9.57067 39.4395 9.78174C39.4395 9.99267 39.269 10.3963 38.1666 11.2821Z" fill="#263238"/>
<path d="M36.5889 7.14941C36.6015 7.58814 36.6106 8.02673 36.6151 8.46546L36.623 9.78151L36.6152 11.0976C36.6106 11.5363 36.6015 11.9749 36.5889 12.4136C36.5763 11.9749 36.5671 11.5363 36.5626 11.0976L36.5547 9.78151L36.5627 8.46546C36.5671 8.02673 36.5763 7.58814 36.5889 7.14941Z" fill="#37474F"/>
<path d="M32.3662 6.0625C32.3789 6.68281 32.3879 7.30326 32.3924 7.92356L32.4004 9.78462L32.3926 11.6457C32.3879 12.266 32.3789 12.8864 32.3662 13.5068C32.3536 12.8864 32.3444 12.266 32.3399 11.6457L32.332 9.78476L32.3399 7.9237C32.3444 7.30325 32.3536 6.68295 32.3662 6.0625Z" fill="#37474F"/>
<path d="M33.5117 6.11523C33.5244 6.72635 33.5334 7.33747 33.5379 7.94859L33.5459 9.78195L33.5381 11.6153C33.5334 12.2264 33.5244 12.8375 33.5117 13.4487C33.499 12.8375 33.4899 12.2264 33.4854 11.6153L33.4776 9.78195L33.4856 7.94859C33.4901 7.33747 33.4991 6.72635 33.5117 6.11523Z" fill="#37474F"/>
<path d="M27.9297 6.0625C27.9423 6.68281 27.9514 7.30326 27.9559 7.92356L27.9639 9.78476L27.956 11.6458C27.9514 12.2661 27.9423 12.8866 27.9297 13.5069C27.9171 12.8866 27.9079 12.2661 27.9034 11.6458L27.8954 9.78476L27.9034 7.9237C27.908 7.30325 27.9171 6.68295 27.9297 6.0625Z" fill="#37474F"/>
<path d="M23.4932 6.0625C23.5058 6.68281 23.5149 7.30326 23.5194 7.92356L23.5273 9.78462L23.5195 11.6457C23.5149 12.266 23.5058 12.8864 23.4932 13.5068C23.4806 12.8864 23.4714 12.266 23.4669 11.6457L23.4589 9.78476L23.4669 7.9237C23.4715 7.30325 23.4806 6.68295 23.4932 6.0625Z" fill="#37474F"/>
<path d="M19.0567 6.0625C19.0693 6.68281 19.0783 7.30326 19.0829 7.92356L19.0908 9.78462L19.083 11.6457C19.0783 12.266 19.0693 12.8864 19.0567 13.5068C19.0441 12.8864 19.0349 12.266 19.0303 11.6457L19.0224 9.78476L19.0303 7.9237C19.0349 7.30325 19.0441 6.68295 19.0567 6.0625Z" fill="#37474F"/>
<path d="M14.6201 6.0625C14.6328 6.68281 14.6418 7.30326 14.6463 7.92356L14.6543 9.78462L14.6465 11.6457C14.6418 12.266 14.6328 12.8864 14.6201 13.5068C14.6075 12.8864 14.5983 12.266 14.5938 11.6457L14.5859 9.78476L14.5938 7.9237C14.5983 7.30325 14.6075 6.68295 14.6201 6.0625Z" fill="#37474F"/>
<path d="M36.3052 7.43027C36.2589 7.43247 36.213 7.39352 36.2088 7.34236C36.2018 7.29052 36.2484 7.2369 36.3052 7.23731C36.362 7.23676 36.4088 7.29039 36.4016 7.34236C36.3974 7.39366 36.3516 7.4326 36.3052 7.43027ZM36.3052 7.43027C36.3528 7.43055 36.3913 7.38515 36.3845 7.34236C36.38 7.3004 36.3424 7.26968 36.3052 7.2716C36.268 7.26968 36.2303 7.30026 36.2258 7.34236C36.2191 7.38529 36.2576 7.43055 36.3052 7.43027Z" fill="#37474F"/>
<path d="M36.3052 8.40572C36.2589 8.40792 36.213 8.36897 36.2088 8.31781C36.2018 8.26597 36.2484 8.21235 36.3052 8.21289C36.362 8.21235 36.4088 8.26597 36.4016 8.31795C36.3974 8.3691 36.3516 8.40792 36.3052 8.40572ZM36.3052 8.40572C36.3528 8.406 36.3913 8.3606 36.3845 8.31781C36.38 8.27584 36.3424 8.24513 36.3052 8.24705C36.268 8.24513 36.2303 8.27571 36.2258 8.31781C36.2191 8.3606 36.2576 8.406 36.3052 8.40572Z" fill="#37474F"/>
<path d="M36.3052 9.38144C36.2589 9.38364 36.213 9.34469 36.2088 9.29353C36.2018 9.24169 36.2484 9.18807 36.3052 9.18848C36.362 9.18793 36.4088 9.24156 36.4016 9.29353C36.3974 9.34483 36.3516 9.38364 36.3052 9.38144ZM36.3052 9.38144C36.3528 9.38172 36.3913 9.33632 36.3845 9.29353C36.38 9.25157 36.3424 9.22085 36.3052 9.22277C36.268 9.22085 36.2303 9.25143 36.2258 9.29353C36.2191 9.33632 36.2576 9.38172 36.3052 9.38144Z" fill="#37474F"/>
<path d="M36.3052 10.357C36.2589 10.3592 36.213 10.3203 36.2088 10.2691C36.2018 10.2173 36.2484 10.1637 36.3052 10.1641C36.362 10.1635 36.4088 10.2171 36.4016 10.2691C36.3974 10.3204 36.3516 10.3592 36.3052 10.357ZM36.3052 10.357C36.3528 10.3573 36.3913 10.3119 36.3845 10.2691C36.38 10.2272 36.3424 10.1964 36.3052 10.1984C36.268 10.1964 36.2303 10.227 36.2258 10.2691C36.2191 10.3119 36.2576 10.3573 36.3052 10.357Z" fill="#37474F"/>
<path d="M36.3052 11.3316C36.2589 11.3338 36.213 11.2949 36.2088 11.2437C36.2018 11.1919 36.2484 11.1383 36.3052 11.1387C36.362 11.1381 36.4088 11.1918 36.4016 11.2437C36.3974 11.2949 36.3516 11.3338 36.3052 11.3316ZM36.3052 11.3316C36.3528 11.3319 36.3913 11.2865 36.3845 11.2437C36.38 11.2018 36.3424 11.171 36.3052 11.173C36.268 11.171 36.2303 11.2016 36.2258 11.2437C36.2191 11.2865 36.2576 11.3319 36.3052 11.3316Z" fill="#37474F"/>
<path d="M36.3052 12.3072C36.2589 12.3094 36.213 12.2705 36.2088 12.2193C36.2018 12.1675 36.2484 12.1139 36.3052 12.1143C36.362 12.1137 36.4088 12.1673 36.4016 12.2193C36.3974 12.2705 36.3516 12.3094 36.3052 12.3072ZM36.3052 12.3072C36.3528 12.3075 36.3913 12.2621 36.3845 12.2193C36.38 12.1773 36.3424 12.1466 36.3052 12.1485C36.268 12.1466 36.2303 12.1772 36.2258 12.2193C36.2191 12.2621 36.2576 12.3074 36.3052 12.3072Z" fill="#37474F"/>
<path d="M32.1147 7.43125C32.0683 7.43344 32.0225 7.39449 32.0183 7.34334C32.0113 7.2915 32.0579 7.23787 32.1147 7.23829C32.1714 7.23774 32.2182 7.29136 32.2112 7.34334C32.2068 7.39463 32.161 7.43358 32.1147 7.43125ZM32.1147 7.43125C32.1623 7.43152 32.2008 7.38613 32.1939 7.34334C32.1894 7.30137 32.1518 7.27065 32.1147 7.27257C32.0775 7.27065 32.0398 7.30124 32.0353 7.34334C32.0285 7.38627 32.0671 7.43152 32.1147 7.43125Z" fill="#37474F"/>
<path d="M32.1147 8.40586C32.0683 8.40805 32.0225 8.3691 32.0183 8.31795C32.0113 8.26611 32.0579 8.21248 32.1147 8.21289C32.1714 8.21235 32.2182 8.26597 32.2112 8.31781C32.2068 8.36924 32.161 8.40805 32.1147 8.40586ZM32.1147 8.40586C32.1623 8.40613 32.2008 8.36074 32.1939 8.31795C32.1894 8.27598 32.1518 8.24526 32.1147 8.24718C32.0775 8.24526 32.0398 8.27584 32.0353 8.31795C32.0285 8.36074 32.0671 8.40613 32.1147 8.40586Z" fill="#37474F"/>
<path d="M32.1147 6.45553C32.0683 6.45772 32.0225 6.41877 32.0183 6.36762C32.0113 6.31578 32.0579 6.26215 32.1147 6.2627C32.1714 6.26202 32.2182 6.31578 32.2112 6.36762C32.2068 6.41877 32.161 6.45772 32.1147 6.45553ZM32.1147 6.45553C32.1623 6.4558 32.2008 6.41041 32.1939 6.36762C32.1894 6.32565 32.1518 6.29493 32.1147 6.29685C32.0775 6.29493 32.0398 6.32551 32.0353 6.36762C32.0285 6.41041 32.0671 6.4558 32.1147 6.45553Z" fill="#37474F"/>
<path d="M32.1147 9.38144C32.0683 9.38364 32.0225 9.34469 32.0183 9.29353C32.0113 9.24169 32.0579 9.18807 32.1147 9.18848C32.1714 9.18793 32.2182 9.24156 32.2112 9.29353C32.2068 9.34483 32.161 9.38364 32.1147 9.38144ZM32.1147 9.38144C32.1623 9.38172 32.2008 9.33632 32.1939 9.29353C32.1894 9.25157 32.1518 9.22085 32.1147 9.22277C32.0775 9.22085 32.0398 9.25143 32.0353 9.29353C32.0285 9.33632 32.0671 9.38172 32.1147 9.38144Z" fill="#37474F"/>
<path d="M32.1147 10.357C32.0683 10.3592 32.0225 10.3203 32.0183 10.2691C32.0113 10.2173 32.0579 10.1637 32.1147 10.1641C32.1714 10.1635 32.2182 10.2171 32.2112 10.2691C32.2068 10.3204 32.161 10.3592 32.1147 10.357ZM32.1147 10.357C32.1623 10.3573 32.2008 10.3119 32.1939 10.2691C32.1894 10.2272 32.1518 10.1964 32.1147 10.1984C32.0775 10.1964 32.0398 10.227 32.0353 10.2691C32.0285 10.3119 32.0671 10.3573 32.1147 10.357Z" fill="#37474F"/>
<path d="M32.1147 11.3326C32.0683 11.3348 32.0225 11.2959 32.0183 11.2447C32.0113 11.1929 32.0579 11.1392 32.1147 11.1397C32.1714 11.1391 32.2182 11.1927 32.2112 11.2447C32.2068 11.2959 32.161 11.3348 32.1147 11.3326ZM32.1147 11.3326C32.1623 11.3329 32.2008 11.2875 32.1939 11.2447C32.1894 11.2027 32.1518 11.172 32.1147 11.1739C32.0775 11.172 32.0398 11.2027 32.0353 11.2447C32.0285 11.2875 32.0671 11.3329 32.1147 11.3326Z" fill="#37474F"/>
<path d="M32.1147 12.3082C32.0683 12.3104 32.0225 12.2714 32.0183 12.2203C32.0113 12.1684 32.0579 12.1148 32.1147 12.1152C32.1714 12.1147 32.2182 12.1683 32.2112 12.2203C32.2068 12.2714 32.161 12.3104 32.1147 12.3082ZM32.1147 12.3082C32.1623 12.3085 32.2008 12.2631 32.1939 12.2203C32.1894 12.1783 32.1518 12.1476 32.1147 12.1495C32.0775 12.1476 32.0398 12.1783 32.0353 12.2203C32.0285 12.2631 32.0671 12.3085 32.1147 12.3082Z" fill="#37474F"/>
<path d="M32.1147 13.2838C32.0683 13.286 32.0225 13.247 32.0183 13.1959C32.0113 13.144 32.0579 13.0904 32.1147 13.0908C32.1714 13.0903 32.2182 13.1439 32.2112 13.1959C32.2068 13.247 32.161 13.286 32.1147 13.2838ZM32.1147 13.2838C32.1623 13.2841 32.2008 13.2387 32.1939 13.1959C32.1894 13.1539 32.1518 13.1232 32.1147 13.1251C32.0775 13.1232 32.0398 13.1539 32.0353 13.1959C32.0285 13.2387 32.0671 13.2839 32.1147 13.2838Z" fill="#37474F"/>
<path d="M33.2201 7.43125C33.1738 7.43344 33.128 7.39449 33.1237 7.34334C33.1167 7.2915 33.1634 7.23787 33.2201 7.23829C33.2769 7.23774 33.3237 7.29136 33.3167 7.34334C33.3123 7.39463 33.2665 7.43358 33.2201 7.43125ZM33.2201 7.43125C33.2677 7.43152 33.3063 7.38613 33.2994 7.34334C33.2949 7.30137 33.2573 7.27065 33.2201 7.27257C33.183 7.27065 33.1453 7.30124 33.1407 7.34334C33.134 7.38627 33.1725 7.43152 33.2201 7.43125Z" fill="#37474F"/>
<path d="M33.2201 8.4067C33.1738 8.40889 33.128 8.36994 33.1237 8.31879C33.1167 8.26695 33.1634 8.21332 33.2201 8.21387C33.2769 8.21332 33.3237 8.26695 33.3167 8.31879C33.3123 8.37008 33.2665 8.40889 33.2201 8.4067ZM33.2201 8.4067C33.2677 8.40697 33.3063 8.36158 33.2994 8.31879C33.2949 8.27682 33.2573 8.2461 33.2201 8.24802C33.183 8.2461 33.1453 8.27682 33.1407 8.31879C33.134 8.36158 33.1725 8.40697 33.2201 8.4067Z" fill="#37474F"/>
<path d="M33.2201 6.45566C33.1738 6.45786 33.128 6.41891 33.1237 6.36775C33.1167 6.31591 33.1634 6.26229 33.2201 6.2627C33.2769 6.26215 33.3237 6.31578 33.3167 6.36775C33.3123 6.41891 33.2665 6.45786 33.2201 6.45566ZM33.2201 6.45566C33.2677 6.45594 33.3063 6.41054 33.2994 6.36775C33.2949 6.32579 33.2573 6.29507 33.2201 6.29699C33.183 6.29507 33.1453 6.32565 33.1407 6.36775C33.134 6.41054 33.1725 6.45594 33.2201 6.45566Z" fill="#37474F"/>
<path d="M33.2201 9.38144C33.1738 9.38364 33.128 9.34469 33.1237 9.29353C33.1167 9.24169 33.1634 9.18807 33.2201 9.18848C33.2769 9.18793 33.3237 9.24156 33.3167 9.29353C33.3123 9.34483 33.2665 9.38364 33.2201 9.38144ZM33.2201 9.38144C33.2677 9.38172 33.3063 9.33632 33.2994 9.29353C33.2949 9.25157 33.2573 9.22085 33.2201 9.22277C33.183 9.22085 33.1453 9.25143 33.1407 9.29353C33.134 9.33632 33.1725 9.38172 33.2201 9.38144Z" fill="#37474F"/>
<path d="M33.2201 10.357C33.1738 10.3592 33.128 10.3203 33.1237 10.2691C33.1167 10.2173 33.1634 10.1637 33.2201 10.1641C33.2769 10.1635 33.3237 10.2171 33.3167 10.2691C33.3123 10.3204 33.2665 10.3592 33.2201 10.357ZM33.2201 10.357C33.2677 10.3573 33.3063 10.3119 33.2994 10.2691C33.2949 10.2272 33.2573 10.1964 33.2201 10.1984C33.183 10.1964 33.1453 10.227 33.1407 10.2691C33.134 10.3119 33.1725 10.3573 33.2201 10.357Z" fill="#37474F"/>
<path d="M33.2201 11.3326C33.1738 11.3348 33.128 11.2959 33.1237 11.2447C33.1167 11.1929 33.1634 11.1392 33.2201 11.1397C33.2769 11.1391 33.3237 11.1927 33.3167 11.2447C33.3123 11.2959 33.2665 11.3348 33.2201 11.3326ZM33.2201 11.3326C33.2677 11.3329 33.3063 11.2875 33.2994 11.2447C33.2949 11.2027 33.2573 11.172 33.2201 11.1739C33.183 11.172 33.1453 11.2027 33.1407 11.2447C33.134 11.2875 33.1725 11.3329 33.2201 11.3326Z" fill="#37474F"/>
<path d="M33.2201 12.3082C33.1738 12.3104 33.128 12.2714 33.1237 12.2203C33.1167 12.1684 33.1634 12.1148 33.2201 12.1152C33.2769 12.1147 33.3237 12.1683 33.3167 12.2203C33.3123 12.2714 33.2665 12.3104 33.2201 12.3082ZM33.2201 12.3082C33.2677 12.3085 33.3063 12.2631 33.2994 12.2203C33.2949 12.1783 33.2573 12.1476 33.2201 12.1495C33.183 12.1476 33.1453 12.1783 33.1407 12.2203C33.134 12.2631 33.1725 12.3083 33.2201 12.3082Z" fill="#37474F"/>
<path d="M33.2201 13.2838C33.1738 13.286 33.128 13.247 33.1237 13.1959C33.1167 13.144 33.1634 13.0904 33.2201 13.0908C33.2769 13.0903 33.3237 13.1439 33.3167 13.1959C33.3123 13.247 33.2665 13.286 33.2201 13.2838ZM33.2201 13.2838C33.2677 13.2841 33.3063 13.2387 33.2994 13.1959C33.2949 13.1539 33.2573 13.1232 33.2201 13.1251C33.183 13.1232 33.1453 13.1539 33.1407 13.1959C33.134 13.2387 33.1725 13.2839 33.2201 13.2838Z" fill="#37474F"/>
<path d="M27.6205 7.43125C27.5742 7.43344 27.5284 7.39449 27.5241 7.34334C27.5171 7.2915 27.5638 7.23787 27.6205 7.23829C27.6773 7.23774 27.7241 7.29136 27.7171 7.34334C27.7127 7.39463 27.6669 7.43358 27.6205 7.43125ZM27.6205 7.43125C27.6681 7.43152 27.7067 7.38613 27.6998 7.34334C27.6953 7.30137 27.6577 7.27065 27.6205 7.27257C27.5834 7.27065 27.5456 7.30124 27.5411 7.34334C27.5344 7.38627 27.5729 7.43152 27.6205 7.43125Z" fill="#37474F"/>
<path d="M27.6205 8.40586C27.5742 8.40805 27.5284 8.3691 27.5241 8.31795C27.5171 8.26611 27.5638 8.21249 27.6205 8.2129C27.6773 8.21221 27.7241 8.26597 27.7171 8.31781C27.7127 8.36924 27.6669 8.40805 27.6205 8.40586ZM27.6205 8.40586C27.6681 8.40613 27.7067 8.36074 27.6998 8.31795C27.6953 8.27598 27.6577 8.24526 27.6205 8.24718C27.5834 8.24526 27.5456 8.27598 27.5411 8.31795C27.5344 8.36074 27.5729 8.40613 27.6205 8.40586Z" fill="#37474F"/>
<path d="M27.6205 6.45553C27.5742 6.45772 27.5284 6.41877 27.5241 6.36762C27.5171 6.31578 27.5638 6.26215 27.6205 6.2627C27.6773 6.26202 27.7241 6.31578 27.7171 6.36762C27.7127 6.41877 27.6669 6.45772 27.6205 6.45553ZM27.6205 6.45553C27.6681 6.4558 27.7067 6.41041 27.6998 6.36762C27.6953 6.32565 27.6577 6.29493 27.6205 6.29685C27.5834 6.29493 27.5456 6.32551 27.5411 6.36762C27.5344 6.41041 27.5729 6.4558 27.6205 6.45553Z" fill="#37474F"/>
<path d="M27.6205 9.38144C27.5742 9.38364 27.5284 9.34469 27.5241 9.29353C27.5171 9.24169 27.5638 9.18807 27.6205 9.18848C27.6773 9.18793 27.7241 9.24156 27.7171 9.29353C27.7127 9.34483 27.6669 9.38364 27.6205 9.38144ZM27.6205 9.38144C27.6681 9.38172 27.7067 9.33632 27.6998 9.29353C27.6953 9.25157 27.6577 9.22085 27.6205 9.22277C27.5834 9.22085 27.5456 9.25143 27.5411 9.29353C27.5344 9.33632 27.5729 9.38172 27.6205 9.38144Z" fill="#37474F"/>
<path d="M27.6205 10.357C27.5742 10.3592 27.5284 10.3203 27.5241 10.2691C27.5171 10.2173 27.5638 10.1637 27.6205 10.1641C27.6773 10.1635 27.7241 10.2171 27.7171 10.2691C27.7127 10.3204 27.6669 10.3592 27.6205 10.357ZM27.6205 10.357C27.6681 10.3573 27.7067 10.3119 27.6998 10.2691C27.6953 10.2272 27.6577 10.1964 27.6205 10.1984C27.5834 10.1964 27.5456 10.227 27.5411 10.2691C27.5344 10.3119 27.5729 10.3573 27.6205 10.357Z" fill="#37474F"/>
<path d="M27.6205 11.3326C27.5742 11.3348 27.5284 11.2959 27.5241 11.2447C27.5171 11.1929 27.5638 11.1392 27.6205 11.1397C27.6773 11.1391 27.7241 11.1927 27.7171 11.2447C27.7127 11.2959 27.6669 11.3348 27.6205 11.3326ZM27.6205 11.3326C27.6681 11.3329 27.7067 11.2875 27.6998 11.2447C27.6953 11.2027 27.6577 11.172 27.6205 11.1739C27.5834 11.172 27.5456 11.2027 27.5411 11.2447C27.5344 11.2875 27.5729 11.3329 27.6205 11.3326Z" fill="#37474F"/>
<path d="M27.6205 12.3082C27.5742 12.3104 27.5284 12.2714 27.5241 12.2203C27.5171 12.1684 27.5638 12.1148 27.6205 12.1152C27.6773 12.1147 27.7241 12.1683 27.7171 12.2203C27.7127 12.2714 27.6669 12.3104 27.6205 12.3082ZM27.6205 12.3082C27.6681 12.3085 27.7067 12.2631 27.6998 12.2203C27.6953 12.1783 27.6577 12.1476 27.6205 12.1495C27.5834 12.1476 27.5456 12.1783 27.5411 12.2203C27.5344 12.2631 27.5729 12.3085 27.6205 12.3082Z" fill="#37474F"/>
<path d="M27.6205 13.2838C27.5742 13.286 27.5284 13.247 27.5241 13.1959C27.5171 13.144 27.5638 13.0904 27.6205 13.0908C27.6773 13.0903 27.7241 13.1439 27.7171 13.1959C27.7127 13.247 27.6669 13.286 27.6205 13.2838ZM27.6205 13.2838C27.6681 13.2841 27.7067 13.2387 27.6998 13.1959C27.6953 13.1539 27.6577 13.1232 27.6205 13.1251C27.5834 13.1232 27.5456 13.1539 27.5411 13.1959C27.5344 13.2387 27.5729 13.2839 27.6205 13.2838Z" fill="#37474F"/>
<path d="M23.1274 7.43125C23.081 7.43344 23.0352 7.39449 23.031 7.34334C23.024 7.2915 23.0706 7.23787 23.1274 7.23829C23.1841 7.23774 23.2309 7.29136 23.2239 7.34334C23.2195 7.39463 23.1737 7.43358 23.1274 7.43125ZM23.1274 7.43125C23.175 7.43152 23.2135 7.38613 23.2066 7.34334C23.2021 7.30137 23.1645 7.27065 23.1274 7.27257C23.0902 7.27065 23.0525 7.30124 23.048 7.34334C23.0412 7.38627 23.0798 7.43152 23.1274 7.43125Z" fill="#37474F"/>
<path d="M23.1274 8.40572C23.081 8.40792 23.0352 8.36897 23.031 8.31781C23.024 8.26597 23.0706 8.21235 23.1274 8.21289C23.1841 8.21235 23.2309 8.26597 23.2239 8.31795C23.2195 8.3691 23.1737 8.40792 23.1274 8.40572ZM23.1274 8.40572C23.175 8.406 23.2135 8.3606 23.2066 8.31781C23.2021 8.27584 23.1645 8.24513 23.1274 8.24705C23.0902 8.24513 23.0525 8.27571 23.048 8.31781C23.0412 8.3606 23.0798 8.406 23.1274 8.40572Z" fill="#37474F"/>
<path d="M23.1274 6.45553C23.081 6.45772 23.0352 6.41877 23.031 6.36762C23.024 6.31578 23.0706 6.26215 23.1274 6.2627C23.1841 6.26202 23.2309 6.31578 23.2239 6.36762C23.2195 6.41877 23.1737 6.45772 23.1274 6.45553ZM23.1274 6.45553C23.175 6.4558 23.2135 6.41041 23.2066 6.36762C23.2021 6.32565 23.1645 6.29493 23.1274 6.29685C23.0902 6.29493 23.0525 6.32551 23.048 6.36762C23.0412 6.41041 23.0798 6.4558 23.1274 6.45553Z" fill="#37474F"/>
<path d="M23.1274 9.38144C23.081 9.38364 23.0352 9.34469 23.031 9.29353C23.024 9.24169 23.0706 9.18807 23.1274 9.18848C23.1841 9.18793 23.2309 9.24156 23.2239 9.29353C23.2195 9.34483 23.1737 9.38364 23.1274 9.38144ZM23.1274 9.38144C23.175 9.38172 23.2135 9.33632 23.2066 9.29353C23.2021 9.25157 23.1645 9.22085 23.1274 9.22277C23.0902 9.22085 23.0525 9.25143 23.048 9.29353C23.0412 9.33632 23.0798 9.38172 23.1274 9.38144Z" fill="#37474F"/>
<path d="M23.1274 10.357C23.081 10.3592 23.0352 10.3203 23.031 10.2691C23.024 10.2173 23.0706 10.1637 23.1274 10.1641C23.1841 10.1635 23.2309 10.2171 23.2239 10.2691C23.2195 10.3204 23.1737 10.3592 23.1274 10.357ZM23.1274 10.357C23.175 10.3573 23.2135 10.3119 23.2066 10.2691C23.2021 10.2272 23.1645 10.1964 23.1274 10.1984C23.0902 10.1964 23.0525 10.227 23.048 10.2691C23.0412 10.3119 23.0798 10.3573 23.1274 10.357Z" fill="#37474F"/>
<path d="M23.1274 11.3326C23.081 11.3348 23.0352 11.2959 23.031 11.2447C23.024 11.1929 23.0706 11.1392 23.1274 11.1397C23.1841 11.1391 23.2309 11.1927 23.2239 11.2447C23.2195 11.2959 23.1737 11.3348 23.1274 11.3326ZM23.1274 11.3326C23.175 11.3329 23.2135 11.2875 23.2066 11.2447C23.2021 11.2027 23.1645 11.172 23.1274 11.1739C23.0902 11.172 23.0525 11.2027 23.048 11.2447C23.0412 11.2875 23.0798 11.3329 23.1274 11.3326Z" fill="#37474F"/>
<path d="M23.1274 12.3082C23.081 12.3104 23.0352 12.2714 23.031 12.2203C23.024 12.1684 23.0706 12.1148 23.1274 12.1152C23.1841 12.1147 23.2309 12.1683 23.2239 12.2203C23.2195 12.2714 23.1737 12.3104 23.1274 12.3082ZM23.1274 12.3082C23.175 12.3085 23.2135 12.2631 23.2066 12.2203C23.2021 12.1783 23.1645 12.1476 23.1274 12.1495C23.0902 12.1476 23.0525 12.1783 23.048 12.2203C23.0412 12.2631 23.0798 12.3083 23.1274 12.3082Z" fill="#37474F"/>
<path d="M23.1274 13.2838C23.081 13.286 23.0352 13.247 23.031 13.1959C23.024 13.144 23.0706 13.0904 23.1274 13.0908C23.1841 13.0903 23.2309 13.1439 23.2239 13.1959C23.2195 13.247 23.1737 13.286 23.1274 13.2838ZM23.1274 13.2838C23.175 13.2841 23.2135 13.2387 23.2066 13.1959C23.2021 13.1539 23.1645 13.1232 23.1274 13.1251C23.0902 13.1232 23.0525 13.1539 23.048 13.1959C23.0412 13.2387 23.0798 13.2839 23.1274 13.2838Z" fill="#37474F"/>
<path d="M18.6322 7.43125C18.5859 7.43344 18.5401 7.39449 18.5358 7.34334C18.5288 7.2915 18.5755 7.23787 18.6322 7.23829C18.689 7.23774 18.7358 7.29136 18.7288 7.34334C18.7244 7.39463 18.6786 7.43358 18.6322 7.43125ZM18.6322 7.43125C18.6798 7.43152 18.7184 7.38613 18.7115 7.34334C18.707 7.30137 18.6694 7.27065 18.6322 7.27257C18.5951 7.27065 18.5574 7.30124 18.5528 7.34334C18.5461 7.38627 18.5847 7.43152 18.6322 7.43125Z" fill="#37474F"/>
<path d="M18.6322 8.4067C18.5859 8.40889 18.5401 8.36994 18.5358 8.31879C18.5288 8.26695 18.5755 8.21332 18.6322 8.21387C18.689 8.21332 18.7358 8.26695 18.7288 8.31879C18.7244 8.37008 18.6786 8.40889 18.6322 8.4067ZM18.6322 8.4067C18.6798 8.40697 18.7184 8.36158 18.7115 8.31879C18.707 8.27682 18.6694 8.2461 18.6322 8.24802C18.5951 8.2461 18.5574 8.27682 18.5528 8.31879C18.5461 8.36158 18.5847 8.40697 18.6322 8.4067Z" fill="#37474F"/>
<path d="M18.6322 6.45566C18.5859 6.45786 18.5401 6.41891 18.5358 6.36775C18.5288 6.31591 18.5755 6.26229 18.6322 6.2627C18.689 6.26215 18.7358 6.31578 18.7288 6.36775C18.7244 6.41891 18.6786 6.45786 18.6322 6.45566ZM18.6322 6.45566C18.6798 6.45594 18.7184 6.41054 18.7115 6.36775C18.707 6.32579 18.6694 6.29507 18.6322 6.29699C18.5951 6.29507 18.5574 6.32565 18.5528 6.36775C18.5461 6.41054 18.5847 6.45594 18.6322 6.45566Z" fill="#37474F"/>
<path d="M18.6322 9.38144C18.5859 9.38364 18.5401 9.34469 18.5358 9.29353C18.5288 9.24169 18.5755 9.18807 18.6322 9.18848C18.689 9.18793 18.7358 9.24156 18.7288 9.29353C18.7244 9.34483 18.6786 9.38364 18.6322 9.38144ZM18.6322 9.38144C18.6798 9.38172 18.7184 9.33632 18.7115 9.29353C18.707 9.25157 18.6694 9.22085 18.6322 9.22277C18.5951 9.22085 18.5574 9.25143 18.5528 9.29353C18.5461 9.33632 18.5847 9.38172 18.6322 9.38144Z" fill="#37474F"/>
<path d="M18.6322 10.357C18.5859 10.3592 18.5401 10.3203 18.5358 10.2691C18.5288 10.2173 18.5755 10.1637 18.6322 10.1641C18.689 10.1635 18.7358 10.2171 18.7288 10.2691C18.7244 10.3204 18.6786 10.3592 18.6322 10.357ZM18.6322 10.357C18.6798 10.3573 18.7184 10.3119 18.7115 10.2691C18.707 10.2272 18.6694 10.1964 18.6322 10.1984C18.5951 10.1964 18.5574 10.227 18.5528 10.2691C18.5461 10.3119 18.5847 10.3573 18.6322 10.357Z" fill="#37474F"/>
<path d="M18.6322 11.3326C18.5859 11.3348 18.5401 11.2959 18.5358 11.2447C18.5288 11.1929 18.5755 11.1392 18.6322 11.1397C18.689 11.1391 18.7358 11.1927 18.7288 11.2447C18.7244 11.2959 18.6786 11.3348 18.6322 11.3326ZM18.6322 11.3326C18.6798 11.3329 18.7184 11.2875 18.7115 11.2447C18.707 11.2027 18.6694 11.172 18.6322 11.1739C18.5951 11.172 18.5574 11.2027 18.5528 11.2447C18.5461 11.2875 18.5847 11.3329 18.6322 11.3326Z" fill="#37474F"/>
<path d="M18.6322 12.3082C18.5859 12.3104 18.5401 12.2714 18.5358 12.2203C18.5288 12.1684 18.5755 12.1148 18.6322 12.1152C18.689 12.1147 18.7358 12.1683 18.7288 12.2203C18.7244 12.2714 18.6786 12.3104 18.6322 12.3082ZM18.6322 12.3082C18.6798 12.3085 18.7184 12.2631 18.7115 12.2203C18.707 12.1783 18.6694 12.1476 18.6322 12.1495C18.5951 12.1476 18.5574 12.1783 18.5528 12.2203C18.5461 12.2631 18.5847 12.3083 18.6322 12.3082Z" fill="#37474F"/>
<path d="M18.6322 13.2838C18.5859 13.286 18.5401 13.247 18.5358 13.1959C18.5288 13.144 18.5755 13.0904 18.6322 13.0908C18.689 13.0903 18.7358 13.1439 18.7288 13.1959C18.7244 13.247 18.6786 13.286 18.6322 13.2838ZM18.6322 13.2838C18.6798 13.2841 18.7184 13.2387 18.7115 13.1959C18.707 13.1539 18.6694 13.1232 18.6322 13.1251C18.5951 13.1232 18.5574 13.1539 18.5528 13.1959C18.5461 13.2387 18.5847 13.2839 18.6322 13.2838Z" fill="#37474F"/>
<path d="M14.1381 7.43125C14.0917 7.43344 14.0459 7.39449 14.0417 7.34334C14.0347 7.2915 14.0813 7.23787 14.1381 7.23829C14.1949 7.23774 14.2417 7.29136 14.2347 7.34334C14.2303 7.39463 14.1845 7.43358 14.1381 7.43125ZM14.1381 7.43125C14.1857 7.43152 14.2242 7.38613 14.2174 7.34334C14.2128 7.30137 14.1753 7.27065 14.1381 7.27257C14.1009 7.27065 14.0632 7.30124 14.0588 7.34334C14.052 7.38627 14.0905 7.43152 14.1381 7.43125Z" fill="#37474F"/>
<path d="M14.1381 8.40586C14.0917 8.40805 14.0459 8.3691 14.0417 8.31795C14.0347 8.26611 14.0813 8.21249 14.1381 8.2129C14.1949 8.21221 14.2417 8.26597 14.2347 8.31781C14.2303 8.36924 14.1845 8.40805 14.1381 8.40586ZM14.1381 8.40586C14.1857 8.40613 14.2242 8.36074 14.2174 8.31795C14.2128 8.27598 14.1753 8.24526 14.1381 8.24718C14.1009 8.24526 14.0632 8.27598 14.0588 8.31795C14.052 8.36074 14.0905 8.40613 14.1381 8.40586Z" fill="#37474F"/>
<path d="M14.1381 6.45553C14.0917 6.45772 14.0459 6.41877 14.0417 6.36762C14.0347 6.31578 14.0813 6.26215 14.1381 6.2627C14.1949 6.26202 14.2417 6.31578 14.2347 6.36762C14.2303 6.41877 14.1845 6.45772 14.1381 6.45553ZM14.1381 6.45553C14.1857 6.4558 14.2242 6.41041 14.2174 6.36762C14.2128 6.32565 14.1753 6.29493 14.1381 6.29685C14.1009 6.29493 14.0632 6.32551 14.0588 6.36762C14.052 6.41041 14.0905 6.4558 14.1381 6.45553Z" fill="#37474F"/>
<path d="M14.1381 9.38144C14.0917 9.38364 14.0459 9.34469 14.0417 9.29353C14.0347 9.24169 14.0813 9.18807 14.1381 9.18848C14.1949 9.18793 14.2417 9.24156 14.2347 9.29353C14.2303 9.34483 14.1845 9.38364 14.1381 9.38144ZM14.1381 9.38144C14.1857 9.38172 14.2242 9.33632 14.2174 9.29353C14.2128 9.25157 14.1753 9.22085 14.1381 9.22277C14.1009 9.22085 14.0632 9.25143 14.0588 9.29353C14.052 9.33632 14.0905 9.38172 14.1381 9.38144Z" fill="#37474F"/>
<path d="M14.1381 10.357C14.0917 10.3592 14.0459 10.3203 14.0417 10.2691C14.0347 10.2173 14.0813 10.1637 14.1381 10.1641C14.1949 10.1635 14.2417 10.2171 14.2347 10.2691C14.2303 10.3204 14.1845 10.3592 14.1381 10.357ZM14.1381 10.357C14.1857 10.3573 14.2242 10.3119 14.2174 10.2691C14.2128 10.2272 14.1753 10.1964 14.1381 10.1984C14.1009 10.1964 14.0632 10.227 14.0588 10.2691C14.052 10.3119 14.0905 10.3573 14.1381 10.357Z" fill="#37474F"/>
<path d="M14.1381 11.3326C14.0917 11.3348 14.0459 11.2959 14.0417 11.2447C14.0347 11.1929 14.0813 11.1392 14.1381 11.1397C14.1949 11.1391 14.2417 11.1927 14.2347 11.2447C14.2303 11.2959 14.1845 11.3348 14.1381 11.3326ZM14.1381 11.3326C14.1857 11.3329 14.2242 11.2875 14.2174 11.2447C14.2128 11.2027 14.1753 11.172 14.1381 11.1739C14.1009 11.172 14.0632 11.2027 14.0588 11.2447C14.052 11.2875 14.0905 11.3329 14.1381 11.3326Z" fill="#37474F"/>
<path d="M14.1381 12.3082C14.0917 12.3104 14.0459 12.2714 14.0417 12.2203C14.0347 12.1684 14.0813 12.1148 14.1381 12.1152C14.1949 12.1147 14.2417 12.1683 14.2347 12.2203C14.2303 12.2714 14.1845 12.3104 14.1381 12.3082ZM14.1381 12.3082C14.1857 12.3085 14.2242 12.2631 14.2174 12.2203C14.2128 12.1783 14.1753 12.1476 14.1381 12.1495C14.1009 12.1476 14.0632 12.1783 14.0588 12.2203C14.052 12.2631 14.0905 12.3085 14.1381 12.3082Z" fill="#37474F"/>
<path d="M14.1381 13.2838C14.0917 13.286 14.0459 13.247 14.0417 13.1959C14.0347 13.144 14.0813 13.0904 14.1381 13.0908C14.1949 13.0903 14.2417 13.1439 14.2347 13.1959C14.2303 13.247 14.1845 13.286 14.1381 13.2838ZM14.1381 13.2838C14.1857 13.2841 14.2242 13.2387 14.2174 13.1959C14.2128 13.1539 14.1753 13.1232 14.1381 13.1251C14.1009 13.1232 14.0632 13.1539 14.0588 13.1959C14.052 13.2387 14.0905 13.2839 14.1381 13.2838Z" fill="#37474F"/>
<path d="M39.4395 9.78189C39.4112 9.70989 39.3425 9.6645 39.2871 9.61375C39.2278 9.56507 39.1667 9.51885 39.1043 9.47428C38.9797 9.38486 38.8518 9.30024 38.7218 9.21905C38.4623 9.05571 38.1953 8.90457 37.9243 8.76139C37.3819 8.476 36.8212 8.22392 36.2433 8.02108C35.6662 7.81921 35.0689 7.66053 34.4587 7.61747C34.1547 7.59909 33.8465 7.61075 33.5401 7.60814L32.62 7.60951L25.2586 7.62103L17.8972 7.60965L14.2165 7.60361L10.5358 7.58688L14.2165 7.57015L17.8972 7.56412L25.2586 7.55273L32.62 7.56425L33.5401 7.56562C33.8471 7.56933 34.153 7.55849 34.4614 7.57797C35.0767 7.6235 35.6763 7.78423 36.2544 7.98968C36.8323 8.19841 37.3916 8.45611 37.9321 8.74672C38.2021 8.89264 38.4681 9.04625 38.7262 9.21206C38.8555 9.29448 38.9828 9.38033 39.1066 9.47099C39.1686 9.51611 39.2295 9.56301 39.2882 9.61225C39.3436 9.6634 39.4119 9.70948 39.4395 9.78189Z" fill="#37474F"/>
<path d="M39.4395 9.76758C39.4117 9.83999 39.3435 9.88594 39.2885 9.93736C39.2296 9.9866 39.1689 10.0335 39.1069 10.0786C38.983 10.1693 38.8558 10.255 38.7264 10.3376C38.4682 10.5035 38.2024 10.6571 37.9324 10.8029C37.3919 11.0935 36.8327 11.3512 36.2547 11.5599C35.6766 11.7654 35.077 11.9261 34.4616 11.9716C34.1532 11.9911 33.8474 11.9803 33.5404 11.984L32.6203 11.9854L25.2589 11.9969L17.8975 11.9855L14.2168 11.9795L10.5361 11.9627L14.2168 11.946L17.8975 11.94L25.2589 11.9286L32.6203 11.9401L33.5404 11.9415C33.8468 11.9389 34.155 11.9504 34.459 11.9321C35.0692 11.8892 35.6664 11.7304 36.2436 11.5285C36.8215 11.3257 37.382 11.0736 37.9245 10.7882C38.1955 10.645 38.4626 10.4939 38.722 10.3306C38.8521 10.2494 38.98 10.1648 39.1045 10.0753C39.1669 10.0309 39.2281 9.98454 39.2874 9.93586C39.3426 9.88498 39.4112 9.83958 39.4395 9.76758Z" fill="#37474F"/>
<path d="M29.5207 6.0571C28.421 6.0571 10.5372 6.0571 10.5372 6.0571L10.5372 3.09435C10.5372 3.09435 28.421 3.09435 29.5207 3.09435C30.6206 3.09435 31.2586 3.01988 32.184 3.67503C32.9896 4.24569 33.0957 4.47061 33.0957 4.5758C33.0957 4.68099 32.9896 4.90632 32.184 5.47657C31.2586 6.13157 30.6206 6.0571 29.5207 6.0571Z" fill="#004AB8"/>
<path d="M30.0039 6.66423L30.0039 6.05078L29.7543 6.05078L29.7543 6.66423L30.0039 6.66423Z" fill="#37474F"/>
<path d="M27.6582 6.66423L27.6582 6.05078L27.4086 6.05078L27.4086 6.66423L27.6582 6.66423Z" fill="#37474F"/>
<path d="M25.3135 6.66423L25.3135 6.05078L25.0639 6.05078L25.0639 6.66423L25.3135 6.66423Z" fill="#37474F"/>
<path d="M22.9687 6.66423L22.9688 6.05078L22.7191 6.05078L22.7191 6.66423L22.9687 6.66423Z" fill="#37474F"/>
<path d="M30.9677 3.14746C30.9959 3.62349 30.9978 4.09966 31.002 4.57583C30.998 5.05186 30.9962 5.52803 30.9677 6.0042C30.9391 5.52803 30.9374 5.052 30.9334 4.57583C30.9375 4.09966 30.9393 3.62349 30.9677 3.14746Z" fill="#263238"/>
<path d="M28.6571 3.0918C28.6855 3.58648 28.6873 4.08103 28.6914 4.57571C28.6874 5.07039 28.6856 5.56494 28.6571 6.05962C28.6286 5.56494 28.6268 5.07039 28.6228 4.57571C28.6269 4.08103 28.6287 3.58648 28.6571 3.0918Z" fill="#263238"/>
<path d="M26.0839 3.0918C26.1123 3.58648 26.114 4.08103 26.1182 4.57571C26.1142 5.07039 26.1124 5.56494 26.0839 6.05962C26.0554 5.56494 26.0536 5.07039 26.0496 4.57571C26.0537 4.08103 26.0555 3.58648 26.0839 3.0918Z" fill="#263238"/>
<path d="M23.5116 3.0918C23.5399 3.58648 23.5418 4.08103 23.5459 4.57571C23.5419 5.07039 23.5401 5.56494 23.5116 6.05962C23.4831 5.56494 23.4813 5.07039 23.4773 4.57571C23.4814 4.08103 23.4834 3.58648 23.5116 3.0918Z" fill="#263238"/>
<path d="M20.9384 3.0918C20.9666 3.58648 20.9685 4.08103 20.9727 4.57571C20.9687 5.07039 20.9669 5.56494 20.9384 6.05962C20.9098 5.56494 20.9081 5.07039 20.9041 4.57571C20.9082 4.08103 20.9101 3.58648 20.9384 3.0918Z" fill="#263238"/>
<path d="M18.3661 3.0918C18.3945 3.58648 18.3963 4.08103 18.4004 4.57571C18.3964 5.07039 18.3946 5.56494 18.3661 6.05962C18.3376 5.56494 18.3358 5.07039 18.3318 4.57571C18.3359 4.08103 18.3377 3.58648 18.3661 3.0918Z" fill="#263238"/>
<path d="M15.7929 3.0918C15.8213 3.58648 15.823 4.08103 15.8271 4.57571C15.8232 5.07039 15.8215 5.56494 15.7929 6.05962C15.7643 5.56494 15.7626 5.07039 15.7586 4.57571C15.7627 4.08103 15.7645 3.58648 15.7929 3.0918Z" fill="#263238"/>
<path d="M13.2206 3.0918C13.249 3.58648 13.2508 4.08103 13.2549 4.57571C13.2509 5.07039 13.2491 5.56494 13.2206 6.05962C13.1921 5.56494 13.1903 5.07039 13.1863 4.57571C13.1904 4.08103 13.1923 3.58648 13.2206 3.0918Z" fill="#263238"/>
<path d="M29.4935 5.21157L29.475 4.58289C29.4706 4.36991 29.4635 4.15472 29.4633 3.93886L29.4633 3.90882L29.4935 3.90869L30.1178 3.90457L30.1523 3.9043L30.1521 3.93872C30.1492 4.36291 30.1486 4.78724 30.1378 5.21143L30.1373 5.23159L30.1178 5.23132C29.9041 5.22857 29.6961 5.21568 29.4935 5.21157ZM29.4935 5.21157C29.7072 5.20745 29.9152 5.19456 30.1178 5.19168L30.0979 5.21157C30.0871 4.78738 30.0865 4.36305 30.0836 3.93886L30.1179 3.97314L29.4936 3.96903L29.5238 3.93886C29.5238 4.14718 29.5165 4.35633 29.5121 4.56753L29.4935 5.21157Z" fill="#263238"/>
<path d="M30.7739 4.66427C30.7292 4.66495 30.6783 4.63313 30.669 4.57635C30.6568 4.52095 30.7063 4.45196 30.7739 4.45416C30.8415 4.45183 30.8913 4.52067 30.879 4.57635C30.8696 4.63327 30.8185 4.66495 30.7739 4.66427ZM30.7739 4.66427C30.8232 4.66605 30.8565 4.61352 30.8446 4.57635C30.8347 4.53795 30.8003 4.52259 30.7739 4.52273C30.7476 4.52259 30.7129 4.53782 30.7032 4.57635C30.6912 4.61352 30.7247 4.66605 30.7739 4.66427Z" fill="#263238"/>
<path d="M30.7739 5.63985C30.7292 5.64054 30.6783 5.60872 30.669 5.55194C30.6568 5.49654 30.7063 5.42755 30.7739 5.42975C30.8415 5.42741 30.8913 5.49626 30.879 5.55194C30.8696 5.60886 30.8185 5.64054 30.7739 5.63985ZM30.7739 5.63985C30.8232 5.64164 30.8565 5.58911 30.8446 5.55194C30.8347 5.51354 30.8003 5.49818 30.7739 5.49832C30.7476 5.49818 30.7129 5.5134 30.7032 5.55194C30.6912 5.58911 30.7247 5.64164 30.7739 5.63985Z" fill="#263238"/>
<path d="M30.7739 3.68868C30.7292 3.68937 30.6783 3.65755 30.669 3.60077C30.6568 3.54536 30.7063 3.47638 30.7739 3.47857C30.8415 3.47624 30.8913 3.54509 30.879 3.60077C30.8696 3.65769 30.8185 3.68937 30.7739 3.68868ZM30.7739 3.68868C30.8232 3.69046 30.8565 3.63794 30.8446 3.60077C30.8347 3.56237 30.8003 3.54701 30.7739 3.54715C30.7476 3.54701 30.7129 3.56223 30.7032 3.60077C30.6912 3.63807 30.7247 3.69046 30.7739 3.68868Z" fill="#263238"/>
<path d="M28.434 4.66427C28.3893 4.66495 28.3385 4.63313 28.3291 4.57635C28.3169 4.52095 28.3664 4.45196 28.434 4.45416C28.5017 4.45183 28.5516 4.52067 28.5391 4.57635C28.5298 4.63327 28.4786 4.66495 28.434 4.66427ZM28.434 4.66427C28.4833 4.66605 28.5166 4.61352 28.5047 4.57635C28.4948 4.53795 28.4604 4.52259 28.434 4.52273C28.4077 4.52259 28.373 4.53782 28.3633 4.57635C28.3513 4.61352 28.3848 4.66605 28.434 4.66427Z" fill="#263238"/>
<path d="M28.434 5.63985C28.3893 5.64054 28.3385 5.60872 28.3291 5.55194C28.3169 5.49654 28.3664 5.42755 28.434 5.42975C28.5017 5.42741 28.5516 5.49626 28.5391 5.55194C28.5298 5.60886 28.4786 5.64054 28.434 5.63985ZM28.434 5.63985C28.4833 5.64164 28.5166 5.58911 28.5047 5.55194C28.4948 5.51354 28.4604 5.49818 28.434 5.49832C28.4077 5.49818 28.373 5.5134 28.3633 5.55194C28.3513 5.58911 28.3848 5.64164 28.434 5.63985Z" fill="#263238"/>
<path d="M28.4341 3.68868C28.3894 3.68937 28.3385 3.65755 28.3292 3.60077C28.317 3.54536 28.3665 3.47638 28.4341 3.47857C28.5017 3.47624 28.5515 3.54509 28.5391 3.60077C28.5298 3.65769 28.4786 3.68937 28.4341 3.68868ZM28.4341 3.68868C28.4833 3.69046 28.5166 3.63794 28.5047 3.60077C28.4948 3.56237 28.4604 3.54701 28.4341 3.54715C28.4077 3.54701 28.373 3.56223 28.3633 3.60077C28.3514 3.63807 28.3848 3.69046 28.4341 3.68868Z" fill="#263238"/>
<path d="M25.8511 4.66427C25.8064 4.66496 25.7555 4.63314 25.7462 4.57636C25.7339 4.52095 25.7835 4.45197 25.8511 4.45417C25.9187 4.4517 25.9685 4.52068 25.9561 4.57636C25.9468 4.63328 25.8956 4.66496 25.8511 4.66427ZM25.8511 4.66427C25.9003 4.66606 25.9336 4.61353 25.9217 4.57636C25.9118 4.53796 25.8774 4.5226 25.8511 4.52274C25.8247 4.5226 25.79 4.53782 25.7803 4.57636C25.7684 4.61366 25.8017 4.66606 25.8511 4.66427Z" fill="#263238"/>
<path d="M25.8511 5.63985C25.8064 5.64054 25.7555 5.60872 25.7462 5.55194C25.7339 5.49654 25.7835 5.42755 25.8511 5.42975C25.9187 5.42741 25.9685 5.49626 25.9561 5.55194C25.9468 5.60872 25.8956 5.64054 25.8511 5.63985ZM25.8511 5.63985C25.9003 5.64164 25.9336 5.58911 25.9217 5.55194C25.9118 5.51354 25.8774 5.49818 25.8511 5.49832C25.8247 5.49818 25.79 5.5134 25.7803 5.55194C25.7684 5.58911 25.8017 5.64164 25.8511 5.63985Z" fill="#263238"/>
<path d="M25.8511 3.68868C25.8064 3.68937 25.7555 3.65755 25.7462 3.60077C25.7339 3.54536 25.7835 3.47638 25.8511 3.47857C25.9187 3.47624 25.9685 3.54509 25.9561 3.60077C25.9468 3.65769 25.8956 3.68937 25.8511 3.68868ZM25.8511 3.68868C25.9003 3.69046 25.9336 3.63794 25.9217 3.60077C25.9118 3.56237 25.8774 3.54701 25.8511 3.54715C25.8247 3.54701 25.79 3.56223 25.7803 3.60077C25.7684 3.63807 25.8017 3.69046 25.8511 3.68868Z" fill="#263238"/>
<path d="M23.268 4.66427C23.2233 4.66496 23.1724 4.63314 23.1631 4.57636C23.1509 4.52095 23.2004 4.45197 23.268 4.45417C23.3356 4.4517 23.3856 4.52068 23.3731 4.57636C23.3638 4.63328 23.3127 4.66496 23.268 4.66427ZM23.268 4.66427C23.3173 4.66606 23.3506 4.61353 23.3387 4.57636C23.3288 4.53796 23.2944 4.5226 23.268 4.52274C23.2417 4.5226 23.207 4.53782 23.1973 4.57636C23.1855 4.61353 23.2188 4.66606 23.268 4.66427Z" fill="#263238"/>
<path d="M23.268 5.63985C23.2233 5.64054 23.1724 5.60872 23.1631 5.55194C23.1509 5.49654 23.2004 5.42755 23.268 5.42975C23.3356 5.42741 23.3856 5.49626 23.3731 5.55194C23.3638 5.60886 23.3127 5.64054 23.268 5.63985ZM23.268 5.63985C23.3173 5.64164 23.3506 5.58911 23.3387 5.55194C23.3288 5.51354 23.2944 5.49818 23.268 5.49832C23.2417 5.49818 23.207 5.5134 23.1973 5.55194C23.1855 5.58911 23.2188 5.64164 23.268 5.63985Z" fill="#263238"/>
<path d="M23.268 3.68868C23.2233 3.68937 23.1724 3.65755 23.1631 3.60077C23.1509 3.54536 23.2004 3.47638 23.268 3.47857C23.3356 3.47624 23.3856 3.54509 23.3731 3.60077C23.3638 3.65769 23.3127 3.68937 23.268 3.68868ZM23.268 3.68868C23.3173 3.69046 23.3506 3.63794 23.3387 3.60077C23.3288 3.56237 23.2944 3.54701 23.268 3.54715C23.2417 3.54701 23.207 3.56223 23.1973 3.60077C23.1855 3.63807 23.2188 3.69046 23.268 3.68868Z" fill="#263238"/>
<path d="M20.6831 4.66427C20.6384 4.66496 20.5875 4.63314 20.5782 4.57636C20.5659 4.52095 20.6155 4.45197 20.6831 4.45417C20.7507 4.4517 20.8006 4.52068 20.7881 4.57636C20.7788 4.63328 20.7278 4.66496 20.6831 4.66427ZM20.6831 4.66427C20.7323 4.66606 20.7656 4.61353 20.7537 4.57636C20.7438 4.53796 20.7094 4.5226 20.6831 4.52274C20.6567 4.5226 20.622 4.53782 20.6123 4.57636C20.6005 4.61366 20.6338 4.66606 20.6831 4.66427Z" fill="#263238"/>
<path d="M20.6831 5.63985C20.6384 5.64054 20.5875 5.60872 20.5782 5.55194C20.5659 5.49654 20.6155 5.42755 20.6831 5.42975C20.7507 5.42741 20.8006 5.49626 20.7881 5.55194C20.7788 5.60886 20.7278 5.64054 20.6831 5.63985ZM20.6831 5.63985C20.7323 5.64164 20.7656 5.58911 20.7537 5.55194C20.7438 5.51354 20.7094 5.49818 20.6831 5.49832C20.6567 5.49818 20.622 5.5134 20.6123 5.55194C20.6005 5.58911 20.6338 5.64164 20.6831 5.63985Z" fill="#263238"/>
<path d="M20.6831 3.68868C20.6384 3.68937 20.5875 3.65755 20.5782 3.60077C20.5659 3.54536 20.6155 3.47638 20.6831 3.47857C20.7507 3.47624 20.8006 3.54509 20.7881 3.60077C20.7788 3.65769 20.7278 3.68937 20.6831 3.68868ZM20.6831 3.68868C20.7323 3.69046 20.7656 3.63794 20.7537 3.60077C20.7438 3.56237 20.7094 3.54701 20.6831 3.54715C20.6567 3.54701 20.622 3.56223 20.6123 3.60077C20.6005 3.63807 20.6338 3.69046 20.6831 3.68868Z" fill="#263238"/>
<path d="M18.1001 4.66427C18.0553 4.66495 18.0045 4.63313 17.9951 4.57635C17.9829 4.52095 18.0324 4.45196 18.1001 4.45416C18.1677 4.45183 18.2176 4.52067 18.2051 4.57635C18.1958 4.63327 18.1448 4.66495 18.1001 4.66427ZM18.1001 4.66427C18.1493 4.66605 18.1826 4.61352 18.1707 4.57635C18.1608 4.53795 18.1264 4.52259 18.1001 4.52273C18.0737 4.52259 18.039 4.53782 18.0293 4.57635C18.0175 4.61352 18.0508 4.66605 18.1001 4.66427Z" fill="#263238"/>
<path d="M18.1001 5.63985C18.0553 5.64054 18.0045 5.60872 17.9951 5.55194C17.9829 5.49654 18.0324 5.42755 18.1001 5.42975C18.1677 5.42741 18.2176 5.49626 18.2051 5.55194C18.1958 5.60886 18.1448 5.64054 18.1001 5.63985ZM18.1001 5.63985C18.1493 5.64164 18.1826 5.58911 18.1707 5.55194C18.1608 5.51354 18.1264 5.49818 18.1001 5.49832C18.0737 5.49818 18.039 5.5134 18.0293 5.55194C18.0175 5.58911 18.0508 5.64164 18.1001 5.63985Z" fill="#263238"/>
<path d="M18.1001 3.68868C18.0553 3.68937 18.0045 3.65755 17.9951 3.60077C17.9829 3.54536 18.0324 3.47638 18.1001 3.47857C18.1677 3.47624 18.2176 3.54509 18.2051 3.60077C18.1958 3.65769 18.1448 3.68937 18.1001 3.68868ZM18.1001 3.68868C18.1493 3.69046 18.1826 3.63794 18.1707 3.60077C18.1608 3.56237 18.1264 3.54701 18.1001 3.54715C18.0737 3.54701 18.039 3.56223 18.0293 3.60077C18.0175 3.63807 18.0508 3.69046 18.1001 3.68868Z" fill="#263238"/>
<path d="M15.5171 4.66427C15.4724 4.66495 15.4215 4.63313 15.4122 4.57635C15.4 4.52095 15.4495 4.45196 15.5171 4.45416C15.5847 4.45183 15.6345 4.52067 15.6221 4.57635C15.6128 4.63327 15.5618 4.66495 15.5171 4.66427ZM15.5171 4.66427C15.5663 4.66605 15.5996 4.61352 15.5877 4.57635C15.5778 4.53795 15.5434 4.52259 15.5171 4.52273C15.4908 4.52259 15.4561 4.53782 15.4463 4.57635C15.4345 4.61352 15.4678 4.66605 15.5171 4.66427Z" fill="#263238"/>
<path d="M15.5171 5.63985C15.4724 5.64054 15.4215 5.60872 15.4122 5.55194C15.4 5.49654 15.4495 5.42755 15.5171 5.42975C15.5847 5.42741 15.6345 5.49626 15.6221 5.55194C15.6128 5.60886 15.5618 5.64054 15.5171 5.63985ZM15.5171 5.63985C15.5663 5.64164 15.5996 5.58911 15.5877 5.55194C15.5778 5.51354 15.5434 5.49818 15.5171 5.49832C15.4908 5.49818 15.4561 5.5134 15.4463 5.55194C15.4345 5.58911 15.4678 5.64164 15.5171 5.63985Z" fill="#263238"/>
<path d="M15.5171 3.68868C15.4724 3.68937 15.4215 3.65755 15.4122 3.60077C15.4 3.54536 15.4495 3.47638 15.5171 3.47857C15.5847 3.47624 15.6345 3.54509 15.6221 3.60077C15.6128 3.65769 15.5618 3.68937 15.5171 3.68868ZM15.5171 3.68868C15.5663 3.69046 15.5996 3.63794 15.5877 3.60077C15.5778 3.56237 15.5434 3.54701 15.5171 3.54715C15.4908 3.54701 15.4561 3.56223 15.4463 3.60077C15.4345 3.63807 15.4678 3.69046 15.5171 3.68868Z" fill="#263238"/>
<path d="M12.934 4.66427C12.8893 4.66496 12.8385 4.63314 12.8291 4.57636C12.8169 4.52095 12.8664 4.45197 12.934 4.45417C13.0017 4.4517 13.0516 4.52068 13.0391 4.57636C13.0298 4.63328 12.9788 4.66496 12.934 4.66427ZM12.934 4.66427C12.9833 4.66606 13.0166 4.61353 13.0047 4.57636C12.9948 4.53796 12.9604 4.5226 12.934 4.52274C12.9077 4.5226 12.873 4.53782 12.8633 4.57636C12.8513 4.61366 12.8848 4.66606 12.934 4.66427Z" fill="#263238"/>
<path d="M12.934 5.63985C12.8893 5.64054 12.8385 5.60872 12.8291 5.55194C12.8169 5.49654 12.8664 5.42755 12.934 5.42975C13.0017 5.42741 13.0516 5.49626 13.0391 5.55194C13.0298 5.60872 12.9788 5.64054 12.934 5.63985ZM12.934 5.63985C12.9833 5.64164 13.0166 5.58911 13.0047 5.55194C12.9948 5.51354 12.9604 5.49818 12.934 5.49832C12.9077 5.49818 12.873 5.5134 12.8633 5.55194C12.8513 5.58911 12.8848 5.64164 12.934 5.63985Z" fill="#263238"/>
<path d="M12.934 3.68868C12.8893 3.68937 12.8385 3.65755 12.8291 3.60077C12.8169 3.54536 12.8664 3.47638 12.934 3.47857C13.0017 3.47624 13.0516 3.54509 13.0391 3.60077C13.0298 3.65769 12.9788 3.68937 12.934 3.68868ZM12.934 3.68868C12.9833 3.69046 13.0166 3.63794 13.0047 3.60077C12.9948 3.56237 12.9604 3.54701 12.934 3.54715C12.9077 3.54701 12.873 3.56223 12.8633 3.60077C12.8513 3.63807 12.8848 3.69046 12.934 3.68868Z" fill="#263238"/>
<path d="M31.7071 3.99986C31.678 3.99986 31.6544 3.97627 31.6544 3.94719C31.6544 3.91812 31.678 3.89453 31.7071 3.89453C31.7362 3.89453 31.7598 3.91812 31.7598 3.94719C31.7598 3.97627 31.7362 3.99986 31.7071 3.99986Z" fill="#263238"/>
<path d="M31.4151 4.20884C31.386 4.20884 31.3624 4.18525 31.3624 4.15618C31.3624 4.1271 31.386 4.10352 31.4151 4.10352C31.4442 4.10352 31.4678 4.1271 31.4678 4.15618C31.4678 4.18525 31.4442 4.20884 31.4151 4.20884Z" fill="#263238"/>
<path d="M31.4151 4.62876C31.386 4.62876 31.3624 4.60517 31.3624 4.5761C31.3624 4.54702 31.386 4.52344 31.4151 4.52344C31.4442 4.52344 31.4678 4.54702 31.4678 4.5761C31.4678 4.60517 31.4442 4.62876 31.4151 4.62876Z" fill="#263238"/>
<path d="M31.4151 5.04771C31.386 5.04771 31.3624 5.02412 31.3624 4.99505C31.3624 4.96597 31.386 4.94238 31.4151 4.94238C31.4442 4.94238 31.4678 4.96597 31.4678 4.99505C31.4678 5.02426 31.4442 5.04771 31.4151 5.04771Z" fill="#263238"/>
<path d="M31.7071 4.4188C31.678 4.4188 31.6544 4.39521 31.6544 4.36614C31.6544 4.33706 31.678 4.31348 31.7071 4.31348C31.7362 4.31348 31.7598 4.33706 31.7598 4.36614C31.7596 4.39521 31.7362 4.4188 31.7071 4.4188Z" fill="#263238"/>
<path d="M31.7071 4.83775C31.678 4.83775 31.6544 4.81416 31.6544 4.78508C31.6544 4.75601 31.678 4.73242 31.7071 4.73242C31.7362 4.73242 31.7598 4.75601 31.7598 4.78508C31.7596 4.81416 31.7362 4.83775 31.7071 4.83775Z" fill="#263238"/>
<path d="M31.7071 5.2567C31.678 5.2567 31.6544 5.23311 31.6544 5.20403C31.6544 5.17496 31.678 5.15137 31.7071 5.15137C31.7362 5.15137 31.7598 5.17496 31.7598 5.20403C31.7596 5.23324 31.7362 5.2567 31.7071 5.2567Z" fill="#263238"/>
<path d="M29.8059 4.20884C29.7768 4.20884 29.7532 4.18525 29.7532 4.15618C29.7532 4.1271 29.7768 4.10352 29.8059 4.10352C29.8349 4.10352 29.8584 4.1271 29.8584 4.15618C29.8585 4.18525 29.8349 4.20884 29.8059 4.20884Z" fill="#263238"/>
<path d="M29.8059 4.62779C29.7768 4.62779 29.7532 4.6042 29.7532 4.57512C29.7532 4.54605 29.7768 4.52246 29.8059 4.52246C29.8349 4.52246 29.8584 4.54605 29.8584 4.57512C29.8585 4.6042 29.8349 4.62779 29.8059 4.62779Z" fill="#263238"/>
<path d="M29.8059 5.04673C29.7768 5.04673 29.7532 5.02315 29.7532 4.99407C29.7532 4.965 29.7768 4.94141 29.8059 4.94141C29.8349 4.94141 29.8584 4.965 29.8584 4.99407C29.8585 5.02328 29.8349 5.04673 29.8059 5.04673Z" fill="#263238"/>
<path d="M30.0029 3.09241L30.0029 2.56934L28.8272 2.56934L28.8272 3.09241L30.0029 3.09241Z" fill="#37474F"/>
<path d="M29.5207 13.5026C28.421 13.5026 10.5372 13.5026 10.5372 13.5026L10.5372 16.4653C10.5372 16.4653 28.421 16.4653 29.5207 16.4653C30.6206 16.4653 31.2586 16.5398 32.184 15.8846C32.9896 15.314 33.0957 15.0891 33.0957 14.9839C33.0957 14.8787 32.9896 14.6534 32.184 14.0831C31.2586 13.428 30.6206 13.5026 29.5207 13.5026Z" fill="#004AB8"/>
<path d="M29.7539 12.8953L29.7539 13.5088L30.0035 13.5088L30.0035 12.8953L29.7539 12.8953Z" fill="#37474F"/>
<path d="M27.4092 12.8953L27.4092 13.5088L27.6588 13.5088L27.6588 12.8953L27.4092 12.8953Z" fill="#37474F"/>
<path d="M25.0645 12.8953L25.0645 13.5088L25.3141 13.5088L25.3141 12.8953L25.0645 12.8953Z" fill="#37474F"/>
<path d="M22.7188 12.8953L22.7188 13.5088L22.9684 13.5088L22.9684 12.8953L22.7188 12.8953Z" fill="#37474F"/>
<path d="M30.9677 16.4112C30.9959 15.9351 30.9978 15.459 31.002 14.9829C30.998 14.5069 30.9962 14.0307 30.9677 13.5547C30.9391 14.0307 30.9374 14.5069 30.9334 14.9829C30.9375 15.459 30.9393 15.9351 30.9677 16.4112Z" fill="#263238"/>
<path d="M28.6571 16.4669C28.6855 15.9722 28.6873 15.4776 28.6914 14.9829C28.6874 14.4883 28.6856 13.9937 28.6571 13.499C28.6286 13.9937 28.6268 14.4883 28.6228 14.9829C28.6269 15.4776 28.6287 15.9722 28.6571 16.4669Z" fill="#263238"/>
<path d="M26.0839 16.4669C26.1123 15.9722 26.114 15.4776 26.1182 14.9829C26.1142 14.4883 26.1124 13.9937 26.0839 13.499C26.0554 13.9937 26.0536 14.4883 26.0496 14.9829C26.0537 15.4776 26.0555 15.9722 26.0839 16.4669Z" fill="#263238"/>
<path d="M23.5116 16.4669C23.5399 15.9722 23.5418 15.4776 23.5459 14.9829C23.5419 14.4883 23.5401 13.9937 23.5116 13.499C23.4831 13.9937 23.4813 14.4883 23.4773 14.9829C23.4814 15.4776 23.4834 15.9722 23.5116 16.4669Z" fill="#263238"/>
<path d="M20.9384 16.4669C20.9666 15.9722 20.9685 15.4776 20.9727 14.9829C20.9687 14.4883 20.9669 13.9937 20.9384 13.499C20.9098 13.9937 20.9081 14.4883 20.9041 14.9829C20.9082 15.4776 20.9101 15.9722 20.9384 16.4669Z" fill="#263238"/>
<path d="M18.3661 16.4669C18.3945 15.9722 18.3963 15.4776 18.4004 14.9829C18.3964 14.4883 18.3946 13.9937 18.3661 13.499C18.3376 13.9937 18.3358 14.4883 18.3318 14.9829C18.3359 15.4776 18.3377 15.9722 18.3661 16.4669Z" fill="#263238"/>
<path d="M15.7929 16.4669C15.8213 15.9722 15.823 15.4776 15.8271 14.9829C15.8232 14.4883 15.8215 13.9937 15.7929 13.499C15.7643 13.9937 15.7626 14.4883 15.7586 14.9829C15.7627 15.4776 15.7645 15.9722 15.7929 16.4669Z" fill="#263238"/>
<path d="M13.2206 16.4669C13.249 15.9722 13.2508 15.4776 13.2549 14.9829C13.2509 14.4883 13.2491 13.9937 13.2206 13.499C13.1921 13.9937 13.1903 14.4883 13.1863 14.9829C13.1904 15.4776 13.1923 15.9722 13.2206 16.4669Z" fill="#263238"/>
<path d="M30.1178 14.3274L30.1373 14.3271L30.1378 14.3473C30.1486 14.7715 30.1492 15.1958 30.1521 15.62L30.1523 15.6544L30.1178 15.6542L29.4935 15.6501L29.4633 15.6499L29.4633 15.6199C29.4633 15.404 29.4706 15.1888 29.475 14.9758L29.4935 14.3472C29.6961 14.3432 29.9041 14.3303 30.1178 14.3274ZM29.5121 14.9913C29.5165 15.2025 29.5237 15.4117 29.5238 15.62L29.4936 15.5898L30.1179 15.5857L30.0836 15.62C30.0865 15.1957 30.0871 14.7715 30.0979 14.3473L30.1178 14.3672C29.9152 14.3642 29.7072 14.3514 29.4935 14.3473L29.5121 14.9913Z" fill="#263238"/>
<path d="M30.879 14.9835C30.8913 15.039 30.8415 15.108 30.7739 15.1057C30.7063 15.108 30.6568 15.039 30.669 14.9835C30.6783 14.9267 30.7292 14.8949 30.7739 14.8956C30.8185 14.8949 30.8696 14.9265 30.879 14.9835ZM30.703 14.9835C30.7128 15.022 30.7476 15.0372 30.7738 15.0371C30.8001 15.0372 30.8345 15.0219 30.8444 14.9835C30.8563 14.9463 30.8232 14.8938 30.7739 14.8956C30.7248 14.8938 30.6912 14.9462 30.703 14.9835Z" fill="#263238"/>
<path d="M30.879 14.0079C30.8913 14.0634 30.8415 14.1324 30.7739 14.1301C30.7063 14.1324 30.6568 14.0634 30.669 14.0079C30.6783 13.9511 30.7292 13.9193 30.7739 13.92C30.8185 13.9193 30.8696 13.951 30.879 14.0079ZM30.703 14.0079C30.7128 14.0464 30.7476 14.0616 30.7738 14.0615C30.8001 14.0616 30.8345 14.0463 30.8444 14.0079C30.8563 13.9707 30.8232 13.9182 30.7739 13.92C30.7248 13.9182 30.6912 13.9707 30.703 14.0079Z" fill="#263238"/>
<path d="M30.879 15.959C30.8913 16.0146 30.8415 16.0835 30.7739 16.0812C30.7063 16.0835 30.6568 16.0144 30.669 15.959C30.6783 15.9022 30.7292 15.8704 30.7739 15.8711C30.8185 15.8706 30.8696 15.9022 30.879 15.959ZM30.703 15.9592C30.7128 15.9977 30.7476 16.0129 30.7738 16.0128C30.8001 16.0129 30.8345 15.9976 30.8444 15.9592C30.8563 15.922 30.823 15.8695 30.7738 15.8712C30.7247 15.8695 30.6912 15.9218 30.703 15.9592Z" fill="#263238"/>
<path d="M28.5391 14.9835C28.5515 15.039 28.5016 15.108 28.4341 15.1057C28.3665 15.108 28.317 15.039 28.3292 14.9835C28.3385 14.9267 28.3894 14.8949 28.4341 14.8956C28.4787 14.8949 28.5298 14.9265 28.5391 14.9835ZM28.3632 14.9835C28.3729 15.022 28.4077 15.0372 28.4339 15.0371C28.4603 15.0372 28.4947 15.0219 28.5046 14.9835C28.5164 14.9464 28.4832 14.8938 28.4339 14.8956C28.3848 14.8938 28.3514 14.9462 28.3632 14.9835Z" fill="#263238"/>
<path d="M28.5391 14.0079C28.5515 14.0634 28.5016 14.1324 28.4341 14.1301C28.3665 14.1324 28.317 14.0634 28.3292 14.0079C28.3385 13.9511 28.3894 13.9193 28.4341 13.92C28.4787 13.9193 28.5298 13.951 28.5391 14.0079ZM28.3632 14.0079C28.3729 14.0464 28.4077 14.0616 28.4339 14.0615C28.4603 14.0616 28.4947 14.0463 28.5046 14.0079C28.5164 13.9708 28.4832 13.9182 28.4339 13.92C28.3848 13.9182 28.3514 13.9707 28.3632 14.0079Z" fill="#263238"/>
<path d="M28.5391 15.959C28.5515 16.0146 28.5016 16.0836 28.4341 16.0812C28.3665 16.0836 28.317 16.0145 28.3292 15.959C28.3385 15.9023 28.3894 15.8705 28.4341 15.8711C28.4787 15.8705 28.5298 15.9021 28.5391 15.959ZM28.3632 15.959C28.3729 15.9976 28.4077 16.0128 28.4339 16.0127C28.4603 16.0128 28.4947 15.9974 28.5046 15.959C28.5164 15.922 28.4832 15.8694 28.4339 15.8711C28.3848 15.8694 28.3514 15.9217 28.3632 15.959Z" fill="#263238"/>
<path d="M25.9561 14.9835C25.9685 15.039 25.9185 15.108 25.8511 15.1057C25.7835 15.108 25.734 15.0389 25.7462 14.9835C25.7555 14.9267 25.8064 14.8949 25.8511 14.8956C25.8956 14.8949 25.9468 14.9265 25.9561 14.9835ZM25.7802 14.9835C25.7899 15.022 25.8247 15.0372 25.8509 15.0371C25.8773 15.0372 25.9117 15.0219 25.9216 14.9835C25.9335 14.9464 25.9003 14.8938 25.8511 14.8956C25.8018 14.8938 25.7684 14.9462 25.7802 14.9835Z" fill="#263238"/>
<path d="M25.9561 14.0079C25.9685 14.0634 25.9185 14.1324 25.8511 14.1301C25.7835 14.1324 25.734 14.0633 25.7462 14.0079C25.7555 13.9511 25.8064 13.9193 25.8511 13.92C25.8956 13.9193 25.9468 13.951 25.9561 14.0079ZM25.7802 14.0079C25.7899 14.0464 25.8247 14.0616 25.8509 14.0615C25.8773 14.0616 25.9117 14.0463 25.9216 14.0079C25.9335 13.9707 25.9003 13.9182 25.8511 13.92C25.8018 13.9182 25.7684 13.9707 25.7802 14.0079Z" fill="#263238"/>
<path d="M25.9561 15.959C25.9685 16.0146 25.9185 16.0836 25.8511 16.0812C25.7835 16.0836 25.734 16.0145 25.7462 15.959C25.7555 15.9023 25.8064 15.8705 25.8511 15.8711C25.8956 15.8705 25.9468 15.9021 25.9561 15.959ZM25.7802 15.959C25.7899 15.9976 25.8247 16.0128 25.8509 16.0127C25.8773 16.0128 25.9117 15.9974 25.9216 15.959C25.9335 15.922 25.9003 15.8694 25.8511 15.8711C25.8018 15.8694 25.7684 15.9217 25.7802 15.959Z" fill="#263238"/>
<path d="M23.3731 14.9835C23.3855 15.039 23.3355 15.108 23.2681 15.1057C23.2005 15.108 23.1509 15.039 23.1632 14.9835C23.1725 14.9267 23.2234 14.8949 23.2681 14.8956C23.3126 14.8949 23.3637 14.9265 23.3731 14.9835ZM23.1972 14.9835C23.2069 15.022 23.2417 15.0372 23.2679 15.0371C23.2943 15.0372 23.3287 15.0219 23.3386 14.9835C23.3504 14.9464 23.3172 14.8938 23.2679 14.8956C23.2187 14.8938 23.1854 14.9462 23.1972 14.9835Z" fill="#263238"/>
<path d="M23.3731 14.0079C23.3855 14.0634 23.3355 14.1324 23.2681 14.1301C23.2005 14.1324 23.1509 14.0634 23.1632 14.0079C23.1725 13.9511 23.2234 13.9193 23.2681 13.92C23.3126 13.9193 23.3637 13.951 23.3731 14.0079ZM23.1972 14.0079C23.2069 14.0464 23.2417 14.0616 23.2679 14.0615C23.2943 14.0616 23.3287 14.0463 23.3386 14.0079C23.3504 13.9708 23.3172 13.9182 23.2679 13.92C23.2187 13.9182 23.1854 13.9707 23.1972 14.0079Z" fill="#263238"/>
<path d="M23.3731 15.959C23.3855 16.0146 23.3357 16.0836 23.2681 16.0812C23.2005 16.0836 23.1509 16.0145 23.1631 15.959C23.1725 15.9023 23.2234 15.8705 23.2681 15.8711C23.3126 15.8705 23.3637 15.9021 23.3731 15.959ZM23.1972 15.959C23.2069 15.9976 23.2417 16.0128 23.2679 16.0127C23.2943 16.0128 23.3287 15.9974 23.3386 15.959C23.3503 15.9219 23.3172 15.8694 23.2679 15.8711C23.2187 15.8694 23.1854 15.9217 23.1972 15.959Z" fill="#263238"/>
<path d="M20.7891 14.9835C20.8015 15.039 20.7516 15.108 20.6841 15.1057C20.6165 15.108 20.567 15.0389 20.5792 14.9835C20.5885 14.9267 20.6394 14.8949 20.6841 14.8956C20.7287 14.8949 20.7797 14.9265 20.7891 14.9835ZM20.6132 14.9835C20.6229 15.022 20.6577 15.0372 20.6839 15.0371C20.7103 15.0372 20.7447 15.0219 20.7546 14.9835C20.7665 14.9464 20.7333 14.8938 20.6841 14.8956C20.6348 14.8938 20.6014 14.9462 20.6132 14.9835Z" fill="#263238"/>
<path d="M20.7891 14.0079C20.8015 14.0634 20.7516 14.1324 20.6841 14.1301C20.6165 14.1324 20.567 14.0634 20.5792 14.0079C20.5885 13.9511 20.6394 13.9193 20.6841 13.92C20.7287 13.9193 20.7797 13.951 20.7891 14.0079ZM20.6132 14.0079C20.6229 14.0464 20.6577 14.0616 20.6839 14.0615C20.7103 14.0616 20.7447 14.0463 20.7546 14.0079C20.7665 13.9707 20.7333 13.9182 20.6841 13.92C20.6348 13.9182 20.6014 13.9707 20.6132 14.0079Z" fill="#263238"/>
<path d="M20.7891 15.959C20.8015 16.0146 20.7517 16.0836 20.6841 16.0812C20.6165 16.0836 20.567 16.0145 20.5792 15.959C20.5885 15.9023 20.6394 15.8705 20.6841 15.8711C20.7286 15.8705 20.7797 15.9021 20.7891 15.959ZM20.6132 15.959C20.6229 15.9976 20.6577 16.0128 20.6839 16.0127C20.7103 16.0128 20.7447 15.9974 20.7546 15.959C20.7665 15.922 20.7333 15.8694 20.6841 15.8711C20.6348 15.8694 20.6014 15.9217 20.6132 15.959Z" fill="#263238"/>
<path d="M18.2061 14.9835C18.2185 15.039 18.1685 15.108 18.1011 15.1057C18.0335 15.108 17.984 15.039 17.9962 14.9835C18.0055 14.9267 18.0564 14.8949 18.1011 14.8956C18.1456 14.8949 18.1967 14.9265 18.2061 14.9835ZM18.0302 14.9835C18.0399 15.022 18.0747 15.0372 18.1009 15.0371C18.1273 15.0372 18.1617 15.0219 18.1716 14.9835C18.1834 14.9463 18.1503 14.8938 18.1011 14.8956C18.0518 14.8938 18.0184 14.9462 18.0302 14.9835Z" fill="#263238"/>
<path d="M18.2061 14.0079C18.2185 14.0634 18.1685 14.1324 18.1011 14.1301C18.0335 14.1324 17.984 14.0634 17.9962 14.0079C18.0055 13.9511 18.0564 13.9193 18.1011 13.92C18.1456 13.9193 18.1967 13.951 18.2061 14.0079ZM18.0302 14.0079C18.0399 14.0464 18.0747 14.0616 18.1009 14.0615C18.1273 14.0616 18.1617 14.0463 18.1716 14.0079C18.1834 13.9707 18.1503 13.9182 18.1011 13.92C18.0518 13.9182 18.0184 13.9707 18.0302 14.0079Z" fill="#263238"/>
<path d="M18.2061 15.959C18.2185 16.0146 18.1687 16.0835 18.1011 16.0812C18.0335 16.0835 17.9839 16.0144 17.9962 15.959C18.0055 15.9022 18.0564 15.8704 18.1011 15.8711C18.1456 15.8706 18.1967 15.9022 18.2061 15.959ZM18.0302 15.9592C18.0399 15.9977 18.0747 16.0129 18.1009 16.0128C18.1273 16.0129 18.1617 15.9976 18.1716 15.9592C18.1834 15.922 18.1502 15.8695 18.1009 15.8712C18.0517 15.8695 18.0184 15.9218 18.0302 15.9592Z" fill="#263238"/>
<path d="M15.6231 14.9835C15.6355 15.039 15.5855 15.108 15.5181 15.1057C15.4505 15.108 15.4009 15.039 15.4132 14.9835C15.4225 14.9267 15.4734 14.8949 15.5181 14.8956C15.5626 14.8949 15.6137 14.9265 15.6231 14.9835ZM15.4472 14.9835C15.4569 15.022 15.4917 15.0372 15.5179 15.0371C15.5443 15.0372 15.5787 15.0219 15.5886 14.9835C15.6005 14.9464 15.5672 14.8938 15.5179 14.8956C15.4687 14.8938 15.4354 14.9462 15.4472 14.9835Z" fill="#263238"/>
<path d="M15.6231 14.0079C15.6355 14.0634 15.5855 14.1324 15.5181 14.1301C15.4505 14.1324 15.4009 14.0634 15.4132 14.0079C15.4225 13.9511 15.4734 13.9193 15.5181 13.92C15.5626 13.9193 15.6137 13.951 15.6231 14.0079ZM15.4472 14.0079C15.4569 14.0464 15.4917 14.0616 15.5179 14.0615C15.5443 14.0616 15.5787 14.0463 15.5886 14.0079C15.6005 13.9708 15.5672 13.9182 15.5179 13.92C15.4687 13.9182 15.4354 13.9707 15.4472 14.0079Z" fill="#263238"/>
<path d="M15.6231 15.959C15.6355 16.0146 15.5855 16.0836 15.5181 16.0812C15.4505 16.0836 15.4009 16.0145 15.4132 15.959C15.4225 15.9023 15.4734 15.8705 15.5181 15.8711C15.5626 15.8705 15.6137 15.9021 15.6231 15.959ZM15.4472 15.959C15.4569 15.9976 15.4917 16.0128 15.5179 16.0127C15.5443 16.0128 15.5787 15.9974 15.5886 15.959C15.6005 15.922 15.5672 15.8694 15.5179 15.8711C15.4687 15.8694 15.4354 15.9217 15.4472 15.959Z" fill="#263238"/>
<path d="M13.0391 14.9835C13.0515 15.039 13.0016 15.108 12.9341 15.1057C12.8665 15.108 12.817 15.0389 12.8292 14.9835C12.8385 14.9267 12.8894 14.8949 12.9341 14.8956C12.9788 14.8949 13.0298 14.9265 13.0391 14.9835ZM12.8633 14.9835C12.8731 15.022 12.9079 15.0372 12.9341 15.0371C12.9604 15.0372 12.9948 15.0219 13.0047 14.9835C13.0166 14.9464 12.9833 14.8938 12.9341 14.8956C12.8848 14.8938 12.8514 14.9462 12.8633 14.9835Z" fill="#263238"/>
<path d="M13.0391 14.0079C13.0515 14.0634 13.0016 14.1324 12.9341 14.1301C12.8665 14.1324 12.817 14.0633 12.8292 14.0079C12.8385 13.9511 12.8894 13.9193 12.9341 13.92C12.9788 13.9193 13.0298 13.951 13.0391 14.0079ZM12.8633 14.0079C12.8731 14.0464 12.9079 14.0616 12.9341 14.0615C12.9604 14.0616 12.9948 14.0463 13.0047 14.0079C13.0166 13.9707 12.9833 13.9182 12.9341 13.92C12.8848 13.9182 12.8514 13.9707 12.8633 14.0079Z" fill="#263238"/>
<path d="M13.0391 15.959C13.0515 16.0146 13.0017 16.0836 12.9341 16.0812C12.8665 16.0836 12.817 16.0145 12.8292 15.959C12.8385 15.9023 12.8894 15.8705 12.9341 15.8711C12.9788 15.8705 13.0298 15.9021 13.0391 15.959ZM12.8633 15.959C12.873 15.9976 12.9079 16.0128 12.9341 16.0127C12.9604 16.0128 12.9948 15.9974 13.0047 15.959C13.0166 15.922 12.9833 15.8694 12.9341 15.8711C12.8848 15.8694 12.8514 15.9217 12.8633 15.959Z" fill="#263238"/>
<path d="M31.7071 15.5586C31.678 15.5586 31.6544 15.5822 31.6544 15.6113C31.6544 15.6403 31.678 15.6639 31.7071 15.6639C31.7362 15.6639 31.7598 15.6403 31.7598 15.6113C31.7596 15.5822 31.7362 15.5586 31.7071 15.5586Z" fill="#263238"/>
<path d="M31.4151 15.3496C31.386 15.3496 31.3624 15.3732 31.3624 15.4023C31.3624 15.4313 31.386 15.4549 31.4151 15.4549C31.4442 15.4549 31.4678 15.4313 31.4678 15.4023C31.4678 15.3732 31.4442 15.3496 31.4151 15.3496Z" fill="#263238"/>
<path d="M31.4151 14.9297C31.386 14.9297 31.3624 14.9533 31.3624 14.9824C31.3624 15.0114 31.386 15.035 31.4151 15.035C31.4442 15.035 31.4678 15.0114 31.4678 14.9824C31.4678 14.9533 31.4442 14.9297 31.4151 14.9297Z" fill="#263238"/>
<path d="M31.4151 14.5107C31.386 14.5107 31.3624 14.5343 31.3624 14.5633C31.3624 14.5923 31.386 14.6159 31.4151 14.6159C31.4442 14.6159 31.4678 14.5923 31.4678 14.5633C31.4678 14.5342 31.4442 14.5107 31.4151 14.5107Z" fill="#263238"/>
<path d="M31.7071 15.1396C31.678 15.1396 31.6544 15.1632 31.6544 15.1923C31.6544 15.2214 31.678 15.245 31.7071 15.245C31.7362 15.245 31.7598 15.2214 31.7598 15.1923C31.7596 15.1632 31.7362 15.1396 31.7071 15.1396Z" fill="#263238"/>
<path d="M31.7071 14.7207C31.678 14.7207 31.6544 14.7443 31.6544 14.7734C31.6544 14.8024 31.678 14.826 31.7071 14.826C31.7362 14.826 31.7598 14.8024 31.7598 14.7734C31.7598 14.7443 31.7362 14.7207 31.7071 14.7207Z" fill="#263238"/>
<path d="M31.7071 14.3018C31.678 14.3018 31.6544 14.3253 31.6544 14.3544C31.6544 14.3835 31.678 14.4071 31.7071 14.4071C31.7362 14.4071 31.7598 14.3835 31.7598 14.3544C31.7596 14.3252 31.7362 14.3018 31.7071 14.3018Z" fill="#263238"/>
<path d="M29.8059 15.3496C29.7768 15.3496 29.7532 15.3732 29.7532 15.4023C29.7532 15.4313 29.7768 15.4549 29.8059 15.4549C29.8349 15.4549 29.8584 15.4313 29.8584 15.4023C29.8585 15.3732 29.8349 15.3496 29.8059 15.3496Z" fill="#263238"/>
<path d="M29.8059 14.9307C29.7768 14.9307 29.7532 14.9543 29.7532 14.9833C29.7532 15.0124 29.7768 15.036 29.8059 15.036C29.8349 15.036 29.8584 15.0124 29.8584 14.9833C29.8585 14.9543 29.8349 14.9307 29.8059 14.9307Z" fill="#263238"/>
<path d="M29.8059 14.5117C29.7768 14.5117 29.7532 14.5353 29.7532 14.5642C29.7532 14.5933 29.7768 14.6169 29.8059 14.6169C29.8349 14.6169 29.8584 14.5933 29.8584 14.5642C29.8585 14.5352 29.8349 14.5117 29.8059 14.5117Z" fill="#263238"/>
<path d="M28.8271 16.4672L28.8271 16.9902L30.0029 16.9902L30.0029 16.4672L28.8271 16.4672Z" fill="#37474F"/>
<path d="M12.2168 6.20256L12.2168 3.06152L8.66185 3.06152L8.66185 6.20256L12.2168 6.20256Z" fill="#263238"/>
<path d="M8.66211 5.99962L8.66211 3.26562L8.23682 3.26562L8.23682 5.99962L8.66211 5.99962Z" fill="#37474F"/>
<path d="M8.23633 5.78087L8.23633 3.48438L7.90444 3.48437L7.90444 5.78087L8.23633 5.78087Z" fill="#263238"/>
<path d="M6.85645 6.53352L6.85645 2.73145L6.48506 2.73145L6.48506 6.53352L6.85645 6.53352Z" fill="#263238"/>
<path d="M6.85555 6.33878L6.85555 2.92578C7.47777 3.24067 7.9043 3.88703 7.9043 4.63173C7.9043 5.37643 7.47777 6.02266 6.85555 6.33878Z" fill="#37474F"/>
<path d="M10.1166 7.59963L25.5332 7.59963C25.5332 7.59963 24.5735 7.03583 24.1029 6.91898C23.3056 6.72081 20.4891 6.42992 19.5618 6.02987C19.2831 5.90973 17.5297 5.31699 16.8017 4.55707C15.84 3.55344 14.8301 2.32063 14.2562 1.75697C13.4751 0.989913 12.7445 -5.5901e-07 10.4172 -6.60742e-07L10.1166 7.59963Z" fill="#FFC727"/>
<path opacity="0.1" d="M10.1166 7.59963L25.5332 7.59963C25.5332 7.59963 24.5735 7.03583 24.1029 6.91898C23.3056 6.72081 20.4891 6.42992 19.5618 6.02987C19.2831 5.90973 17.5297 5.31699 16.8017 4.55707C15.84 3.55344 14.8301 2.32063 14.2562 1.75697C13.4751 0.989913 12.7445 -5.5901e-07 10.4172 -6.60742e-07L10.1166 7.59963Z" fill="black"/>
<path opacity="0.1" d="M25.5332 7.59982L10.1167 7.59982L10.2086 5.27246L24.9174 7.26381C25.2507 7.43387 25.5332 7.59982 25.5332 7.59982Z" fill="black"/>
<path d="M8.66211 13.3658L8.66211 16.5068L12.2171 16.5068L12.2171 13.3658L8.66211 13.3658Z" fill="#263238"/>
<path d="M8.23633 13.5687L8.23633 16.3027L8.66162 16.3027L8.66162 13.5687L8.23633 13.5687Z" fill="#37474F"/>
<path d="M7.90527 13.7885L7.90527 16.085L8.23716 16.085L8.23716 13.7885L7.90527 13.7885Z" fill="#263238"/>
<path d="M6.48535 13.0348L6.48535 16.8369L6.85674 16.8369L6.85674 13.0348L6.48535 13.0348Z" fill="#263238"/>
<path d="M6.85652 13.2295L6.85652 16.6425C7.47875 16.3276 7.90527 15.6812 7.90527 14.9365C7.90527 14.1918 7.47875 13.5456 6.85652 13.2295Z" fill="#37474F"/>
<path d="M10.1166 11.9697L25.5332 11.9697C25.5332 11.9697 24.5735 12.5335 24.1029 12.6504C23.3056 12.8486 20.4891 13.1394 19.5618 13.5395C19.2831 13.6596 17.5297 14.2524 16.8017 15.0123C15.84 16.0159 14.8301 17.2487 14.2562 17.8124C13.4751 18.5794 12.7445 19.5694 10.4172 19.5694L10.1166 11.9697Z" fill="#FFC727"/>
<path opacity="0.1" d="M10.1166 11.9697L25.5332 11.9697C25.5332 11.9697 24.5735 12.5335 24.1029 12.6504C23.3056 12.8486 20.4891 13.1394 19.5618 13.5395C19.2831 13.6596 17.5297 14.2524 16.8017 15.0123C15.84 16.0159 14.8301 17.2487 14.2562 17.8124C13.4751 18.5794 12.7445 19.5694 10.4172 19.5694L10.1166 11.9697Z" fill="black"/>
<path opacity="0.1" d="M25.5332 11.9697L10.1167 11.9697L10.2086 14.2971L24.9174 12.3057C25.2507 12.1357 25.5332 11.9697 25.5332 11.9697Z" fill="black"/>
<path opacity="0.6" d="M5.36732 6.06157C2.70849 6.06157 0.000142513 4.66653 0.000142513 4.66653C0.000142513 4.66653 2.70849 3.27148 5.36732 3.27148C5.74763 3.27148 6.12629 3.34307 6.48437 3.45567L6.48437 5.87752C6.12629 5.98998 5.74763 6.06157 5.36732 6.06157Z" fill="#FFC727"/>
<path opacity="0.6" d="M6.01534 5.58403C3.87834 5.58403 1.70047 4.66652 1.70047 4.66652C1.70047 4.66652 3.87834 3.74902 6.01534 3.74902C6.17223 3.74902 6.32913 3.76095 6.48437 3.78317L6.48437 5.55001C6.32926 5.5721 6.17223 5.58403 6.01534 5.58403Z" fill="#FFC727"/>
<path opacity="0.6" d="M5.36732 16.3311C2.70849 16.3311 0.000142513 14.9361 0.000142513 14.9361C0.000142513 14.9361 2.70849 13.541 5.36732 13.541C5.74763 13.541 6.12629 13.6126 6.48437 13.7252L6.48437 16.147C6.12629 16.2595 5.74763 16.3311 5.36732 16.3311Z" fill="#FFC727"/>
<path opacity="0.6" d="M6.01534 15.8536C3.87834 15.8536 1.70047 14.9361 1.70047 14.9361C1.70047 14.9361 3.87834 14.0186 6.01534 14.0186C6.17223 14.0186 6.32913 14.0305 6.48437 14.0527L6.48437 15.8195C6.32926 15.8416 6.17223 15.8536 6.01534 15.8536Z" fill="#FFC727"/>
<path d="M26.2927 12.4762C25.2024 12.4762 14.256 12.4762 14.256 12.4762L14.256 7.09375C14.256 7.09375 25.2024 7.09375 26.2927 7.09375C27.3841 7.09375 28.3748 7.27533 30.014 7.98506C31.6544 8.69369 32.3477 9.03381 32.3477 9.78509C32.3477 10.5364 31.6544 10.8765 30.014 11.585C28.3747 12.2946 27.384 12.4762 26.2927 12.4762Z" fill="#FFC727"/>
<g opacity="0.1">
<path d="M26.0713 7.09375C26.0839 7.54222 26.093 7.99082 26.0975 8.43928L26.1055 9.78495L26.0977 11.1306C26.093 11.5792 26.0839 12.0277 26.0713 12.4762C26.0587 12.0277 26.0495 11.5791 26.045 11.1306L26.0372 9.78495L26.0451 8.43928C26.0497 7.99082 26.0588 7.54222 26.0713 7.09375Z" fill="black"/>
<path d="M22.0723 7.09375C22.0849 7.54222 22.094 7.99082 22.0985 8.43928L22.1064 9.78495L22.0986 11.1306C22.094 11.5792 22.0849 12.0277 22.0723 12.4762C22.0597 12.0277 22.0505 11.5791 22.046 11.1306L22.038 9.78495L22.046 8.43928C22.0506 7.99082 22.0597 7.54222 22.0723 7.09375Z" fill="black"/>
<path d="M18.0733 7.09375C18.0859 7.54222 18.0949 7.99082 18.0995 8.43928L18.1074 9.78495L18.0996 11.1306C18.0949 11.5792 18.0859 12.0277 18.0733 12.4762C18.0607 12.0277 18.0515 11.5791 18.0469 11.1306L18.0391 9.78495L18.0471 8.43928C18.0516 7.99082 18.0608 7.54222 18.0733 7.09375Z" fill="black"/>
<path d="M25.7621 7.43515C25.7158 7.43735 25.67 7.3984 25.6657 7.34725C25.6587 7.29527 25.7054 7.24178 25.7621 7.24219C25.8189 7.24164 25.8657 7.29527 25.8587 7.34725C25.8543 7.3984 25.8085 7.43735 25.7621 7.43515ZM25.7621 7.43515C25.8097 7.43543 25.8483 7.39004 25.8414 7.34725C25.8369 7.30528 25.7993 7.27456 25.7621 7.27648C25.725 7.27456 25.6872 7.30514 25.6827 7.34725C25.676 7.39004 25.7145 7.43543 25.7621 7.43515Z" fill="black"/>
<path d="M25.7621 8.40976C25.7158 8.41196 25.67 8.37301 25.6657 8.32186C25.6587 8.27001 25.7054 8.21639 25.7621 8.2168C25.8189 8.21625 25.8657 8.26988 25.8587 8.32186C25.8543 8.37315 25.8085 8.4121 25.7621 8.40976ZM25.7621 8.40976C25.8097 8.41004 25.8483 8.36464 25.8414 8.32186C25.8369 8.27989 25.7993 8.24917 25.7621 8.25109C25.725 8.24917 25.6872 8.27975 25.6827 8.32186C25.676 8.36478 25.7145 8.41004 25.7621 8.40976Z" fill="black"/>
<path d="M25.7621 11.3365C25.7158 11.3387 25.67 11.2998 25.6657 11.2486C25.6587 11.1968 25.7054 11.1431 25.7621 11.1436C25.8189 11.143 25.8657 11.1966 25.8587 11.2486C25.8543 11.2999 25.8085 11.3387 25.7621 11.3365ZM25.7621 11.3365C25.8097 11.3368 25.8483 11.2914 25.8414 11.2486C25.8369 11.2066 25.7993 11.1759 25.7621 11.1778C25.725 11.1759 25.6872 11.2065 25.6827 11.2486C25.676 11.2914 25.7145 11.3368 25.7621 11.3365Z" fill="black"/>
<path d="M25.7621 12.3121C25.7158 12.3143 25.67 12.2754 25.6657 12.2242C25.6587 12.1724 25.7054 12.1187 25.7621 12.1191C25.8189 12.1186 25.8657 12.1722 25.8587 12.2242C25.8543 12.2754 25.8085 12.3143 25.7621 12.3121ZM25.7621 12.3121C25.8097 12.3124 25.8483 12.267 25.8414 12.2242C25.8369 12.1822 25.7993 12.1515 25.7621 12.1534C25.725 12.1515 25.6872 12.1822 25.6827 12.2242C25.676 12.267 25.7145 12.3124 25.7621 12.3121Z" fill="black"/>
<path d="M21.7055 7.43515C21.6591 7.43735 21.6133 7.3984 21.6091 7.34725C21.6021 7.2954 21.6487 7.24178 21.7055 7.24219C21.7623 7.24164 21.809 7.29527 21.802 7.34725C21.7977 7.3984 21.7518 7.43735 21.7055 7.43515ZM21.7055 7.43515C21.7531 7.43543 21.7916 7.39004 21.7848 7.34725C21.7802 7.30528 21.7427 7.27456 21.7055 7.27648C21.6683 7.27456 21.6306 7.30514 21.6261 7.34725C21.6194 7.39004 21.6579 7.43543 21.7055 7.43515Z" fill="black"/>
<path d="M21.7055 8.40976C21.6591 8.41196 21.6133 8.37301 21.6091 8.32186C21.6021 8.27001 21.6487 8.21639 21.7055 8.2168C21.7623 8.21625 21.809 8.26988 21.802 8.32186C21.7977 8.37315 21.7518 8.4121 21.7055 8.40976ZM21.7055 8.40976C21.7531 8.41004 21.7916 8.36464 21.7848 8.32186C21.7802 8.27989 21.7427 8.24917 21.7055 8.25109C21.6683 8.24917 21.6306 8.27975 21.6261 8.32186C21.6194 8.36478 21.6579 8.41004 21.7055 8.40976Z" fill="black"/>
<path d="M21.7055 11.3365C21.6591 11.3387 21.6133 11.2998 21.6091 11.2486C21.6021 11.1968 21.6487 11.1431 21.7055 11.1436C21.7623 11.143 21.809 11.1966 21.802 11.2486C21.7977 11.2999 21.7518 11.3387 21.7055 11.3365ZM21.7055 11.3365C21.7531 11.3368 21.7916 11.2914 21.7848 11.2486C21.7802 11.2066 21.7427 11.1759 21.7055 11.1778C21.6683 11.1759 21.6306 11.2066 21.6261 11.2486C21.6194 11.2914 21.6579 11.3368 21.7055 11.3365Z" fill="black"/>
<path d="M21.7055 12.3121C21.6591 12.3143 21.6133 12.2754 21.6091 12.2242C21.6021 12.1724 21.6487 12.1187 21.7055 12.1191C21.7623 12.1186 21.809 12.1722 21.802 12.2242C21.7977 12.2754 21.7518 12.3143 21.7055 12.3121ZM21.7055 12.3121C21.7531 12.3124 21.7916 12.267 21.7848 12.2242C21.7802 12.1822 21.7427 12.1515 21.7055 12.1534C21.6683 12.1515 21.6306 12.1822 21.6261 12.2242C21.6194 12.267 21.6579 12.3124 21.7055 12.3121Z" fill="black"/>
<path d="M17.6488 7.43515C17.6025 7.43735 17.5567 7.3984 17.5524 7.34725C17.5454 7.2954 17.5921 7.24178 17.6488 7.24219C17.7056 7.24164 17.7524 7.29527 17.7454 7.34725C17.741 7.3984 17.6952 7.43735 17.6488 7.43515ZM17.6488 7.43515C17.6964 7.43543 17.735 7.39004 17.7281 7.34725C17.7236 7.30528 17.686 7.27456 17.6488 7.27648C17.6117 7.27456 17.574 7.30514 17.5694 7.34725C17.5627 7.39004 17.6013 7.43543 17.6488 7.43515Z" fill="black"/>
<path d="M17.6488 8.40976C17.6025 8.41196 17.5567 8.37301 17.5524 8.32186C17.5454 8.27001 17.5921 8.21639 17.6488 8.2168C17.7056 8.21625 17.7524 8.26988 17.7454 8.32186C17.741 8.37315 17.6952 8.4121 17.6488 8.40976ZM17.6488 8.40976C17.6964 8.41004 17.735 8.36464 17.7281 8.32186C17.7236 8.27989 17.686 8.24917 17.6488 8.25109C17.6117 8.24917 17.574 8.27975 17.5694 8.32186C17.5627 8.36478 17.6013 8.41004 17.6488 8.40976Z" fill="black"/>
<path d="M17.6488 11.3365C17.6025 11.3387 17.5567 11.2998 17.5524 11.2486C17.5454 11.1968 17.5921 11.1431 17.6488 11.1436C17.7056 11.143 17.7524 11.1966 17.7454 11.2486C17.741 11.2999 17.6952 11.3387 17.6488 11.3365ZM17.6488 11.3365C17.6964 11.3368 17.735 11.2914 17.7281 11.2486C17.7236 11.2066 17.686 11.1759 17.6488 11.1778C17.6117 11.1759 17.574 11.2066 17.5694 11.2486C17.5627 11.2914 17.6013 11.3368 17.6488 11.3365Z" fill="black"/>
<path d="M17.6488 12.3121C17.6025 12.3143 17.5567 12.2754 17.5524 12.2242C17.5454 12.1724 17.5921 12.1187 17.6488 12.1191C17.7056 12.1186 17.7524 12.1722 17.7454 12.2242C17.741 12.2754 17.6952 12.3143 17.6488 12.3121ZM17.6488 12.3121C17.6964 12.3124 17.735 12.267 17.7281 12.2242C17.7236 12.1822 17.686 12.1515 17.6488 12.1534C17.6117 12.1515 17.574 12.1822 17.5694 12.2242C17.5627 12.267 17.6013 12.3124 17.6488 12.3121Z" fill="black"/>
<path d="M26.0703 9.78472C24.0962 9.7994 22.1222 9.79569 20.1481 9.80186C18.174 9.79583 16.2 9.79953 14.2259 9.78472C16.2 9.76991 18.174 9.77361 20.1481 9.76758C22.1222 9.77375 24.0962 9.77005 26.0703 9.78472Z" fill="black"/>
</g>
<path opacity="0.2" d="M26.7969 10.3173L26.7969 9.25391L26.3848 9.25391L26.3848 10.3173L26.7969 10.3173Z" fill="black"/>
<path d="M28.3506 8.87742L27.8497 9.08684C27.7207 8.80473 27.5665 8.60738 27.5665 8.60738L28.0214 8.37012C28.0214 8.37012 28.1975 8.5639 28.3506 8.87742Z" fill="#263238"/>
<path d="M28.3506 10.6918L27.8497 10.4824C27.7207 10.7645 27.5665 10.9619 27.5665 10.9619L28.0214 11.1991C28.0214 11.1991 28.1975 11.0055 28.3506 10.6918Z" fill="#263238"/>
<path d="M28.445 10.4722L27.9365 10.2591C27.9868 10.1089 28.0207 9.94794 28.0207 9.78446C28.0207 9.62099 27.9868 9.45998 27.9365 9.3098L28.445 9.09668C28.5205 9.29773 28.5752 9.53129 28.5752 9.78446C28.5752 10.0375 28.5205 10.2712 28.445 10.4722Z" fill="#263238"/>
<path d="M30.1584 11.5221L30.1584 8.04687C31.6948 8.71395 32.3477 9.05626 32.3477 9.78451C32.3478 10.5127 31.6948 10.8551 30.1584 11.5221Z" fill="#FFC727"/>
<path opacity="0.5" d="M30.1584 11.5221L30.1584 8.04687C31.6948 8.71395 32.3477 9.05626 32.3477 9.78451C32.3478 10.5127 31.6948 10.8551 30.1584 11.5221Z" fill="white"/>
<path d="M30.6328 10.2036L30.6328 9.36719L30.36 9.36719L30.36 10.2036L30.6328 10.2036Z" fill="#FFC727"/>
<path d="M14.2559 12.2571L14.2559 7.31152L9.51022 7.31152L9.51022 12.2571L14.2559 12.2571Z" fill="#DBDBDB"/>
<path d="M13.874 12.2573L13.6376 7.31152L14.2559 7.31152L14.2559 12.2573L13.874 12.2573Z" fill="#C7C7C7"/>
<path d="M9.50977 8.67812L9.50977 7.63184L8.83707 7.63184L8.83707 8.67812L9.50977 8.67812Z" fill="#263238"/>
<path d="M8.19932 8.79275L8.19932 7.51758C8.55138 7.51758 8.83691 7.80312 8.83691 8.15517C8.83691 8.50722 8.55124 8.79275 8.19932 8.79275Z" fill="#DBDBDB"/>
<path d="M9.50977 11.932L9.50977 10.8857L8.83707 10.8857L8.83707 11.932L9.50977 11.932Z" fill="#263238"/>
<path d="M8.19932 12.0467L8.19932 10.7715C8.55138 10.7715 8.83691 11.057 8.83691 11.4091C8.83691 11.7611 8.55124 12.0467 8.19932 12.0467Z" fill="#DBDBDB"/>
<path d="M14.2257 8.58908C14.2708 7.92708 13.5069 7.43582 11.7738 7.10722C10.2062 6.81003 9.51032 6.8727 9.51032 6.8727L9.51032 9.41908C9.51032 9.41908 10.8819 9.41908 11.8853 9.41908C12.8484 9.41908 14.1852 9.18251 14.2257 8.58908Z" fill="#263238"/>
<path d="M14.2257 10.9804C14.2708 11.6424 13.5069 12.1336 11.7738 12.4622C10.2062 12.7594 9.51032 12.6968 9.51032 12.6968L9.51032 10.1504C9.51032 10.1504 10.8819 10.1504 11.8853 10.1504C12.8484 10.1503 14.1852 10.387 14.2257 10.9804Z" fill="#263238"/>
<path d="M11.8833 10.3031C11.8833 10.3031 10.1606 10.1468 9.59512 10.1031C8.84055 10.0439 8.39551 9.95919 8.39551 9.78487C8.39551 9.61385 8.84055 9.52567 9.59512 9.4667C10.1604 9.42185 11.8833 9.2666 11.8833 9.2666L12.7588 9.78501L11.8833 10.3031Z" fill="#C7C7C7"/>
</svg>
