<svg width="79" height="80" viewBox="0 0 79 80" fill="none" xmlns="http://www.w3.org/2000/svg">
<g clip-path="url(#clip0_894_1696)">
<path d="M79.0006 12.7683L65.8281 -0.000567279L45.0664 20.8875L57.7463 33.8569L79.0006 12.7683Z" fill="#FEBA02"/>
<path d="M74.1784 9.98411L69.0759 5.03943L61.041 13.135L65.9558 18.1505L74.1784 9.98411Z" fill="#002152"/>
<path d="M64.9713 19.2482L59.8689 14.3035L51.834 22.3991L56.7488 27.4146L64.9713 19.2482Z" fill="#002152"/>
<path d="M72.83 10.2198L68.0325 5.55834L60.4668 13.1701L65.0883 17.9023L72.83 10.2198Z" fill="#004AB8"/>
<path d="M63.6815 19.4251L58.8841 14.7755L51.3184 22.3872L55.9399 27.1077L63.6815 19.4251Z" fill="#004AB8"/>
<path d="M46.0273 26.0806L48.0801 23.98L54.1561 30.1756L52.2441 32.3234L46.0273 26.0806Z" fill="#365F65"/>
<path d="M47.0478 25.0184L53.112 31.214L52.2206 32.2289L46.1094 25.9861L47.0478 25.0184Z" fill="#2B4B50"/>
<path d="M36.8669 57.8495L22.5918 43.4875L42.7787 22.5995L57.2063 37.5398L36.8669 57.8495Z" fill="#C7C8CA"/>
<path d="M17.207 41.8941L22.591 43.4872L42.7779 22.5992L40.3733 17.6191L17.207 41.8941Z" fill="#9FA0A2"/>
<path d="M19.7051 34.6372L33.6518 20.5466L35.5637 22.6472L22.0158 36.8558L19.7051 34.6372Z" fill="#C7C8CA"/>
<path d="M21.1719 36.0404L22.0164 36.8547L35.5643 22.6461L34.7667 21.7846L21.1719 36.0404Z" fill="#919395"/>
<path d="M45.7695 48.9621L48.3618 51.3696L50.8603 48.9621L48.3149 46.4131L45.7695 48.9621Z" fill="white"/>
<path d="M49.3823 47.4874L48.3149 46.4135L45.7695 48.9626L46.8839 49.9893L49.3823 47.4874Z" fill="#9FA0A2"/>
<path d="M51.7161 48.8925C52.3671 48.9088 52.9988 49.118 53.5321 49.494C54.0654 49.8699 54.4765 50.3958 54.714 51.0059C54.9514 51.6159 55.0047 52.2829 54.8669 52.9232C54.7292 53.5635 54.4067 54.1487 53.9399 54.6054C53.473 55.0621 52.8825 55.37 52.2425 55.4906C51.6024 55.6111 50.9412 55.5389 50.3418 55.2829C49.7423 55.027 49.2313 54.5988 48.8728 54.0519C48.5142 53.505 48.3241 52.8638 48.3262 52.2087C48.3323 51.767 48.4249 51.3308 48.5985 50.9251C48.7722 50.5194 49.0236 50.1521 49.3384 49.8442C49.6532 49.5362 50.0252 49.2937 50.4332 49.1304C50.8411 48.9671 51.2771 48.8863 51.7161 48.8925Z" fill="#FEBA02"/>
<path d="M51.7168 60.0803L51.7168 63.6207C51.7168 63.6207 62.8835 62.4406 62.6959 52.1736L59.3294 52.1736C59.3294 52.1736 59.2708 59.5021 51.7168 60.0803Z" fill="#FEBA02"/>
<path d="M51.7168 66.948L51.7168 70.4883C51.7168 70.4883 67.5051 71.102 70.0035 52.2673L66.6371 52.2673C66.6371 52.2673 65.7104 66.6529 51.7168 66.948Z" fill="#FEBA02"/>
<path d="M12.6916 80L-5.79294e-07 66.7473L20.7617 45.8593L33.6527 58.6281L12.6916 80Z" fill="#FEBA02"/>
<path d="M10.9558 74.1105L6.04102 68.977L14.0876 60.8932L19.0728 65.8379L10.9558 74.1105Z" fill="#002152"/>
<path d="M20.1628 64.8481L15.248 59.7146L23.2947 51.6308L28.2798 56.5755L20.1628 64.8481Z" fill="#002152"/>
<path d="M10.145 73.8052L5.52344 68.9668L13.0891 61.355L17.7928 66.0165L10.145 73.8052Z" fill="#004AB8"/>
<path d="M19.3071 64.5884L14.6855 59.7618L22.2512 52.15L26.9432 56.7997L19.3071 64.5884Z" fill="#004AB8"/>
<path d="M25.9238 46.8381L23.8359 48.8915L29.9941 55.0045L32.1289 53.0809L25.9238 46.8381Z" fill="#365F65"/>
<path d="M23.8359 48.8915L29.9941 55.0045L31.0028 54.1076L24.786 47.9474L23.8359 48.8915Z" fill="#2B4B50"/>
<path d="M36.6317 54.155L25.3242 42.9557L42.7781 25.1595L53.6282 36.8545L36.6317 54.155Z" fill="white"/>
<path d="M9.70078 74.5597C9.75044 74.6091 9.78986 74.6679 9.81676 74.7327C9.84367 74.7975 9.85752 74.8671 9.85752 74.9373C9.85752 75.0076 9.84367 75.0771 9.81676 75.1419C9.78986 75.2068 9.75044 75.2656 9.70078 75.315C9.60014 75.413 9.46554 75.4678 9.32544 75.4678C9.18534 75.4678 9.05072 75.413 8.95008 75.315L1.37266 67.2902C1.2752 67.1889 1.2207 67.0535 1.2207 66.9125C1.2207 66.7716 1.2752 66.6362 1.37266 66.5349C1.47527 66.4361 1.61183 66.3809 1.75387 66.3809C1.89592 66.3809 2.03248 66.4361 2.13509 66.5349L9.70078 74.5597Z" fill="white"/>
<path d="M55.0367 28.0749C55.1342 28.1762 55.1887 28.3116 55.1887 28.4526C55.1887 28.5935 55.1342 28.729 55.0367 28.8302C54.9341 28.929 54.7976 28.9842 54.6555 28.9842C54.5135 28.9842 54.3769 28.929 54.2743 28.8302L46.7086 20.8054C46.6111 20.7042 46.5566 20.5688 46.5566 20.4278C46.5566 20.2868 46.6111 20.1514 46.7086 20.0502C46.8092 19.9521 46.9439 19.8973 47.084 19.8973C47.2241 19.8973 47.3587 19.9521 47.4593 20.0502L55.0367 28.0749Z" fill="white"/>
</g>
<defs>
<clipPath id="clip0_894_1696">
<rect width="80" height="79" fill="white" transform="translate(0 80) rotate(-90)"/>
</clipPath>
</defs>
</svg>
