<svg width="50" height="50" viewBox="0 0 50 50" fill="none" xmlns="http://www.w3.org/2000/svg">
<path d="M42.425 42.4255C52.0251 32.8254 52.0251 17.2605 42.425 7.66042C32.8249 -1.9397 17.26 -1.93969 7.65989 7.66042C-1.94022 17.2605 -1.94022 32.8254 7.65989 42.4255C17.26 52.0256 32.8249 52.0256 42.425 42.4255Z" fill="#19BAB4"/>
<path d="M1.85254 16.8845C5.21782 7.31922 14.3271 0.459961 25.0433 0.459961C35.3067 0.459961 44.0974 6.75209 47.7785 15.6873C44.7252 20.1748 39.6836 23.1206 34.5748 25.1359C30.0502 26.9206 25.2451 28.1613 20.3817 28.103C15.5178 28.0447 10.5766 26.6072 6.8243 23.5118C4.67337 21.7373 2.96643 19.4401 1.85254 16.8845Z" fill="#1AC4BE"/>
<path d="M45.7082 20.9391C46.6837 25.2419 46.0513 29.0521 44.8777 29.3183C43.704 29.5845 41.9624 26.3123 40.9869 22.0095C40.0115 17.7067 40.1721 14.0035 41.3453 13.7373C42.5189 13.4715 44.7328 16.6368 45.7082 20.9391Z" fill="#005079"/>
<path d="M45.7081 20.9391C44.7327 16.6368 42.5183 13.4715 41.3452 13.7373C41.0906 13.7951 40.8864 14.0229 40.7285 14.3761C41.9359 15.1229 43.5586 17.8761 44.3554 21.3905C45.1211 24.7673 44.8938 27.8326 44.1943 29.128C44.4355 29.296 44.666 29.3669 44.8781 29.3187C46.0512 29.0525 46.6836 25.2419 45.7081 20.9391Z" fill="#003A57"/>
<path d="M38.4676 41.4442C36.0666 43.8706 33.318 45.0433 32.656 44.3887C31.994 43.734 34.2291 41.3799 36.6301 38.9535C39.031 36.5271 40.6884 34.947 41.35 35.6016C42.012 36.2567 40.8685 39.0178 38.4676 41.4442Z" fill="#005079"/>
<path d="M41.3504 35.6015C41.267 35.5191 41.168 35.4724 41.0536 35.458C41.2795 36.4372 40.142 38.8446 38.0166 40.9927C35.9133 43.1187 33.5434 44.2816 32.543 44.0974C32.5471 44.214 32.5805 44.3136 32.6559 44.3886C33.3175 45.0432 36.0666 43.8705 38.4675 41.4441C40.8689 39.0177 42.0124 36.2566 41.3504 35.6015Z" fill="#003A57"/>
<path d="M19.1374 46.5112C17.2786 45.9649 15.9522 44.9075 16.1013 44.4006C16.2503 43.8936 18.0281 44.3765 19.8869 44.9223C21.7457 45.4686 22.9814 45.8709 22.8327 46.3779C22.6837 46.8853 20.9962 47.0575 19.1374 46.5112Z" fill="#005079"/>
<path d="M5.51882 36.0029C4.34891 34.4585 3.91141 32.8196 4.3327 32.5006C4.754 32.1816 5.89613 33.627 7.06604 35.1715C8.23594 36.7159 8.99011 37.7742 8.56882 38.0932C8.14798 38.4122 6.68872 37.5474 5.51882 36.0029Z" fill="#005079"/>
<path d="M5.96974 36.0026C4.84659 34.5202 4.40122 32.9536 4.73965 32.5485C4.57067 32.4508 4.43132 32.4258 4.3327 32.5008C3.91141 32.8198 4.34891 34.4587 5.51882 36.0031C6.65215 37.4994 8.05446 38.3545 8.52391 38.1161C7.88039 37.9313 6.84428 37.1573 5.96974 36.0026Z" fill="#003A57"/>
<path d="M13.0438 27.177C14.386 30.5279 14.7489 33.6807 13.2596 34.277C11.7702 34.8737 8.99336 32.6881 7.65077 29.3371C6.30864 25.9862 6.9091 22.7395 8.39845 22.1427C9.88781 21.5464 11.7012 23.826 13.0438 27.177Z" fill="#005079"/>
<path d="M9.00375 28.8863C7.84634 25.9969 8.13569 23.189 9.19171 22.0867C8.92042 22.0284 8.65468 22.0404 8.39866 22.1427C6.9093 22.7395 6.30838 25.9863 7.65097 29.3372C8.99356 32.6881 11.7704 34.8733 13.2598 34.277C13.463 34.1955 13.6283 34.0631 13.7649 33.8923C12.2292 33.6497 10.1209 31.6747 9.00375 28.8863Z" fill="#003A57"/>
<path d="M15.1852 39.4785C15.9204 40.7521 15.7329 42.2369 14.7667 42.7947C13.8 43.3526 12.4204 42.7725 11.6852 41.4994C10.95 40.2257 11.1375 38.741 12.1037 38.1832C13.0704 37.6248 14.4496 38.2049 15.1852 39.4785Z" fill="#005079"/>
<path d="M15.2182 41.8931C14.2515 42.451 12.8719 41.8709 12.1367 40.5973C11.7251 39.8848 11.6126 39.1112 11.7538 38.4658C11.107 39.1482 11.0515 40.401 11.6858 41.4996C12.4209 42.7732 13.8006 43.3533 14.7672 42.795C15.1932 42.5492 15.458 42.1186 15.5691 41.6103C15.4658 41.7191 15.351 41.8163 15.2182 41.8931Z" fill="#003A57"/>
<path d="M37.5775 33.4926C38.8312 31.9068 39.1377 30.0601 38.2622 29.3679C37.3866 28.6757 35.6605 29.4002 34.4068 30.986C33.1531 32.5718 32.8465 34.4186 33.7221 35.1107C34.5976 35.8029 36.3237 35.0785 37.5775 33.4926Z" fill="#005079"/>
<path d="M38.2597 29.3678C38.2097 29.328 38.156 29.2942 38.1 29.2637C38.58 30.1109 38.206 31.6725 37.1236 33.0415C35.9416 34.5364 34.3412 35.2646 33.4277 34.7637C33.5037 34.8979 33.5995 35.016 33.7194 35.1109C34.5949 35.803 36.3208 35.0785 37.5745 33.4928C38.8287 31.9067 39.1351 30.06 38.2597 29.3678Z" fill="#003A57"/>
<path d="M17.8313 32.852C18.4996 32.852 19.0415 32.3102 19.0415 31.6418C19.0415 30.9735 18.4996 30.4316 17.8313 30.4316C17.1629 30.4316 16.6211 30.9735 16.6211 31.6418C16.6211 32.3102 17.1629 32.852 17.8313 32.852Z" fill="#005079"/>
<path d="M7.7844 18.394C8.45277 18.394 8.99459 17.8522 8.99459 17.1838C8.99459 16.5155 8.45277 15.9736 7.7844 15.9736C7.11604 15.9736 6.57422 16.5155 6.57422 17.1838C6.57422 17.8522 7.11604 18.394 7.7844 18.394Z" fill="#005079"/>
<path d="M39.1321 10.0971C39.8004 10.0971 40.3422 9.55531 40.3422 8.88694C40.3422 8.21858 39.8004 7.67676 39.1321 7.67676C38.4637 7.67676 37.9219 8.21858 37.9219 8.88694C37.9219 9.55531 38.4637 10.0971 39.1321 10.0971Z" fill="#005079"/>
<path d="M36.1623 26.2387C36.8307 26.2387 37.3725 25.6969 37.3725 25.0285C37.3725 24.3602 36.8307 23.8184 36.1623 23.8184C35.494 23.8184 34.9521 24.3602 34.9521 25.0285C34.9521 25.6969 35.494 26.2387 36.1623 26.2387Z" fill="#005079"/>
<path d="M44.0403 34.3364C44.7086 34.3364 45.2504 33.7946 45.2504 33.1262C45.2504 32.4578 44.7086 31.916 44.0403 31.916C43.3719 31.916 42.8301 32.4578 42.8301 33.1262C42.8301 33.7946 43.3719 34.3364 44.0403 34.3364Z" fill="#005079"/>
<path d="M21.2209 42.0503C21.8893 42.0503 22.4311 41.5084 22.4311 40.8401C22.4311 40.1717 21.8893 39.6299 21.2209 39.6299C20.5526 39.6299 20.0107 40.1717 20.0107 40.8401C20.0107 41.5084 20.5526 42.0503 21.2209 42.0503Z" fill="#005079"/>
<path d="M34.3944 17.3247C33.2097 18.196 31.7356 18.2034 31.1023 17.3418C30.4689 16.4802 30.9157 15.0756 32.1004 14.2043C33.2851 13.333 34.7592 13.3256 35.393 14.1872C36.0259 15.0488 35.5791 16.4534 34.3944 17.3247Z" fill="#005079"/>
<path d="M30.5655 41.234C30.097 42.7682 28.7845 43.7275 27.6335 43.3761C26.4826 43.0247 25.9298 41.496 26.3979 39.9617C26.8664 38.4275 28.1789 37.4682 29.3298 37.8196C30.4808 38.1705 31.034 39.6992 30.5655 41.234Z" fill="#005079"/>
<path d="M29.3305 37.8199C29.0203 37.7255 28.6986 37.7287 28.3847 37.8098C28.399 37.8139 28.4138 37.8153 28.4282 37.8199C29.5791 38.1713 30.1319 39.7 29.6638 41.2343C29.3217 42.3551 28.5287 43.1662 27.6777 43.3866C28.818 43.7014 30.1037 42.7496 30.5662 41.2343C31.0347 39.6996 30.4814 38.1709 29.3305 37.8199Z" fill="#003A57"/>
<path d="M19.8052 22.5801C22.3851 21.878 24.135 20.054 23.7137 18.5062C23.2924 16.9583 20.8596 16.2727 18.2797 16.9748C15.6998 17.6769 13.9499 19.5009 14.3712 21.0488C14.7924 22.5966 17.2253 23.2823 19.8052 22.5801Z" fill="#005079"/>
<path d="M18.2787 17.8799C20.8588 17.178 23.2916 17.8637 23.7129 19.4118C23.7157 19.4211 23.7157 19.4308 23.718 19.4401C23.7921 19.1262 23.7953 18.8128 23.7129 18.5095C23.2916 16.9614 20.8588 16.2757 18.2787 16.9776C15.7143 17.6753 13.9722 19.4813 14.3648 21.0234C14.6685 19.7345 16.2041 18.4443 18.2787 17.8799Z" fill="#003A57"/>
<path d="M20.3627 0.910156C19.134 1.14719 17.9373 1.47451 16.7812 1.88701C17.6447 1.61386 18.5373 1.35877 19.4572 1.12775C19.7604 1.05136 20.0623 0.979601 20.3627 0.910156Z" fill="#19BAB4"/>
<path d="M23.4414 12.7984C31.5159 10.7692 36.6122 6.46413 36.7289 3.41042C33.2529 1.52894 29.2733 0.459961 25.0432 0.459961C23.4423 0.459961 21.8784 0.618294 20.3627 0.910424C20.0622 0.979868 19.7603 1.05163 19.4571 1.12802C18.5372 1.35903 17.6446 1.61459 16.7812 1.88728C12.0289 3.58311 7.95571 6.70024 5.06543 10.7266C5.98673 13.7174 14.796 14.9711 23.4414 12.7984Z" fill="#1CD4CD"/>
<path d="M34.5875 4.07859C35.219 6.59201 30.8986 9.68507 23.7171 11.4897C16.5356 13.2943 9.21295 13.1272 8.58146 10.6138C7.94998 8.10035 12.8083 3.69757 19.9898 1.89294C27.1713 0.0883108 33.956 1.56516 34.5875 4.07859Z" fill="#4EE8DC"/>
<path d="M30.919 5.85044C31.3523 7.57497 27.9371 8.96247 23.0097 10.2009C18.0824 11.4389 13.5093 12.0588 13.0759 10.3342C12.6426 8.60969 15.3833 4.8546 20.3107 3.61664C25.238 2.37821 30.4857 4.1259 30.919 5.85044Z" fill="#67F7ED"/>
<path d="M28.264 6.88456C28.5538 8.0378 26.1205 8.96836 22.826 9.79613C19.5311 10.6239 16.6228 11.0355 16.333 9.88271C16.0432 8.72993 18.4793 6.67252 21.7737 5.84474C25.0682 5.01696 27.9742 5.73132 28.264 6.88456Z" fill="#9EF7F1"/>
<g opacity="0.15">
<path d="M39.9017 35.8078C36.8827 36.9194 33.8044 37.8699 30.6878 38.6666C25.9521 39.8773 20.4151 41.5444 15.4873 41.0375C12.5063 40.7305 10.3243 38.4764 8.63684 36.1967C8.42944 35.9166 8.22805 35.6324 8.02805 35.3467C4.49009 30.2907 2.28962 25.3518 1.11647 19.2939C0.181752 23.299 0.230363 27.5912 1.46833 31.8199C5.29981 44.9078 19.0155 52.412 32.104 48.5805C40.4466 46.1384 46.1868 40.0097 48.6521 31.9162C48.5128 32.2889 46.9526 32.8615 46.5646 33.0421C44.3827 34.056 42.1586 34.9768 39.9017 35.8078Z" fill="black"/>
</g>
<g opacity="0.15">
<path d="M25.1674 45.4514C22.5771 45.7361 19.9308 45.8371 17.3887 45.263C12.8451 44.2371 8.99607 41.1125 6.19005 37.3945C3.86135 34.3098 2.16366 30.8153 0.584961 27.2773C0.734035 28.7723 1.01644 30.2741 1.45348 31.7681C5.26783 44.7982 18.9678 52.426 31.9975 48.6116C37.3373 47.0486 41.7933 43.6917 44.8715 39.5436C38.7701 42.6912 31.9928 44.701 25.1674 45.4514Z" fill="black"/>
</g>
</svg>
