<svg width="81" height="52" viewBox="0 0 81 52" fill="none" xmlns="http://www.w3.org/2000/svg">
<g clip-path="url(#clip0_894_1748)">
<path d="M61.1627 28.7458C61.6901 24.1583 60.8408 19.518 58.7221 15.4115C56.6035 11.305 53.3106 7.91671 49.2598 5.67511C45.2089 3.4335 40.5821 2.43921 35.9643 2.81794C31.3465 3.19667 26.9451 4.93143 23.3165 7.80286C19.688 10.6743 16.9952 14.5534 15.5787 18.9499C14.1622 23.3463 14.0856 28.0627 15.3586 32.5025C16.6315 36.9423 19.1968 40.9063 22.7302 43.8933C26.2636 46.8803 30.6064 48.7562 35.2095 49.2837C38.2668 49.634 41.3635 49.3807 44.3226 48.5381C47.2817 47.6955 50.0453 46.2801 52.4554 44.3729C54.8655 42.4657 56.875 40.104 58.369 37.4226C59.863 34.7413 60.8123 31.7929 61.1627 28.7458Z" fill="#BFBFBF"/>
<path d="M14.4707 25.1914C14.4707 24.6009 14.5418 24.0104 14.601 23.4199C15.0827 19.2481 16.6844 15.283 19.2374 11.9422C21.7904 8.60142 25.2003 6.00866 29.1077 4.437C33.0152 2.86534 37.2757 2.37297 41.4405 3.01177C45.6052 3.65056 49.52 5.39684 52.7724 8.06672C32.6142 7.71241 21.036 16.4165 14.4707 25.1914Z" fill="#949494"/>
<path d="M14.8378 21.2587C14.8378 21.2587 -3.44791 9.24778 0.616908 1.50034C4.68172 -6.24711 53.1395 17.8928 69.9558 33.7656C86.772 49.6384 87.1631 59.5589 52.0493 44.7136L55.4623 41.5721C55.4623 41.5721 65.4762 47.0402 68.5692 44.442C71.6623 41.8438 59.0886 30.6596 39.5349 18.4597C19.9811 6.25984 9.2443 5.5276 9.54057 10.3698C9.77759 14.2907 16.0348 17.7038 16.0348 17.7038L14.8378 21.2587Z" fill="#846101"/>
<path d="M52.002 44.7131L53.7441 43.107C60.4397 45.7643 69.6478 47.4649 77.4456 41.926C85.6463 52.4724 80.5623 56.7831 52.002 44.7131Z" fill="#C18D01"/>
</g>
<defs>
<clipPath id="clip0_894_1748">
<rect width="81" height="52" fill="white" transform="matrix(1 0 0 -1 0 52)"/>
</clipPath>
</defs>
</svg>
