<svg width="50" height="50" viewBox="0 0 50 50" fill="none" xmlns="http://www.w3.org/2000/svg">
<path d="M35.3715 39.6285C43.4506 33.9005 45.3565 22.7076 39.6285 14.6285C33.9004 6.54947 22.7075 4.64358 14.6285 10.3716C6.54938 16.0997 4.6435 27.2925 10.3715 35.3716C16.0996 43.4507 27.2925 45.3566 35.3715 39.6285Z" fill="#D93709"/>
<path d="M11.1645 23.1663C13.1863 22.7779 15.1115 21.9988 17.1083 21.4987C23.6691 19.8555 30.5622 21.2927 37.171 22.7313C38.9834 23.1257 41.093 23.7535 42.9058 24.1483C42.8767 23.5293 42.8183 22.916 42.7268 22.3116C40.9005 22.5547 38.9557 21.571 37.3803 20.4698C35.494 19.151 33.5438 17.5686 31.242 17.5814C29.227 17.5926 27.2828 18.8593 25.308 18.4601C22.6581 17.9245 21.2255 14.658 18.5695 14.1528C17.2393 13.8998 15.8933 14.4091 14.6472 14.9386C13.4011 15.4681 12.0986 16.0402 10.7501 15.9166C10.3935 15.8838 10.0366 15.7805 9.70531 15.6234C8.50682 17.5763 7.66325 19.7917 7.283 22.1961C7.22897 22.5368 7.18743 22.8765 7.15332 23.2152C8.45515 23.4871 9.84883 23.4189 11.1645 23.1663Z" fill="#FF7700"/>
<path d="M10.7512 15.9164C12.0996 16.04 13.4021 15.4683 14.6482 14.9384C15.8943 14.4089 17.2404 13.8997 18.5706 14.1526C21.2266 14.6578 22.6588 17.9244 25.309 18.4599C27.2842 18.8591 29.228 17.5924 31.243 17.5812C33.5448 17.5684 35.495 19.1509 37.3814 20.4696C38.9567 21.5708 40.9016 22.5545 42.7278 22.3114C41.5908 14.7888 35.7115 8.53668 27.7968 7.28517C20.4195 6.11843 13.3842 9.63049 9.70703 15.6229C10.0373 15.7803 10.3946 15.8836 10.7512 15.9164Z" fill="#D93709"/>
<path d="M25.5165 31.8416C19.2086 32.0131 12.7147 30.9048 7.27637 27.7578C7.65189 30.1707 8.51673 32.4491 9.77871 34.4736C11.8363 36.0105 13.9496 37.4936 16.3209 38.4632C19.0489 39.5786 22.2033 39.9561 24.9336 38.8458C27.3414 37.8665 29.1633 35.8632 31.3309 34.429C34.2956 32.4673 37.9667 31.613 41.495 32.0223C41.8685 31.1436 42.1724 30.2247 42.4051 29.2724C36.8364 30.559 31.2198 31.6862 25.5165 31.8416Z" fill="#FF7700"/>
<path d="M24.9332 38.8465C22.2032 39.9568 19.0488 39.5796 16.3205 38.4639C13.9492 37.4943 11.8359 36.0112 9.77832 34.4743C12.4336 38.7333 16.8477 41.8628 22.1941 42.7084C30.4893 44.0203 38.3523 39.4172 41.4946 32.023C37.9663 31.6137 34.2952 32.468 31.3305 34.4297C29.1629 35.8639 27.341 37.8672 24.9332 38.8465Z" fill="#D93709"/>
<path opacity="0.1" d="M33.9944 21.241C35.6791 18.1119 36.3052 14.509 36.1641 10.9422C35.0666 10.0828 33.8883 9.36382 32.6534 8.79344C26.6839 6.03648 19.4308 6.69127 13.9662 11.0385C13.8737 11.1121 13.7788 11.182 13.6872 11.2576C10.8259 13.6262 8.88821 16.6969 7.91699 20.0121C9.12865 21.6621 10.4676 23.2061 12.0126 24.5487C15.1995 27.3179 19.4031 29.1664 23.5987 28.6957C28.006 28.2016 31.8922 25.1455 33.9944 21.241Z" fill="white"/>
<path opacity="0.1" d="M20.7181 17.2224C21.9696 17.7755 23.3251 18.1203 24.6934 18.1169C27.9617 18.1085 31.1161 15.9199 32.2687 12.8617C32.756 11.5686 32.8678 10.1567 32.654 8.79344C26.6845 6.03648 19.4314 6.69127 13.9668 11.0385C15.6563 13.6982 17.8635 15.9604 20.7181 17.2224Z" fill="white"/>
<path opacity="0.15" d="M42.0908 30.8702C40.4564 32.5945 38.6568 34.1479 36.6546 35.4291C32.2827 38.2269 26.8539 39.6348 21.7999 38.4522C17.7154 37.4961 14.1436 34.934 11.334 31.8194C9.79372 30.1124 8.46048 28.2402 7.23633 26.292C7.48048 29.9138 8.81878 33.4954 11.3103 36.505C17.6256 44.1333 28.929 45.1977 36.5576 38.8824C39.2038 36.6914 41.0585 33.9 42.0908 30.8702Z" fill="black"/>
<g opacity="0.15">
<path d="M28.7533 33.6483C27.3691 34.0985 25.9362 34.4352 24.4814 34.4743C22.4707 34.5284 20.4787 34.0107 18.6183 33.2461C13.7517 31.2469 9.65578 27.4678 7.20139 22.82C6.02856 32.3651 12.6214 41.1938 22.1945 42.7077C31.9763 44.2547 41.16 37.5791 42.7066 27.7974C42.9748 26.1011 42.9906 24.4241 42.791 22.8008C39.5198 27.8622 34.4894 31.7832 28.7533 33.6483Z" fill="black"/>
</g>
</svg>
