<svg width="148" height="139" viewBox="0 0 148 139" fill="none" xmlns="http://www.w3.org/2000/svg">
<path d="M77.7126 94.929C69.2297 97.1116 60.2898 96.7272 52.0255 93.8246C43.7612 90.922 36.5444 85.6318 31.2894 78.6241C26.0343 71.6164 22.9774 63.2066 22.506 54.4601C22.0346 45.7136 24.1699 37.0239 28.6413 29.492C33.1128 21.9601 39.7192 15.9248 47.6236 12.1508C55.528 8.3767 64.3748 7.03369 73.0432 8.29187C81.7116 9.55006 89.8115 13.3528 96.3167 19.2184C102.822 25.084 107.44 32.7484 109.586 41.2408C112.452 52.5856 110.707 64.6038 104.734 74.6656C98.7607 84.7274 89.0449 92.0133 77.7126 94.929Z" fill="#00BDF1"/>
<path d="M77.7155 95.0061L76.9558 95.187C76.4131 95.187 75.6896 95.5126 74.6766 95.6573C71.783 96.2305 68.8337 96.4733 65.8853 96.3809C55.2125 96.2639 44.9386 92.3084 36.9428 85.238C34.3812 82.948 32.0873 80.375 30.1052 77.5683C28.0057 74.5425 26.3034 71.2596 25.0402 67.8002C22.2391 60.3426 21.5261 52.262 22.9781 44.4291C24.1144 38.139 26.5682 32.1603 30.1783 26.8855C33.7883 21.6107 38.4732 17.159 43.9252 13.8225C45.786 12.7051 47.7199 11.7139 49.7137 10.8559C51.7207 9.99374 53.7885 9.28033 55.9001 8.72139C58.0132 8.16008 60.166 7.76095 62.3398 7.5275C64.5133 7.28068 66.702 7.19606 68.8881 7.27429C75.3328 7.53965 81.6432 9.20062 87.3834 12.1426C93.1236 15.0845 98.1569 19.2373 102.136 24.3141C104.674 27.5013 106.745 31.0341 108.286 34.8058C108.648 35.7464 109.046 36.6509 109.335 37.5915L109.805 39.0024L110.203 40.4134L110.674 43.1991C110.674 44.1397 111.036 45.0804 111.144 46.021C111.595 49.6853 111.595 53.391 111.144 57.0553C110.725 60.4744 109.924 63.8359 108.756 67.0767C105.039 77.0786 97.8656 85.4202 88.5328 90.5924C85.9776 92.0774 83.2735 93.29 80.4651 94.2102C79.7289 94.4653 78.9803 94.6826 78.222 94.8614L77.7155 95.0061ZM77.7155 95.0061L78.4753 94.7891C79.2223 94.5984 79.9589 94.3689 80.6821 94.1017C83.4745 93.1996 86.1565 91.986 88.6775 90.4839C90.4916 89.4292 92.2105 88.2187 93.8148 86.8661C95.7368 85.3418 97.5168 83.6466 99.1329 81.8012C103.032 77.3953 106.008 72.2534 107.888 66.6786C110.114 60.121 110.783 53.1352 109.842 46.2743C109.842 45.3698 109.552 44.4654 109.408 43.5609L109.082 42.15L109.082 41.4626L109.082 40.8113L108.72 39.4366L108.25 38.098C107.96 37.1935 107.599 36.2891 107.237 35.3846C106.485 33.5921 105.615 31.8517 104.632 30.175C104.162 29.3067 103.619 28.5108 103.076 27.6425C102.534 26.7742 101.955 26.0145 101.34 25.2547C96.2901 18.6411 89.4461 13.618 81.6228 10.7835C73.5042 7.83567 64.6996 7.33257 56.2981 9.33641C54.2213 9.87394 52.1794 10.5385 50.184 11.3262C48.2046 12.135 46.2828 13.0778 44.4317 14.1481C40.7579 16.3475 37.4296 19.0784 34.5551 22.252C28.8751 28.4824 25.1513 36.2446 23.8463 44.5739C23.8463 45.5507 23.5931 46.5637 23.4846 47.5405C23.376 48.5173 23.4846 49.5303 23.4846 50.5071C23.4417 52.4762 23.5263 54.4459 23.7378 56.4041C23.7378 57.3447 23.991 58.3215 24.1719 59.226L24.4614 60.637L24.787 62.0479C24.787 62.9523 25.2935 63.8568 25.5105 64.7612C25.7276 65.6657 26.0894 66.5339 26.4512 67.366C28.9292 73.8617 32.8796 79.6945 37.992 84.406C42.3091 88.4001 47.3752 91.4988 52.8973 93.5228C55.246 94.3889 57.6676 95.0428 60.133 95.4765C62.1748 95.8555 64.2434 96.0732 66.3194 96.1277C69.2526 96.2189 72.1872 96.0006 75.0745 95.4765C76.0875 95.4765 76.8111 95.1508 77.3537 95.0423C77.8964 94.9337 77.6793 94.8614 77.6793 94.8614L77.7155 95.0061Z" fill="#007CD8"/>
<path d="M77.7126 94.929C69.2297 97.1116 60.2898 96.7272 52.0255 93.8246C43.7612 90.922 36.5444 85.6318 31.2894 78.6241C26.0343 71.6164 22.9774 63.2066 22.506 54.4601C22.0346 45.7136 24.1699 37.0239 28.6413 29.492C33.1128 21.9601 39.7192 15.9248 47.6236 12.1508C55.528 8.3767 64.3748 7.03369 73.0432 8.29187C81.7116 9.55006 89.8115 13.3528 96.3167 19.2184C102.822 25.084 107.44 32.7484 109.586 41.2408C112.452 52.5856 110.707 64.6038 104.734 74.6656C98.7607 84.7274 89.0449 92.0133 77.7126 94.929Z" fill="#7259A5"/>
<path d="M77.7155 95.0061L76.9558 95.187C76.4131 95.187 75.6896 95.5126 74.6766 95.6573C71.783 96.2305 68.8337 96.4733 65.8853 96.3809C55.2125 96.2639 44.9386 92.3084 36.9428 85.238C34.3812 82.948 32.0873 80.375 30.1052 77.5683C28.0057 74.5425 26.3034 71.2596 25.0402 67.8002C22.2391 60.3426 21.5261 52.262 22.9781 44.4291C24.1144 38.139 26.5682 32.1603 30.1783 26.8855C33.7883 21.6107 38.4732 17.159 43.9252 13.8225C45.786 12.7051 47.7199 11.7139 49.7137 10.8559C51.7207 9.99374 53.7885 9.28033 55.9001 8.72139C58.0132 8.16008 60.166 7.76095 62.3398 7.5275C64.5133 7.28068 66.702 7.19606 68.8881 7.27429C75.3328 7.53965 81.6432 9.20062 87.3834 12.1426C93.1236 15.0845 98.1569 19.2373 102.136 24.3141C104.674 27.5013 106.745 31.0341 108.286 34.8058C108.648 35.7464 109.046 36.6509 109.335 37.5915L109.805 39.0024L110.203 40.4134L110.674 43.1991C110.674 44.1397 111.036 45.0804 111.144 46.021C111.595 49.6853 111.595 53.391 111.144 57.0553C110.725 60.4744 109.924 63.8359 108.756 67.0767C105.039 77.0786 97.8656 85.4202 88.5328 90.5924C85.9776 92.0774 83.2735 93.29 80.4651 94.2102C79.7289 94.4653 78.9803 94.6826 78.222 94.8614L77.7155 95.0061ZM77.7155 95.0061L78.4753 94.7891C79.2223 94.5984 79.9589 94.3689 80.6821 94.1017C83.4745 93.1996 86.1565 91.986 88.6775 90.4839C90.4916 89.4292 92.2105 88.2187 93.8148 86.8661C95.7368 85.3418 97.5168 83.6466 99.1329 81.8012C103.032 77.3953 106.008 72.2534 107.888 66.6786C110.114 60.121 110.783 53.1352 109.842 46.2743C109.842 45.3698 109.552 44.4654 109.408 43.5609L109.082 42.15L109.082 41.4626L109.082 40.8113L108.72 39.4366L108.25 38.098C107.96 37.1935 107.599 36.2891 107.237 35.3846C106.485 33.5921 105.615 31.8517 104.632 30.175C104.162 29.3067 103.619 28.5108 103.076 27.6425C102.534 26.7742 101.955 26.0145 101.34 25.2547C96.2901 18.6411 89.4461 13.618 81.6228 10.7835C73.5042 7.83567 64.6996 7.33257 56.2981 9.33641C54.2213 9.87394 52.1794 10.5385 50.184 11.3262C48.2046 12.135 46.2828 13.0778 44.4317 14.1481C40.7579 16.3475 37.4296 19.0784 34.5551 22.252C28.8751 28.4824 25.1513 36.2446 23.8463 44.5739C23.8463 45.5507 23.5931 46.5637 23.4846 47.5405C23.376 48.5173 23.4846 49.5303 23.4846 50.5071C23.4417 52.4762 23.5263 54.4459 23.7378 56.4041C23.7378 57.3447 23.991 58.3215 24.1719 59.226L24.4614 60.637L24.787 62.0479C24.787 62.9523 25.2935 63.8568 25.5105 64.7612C25.7276 65.6657 26.0894 66.5339 26.4512 67.366C28.9292 73.8617 32.8796 79.6945 37.992 84.406C42.3091 88.4001 47.3752 91.4988 52.8973 93.5228C55.246 94.3889 57.6676 95.0428 60.133 95.4765C62.1748 95.8555 64.2434 96.0732 66.3194 96.1277C69.2526 96.2189 72.1872 96.0006 75.0745 95.4765C76.0875 95.4765 76.8111 95.1508 77.3537 95.0423C77.8964 94.9337 77.6793 94.8614 77.6793 94.8614L77.7155 95.0061Z" fill="#642D90"/>
<path d="M76.9547 12.0851C79.3692 13.3025 81.8584 14.3659 84.4074 15.2688C86.0945 15.9003 87.859 16.3018 89.6532 16.4627C90.7229 16.5862 91.8033 16.5862 92.873 16.4627C86.5034 11.8011 79.015 8.9055 71.1662 8.06933C72.7771 9.81705 74.7535 11.1882 76.9547 12.0851Z" fill="#CA7BB2"/>
<path d="M67.799 12.339C71.098 14.4937 74.5433 16.4158 78.1097 18.0913C81.7275 19.864 85.5624 21.7091 89.4696 23.12C93.4342 24.805 97.7178 25.6074 102.023 25.4716C99.6283 22.2772 96.8039 19.4284 93.6301 17.0059C90.974 17.4207 88.2597 17.2604 85.6709 16.5357C81.9048 15.3658 78.2681 13.8141 74.8175 11.9049C72.8674 10.9668 71.1592 9.59283 69.8249 7.88909C67.3454 7.67238 64.8518 7.67238 62.3723 7.88909C63.9737 9.60878 65.7989 11.1055 67.799 12.339Z" fill="#FFF8BF"/>
<path d="M76.1916 22.6131C81.562 25.2513 87.2363 27.2197 93.0868 28.4739C95.6554 28.9442 98.2241 29.2337 100.829 29.5231C102.172 29.7038 103.527 29.7763 104.881 29.7402C104.193 28.5463 103.434 27.3886 102.638 26.1224C98.5156 26.3631 94.3907 25.6962 90.5543 24.1688C85.968 22.497 81.486 20.5519 77.1323 18.3441C72.6585 16.3314 68.4336 13.8062 64.5423 10.8191C63.4569 9.95845 62.4628 8.9886 61.5757 7.9248C59.6851 8.14856 57.8117 8.49905 55.9681 8.97394C55.9681 8.97394 55.9681 8.97394 55.751 8.97394C61.937 14.3969 68.8095 18.9826 76.1916 22.6131Z" fill="#F8A477"/>
<path d="M50.5787 16.1358C56.4855 20.311 62.7578 23.9436 69.3189 26.9892C76.5673 30.2074 84.2247 32.4108 92.0749 33.5374C95.861 34.0737 99.6841 34.3035 103.507 34.2248C104.665 34.2248 105.859 34.2248 107.125 34.2248L107.125 33.9716C104.412 33.9716 101.698 33.4651 99.0935 33.2118C91.7948 32.7014 84.6006 31.1919 77.7122 28.7257C70.9108 26.0821 64.4688 22.5937 58.5378 18.3426C55.7159 16.3528 52.7493 14.3268 50.036 12.0838L49.2762 11.4326C48.1185 11.9391 46.997 12.4818 45.9117 13.0606C47.4673 14.2545 49.1677 15.1228 50.5787 16.1358Z" fill="#FFF8BF"/>
<path d="M109.585 41.2427L109.187 39.7956C108.645 39.7956 108.066 39.7956 107.523 39.7956C103.905 39.7956 100.288 39.5062 96.6698 39.1806C87.5888 38.4556 78.6586 36.4332 70.1513 33.175C61.722 29.7503 53.8746 25.0395 46.8888 19.2102C45.4055 17.944 43.8136 16.5692 42.3303 15.0859C43.0177 15.7733 43.7051 16.3883 44.3925 17.0034C47.54 19.97 50.6875 22.9004 54.0882 25.5414C60.5688 30.7037 67.7886 34.8624 75.5056 37.8781C83.6409 41.0959 92.2678 42.8947 101.011 43.1963C104.012 43.357 107.019 43.357 110.02 43.1963C109.875 42.4366 109.766 41.8216 109.585 41.2427Z" fill="#9E73B1"/>
<path d="M48.4773 19.5006C54.9093 24.7512 62.0455 29.0743 69.6777 32.3438C77.4856 35.4279 85.6765 37.4361 94.0255 38.3132C97.6433 38.7112 101.261 39.0006 105.132 39.1453C106.362 39.1453 107.665 39.1453 108.75 39.1453C108.325 37.7182 107.818 36.3169 107.231 34.9487C106.543 34.9487 105.892 34.9487 105.205 34.9487C101.364 35.0751 97.5198 34.93 93.6999 34.5146C85.4213 33.5088 77.3308 31.3155 69.6777 28.0025C62.5298 24.7519 55.6887 20.8651 49.237 16.3893L44.9319 13.5312C44.2083 13.9292 43.5209 14.3633 42.8335 14.7974C44.6158 16.4803 46.5006 18.0511 48.4773 19.5006Z" fill="#CA7BB2"/>
<path d="M72.3185 41.2384C79.355 44.556 86.978 46.4494 94.7489 46.8098C98.4792 46.8219 102.205 46.5438 105.892 45.9777C107.375 45.7606 108.931 45.5797 110.414 45.2179L110.161 43.7346C107.486 43.877 104.805 43.877 102.129 43.7346C92.9062 43.5875 83.7816 41.8116 75.1766 38.4888C66.552 35.0736 58.5373 30.2844 51.4438 24.307C48.1516 21.5936 44.9679 18.6994 41.8928 15.6966L41.6033 15.4072L39.9753 16.6373C48.7113 27.2259 59.7819 35.6465 72.3185 41.2384Z" fill="#FAC8C2"/>
<path d="M110.676 48.2671L110.459 46.205C109.699 46.205 108.975 46.4944 108.216 46.603C104.109 47.3486 99.9445 47.7359 95.7704 47.7606C87.7947 47.4855 79.9515 45.6415 72.6888 42.3339C59.7634 36.6947 48.3029 28.1674 39.1879 17.4072C38.2834 18.1308 37.379 18.9267 36.5107 19.7226L37.379 20.6994C40.6903 24.5336 44.3211 28.0798 48.2324 31.2997C55.4673 36.9074 63.5043 41.3954 72.0738 44.6132C83.3613 48.8098 99.0988 53.2959 110.676 48.2671Z" fill="#CA7BB2"/>
<path d="M33.7162 44.9332C41.0315 51.9836 49.0715 58.2411 57.7023 63.6012C71.052 71.7774 86.4277 78.9769 102.238 78.5066C102.997 77.4574 103.721 76.4082 104.408 75.2866C102.02 74.8163 99.7413 74.2375 97.6791 73.6948C87.0358 70.6824 76.8136 66.3431 67.2533 60.7792C63.5062 58.6459 59.8827 56.3027 56.3999 53.7607C47.9846 49.1444 40.1302 43.5723 32.9927 37.155C31.1838 35.5631 29.3749 33.8266 27.4574 31.9453C26.6814 33.4727 25.9929 35.0429 25.3953 36.6485C28.1086 39.5789 31.0752 42.2922 33.7162 44.9332Z" fill="#FAC8C2"/>
<path d="M60.0154 74.1689C69.4093 78.6388 79.4425 81.617 89.7538 82.9964C92.25 83.2858 94.891 83.6114 97.6406 83.8646C99.0432 82.4491 100.36 80.9511 101.584 79.3786C86.1359 79.3786 71.0135 72.6856 57.917 64.6903C48.925 59.1678 40.5555 52.6906 32.9541 45.3712C30.3493 42.8387 27.6722 40.2339 25.1397 37.5205C24.4659 39.4324 23.9338 41.3913 23.5478 43.3814C32.7039 56.7456 45.3049 67.3839 60.0154 74.1689Z" fill="#F8A477"/>
<path d="M26.4464 69.7185C28.7133 72.0002 31.1306 74.1275 33.682 76.0858C40.7564 81.3396 48.524 85.5886 56.7636 88.712C64.4046 91.7754 72.4942 93.5717 80.7136 94.0301C83.804 93.0285 86.7667 91.6686 89.541 89.9782C78.413 89.6452 67.4144 87.4945 56.9807 83.6109C47.2384 80.1971 38.1754 75.0899 30.2089 68.5246C28.1468 66.7881 26.0485 64.9068 24.0225 62.8809C24.6383 65.2237 25.4491 67.5109 26.4464 69.7185Z" fill="#477BBD"/>
<path d="M56.402 89.4702C47.2636 85.9835 38.7207 81.1018 31.0773 74.9989C29.9558 74.0945 28.7619 73.0814 27.4595 71.9961C31.9895 80.9356 39.4225 88.0708 48.5396 92.2317C57.6568 96.3926 67.9172 97.3323 77.6385 94.8969L78.543 94.6436C70.948 94.0197 63.487 92.2764 56.402 89.4702Z" fill="#9E73B1"/>
<path d="M32.1991 68.92C39.7971 74.9543 48.3588 79.6633 57.5238 82.8486C68.2679 86.8229 79.6069 88.9513 91.0609 89.1437C93.1996 87.7591 95.2095 86.185 97.0664 84.4405C95.2213 84.4405 93.4486 84.0425 91.6397 83.8616C80.9567 82.6713 70.5359 79.7637 60.7798 75.2512C45.8401 68.523 32.9647 57.9329 23.4802 44.5723C22.5168 50.1145 22.6396 55.7912 23.842 61.2865C26.4489 64.0201 29.2412 66.5707 32.1991 68.92Z" fill="#CA7BB2"/>
<path d="M67.2572 59.7313C76.5867 65.2462 86.5634 69.5844 96.9594 72.6469C99.4195 73.2981 102.133 74.0216 104.991 74.5643C106.716 71.6071 108.1 68.4635 109.115 65.1941C107.755 65.6759 106.349 66.0153 104.919 66.2071C99.8112 66.8303 94.6387 66.6718 89.5791 65.7368C80.1461 64.0553 70.9988 61.0467 62.4093 56.8008C63.8565 57.6691 65.4483 58.7906 67.2572 59.7313Z" fill="#FAC8C2"/>
<path d="M32.5969 31.5833C35.8529 34.6585 39.0004 37.8421 42.2926 40.9173C46.858 45.2784 51.6911 49.3504 56.7638 53.1093L59.1154 54.4117C68.0447 59.1835 77.6252 62.6208 87.5514 64.614C92.7922 65.7279 98.1727 66.0329 103.506 65.5184C105.431 65.2245 107.321 64.7397 109.15 64.0712C109.776 61.8311 110.224 59.5447 110.488 57.2336C105.161 58.5555 99.6161 58.7526 94.2081 57.8125C84.1789 56.1086 74.5136 52.7073 65.6275 47.7549C56.3189 42.8175 47.5105 36.9897 39.326 30.3533C36.8659 28.3635 34.5143 26.4099 32.2713 24.2754C31.1886 25.6309 30.1976 27.057 29.3047 28.5444C30.4624 29.5935 31.5477 30.6065 32.5969 31.5833Z" fill="#9E73B1"/>
<path d="M40.8835 40.7371C37.2656 37.3002 33.6478 33.8994 30.03 30.4263L28.8723 29.2324C28.4744 29.8836 28.0764 30.5348 27.7508 31.186C29.6683 33.1758 31.6942 35.0209 33.6117 36.7213C39.1185 41.6337 45.0373 46.0637 51.3027 49.9625C47.7935 47.032 44.2842 43.9569 40.8835 40.7371Z" fill="#CA7BB2"/>
<path d="M42.8731 32.0215C50.4037 37.8666 58.4433 43.0245 66.8953 47.4333C74.903 51.8911 83.5761 55.0306 92.5818 56.7311C98.5683 57.9577 104.756 57.7968 110.671 56.2608C110.852 53.9248 110.852 51.5783 110.671 49.2423C98.7682 54.0178 82.9584 49.6402 71.8517 45.335C57.828 40.2813 45.3603 31.6661 35.6736 20.3359C34.5743 21.3872 33.5469 22.5113 32.5985 23.7005C35.8615 26.6683 39.292 29.4465 42.8731 32.0215Z" fill="#FAC8C2"/>
<path d="M53.6525 13.7132C56.2212 15.5582 58.6813 17.5119 61.3223 19.2484C66.7637 22.9644 72.6454 25.9903 78.8325 28.2567C85.3398 30.4101 92.0801 31.7825 98.9113 32.3449C101.444 32.5619 103.976 32.8875 106.545 33.0323C106.183 32.2725 105.785 31.5489 105.387 30.8254C102.105 30.9105 98.8247 30.5947 95.6191 29.8848C89.3578 28.8476 83.2703 26.9483 77.5301 24.2409C69.3771 20.3803 61.7734 15.4531 54.9188 9.58886C53.3121 10.0498 51.7302 10.5932 50.1795 11.2169C51.2286 12.0128 52.4587 12.8449 53.6525 13.7132Z" fill="#B75DB1"/>
<path style="mix-blend-mode:multiply" d="M77.6798 94.8636C69.1894 97.0464 60.2422 96.6601 51.9716 93.7535C43.701 90.847 36.4792 85.551 31.2211 78.5365C25.963 71.522 22.9052 63.1047 22.4352 54.3508C21.9651 45.597 24.1039 36.9006 28.5805 29.3634C33.0572 21.8261 39.6703 15.7872 47.5821 12.0116C55.4939 8.23608 64.3483 6.89386 73.0235 8.15494C81.6988 9.41603 89.8046 13.2237 96.314 19.0955C102.823 24.9674 107.443 32.6392 109.589 41.1391C112.455 52.4935 110.706 64.5208 104.726 74.5893C98.7463 84.6578 89.0214 91.9476 77.6798 94.8636Z" fill="url(#paint0_radial_1653_2754)"/>
<path style="mix-blend-mode:screen" d="M107.31 57.0164C109.848 51.5796 110.198 45.3748 108.287 39.6871C105.747 30.3105 100.087 22.0795 92.2411 16.3511C84.395 10.6228 74.8312 7.73934 65.1264 8.17602C61.2945 8.32967 57.5048 9.03638 53.8751 10.2743C47.0167 12.9562 40.7759 17.006 35.5328 22.1769C32.837 24.5821 30.8166 27.6501 29.6719 31.0767C30.8045 32.3538 32.0126 33.5619 33.2897 34.6945C37.5587 31.945 42.8407 32.1982 47.7609 31.9812C51.1991 32.3019 54.6466 31.475 57.5652 29.6296C60.5318 27.1695 58.1803 22.6834 59.6997 19.753C61.2192 16.8226 66.1756 18.1973 68.3463 18.8123C70.2476 19.1495 71.9714 20.1402 73.2198 21.6133C74.4683 23.0864 75.163 24.9493 75.184 26.8801C76.016 34.9116 87.3036 31.4385 90.0531 37.4079C90.8852 39.253 89.6914 41.5684 89.5105 43.4497C89.3351 45.0393 89.6913 46.6423 90.5235 48.0081C91.5005 49.3096 92.8319 50.3018 94.3583 50.8661C96.8374 52.1255 99.1776 53.6412 101.341 55.3884C102.386 56.3573 103.499 57.2518 104.669 58.0655C105.582 57.8047 106.467 57.4533 107.31 57.0164Z" fill="url(#paint1_radial_1653_2754)"/>
<path d="M133.394 91.8604C135.962 84.0821 127.244 75.6888 122.323 70.841C118.739 67.309 114.933 64.01 110.927 60.9643C110.724 62.1381 110.372 63.281 109.878 64.3651L108.72 66.8975C112.049 70.1173 115.305 73.3734 118.344 76.8826C119.718 79.198 120.804 82.2732 117.186 82.7797C113.082 83.1479 108.945 82.8053 104.958 81.7667C95.5614 79.2577 86.5359 75.5234 78.1137 70.66C69.2072 65.9791 60.7326 60.519 52.789 54.3437C41.8367 46.2636 32.0913 36.6644 23.8465 25.8354C22.5441 24.0265 17.9495 17.9486 20.7352 16.0311C24.0998 13.6796 29.7074 14.9096 33.3252 15.814C35.315 16.2843 37.2686 16.7908 39.2222 17.2973C40.5437 16.1426 41.9873 15.1357 43.5274 14.2945C40.4268 12.2894 37.227 10.4419 33.9402 8.75929C28.5332 5.73413 22.8816 3.16854 17.0451 1.08956C12.9374 -0.263549 8.48733 -0.148475 4.45508 1.41515C2.72502 2.61233 1.45015 4.35893 0.83728 6.37158C-2.09316 15.3799 5.64897 25.0757 10.7139 31.6962C23.4486 48.7723 41.3206 62.0135 59.3011 73.0478C73.1044 81.7664 87.9282 88.753 103.438 93.8502C110.348 96.1656 129.885 102.28 133.394 91.8604Z" fill="url(#paint2_radial_1653_2754)"/>
<g style="mix-blend-mode:multiply">
<path d="M17.6661 9.47914C25.6976 7.67023 33.8377 11.5051 41.1456 15.8465L41.7969 15.4124C40.2412 14.5803 38.6132 13.8567 37.1299 13.0608C33.3266 10.9708 29.343 9.22723 25.2273 7.85113C21.2839 6.62108 15.6039 4.55896 11.5158 6.18697C10.1105 6.83993 8.97881 7.96511 8.31774 9.36658C7.65667 10.768 7.50812 12.357 7.89797 13.8567C8.84274 17.9839 10.5748 21.8902 12.9991 25.3614C15.4918 29.2638 18.2861 32.9653 21.3562 36.4319C27.5423 43.3183 34.3083 49.6606 41.5798 55.3891C62.6354 72.2843 86.0065 88.3836 113.249 92.0738C117.192 92.6164 124.645 93.9911 127.72 90.6266C131.663 86.4661 124.681 79.9541 121.859 77.2407L119.29 74.6721C120.589 76.319 121.705 78.1022 122.619 79.9903C123.231 80.8727 123.58 81.9104 123.626 82.9831C123.672 84.0558 123.413 85.1196 122.879 86.0512C122.345 86.9828 121.558 87.7439 120.609 88.2463C119.66 88.7488 118.588 88.972 117.518 88.8901C110.635 88.7759 103.835 87.3644 97.4749 84.7296C91.6534 82.7423 85.9413 80.4477 80.3627 77.8557C68.8982 72.2463 58.1082 65.3524 48.2004 57.3066C36.7381 48.8918 26.7502 38.6349 18.6429 26.9532C16.2551 23.0459 9.38129 11.3242 17.6661 9.47914Z" fill="#DD8ABA"/>
</g>
<g style="mix-blend-mode:screen" opacity="0.6">
<path d="M20.8083 16.034C24.1729 13.6824 29.7804 14.9124 33.3982 15.8169C35.388 16.2872 37.3417 16.7937 39.2953 17.3002L40.4168 16.3596C34.9088 12.6416 28.5218 10.4336 21.8936 9.95605C18.2758 9.95605 14.658 10.7158 14.658 15.0572C15.0544 18.2325 16.141 21.2825 17.8417 23.9932C23.049 32.5338 29.5269 40.2315 37.0522 46.8215C45.2749 54.4521 54.1753 61.3181 63.6431 67.3346C77.4772 76.6883 92.8997 83.4433 109.155 87.2686C113.243 88.1007 123.88 89.9458 122.396 82.5293C121.13 76.1258 114.69 70.8799 110.494 66.2491L109.445 65.0914L108.612 66.9003C111.941 70.1202 115.197 73.3762 118.236 76.8855C119.611 79.2009 120.696 82.2761 117.078 82.7826C112.974 83.1508 108.837 82.8081 104.85 81.7696C95.491 79.2516 86.5026 75.5176 78.1144 70.6629C69.2079 65.982 60.7333 60.5219 52.7897 54.3466C41.8373 46.2665 32.0919 36.6672 23.8472 25.8382C22.6172 24.0293 18.0226 17.8791 20.8083 16.034Z" fill="white"/>
</g>
<g style="mix-blend-mode:screen" opacity="0.6">
<path d="M130.102 81.7324C130.102 81.7324 138.206 92.9476 124.82 96.5292C124.82 96.5292 117.585 98.6276 93.7434 89.6192C93.7434 89.6192 116.463 98.2296 124.784 95.4077C133.105 92.5858 131.767 86.1461 130.102 81.7324Z" fill="white"/>
</g>
<path d="M39.0386 11.5047C38.2789 11.0705 37.483 10.6725 36.6871 10.2384L34.3717 9.00836C33.5758 8.57422 32.7798 8.17628 31.9839 7.77832L29.6323 6.58443C28.0405 5.78852 26.4487 4.99256 24.8568 4.23282L22.4329 3.14747L19.9728 2.1707C19.1407 1.8451 18.3086 1.59181 17.4765 1.33857C16.6444 1.08532 16.6082 1.08535 16.2103 0.976819C15.8123 0.868284 15.342 0.759744 14.9079 0.687387C14.0478 0.51364 13.1779 0.392797 12.303 0.325584C11.8689 0.325584 11.4348 0.325584 11.0006 0.325584L9.69821 0.325584C8.82154 0.414397 7.9515 0.559446 7.09341 0.759759C6.24484 0.970334 5.41096 1.23621 4.59711 1.55568C3.69305 2.21174 2.90965 3.01959 2.28172 3.94339C1.65002 4.88628 1.20767 5.94299 0.979309 7.05471C0.436599 9.26492 0.436599 11.5736 0.979308 13.7838C1.48827 16.0031 2.29127 18.1445 3.36705 20.1512C4.43355 22.1875 5.6425 24.146 6.98485 26.012C8.28726 27.8933 9.66204 29.6299 11.0368 31.5473L15.3782 36.9016C16.089 37.8 16.85 38.6576 17.6574 39.4703L19.9728 42.0028C21.4923 43.7393 23.1926 45.2588 24.8568 46.8506L27.3169 49.2384L29.9218 51.4814C31.6945 52.9647 33.5396 54.4842 35.2038 55.859C36.868 57.2337 38.8216 58.7171 40.6667 60.0556L46.2381 64.0714L51.9542 67.9062C53.8717 69.2086 55.8253 70.4025 57.7427 71.524C61.6138 73.9842 65.5934 76.2996 69.5729 78.5426C71.5627 79.6641 73.6249 80.7495 75.6147 81.8348C77.6045 82.9202 79.7028 83.897 81.765 84.8738C85.9255 86.8274 90.1221 88.7087 94.3911 90.3367L97.611 91.5667L100.867 92.6882C103.002 93.4118 105.208 94.1354 107.379 94.7504C111.742 96.1148 116.244 96.9885 120.801 97.3552C123.073 97.527 125.357 97.3316 127.566 96.7764C128.658 96.4807 129.688 95.9904 130.605 95.3293C131.499 94.6718 132.229 93.8177 132.74 92.833C132.89 92.5947 133.011 92.3397 133.102 92.0733L133.102 91.6753L133.102 91.2774C133.259 90.7333 133.368 90.1763 133.427 89.6131L133.427 87.9127C133.381 87.3504 133.284 86.7935 133.138 86.2486C132.568 84.0414 131.599 81.9571 130.28 80.0983C127.591 76.3783 124.523 72.9471 121.127 69.8599C117.845 66.6449 114.378 63.6249 110.744 60.8154C114.412 63.5868 117.915 66.5706 121.235 69.7513C124.667 72.8201 127.782 76.2259 130.533 79.9174C131.894 81.8063 132.899 83.9272 133.5 86.1762C133.652 86.7444 133.749 87.3259 133.789 87.9127L133.789 88.7811L133.789 89.6493C133.758 90.2282 133.648 90.8001 133.463 91.3497L133.463 91.7838L133.463 92.2179L133.102 93.0138C132.556 94.0583 131.776 94.9623 130.822 95.6549C129.877 96.3535 128.81 96.869 127.675 97.1744C125.433 97.7567 123.111 97.9645 120.801 97.7894C116.212 97.4392 111.675 96.5901 107.271 95.257C105.027 94.6058 102.857 93.9183 100.686 93.1586L97.4301 92.0733L94.2102 90.8432C89.905 89.2152 85.6722 87.2254 81.5117 85.4165C79.4496 84.4397 77.3874 83.3905 75.3253 82.3775C73.2631 81.3645 71.2733 80.243 69.2474 79.1215C65.2316 76.8784 61.2882 74.563 57.3809 72.1029C55.4635 70.8728 53.4737 69.7151 51.5563 68.4851L45.8401 64.6141L40.2687 60.5983C38.3874 59.2235 36.6509 57.7402 34.8058 56.3293C32.9607 54.9184 31.188 53.3989 29.5238 51.9156L26.919 49.6363L24.4227 47.2486C22.7947 45.6567 21.0943 44.1011 19.5748 42.3646L17.2233 39.7959C16.4158 38.9832 15.6549 38.1257 14.944 37.2273L10.6388 31.8367C9.26407 29.9916 7.88932 28.2189 6.55073 26.2291C5.21319 24.3473 4.0045 22.3771 2.93292 20.3321C1.85026 18.2775 1.04723 16.0875 0.54515 13.8201C0.41069 13.2604 0.31401 12.6923 0.255752 12.1197C0.201614 11.53 0.201614 10.9366 0.255752 10.3469C0.201797 9.76934 0.201797 9.18799 0.255752 8.6104C0.30487 8.03383 0.413986 7.46395 0.581344 6.91002C0.850647 5.76554 1.31573 4.67622 1.9561 3.69017C2.6243 2.72099 3.45688 1.87615 4.41621 1.19388C5.25914 0.897697 6.11643 0.644106 6.98486 0.434114C7.85101 0.213447 8.73465 0.0682103 9.62586 -5.42735e-06L10.9645 -5.36883e-06C11.3986 -5.34986e-06 11.8327 -5.33088e-06 12.303 -5.31032e-06C13.1926 0.0616783 14.0758 0.194762 14.944 0.397956C15.3782 0.397956 15.8123 0.578853 16.2465 0.687387C16.6806 0.795922 17.1147 0.904478 17.5127 1.04919C17.9106 1.1939 19.2131 1.59186 20.0451 1.95364C20.8772 2.31542 21.6732 2.60484 22.5053 2.96662C23.3373 3.32841 24.1333 3.69018 24.9292 4.08814C26.521 4.84788 28.0767 5.64381 29.6685 6.4759L32.0201 7.70595C32.816 8.10391 33.612 8.50185 34.3717 8.93599L36.7232 10.2022L39.0386 11.5047Z" fill="#A760A6"/>
<path style="mix-blend-mode:screen" d="M53.1857 63.3159C50.3789 60.4663 47.26 57.9421 43.888 55.7909C40.4872 53.379 37.1588 50.7018 33.9028 47.7593C27.1833 41.8972 21.3573 35.0839 16.6097 27.5358C14.4028 23.918 5.75625 11.0024 12.6301 8.86787C16.2479 7.67399 21.747 9.44671 25.4371 10.3873C29.1273 11.328 33.5048 12.6666 37.5206 14.0051C38.1356 14.186 38.2442 13.3539 37.7738 13.1007C29.7785 8.75932 19.3954 1.48755 9.8082 3.00703C0.221004 4.52651 2.93435 15.2352 5.75624 21.494C10.5926 30.7623 17.149 39.0253 25.0753 45.8419C29.1208 49.6733 33.3591 53.2959 37.7738 56.6953C41.7784 60.2518 46.2745 63.2126 51.1236 65.4866C52.5707 65.9931 54.452 64.9077 53.1857 63.3159Z" fill="url(#paint3_radial_1653_2754)"/>
<g style="mix-blend-mode:multiply">
<path d="M87.402 91.1757L88.9577 90.235L90.5495 89.2582C92.2499 89.9456 93.9141 90.633 95.6506 91.248C96.4827 91.5736 97.351 91.863 98.2192 92.1524C99.0875 92.4419 99.9196 92.8036 100.788 93.0569C102.524 93.6357 104.406 94.1784 105.998 94.7211C107.589 95.2637 109.615 95.6979 111.243 96.0958C114.795 96.9921 118.435 97.4897 122.097 97.5792C123.902 97.5991 125.703 97.3802 127.451 96.928C129.178 96.4618 130.727 95.492 131.901 94.1422C132.999 92.7226 133.596 90.9802 133.601 89.1858C133.61 87.4001 133.227 85.6343 132.48 84.0124C130.886 80.7498 128.772 77.7684 126.221 75.1849C124.955 73.8825 123.689 72.6163 122.35 71.35L120.396 69.4688C119.745 68.8176 119.058 68.2025 118.407 67.5875C117.755 66.9725 117.068 66.3574 116.381 65.7786L114.282 64.0059C113.595 63.3909 112.871 62.8844 112.184 62.3055C111.497 61.7267 110.773 61.184 110.013 60.6775C109.991 60.6325 109.979 60.583 109.979 60.5328C109.979 60.4826 109.991 60.4331 110.013 60.3881L110.23 59.1943L110.23 58.0003C110.23 57.2044 110.447 56.4085 110.484 55.6126C110.52 54.8166 110.484 53.9845 110.484 53.1886C110.484 52.3927 110.484 51.5968 110.484 50.7647L110.484 49.5708L110.484 48.3769C110.484 47.979 110.484 47.5449 110.484 47.1469L110.484 45.953L110.086 43.5653L109.543 41.2137L109.145 39.839L109.362 39.839L109.037 39.839L108.277 37.415L107.372 35.0273C106.725 33.4667 105.988 31.9447 105.165 30.4688C104.731 29.7452 104.333 28.9855 103.863 28.2619C103.393 27.5384 102.959 26.851 102.452 26.1636L101.692 25.1506L100.896 24.1376C100.39 23.4864 99.8111 22.8352 99.2684 22.184C98.1273 20.9149 96.9197 19.7073 95.6506 18.5662L93.697 16.9382C93.0458 16.4317 92.3584 15.9252 91.671 15.4549C88.8761 13.489 85.8508 11.8731 82.6627 10.6432C81.076 10.0375 79.4577 9.51822 77.8148 9.08758L75.3185 8.54488L72.8222 8.14692C71.954 8.14692 71.1219 7.92984 70.2898 7.85748C69.4577 7.78513 68.5894 7.85748 67.7573 7.85748C66.0669 7.80871 64.375 7.86915 62.6924 8.03839C59.3188 8.35719 55.9929 9.06122 52.7796 10.1367C51.177 10.6728 49.6066 11.301 48.0764 12.018C46.5569 12.7416 45.0736 13.5736 43.6265 14.4419C43.5935 14.461 43.5561 14.471 43.518 14.471C43.4799 14.471 43.4425 14.461 43.4095 14.4419C41.7091 13.3928 40.0449 12.3436 38.3083 11.3668C36.5718 10.39 34.6905 9.44933 33.0263 8.54487L27.7082 5.83152C25.9354 4.96324 24.0904 4.09496 22.3176 3.33522C20.5074 2.5372 18.6462 1.86039 16.7462 1.30926C14.8477 0.776443 12.8922 0.472799 10.9215 0.404804C8.99184 0.256253 7.05496 0.579046 5.27776 1.34541C3.64076 2.33842 2.371 3.83677 1.65994 5.61446C0.945251 7.43109 0.63655 9.38207 0.755493 11.3306C0.900192 13.2906 1.33925 15.2176 2.05791 17.0467C3.58655 20.712 5.58066 24.1653 7.99111 27.3213L11.6089 32.0968C12.8028 33.6886 14.069 35.2443 15.2267 36.7638C17.7954 39.8028 20.5449 42.697 23.3668 45.4827C23.4031 45.5758 23.4031 45.6791 23.3668 45.7722C23.1249 47.5593 22.992 49.3594 22.9688 51.1627C22.9449 52.975 23.0294 54.7871 23.2221 56.5894C23.2221 57.4938 23.4392 58.3983 23.62 59.3028C23.8009 60.2072 23.9456 61.0754 24.1627 61.9437L24.1627 62.6311L24.1627 63.2462L24.5245 64.5848L25.3928 67.1534C25.6822 68.0216 26.044 68.8176 26.4057 69.6859L27.5634 72.146C28.3871 73.7619 29.3177 75.3211 30.3492 76.813C31.3651 78.3085 32.4642 79.7459 33.6414 81.1182L35.5226 83.1079L36.4994 84.0847L37.5124 84.9891C38.8714 86.1896 40.2966 87.313 41.7814 88.3538C43.2817 89.3722 44.84 90.3023 46.4484 91.1395C47.2443 91.5736 48.0764 91.9715 48.9085 92.3333C49.7406 92.6951 50.5727 93.0568 51.441 93.3463C53.1245 94.002 54.8535 94.534 56.6144 94.9381C58.3907 95.3598 60.1909 95.6739 62.005 95.8788C63.8066 96.0775 65.62 96.15 67.4317 96.0958C69.2469 96.0713 71.059 95.9384 72.8584 95.6979C74.6609 95.4143 76.448 95.04 78.2128 94.5764L80.3473 93.9613L82.0476 93.3463C82.6265 93.1292 83.1692 92.9122 83.748 92.659C84.3269 92.4057 84.8695 92.1886 85.4122 91.9354L87.402 91.1757ZM87.402 91.1757L85.8102 91.9716C85.2675 92.261 84.6886 92.4781 84.146 92.7313C83.6033 92.9846 83.0244 93.2016 82.4456 93.4187L80.7453 94.0337L78.5745 94.685C75.0407 95.6873 71.3935 96.2343 67.7211 96.3129C65.8973 96.367 64.072 96.2945 62.2582 96.0958C60.4455 95.9153 58.6454 95.6254 56.8677 95.2276C55.1171 94.8738 53.3895 94.4147 51.6942 93.8528C50.8259 93.5634 49.9939 93.2016 49.1618 92.8398C48.3297 92.4781 47.4976 92.0801 46.6655 91.6821C45.0336 90.8452 43.4512 89.9152 41.9261 88.8964C40.4095 87.8677 38.9594 86.7439 37.5848 85.5319L36.5356 84.6274L35.5588 83.6506C34.8833 83.0233 34.2432 82.3591 33.6414 81.6608C32.4181 80.2989 31.2823 78.8609 30.2406 77.3556C29.1854 75.84 28.2307 74.2568 27.3826 72.6163C26.9484 71.8204 26.5505 70.9521 26.1887 70.12C25.8269 69.2879 25.4289 68.4558 25.1395 67.5875L24.2351 64.9466L23.8733 63.6441L23.6924 62.9567L23.6924 62.3055C23.6924 61.4011 23.2944 60.4966 23.1497 59.5922C23.005 58.6877 22.8965 57.7833 22.7517 56.8426C22.329 53.2372 22.329 49.5947 22.7517 45.9892L22.7517 46.2787C19.9299 43.4929 17.1803 40.5625 14.5755 37.5235C13.3093 35.9678 12.0431 34.4122 10.9577 32.8204L7.3399 28.0087C4.92189 24.7991 2.9164 21.2986 1.37051 17.5894C0.619003 15.6931 0.167373 13.6914 0.0319209 11.6562C-0.111573 9.60901 0.210006 7.55589 0.972549 5.65062C1.78098 3.73749 3.17398 2.12923 4.95213 1.05604C6.83698 0.218787 8.90253 -0.129613 10.9577 0.0430557C12.9674 0.129802 14.9595 0.457716 16.8909 1.01982C18.8118 1.59336 20.6965 2.28201 22.5347 3.082C24.3798 3.87792 26.1525 4.78234 27.9614 5.65062L33.2434 8.40019C35.0161 9.34082 36.8612 10.2814 38.5254 11.2582C40.1896 12.235 42.1432 13.3204 43.6265 14.4057L43.4095 14.4057C49.252 10.8298 55.8359 8.6393 62.6562 8.00223C64.3554 7.9119 66.0581 7.9119 67.7573 8.00223C68.5894 8.00223 69.4577 8.00223 70.2898 8.00223C71.1219 8.00223 71.9902 8.18312 72.8584 8.29166L75.3547 8.72578C76.1988 8.87049 77.031 9.05136 77.851 9.26843C79.5072 9.694 81.1378 10.2134 82.735 10.8241C85.9258 12.0275 88.962 13.6063 91.7796 15.5273C92.5031 15.9976 93.1905 16.504 93.8417 17.0105C94.4929 17.517 95.1803 18.0959 95.8315 18.6748C97.1175 19.7979 98.3261 21.0066 99.4493 22.2926C100.028 22.9076 100.571 23.5588 101.114 24.2462L101.909 25.223L102.669 26.2722C103.188 26.9458 103.671 27.6461 104.116 28.3705C104.623 29.094 105.021 29.8538 105.455 30.5773C106.296 32.0737 107.045 33.6202 107.698 35.2081L108.639 37.5959L109.434 40.056L109.109 39.8751C109.161 39.8744 109.211 39.8922 109.251 39.9254C109.291 39.9586 109.317 40.0049 109.326 40.056L109.326 40.7434L109.326 41.069L109.326 41.4308C109.326 42.2267 109.724 42.9864 109.869 43.8185C110.013 44.6506 110.194 45.4104 110.267 46.2063L110.267 47.4363C110.267 47.8343 110.267 48.2323 110.267 48.6302L110.267 49.8603L110.267 53.4781C110.267 54.3102 110.267 55.1061 110.267 55.9382L110.049 58.3621L110.049 59.5559L109.832 60.786L109.832 60.4966C110.592 60.9669 111.316 61.582 112.039 62.1247C112.763 62.6673 113.486 63.21 114.174 63.825L116.272 65.5977L118.334 67.4066C119.709 68.6005 120.975 69.9029 122.314 71.0245C123.652 72.146 124.882 73.593 126.149 74.9316C128.712 77.5735 130.826 80.6164 132.408 83.9401C133.188 85.6419 133.583 87.4948 133.565 89.3668C133.526 91.2455 132.879 93.0608 131.72 94.5402C130.5 95.9635 128.87 96.9745 127.053 97.4344C125.266 97.8748 123.43 98.0816 121.59 98.0495C117.924 97.9257 114.284 97.3917 110.737 96.4576C107.119 95.5894 103.718 94.504 100.281 93.3102C99.4131 93.0569 98.5449 92.7312 97.6766 92.4418C96.8083 92.1524 95.9762 91.8269 95.1441 91.5013C93.4076 90.8501 91.7434 90.1627 90.043 89.4753L88.9577 90.235L87.402 91.1757Z" fill="#341C66"/>
</g>
<g style="mix-blend-mode:multiply">
<path d="M108.715 66.9043C108.317 68.1705 107.811 69.4368 107.304 70.5221C106.798 71.6074 106.219 72.9822 105.568 74.1399L105.061 75.0083C104.922 75.314 104.752 75.6049 104.555 75.8765C104.21 76.4622 103.836 77.0298 103.433 77.5769L102.854 78.409L102.203 79.2049L101.516 79.9646L100.792 80.6881L100.792 80.1455C103.793 81.1956 106.88 81.9824 110.018 82.497C111.572 82.7493 113.146 82.8584 114.721 82.8227C115.489 82.7905 116.253 82.6813 117 82.497C117.734 82.343 118.419 82.0072 118.99 81.5203C119.208 81.2571 119.35 80.9395 119.401 80.6017C119.452 80.2639 119.41 79.9186 119.279 79.6028C119.036 78.8679 118.708 78.1638 118.302 77.5046C117.436 76.2326 116.481 75.0236 115.444 73.8868C114.395 72.6567 113.31 71.499 112.188 70.2689L108.715 66.9043ZM108.715 66.9043C111.103 69.0388 113.491 71.2096 115.661 73.5612C116.763 74.7447 117.767 76.015 118.664 77.3598C119.126 78.0548 119.491 78.8093 119.75 79.6028C119.828 80.0334 119.828 80.4747 119.75 80.9053C119.782 81.1333 119.782 81.3646 119.75 81.5926L119.569 81.9183C119.515 82.0171 119.441 82.1033 119.352 82.1715C118.699 82.7394 117.916 83.1371 117.072 83.3292C116.281 83.5409 115.467 83.6623 114.648 83.691C113.026 83.7461 111.401 83.637 109.801 83.3654C108.209 83.1121 106.653 82.7504 105.097 82.3524C103.542 81.9545 101.986 81.4842 100.467 80.9053C100.427 80.8935 100.39 80.8733 100.359 80.8461C100.328 80.8189 100.303 80.7853 100.285 80.7475C100.268 80.7098 100.259 80.6689 100.259 80.6274C100.259 80.586 100.268 80.545 100.286 80.5073L101.009 79.8199C101.257 79.5967 101.486 79.3548 101.697 79.0964L102.348 78.3728L102.963 77.5769C103.361 77.0342 103.759 76.4915 104.084 75.9488C104.41 75.4061 104.446 75.37 104.627 75.0806L105.134 74.2484C106.499 71.8878 107.696 69.4337 108.715 66.9043Z" fill="#341C66"/>
</g>
<g style="mix-blend-mode:multiply">
<path d="M39.2832 17.2948L37.6552 18.8505L36.0995 20.4423L35.3398 21.2382L34.6163 22.0703L33.1329 23.7707L31.7582 25.5434C31.2879 26.1222 30.9261 26.7373 30.4919 27.3523L29.8769 28.293C29.663 28.5931 29.4696 28.9073 29.2981 29.2336L28.2127 31.151C28.1501 31.198 28.0739 31.2234 27.9957 31.2234C27.9174 31.2234 27.8412 31.198 27.7786 31.151C25.6536 28.9022 23.7176 26.4821 21.9901 23.9154C21.1423 22.5808 20.4619 21.1471 19.9641 19.6464C19.7635 18.8509 19.7635 18.018 19.9641 17.2225C19.9275 17.0191 19.9275 16.8108 19.9641 16.6074L19.9641 16.2818L19.9641 16.0647C20.0891 15.8799 20.2347 15.71 20.3983 15.5583C20.5646 15.4171 20.7466 15.2957 20.9409 15.1965C21.6378 14.7836 22.4149 14.5246 23.2201 14.4367C24.0024 14.3648 24.7895 14.3648 25.5717 14.4367C27.1133 14.4965 28.6487 14.6658 30.1663 14.9432C31.6933 15.2029 33.2033 15.5532 34.6886 15.9924C36.2472 16.3248 37.782 16.7599 39.2832 17.2948ZM39.2832 17.2948C36.3457 16.4022 33.3471 15.7251 30.3111 15.2688C28.8144 15.0391 27.303 14.9182 25.7888 14.907C25.0421 14.8519 24.2924 14.8519 23.5457 14.907C22.8199 14.9985 22.1192 15.2321 21.4836 15.5944L21.0495 15.8838C20.9322 16.0091 20.8234 16.142 20.7239 16.2818L20.7239 16.4989L20.7239 16.7159C20.6927 16.8711 20.6927 17.031 20.7239 17.1863C20.6165 17.9047 20.6911 18.6386 20.9409 19.3208C21.4066 20.7533 22.0637 22.1163 22.8945 23.3727C24.5566 25.9382 26.4325 28.3587 28.5021 30.6084L27.9957 30.6084L29.1534 28.6547C29.3249 28.3285 29.5183 28.0142 29.7322 27.7141L30.3834 26.7735C30.8537 26.1946 31.2517 25.5434 31.7582 24.9646L33.1691 23.2642C33.4041 22.9707 33.6579 22.6927 33.9289 22.4321L34.7248 21.6L35.4845 20.8041L36.2804 20.0081C36.8231 19.4655 37.3658 18.9952 37.9446 18.4887C38.5235 17.9822 38.7044 17.8736 39.2832 17.2948Z" fill="#341C66"/>
</g>
<g style="mix-blend-mode:multiply">
<path d="M27.9223 31.0098L28.5735 31.7695L30.5271 33.8316C31.3472 34.7482 32.3602 35.7973 33.5661 36.9791C34.7962 38.1368 36.1347 39.5116 37.6542 40.9225L40.042 43.1656L42.6106 45.481L45.3963 47.8687C46.337 48.7129 47.3138 49.545 48.3267 50.365L51.4019 52.8613C52.4511 53.6934 53.5002 54.5617 54.6217 55.3576C56.7924 56.9856 58.9993 58.686 61.3147 60.2055L64.7154 62.5932C65.8731 63.3529 67.0308 64.0765 68.3332 64.8001C69.6357 65.5236 70.6125 66.2834 71.7702 66.9708L75.388 68.9243L78.7163 70.8419C79.8379 71.3845 80.9232 71.9634 81.9724 72.506C83.0215 73.0487 84.0707 73.5552 85.0837 74.0979C86.0967 74.6406 87.0735 75.0023 88.0503 75.4365L93.2238 77.7157L97.3119 79.2713C99.5911 80.1396 100.93 80.6099 100.93 80.6099L97.3119 79.4161L93.1514 77.9689C91.5958 77.3538 89.823 76.5942 87.9056 75.7983C86.9649 75.4003 85.9158 75.0023 84.9028 74.4958C83.8898 73.9893 82.8768 73.519 81.7915 72.9764C80.7061 72.4337 79.6208 71.891 78.4631 71.3483C77.3054 70.8056 76.2562 70.1182 75.1347 69.5032L71.5169 67.5497C70.3592 66.8623 69.2015 66.1025 67.8991 65.3789L64.2813 63.172C63.1598 62.3761 62.0021 61.5802 60.6635 60.8205C58.3843 59.2648 56.1774 57.5283 53.9705 55.9003C52.8852 55.0682 51.836 54.1999 50.7869 53.3678L47.7117 50.8353C45.7219 49.135 43.8045 47.507 42.068 45.879L39.4993 43.4912L37.1477 41.212C35.6644 39.801 34.362 38.3901 33.1681 37.16C31.9743 35.93 30.9975 34.8446 30.2015 33.9402C29.4056 33.0357 28.7544 32.276 28.3565 31.8057L27.9223 31.0098Z" fill="#341C66"/>
</g>
<g style="mix-blend-mode:overlay">
<path d="M88.3789 14.049C88.3789 14.049 56.3251 -2.62908 34.4736 25.3004C34.4736 25.3004 56.9401 1.45904 88.3789 14.049Z" fill="white"/>
</g>
<g style="mix-blend-mode:multiply" opacity="0.7">
<path d="M81.4687 92.4836C81.4687 92.4836 49.1617 97.6933 32.1942 76.6738C32.1942 76.6738 45.5439 101.094 81.4687 92.4836Z" fill="#0225C5"/>
</g>
<g filter="url(#filter0_ii_1653_2754)">
<path d="M85.7297 119.541L87.1057 127.895L95.4595 129.271L87.1057 130.647L85.7297 139L84.3537 130.647L76 129.271L84.3537 127.895L85.7297 119.541Z" fill="#FEBA02"/>
</g>
<g filter="url(#filter1_ii_1653_2754)">
<path d="M108.594 93.2705L110.916 104.084L121.729 106.406L110.916 108.728L108.594 119.541L106.272 108.728L95.459 106.406L106.272 104.084L108.594 93.2705Z" fill="#FEBA02"/>
</g>
<g filter="url(#filter2_ii_1653_2754)">
<path d="M134.866 67L137.652 77.3488L148.001 80.1351L137.652 82.9215L134.866 93.2703L132.079 82.9215L121.73 80.1351L132.079 77.3488L134.866 67Z" fill="#FEBA02"/>
</g>
<defs>
<filter id="filter0_ii_1653_2754" x="76" y="118.082" width="19.459" height="21.4049" filterUnits="userSpaceOnUse" color-interpolation-filters="sRGB">
<feFlood flood-opacity="0" result="BackgroundImageFix"/>
<feBlend mode="normal" in="SourceGraphic" in2="BackgroundImageFix" result="shape"/>
<feColorMatrix in="SourceAlpha" type="matrix" values="0 0 0 0 0 0 0 0 0 0 0 0 0 0 0 0 0 0 127 0" result="hardAlpha"/>
<feOffset dy="-1.45946"/>
<feGaussianBlur stdDeviation="0.72973"/>
<feComposite in2="hardAlpha" operator="arithmetic" k2="-1" k3="1"/>
<feColorMatrix type="matrix" values="0 0 0 0 0 0 0 0 0 0 0 0 0 0 0 0 0 0 0.2 0"/>
<feBlend mode="normal" in2="shape" result="effect1_innerShadow_1653_2754"/>
<feColorMatrix in="SourceAlpha" type="matrix" values="0 0 0 0 0 0 0 0 0 0 0 0 0 0 0 0 0 0 127 0" result="hardAlpha"/>
<feOffset dy="0.486486"/>
<feGaussianBlur stdDeviation="0.972973"/>
<feComposite in2="hardAlpha" operator="arithmetic" k2="-1" k3="1"/>
<feColorMatrix type="matrix" values="0 0 0 0 0.996078 0 0 0 0 0.729412 0 0 0 0 0.00784314 0 0 0 1 0"/>
<feBlend mode="normal" in2="effect1_innerShadow_1653_2754" result="effect2_innerShadow_1653_2754"/>
</filter>
<filter id="filter1_ii_1653_2754" x="95.459" y="91.811" width="26.2705" height="28.2165" filterUnits="userSpaceOnUse" color-interpolation-filters="sRGB">
<feFlood flood-opacity="0" result="BackgroundImageFix"/>
<feBlend mode="normal" in="SourceGraphic" in2="BackgroundImageFix" result="shape"/>
<feColorMatrix in="SourceAlpha" type="matrix" values="0 0 0 0 0 0 0 0 0 0 0 0 0 0 0 0 0 0 127 0" result="hardAlpha"/>
<feOffset dy="-1.45946"/>
<feGaussianBlur stdDeviation="0.72973"/>
<feComposite in2="hardAlpha" operator="arithmetic" k2="-1" k3="1"/>
<feColorMatrix type="matrix" values="0 0 0 0 0 0 0 0 0 0 0 0 0 0 0 0 0 0 0.2 0"/>
<feBlend mode="normal" in2="shape" result="effect1_innerShadow_1653_2754"/>
<feColorMatrix in="SourceAlpha" type="matrix" values="0 0 0 0 0 0 0 0 0 0 0 0 0 0 0 0 0 0 127 0" result="hardAlpha"/>
<feOffset dy="0.486486"/>
<feGaussianBlur stdDeviation="0.972973"/>
<feComposite in2="hardAlpha" operator="arithmetic" k2="-1" k3="1"/>
<feColorMatrix type="matrix" values="0 0 0 0 0.996078 0 0 0 0 0.729412 0 0 0 0 0.00784314 0 0 0 1 0"/>
<feBlend mode="normal" in2="effect1_innerShadow_1653_2754" result="effect2_innerShadow_1653_2754"/>
</filter>
<filter id="filter2_ii_1653_2754" x="121.73" y="65.5405" width="26.2705" height="28.2165" filterUnits="userSpaceOnUse" color-interpolation-filters="sRGB">
<feFlood flood-opacity="0" result="BackgroundImageFix"/>
<feBlend mode="normal" in="SourceGraphic" in2="BackgroundImageFix" result="shape"/>
<feColorMatrix in="SourceAlpha" type="matrix" values="0 0 0 0 0 0 0 0 0 0 0 0 0 0 0 0 0 0 127 0" result="hardAlpha"/>
<feOffset dy="-1.45946"/>
<feGaussianBlur stdDeviation="0.72973"/>
<feComposite in2="hardAlpha" operator="arithmetic" k2="-1" k3="1"/>
<feColorMatrix type="matrix" values="0 0 0 0 0 0 0 0 0 0 0 0 0 0 0 0 0 0 0.2 0"/>
<feBlend mode="normal" in2="shape" result="effect1_innerShadow_1653_2754"/>
<feColorMatrix in="SourceAlpha" type="matrix" values="0 0 0 0 0 0 0 0 0 0 0 0 0 0 0 0 0 0 127 0" result="hardAlpha"/>
<feOffset dy="0.486486"/>
<feGaussianBlur stdDeviation="0.972973"/>
<feComposite in2="hardAlpha" operator="arithmetic" k2="-1" k3="1"/>
<feColorMatrix type="matrix" values="0 0 0 0 0.996078 0 0 0 0 0.729412 0 0 0 0 0.00784314 0 0 0 1 0"/>
<feBlend mode="normal" in2="effect1_innerShadow_1653_2754" result="effect2_innerShadow_1653_2754"/>
</filter>
<radialGradient id="paint0_radial_1653_2754" cx="0" cy="0" r="1" gradientUnits="userSpaceOnUse" gradientTransform="translate(75.6133 -4.94816) rotate(76.1028) scale(89.7266 88.855)">
<stop stop-color="white"/>
<stop offset="0.4" stop-color="#FEFDFE"/>
<stop offset="0.55" stop-color="#F9F6FA"/>
<stop offset="0.65" stop-color="#F2EBF4"/>
<stop offset="0.73" stop-color="#E7DAEA"/>
<stop offset="0.8" stop-color="#D8C4DE"/>
<stop offset="0.87" stop-color="#C6A8CF"/>
<stop offset="0.92" stop-color="#B188BD"/>
<stop offset="0.98" stop-color="#9A64A9"/>
<stop offset="1" stop-color="#8C4F9E"/>
</radialGradient>
<radialGradient id="paint1_radial_1653_2754" cx="0" cy="0" r="1" gradientUnits="userSpaceOnUse" gradientTransform="translate(46.5786 109.372) rotate(66.5014) scale(97.8839 96.9892)">
<stop stop-color="#2B2B2B"/>
<stop offset="0.39" stop-color="#2D2D2D"/>
<stop offset="0.53" stop-color="#343434"/>
<stop offset="0.63" stop-color="#3F3F3F"/>
<stop offset="0.71" stop-color="#505050"/>
<stop offset="0.77" stop-color="#666666"/>
<stop offset="0.84" stop-color="#828282"/>
<stop offset="0.89" stop-color="#A2A2A2"/>
<stop offset="0.94" stop-color="#C8C8C8"/>
<stop offset="0.99" stop-color="#F1F1F1"/>
<stop offset="1" stop-color="white"/>
</radialGradient>
<radialGradient id="paint2_radial_1653_2754" cx="0" cy="0" r="1" gradientUnits="userSpaceOnUse" gradientTransform="translate(63.9181 26.7731) rotate(67.5573) scale(139.4 139.4)">
<stop offset="0.06" stop-color="#7FCFE6"/>
<stop offset="0.24" stop-color="#7EC6E1"/>
<stop offset="0.55" stop-color="#7BACD4"/>
<stop offset="0.93" stop-color="#7783BE"/>
<stop offset="1" stop-color="#767BBA"/>
</radialGradient>
<radialGradient id="paint3_radial_1653_2754" cx="0" cy="0" r="1" gradientUnits="userSpaceOnUse" gradientTransform="translate(118.496 36.9092) rotate(76.1028) scale(127.36 126.123)">
<stop stop-color="#2B2B2B"/>
<stop offset="0.39" stop-color="#2D2D2D"/>
<stop offset="0.53" stop-color="#343434"/>
<stop offset="0.63" stop-color="#3F3F3F"/>
<stop offset="0.71" stop-color="#505050"/>
<stop offset="0.77" stop-color="#666666"/>
<stop offset="0.84" stop-color="#828282"/>
<stop offset="0.89" stop-color="#A2A2A2"/>
<stop offset="0.94" stop-color="#C8C8C8"/>
<stop offset="0.99" stop-color="#F1F1F1"/>
<stop offset="1" stop-color="white"/>
</radialGradient>
</defs>
</svg>
