<svg width="107" height="155" viewBox="0 0 107 155" fill="none" xmlns="http://www.w3.org/2000/svg">
<g clip-path="url(#clip0_1173_34630)">
<g opacity="0.7" filter="url(#filter0_f_1173_34630)">
<ellipse cx="104.049" cy="105.49" rx="32.5" ry="1.97427" transform="rotate(-21 104.049 105.49)" fill="#181818"/>
</g>
<path d="M99.3454 106.415C123.521 99.9372 137.962 75.4412 131.601 51.7015C125.24 27.9618 100.485 13.9682 76.3101 20.4459C52.1349 26.9236 37.6937 51.4196 44.0548 75.1593C50.4158 98.899 75.1703 112.893 99.3454 106.415Z" fill="#F7951B"/>
<path d="M90.0476 99.3803C80.8619 101.366 71.1001 100.222 61.5202 99.9132C62.6387 100.687 63.8058 101.432 65.026 102.116C86.6187 114.322 114.334 106.896 126.931 85.5287C127.57 84.4449 128.143 83.3428 128.681 82.2326C115.542 86.6425 103.743 96.421 90.0476 99.3803ZM103.637 79.2017C87.935 83.0154 71.796 82.2813 56.318 86.8974C54.3169 87.4945 52.3718 88.1785 50.4672 88.9179C52.5528 91.9076 55.0084 94.6285 57.7781 97.0187C61.6874 95.3825 65.4284 93.3763 69.6003 92.3461C75.085 90.9928 80.4795 91.5264 85.9538 91.1403C92.1451 90.7035 98.4415 89.0808 104.628 87.4785C107.959 86.6146 111.324 85.7399 114.461 84.4449C117.269 83.2843 119.825 81.8122 122.544 80.5327C125.187 79.2987 127.912 78.2423 130.698 77.3708C131.641 74.6361 132.31 71.8197 132.698 68.9617C123.112 72.5878 113.626 76.7738 103.637 79.2017ZM130.107 47.1547C127.839 47.3078 125.566 47.5215 123.282 47.8634C105.713 50.4933 89.8256 60.0881 72.3888 64.3237C62.6165 66.697 52.675 67.3102 42.8278 68.5477C43.1273 71.2766 43.6814 73.9702 44.4829 76.5947C47.889 76.3853 51.2791 76.504 54.7022 76.2632C60.8952 75.8259 67.1899 74.2037 73.3786 72.6009C76.7095 71.737 80.0726 70.8645 83.2092 69.5677C86.0195 68.4067 88.5756 66.9363 91.294 65.6568C103.844 59.7479 118.38 58.4456 132.576 56.356C132.09 53.208 131.262 50.1234 130.107 47.1547ZM68.0588 52.3733C74.2519 51.936 80.5469 50.3154 86.7352 48.711C90.0665 47.8488 93.4293 46.9745 96.5658 45.6778C99.3761 44.5168 101.932 43.0464 104.651 41.7669C110.621 38.9556 117.044 37.1935 123.665 35.883C121.758 33.4692 119.6 31.2597 117.224 29.2899C106.814 33.1047 96.5786 37.803 85.7472 40.4333C72.6751 43.6102 59.2998 43.6423 46.2528 46.2257C44.7708 49.6214 43.7239 53.1821 43.1362 56.8253C45.9185 55.5734 48.7008 54.3215 51.707 53.5786C57.1849 52.2271 62.5799 52.7623 68.0537 52.3746L68.0588 52.3733ZM78.5639 33.9176C81.9029 33.0838 85.2749 32.2375 88.288 30.48C90.9857 28.9054 93.3284 26.6386 95.8974 24.8015C97.9526 23.336 100.172 22.1101 102.512 21.1486C93.8832 18.3208 84.565 18.1304 75.7759 20.6023C66.9868 23.0741 59.1362 28.0932 53.2512 35.0028C55.345 35.4725 57.4451 35.9655 59.5234 36.2209C66.0428 37.0221 72.3553 35.4667 78.5588 33.919L78.5639 33.9176Z" fill="#F15C26"/>
<path d="M71.2194 59.0094C69.4831 59.6088 67.6695 59.9605 65.8639 60.3012L59.787 61.4643C58.0274 61.7998 56.1859 62.1357 54.5225 61.7422C53.8193 61.5728 53.1002 61.1946 53.0429 60.5658C52.9982 60.0929 53.3581 59.6136 53.8225 59.3066C54.3107 59.0192 54.8394 58.8052 55.3907 58.6717C60.6185 57.1277 65.8678 55.6574 71.1386 54.2606C72.0482 54.0168 72.9765 53.7681 73.9051 53.7859C74.7363 53.794 75.5232 54.0037 76.2986 54.2182C76.6906 54.3207 77.111 54.455 77.257 54.7755C77.3737 55.0342 77.2701 55.3411 77.1332 55.6121C76.2206 57.3884 73.1942 58.321 71.2194 59.0094Z" fill="#FFD4A8"/>
<path d="M104.563 31.5959C103.003 32.5757 101.324 33.3263 99.6473 34.0726L93.9941 36.5859C92.3664 37.3119 90.6427 38.0601 88.9223 38.0594C88.1935 38.0596 87.4088 37.8512 87.203 37.2532C87.0482 36.8044 87.2861 36.2575 87.6666 35.855C88.0748 35.4647 88.5396 35.1363 89.0455 34.8807C93.779 32.1904 98.5508 29.5656 103.361 27.0063C104.192 26.5653 105.04 26.1181 105.946 25.9164C106.759 25.7343 107.576 25.757 108.379 25.7816C108.779 25.7942 109.226 25.8284 109.442 26.1051C109.617 26.3285 109.588 26.651 109.518 26.9471C109.062 28.8875 106.326 30.483 104.563 31.5959Z" fill="#FFD4A8"/>
<path d="M107.809 67.3011C106.12 68.1384 104.299 68.68 102.491 69.2163L96.3984 71.0278C94.6348 71.5522 92.785 72.0819 90.9831 71.7291C90.2136 71.5774 89.4021 71.1739 89.2222 70.4276C89.0868 69.868 89.3681 69.272 89.7934 68.8735C90.2187 68.475 90.7654 68.2373 91.3011 68.006C96.4393 65.8014 101.615 63.6816 106.828 61.6466C107.727 61.2948 108.644 60.9435 109.611 60.8883C110.475 60.8357 111.334 61.0333 112.178 61.2275C112.598 61.3244 113.066 61.4531 113.278 61.8276C113.449 62.1271 113.402 62.51 113.309 62.8356C112.706 65.0246 109.74 66.3471 107.809 67.3011Z" fill="#FFD4A8"/>
<path d="M72.9381 95.855C71.9508 96.2348 70.9386 96.5473 69.9088 96.7902L66.4576 97.6881C65.4613 97.955 64.4112 98.2114 63.4486 98.0667C63.0383 97.9977 62.6187 97.8256 62.5637 97.4843C62.5255 97.2261 62.7173 96.9492 62.9747 96.7604C63.2476 96.5819 63.5445 96.4421 63.8565 96.3452C66.8095 95.2748 69.7772 94.241 72.7596 93.2438C73.2658 93.0516 73.7946 92.9243 74.3327 92.8653C74.7975 92.8522 75.2617 92.8962 75.7144 92.9961C75.94 93.0358 76.1864 93.0915 76.2793 93.2616C76.3075 93.3371 76.3178 93.4179 76.3097 93.4982C76.3015 93.5785 76.2751 93.6561 76.2323 93.7252C75.7611 94.755 74.0522 95.3954 72.9381 95.855Z" fill="#FFD4A8"/>
<path d="M76.4564 87.589C75.4479 87.9078 74.4188 88.1572 73.3765 88.3356L69.877 89.0191C68.8637 89.2155 67.7966 89.4155 66.8503 89.2092C66.4483 89.1237 66.0432 88.9173 66.0095 88.5739C65.987 88.3133 66.1965 88.0478 66.4656 87.8755C66.7492 87.7145 67.0543 87.5936 67.3716 87.5164C70.386 86.63 73.4125 85.7838 76.451 84.978C76.9685 84.8175 77.5042 84.7233 78.045 84.6976C78.5096 84.7127 78.9698 84.7854 79.4149 84.9139C79.6369 84.9671 79.88 85.038 79.9615 85.213C79.9842 85.2903 79.9891 85.3717 79.9757 85.4514C79.9624 85.5312 79.9313 85.6071 79.8846 85.6738C79.343 86.6653 77.5965 87.1994 76.4564 87.589Z" fill="#FAA036"/>
<path d="M109.513 95.4209C108.557 95.8797 107.572 96.2735 106.563 96.5996L103.195 97.7685C102.22 98.1068 101.193 98.4554 100.225 98.3856C99.8129 98.3581 99.3769 98.2137 99.2977 97.8771C99.2301 97.625 99.4064 97.3308 99.6426 97.1244C99.8998 96.9244 100.184 96.7614 100.488 96.6402C103.346 95.3376 106.221 94.0727 109.114 92.8455C109.603 92.613 110.12 92.4438 110.652 92.3421C111.115 92.2916 111.582 92.2982 112.042 92.3616C112.269 92.3849 112.518 92.4128 112.625 92.5809C112.66 92.6542 112.677 92.7341 112.675 92.815C112.674 92.8958 112.654 92.9755 112.618 93.0483C112.233 94.0998 110.58 94.8755 109.513 95.4209Z" fill="#FAA036"/>
<path d="M65.7825 69.4972C64.7741 69.8157 63.7451 70.0657 62.7031 70.2454L59.2032 70.9273C58.1903 71.1254 57.1228 71.3237 56.1769 71.1191C55.7745 71.0319 55.3694 70.8255 55.3356 70.482C55.3136 70.2231 55.5231 69.9576 55.7922 69.7853C56.0753 69.623 56.3802 69.5015 56.6977 69.4246C59.7122 68.5381 62.7387 67.692 65.7772 66.8862C66.2947 66.7258 66.8304 66.6315 67.3711 66.6058C67.8356 66.6217 68.2958 66.6943 68.7411 66.822C68.9635 66.877 69.2062 66.9461 69.2877 67.1211C69.3106 67.1984 69.3156 67.2799 69.3023 67.3597C69.289 67.4394 69.2577 67.5154 69.2107 67.5819C68.6692 68.5734 66.9295 69.1058 65.7825 69.4972Z" fill="#FAA036"/>
<path d="M93.8538 45.8871C92.8456 46.2064 91.8166 46.4564 90.7744 46.6353L87.2745 47.3172C86.2616 47.5152 85.1945 47.7152 84.2482 47.5089C83.8463 47.4234 83.4411 47.217 83.4052 46.8723C83.3849 46.613 83.5944 46.3475 83.8635 46.1752C84.1464 46.0138 84.4507 45.8926 84.7673 45.8149C87.7832 44.9292 90.8104 44.0835 93.8489 43.2777C94.3656 43.1169 94.9007 43.0222 95.4408 42.9961C95.906 43.012 96.3669 43.0851 96.8128 43.2136C97.0331 43.2673 97.2779 43.3377 97.3577 43.5131C97.381 43.5904 97.3862 43.6719 97.3729 43.7517C97.3596 43.8315 97.3281 43.9075 97.2808 43.9739C96.7388 44.9637 94.994 45.4975 93.8538 45.8871Z" fill="#FAA036"/>
<path d="M96.9705 95.5335C95.5653 96.0495 94.1281 96.4865 92.6904 96.9219L87.865 98.383C86.4677 98.8057 84.9981 99.2443 83.7584 99.3778C83.2278 99.4377 82.7102 99.4171 82.727 99.1943C82.739 99.0283 83.0648 98.7889 83.4543 98.5968C83.8701 98.4052 84.297 98.2383 84.7326 98.0969C88.9374 96.6386 93.1516 95.204 97.3751 93.7931C98.0946 93.5378 98.8277 93.3222 99.571 93.1475C100.17 93.0276 100.776 92.9442 101.385 92.8978C101.672 92.8707 101.989 92.8468 102.07 92.9412C102.152 93.0356 102.026 93.1483 101.893 93.2715C101.004 94.0877 98.5662 94.9467 96.9705 95.5335Z" fill="#FFD4A8"/>
<path style="mix-blend-mode:multiply" d="M110.635 24.7423C132.226 36.949 139.519 64.1652 126.923 85.5303C114.328 106.896 86.6115 114.324 65.0188 102.118C43.4261 89.9114 89.044 12.541 110.635 24.7423Z" fill="url(#paint0_radial_1173_34630)"/>
<g opacity="0.3">
<path d="M72.5498 32.8059C79.3168 36.6327 60.5344 68.4952 53.7656 64.6688C46.9968 60.8424 45.7161 50.6087 50.9039 41.816C56.0918 33.0233 65.7796 28.9745 72.5498 32.8059Z" fill="white"/>
</g>
<path style="mix-blend-mode:multiply" d="M53.557 92.8387C56.8237 96.5385 60.6969 99.6729 65.0185 102.114C86.6112 114.32 114.326 106.894 126.923 85.5268C131.145 78.3885 133.277 70.2525 133.08 62.0291L53.557 92.8387Z" fill="url(#paint1_radial_1173_34630)"/>
<path d="M163.399 40.3221C161.401 35.2586 147.079 35.6783 126.837 40.4724C127.627 41.7867 128.346 43.1416 128.99 44.5316C141.12 41.5839 149.14 40.9558 150.093 43.363C151.074 45.8469 144.31 51.0698 132.724 57.3844C122.375 63.0329 108.182 69.5523 92.2218 75.7845C76.6784 81.8496 62.1764 86.5854 50.8521 89.4712C37.5343 92.8733 28.6303 93.7202 27.6202 91.1744C26.6473 88.7135 33.2905 83.5569 44.6947 77.3108C44.2141 75.8301 43.8143 74.3245 43.4971 72.8004C24.63 83.2454 13.3069 92.9358 15.3543 98.1149C17.5247 103.617 34.2522 102.644 57.3119 96.6191C68.7373 93.6346 81.7241 89.4122 95.267 84.1229C109.376 78.6122 122.247 72.6743 132.928 66.9063C153.185 55.9834 165.526 45.7124 163.399 40.3221Z" fill="#FFD4A8"/>
<path d="M15.355 98.1146C16.1191 100.048 18.6834 101.179 22.6839 101.576C5.94855 97.1136 27.4257 83.584 43.889 74.4506C43.7427 73.9046 43.6134 73.3542 43.4978 72.8001C24.6307 83.245 13.3076 92.9354 15.355 98.1146Z" fill="white"/>
<g style="mix-blend-mode:multiply">
<path d="M163.399 40.3222C161.401 35.2587 147.08 35.6783 126.837 40.4725C127.214 41.0979 127.57 41.7326 127.913 42.3743C146.986 37.9347 156.881 37.3233 158.563 41.2942C161.697 48.6855 129.615 69.2704 88.787 86.5894C90.9295 85.7946 93.0899 84.9736 95.2681 84.1263C109.377 78.6156 122.248 72.6777 132.93 66.9097C153.186 55.9834 165.527 45.7124 163.399 40.3222Z" fill="#D0D2D3"/>
</g>
</g>
<defs>
<filter id="filter0_f_1173_34630" x="53.6992" y="73.6963" width="100.699" height="63.5879" filterUnits="userSpaceOnUse" color-interpolation-filters="sRGB">
<feFlood flood-opacity="0" result="BackgroundImageFix"/>
<feBlend mode="normal" in="SourceGraphic" in2="BackgroundImageFix" result="shape"/>
<feGaussianBlur stdDeviation="10" result="effect1_foregroundBlur_1173_34630"/>
</filter>
<radialGradient id="paint0_radial_1173_34630" cx="0" cy="0" r="1" gradientUnits="userSpaceOnUse" gradientTransform="translate(59.0288 47.5081) rotate(-15) scale(79.4119 77.9815)">
<stop offset="0.27" stop-color="white"/>
<stop offset="0.47" stop-color="#FDFDFD"/>
<stop offset="0.58" stop-color="#F4F4F4"/>
<stop offset="0.67" stop-color="#E6E6E7"/>
<stop offset="0.75" stop-color="#D2D2D3"/>
<stop offset="0.83" stop-color="#B8B8B9"/>
<stop offset="0.9" stop-color="#98999A"/>
<stop offset="0.96" stop-color="#737475"/>
<stop offset="1" stop-color="#58595B"/>
</radialGradient>
<radialGradient id="paint1_radial_1173_34630" cx="0" cy="0" r="1" gradientUnits="userSpaceOnUse" gradientTransform="translate(156.222 168.205) rotate(-15) scale(105.451 103.551)">
<stop offset="0.85" stop-color="white"/>
<stop offset="0.92" stop-color="#CACACB"/>
<stop offset="1" stop-color="#808184"/>
</radialGradient>
<clipPath id="clip0_1173_34630">
<rect width="158" height="117.978" fill="white" transform="translate(0 40.8936) rotate(-15)"/>
</clipPath>
</defs>
</svg>
