<svg width="107" height="71" viewBox="0 0 107 71" fill="none" xmlns="http://www.w3.org/2000/svg">
<path d="M54.3564 70.08C73.7085 70.08 89.3964 54.3921 89.3964 35.04C89.3964 15.688 73.7085 0 54.3564 0C35.0044 0 19.3164 15.688 19.3164 35.04C19.3164 54.3921 35.0044 70.08 54.3564 70.08Z" fill="#005DC6"/>
<path opacity="0.63" d="M54.3565 2.92764e-08C53.2365 2.92764e-08 52.1366 0.0600037 51.0466 0.160004C50.5066 0.210004 49.1266 4.84001 48.9266 5.45001C47.8506 8.40143 47.2662 11.5094 47.1965 14.65C47.1565 16.1708 47.4946 17.6777 48.1805 19.0356C48.8664 20.3934 49.8787 21.5598 51.1265 22.43C53.4865 24.01 56.1265 23.78 58.9165 23.79C62.6465 23.79 66.3966 23.13 70.0766 23.72C72.953 24.1739 75.7383 25.0854 78.3266 26.42C81.468 28.0284 84.0635 30.53 85.7865 33.61C86.725 35.5311 87.2593 37.6242 87.3565 39.76C87.4465 40.82 87.4766 41.89 87.5466 42.96C87.7299 43.7377 87.8371 44.5315 87.8665 45.33C89.4745 40.0886 89.8306 34.543 88.906 29.139C87.9813 23.735 85.8019 18.6232 82.5428 14.2145C79.2837 9.80581 75.0358 6.22314 70.1405 3.75443C65.2452 1.28571 59.8391 -0.000224035 54.3565 2.92764e-08Z" fill="#247EE2"/>
<path opacity="0.63" d="M20.0857 42.3402C21.6465 49.7012 25.538 56.3633 31.1833 61.3384C36.8285 66.3136 43.9269 69.337 51.4257 69.9602C53.2657 70.1102 50.1457 59.5502 49.6457 58.6002C46.5857 52.8102 41.2557 48.7002 37.2557 43.6002C35.9909 42.1833 35.2621 40.3683 35.1957 38.4702C35.4257 30.6102 49.7857 34.5302 49.2857 26.2302C49.107 24.4339 48.2265 22.7808 46.8357 21.6302C44.0657 19.2202 40.4357 18.2602 37.0657 17.0402C35.4722 16.5215 33.9553 15.7917 32.5557 14.8702C32.1457 14.5802 28.4157 11.4502 28.8857 10.9502C24.982 15.0757 22.141 20.0893 20.6079 25.5581C19.0747 31.0269 18.8955 36.7866 20.0857 42.3402Z" fill="#247EE2"/>
<path opacity="0.47" d="M39.2465 39.1698C39.3165 41.4598 42.0565 43.1197 44.0465 43.7897C44.372 43.9095 44.7199 43.9563 45.0654 43.9269C45.411 43.8976 45.7459 43.7927 46.0465 43.6197C47.1065 42.8997 46.7765 41.7597 46.8365 40.7097C46.8965 39.6597 47.2865 38.1297 46.6265 37.1797C45.1965 35.1197 40.1665 35.6298 39.3665 38.0798C39.2599 38.4326 39.2192 38.8021 39.2465 39.1698Z" fill="#154B86"/>
<path opacity="0.63" d="M30.9453 8.96954C32.0275 10.0878 33.4213 10.8545 34.9453 11.1696C36.3453 11.4896 38.0853 11.4595 38.9453 10.2795C39.8053 9.09954 39.3253 7.62954 39.8753 6.39954C40.196 5.85132 40.6291 5.37723 41.1462 5.00839C41.6633 4.63955 42.2526 4.38434 42.8753 4.25955C44.1126 4.01218 45.3126 3.60546 46.4453 3.04956C47.3895 2.46851 48.0979 1.57235 48.4453 0.519531C41.9313 1.62782 35.8641 4.55744 30.9453 8.96954Z" fill="#247EE2"/>
<path opacity="0.25" d="M73.0351 28.8301C72.3628 28.8365 71.6928 28.9102 71.0351 29.0501C68.9751 29.5101 65.9551 31.2901 67.7551 33.8401C68.5272 34.7351 69.5465 35.3822 70.6851 35.7001C71.8215 36.005 72.8699 36.5738 73.7451 37.3601C75.1851 38.8901 74.9651 41.3601 74.0451 43.2801C73.1251 45.2001 71.6551 46.7501 70.6951 48.6301C69.7351 50.5101 69.3851 52.9601 70.6951 54.6301C71.3831 55.3452 72.2782 55.8264 73.2541 56.0058C74.2301 56.1852 75.2378 56.0538 76.1351 55.6301C77.9172 54.7404 79.4011 53.3503 80.4051 51.6301C82.6583 48.4057 83.8598 44.5637 83.8451 40.6301C83.8159 38.6843 83.341 36.7711 82.4569 35.0376C81.5728 33.304 80.303 31.7962 78.7451 30.6301C77.0703 29.461 75.0776 28.8329 73.0351 28.8301Z" fill="#154B86"/>
<path opacity="0.47" d="M36.1658 46.7098C34.621 45.5754 33.1998 44.2816 31.9258 42.8498C31.2894 42.1308 30.8189 41.2806 30.5476 40.3595C30.2763 39.4385 30.2108 38.469 30.3558 37.5198C30.9958 34.6098 34.0558 33.0698 36.5758 31.4698C37.7205 30.8234 38.7022 29.9238 39.4458 28.8398C39.8085 28.2907 40.019 27.6552 40.0559 26.9981C40.0928 26.3411 39.9547 25.6861 39.6558 25.0998C38.7658 23.6198 36.8158 23.2898 35.1658 22.7798C33.3881 22.2083 31.7435 21.2853 30.3297 20.0656C28.9159 18.8459 27.7617 17.3544 26.9358 15.6798C26.6889 15.1502 26.4752 14.6059 26.2958 14.0498C22.9058 18.5659 20.6588 23.8352 19.7467 29.4079C18.8346 34.9807 19.2844 40.6913 21.0577 46.0526C22.831 51.4138 25.8752 56.2663 29.9304 60.196C33.9856 64.1257 38.9315 67.0159 44.3458 68.6198C44.9702 67.5877 45.4386 66.4689 45.7358 65.2998C46.0631 63.5308 45.9568 61.7087 45.4258 59.9898C44.0358 54.6998 40.3858 50.2198 36.1658 46.7098Z" fill="#368BEA"/>
<path opacity="0.47" d="M55.0362 0.0195312C54.3262 1.43953 53.7762 2.95956 53.4162 3.82956C52.17 6.8334 51.3196 9.98646 50.8862 13.2095C50.6421 14.4347 50.7179 15.7022 51.1062 16.8896C51.4506 17.5971 51.9492 18.2186 52.5652 18.7083C53.1812 19.198 53.8991 19.5436 54.6662 19.7195C56.2029 20.056 57.7863 20.1237 59.3462 19.9196C62.7862 19.6396 66.2162 19.1195 69.6662 19.1195C73.1416 19.0041 76.5874 19.7932 79.6662 21.4095C82.2236 22.9952 84.3961 25.1302 86.0262 27.6595C87.3137 29.5188 88.4251 31.494 89.3462 33.5595C88.9758 24.6504 85.219 16.2186 78.8427 9.98535C72.4664 3.75215 63.9514 0.187625 55.0362 0.0195312Z" fill="#368BEA"/>
<path opacity="0.47" d="M74.1651 35.41C76.4951 37.27 77.0151 40.72 76.2951 43.62C75.7251 45.97 74.4651 48.2 74.4851 50.62C74.4676 50.8865 74.5228 51.1527 74.6451 51.3901C75.0151 51.9901 75.9251 51.87 76.5651 51.57C79.7551 50.12 81.3751 46.4001 81.4751 42.89C81.606 40.1766 80.8244 37.4975 79.2551 35.28C78.5545 34.3042 77.66 33.4834 76.6275 32.8691C75.5951 32.2548 74.447 31.8602 73.2551 31.71C72.2551 31.65 71.5651 31.9701 71.8151 33.1101C72.0651 34.2501 73.3651 34.78 74.1651 35.41Z" fill="#368BEA"/>
<g opacity="0.32">
<path d="M69.3156 39.82C69.1856 42.22 66.7956 42.89 65.9356 44.82C65.5156 45.82 65.9356 47.29 67.2756 47.16C70.6256 46.84 73.4556 42.6 72.2756 39.41C72.1625 39.0688 71.9336 38.7778 71.6285 38.5876C71.3234 38.3975 70.9614 38.32 70.6052 38.3687C70.2491 38.4174 69.9211 38.5891 69.6783 38.8542C69.4354 39.1193 69.293 39.4609 69.2756 39.82H69.3156Z" fill="#368BEA"/>
</g>
<g opacity="0.32">
<path d="M65.696 49.4897C63.446 51.4897 63.536 55.3097 65.046 57.7397C66.346 59.8197 69.476 62.1497 71.746 60.1597C71.9983 59.8879 72.1385 59.5306 72.1385 59.1597C72.1385 58.7888 71.9983 58.4316 71.746 58.1597C70.686 56.9397 68.976 56.9497 68.166 55.3797C67.356 53.8097 67.696 51.7397 67.346 49.9397C67.2962 49.776 67.2053 49.6279 67.082 49.5093C66.9586 49.3908 66.8069 49.3059 66.6414 49.2628C66.4758 49.2196 66.302 49.2197 66.1364 49.2629C65.9709 49.3062 65.8193 49.3911 65.696 49.5097V49.4897Z" fill="#368BEA"/>
</g>
<g opacity="0.32">
<path d="M60.4751 52.5803C60.1654 52.8341 59.9534 53.1876 59.8751 53.5803C59.6151 54.8503 59.6952 57.0803 61.1752 57.5803C61.3614 57.6365 61.5612 57.6286 61.7425 57.5579C61.9237 57.4872 62.0761 57.3578 62.1752 57.1903C62.8152 56.1903 62.3152 55.1003 62.1752 54.0603C62.0752 53.3503 62.0952 52.1503 60.9852 52.3703C60.8009 52.3986 60.626 52.4707 60.4751 52.5803Z" fill="#368BEA"/>
</g>
<g opacity="0.47">
<path d="M43.1353 7.40971C42.5443 7.96569 42.1274 8.68133 41.9353 9.4697C41.6153 11.9297 41.3253 12.8397 38.7153 13.1997C38.5854 13.2332 38.4636 13.2924 38.3571 13.3739C38.2506 13.4555 38.1616 13.5575 38.0953 13.6742C38.0291 13.7908 37.987 13.9196 37.9715 14.0528C37.956 14.186 37.9675 14.321 38.0053 14.4497C38.7653 16.5997 41.9253 15.4497 43.2353 14.3897C44.5453 13.3297 44.8553 11.6797 44.7853 10.0097C44.7453 9.18971 44.6853 5.99971 43.1353 7.40971Z" fill="#154B86"/>
</g>
<path opacity="0.47" d="M45.3755 39.1598C45.2385 38.3669 44.8106 37.6537 44.1755 37.1598C43.7486 36.9174 43.2521 36.827 42.7671 36.9033C42.2822 36.9796 41.8374 37.2181 41.5055 37.5798C38.3655 40.7998 46.4355 44.1598 45.3755 39.1598Z" fill="#368BEA"/>
<g opacity="0.47">
<path d="M37.2066 28.2299C35.5266 27.4499 33.3166 28.2999 31.8766 29.3199C30.4366 30.3399 28.6966 32.0499 29.2766 33.9099C29.3736 34.1459 29.5456 34.3434 29.7662 34.4718C29.9868 34.6001 30.2435 34.6522 30.4966 34.6198C31.8766 34.4098 32.7466 32.9699 33.8566 32.2199C35.7866 30.9099 36.2066 31.2198 37.4266 30.0898C37.5738 29.9733 37.6887 29.8209 37.7603 29.6474C37.832 29.4739 37.858 29.2849 37.8359 29.0984C37.8139 28.912 37.7445 28.7343 37.6343 28.5822C37.5241 28.4302 37.3769 28.3089 37.2066 28.2299Z" fill="#154B86"/>
</g>
<g opacity="0.47">
<path d="M26.3053 37.8305C24.6353 41.5805 26.7753 45.6404 29.7953 48.0204C32.0053 49.7604 34.0453 50.9105 35.5953 53.3505C37.1453 55.7905 37.2853 58.6505 38.9853 60.9105C39.0852 61.0695 39.2238 61.2007 39.3882 61.2916C39.5526 61.3825 39.7374 61.4301 39.9253 61.4301C40.1131 61.4301 40.2979 61.3825 40.4623 61.2916C40.6267 61.2007 40.7654 61.0695 40.8653 60.9105C43.3153 57.3005 40.5753 52.2705 37.9553 49.5005C36.2778 47.9324 34.3895 46.6063 32.3453 45.5605C29.2553 43.7105 28.6153 41.2205 27.6053 38.0005C27.4353 37.4705 26.6053 37.2405 26.3053 37.8305Z" fill="#154B86"/>
</g>
<g opacity="0.47">
<path d="M31.1451 54.7097C31.5251 55.5497 31.9651 56.3697 32.3151 57.2097C32.7551 58.2097 32.8451 59.2097 33.8151 59.8697C34.1114 60.0475 34.4589 60.1206 34.8017 60.077C35.1445 60.0335 35.4627 59.876 35.7052 59.6297C36.7752 58.4297 36.3451 56.8297 35.4651 55.6297C34.6889 54.6156 33.652 53.8311 32.4651 53.3597C32.2773 53.2631 32.0638 53.2285 31.8551 53.2608C31.6464 53.293 31.4532 53.3905 31.3033 53.5393C31.1535 53.6881 31.0545 53.8805 31.0207 54.0889C30.9869 54.2974 31.02 54.5112 31.1151 54.6997L31.1451 54.7097Z" fill="#154B86"/>
</g>
<g opacity="0.47">
<path d="M57.7848 3.57965C56.8552 4.17903 56.0642 4.96997 55.4648 5.89962C54.5541 7.02428 53.9144 8.34345 53.5953 9.755C53.2763 11.1665 53.2864 12.6326 53.6248 14.0396C53.89 14.8898 54.3539 15.6646 54.9779 16.3C55.602 16.9354 56.3684 17.4131 57.2136 17.6935C58.0589 17.974 58.9588 18.0491 59.8389 17.9128C60.719 17.7765 61.554 17.4326 62.2748 16.9096C62.4424 16.7681 62.5704 16.5855 62.6464 16.3797C62.7224 16.174 62.7439 15.952 62.7086 15.7355C62.6734 15.519 62.5826 15.3153 62.4453 15.1443C62.3079 14.9733 62.1286 14.8408 61.9248 14.7596C61.2972 14.4752 60.6138 14.3351 59.9248 14.3496C59.241 14.3563 58.5678 14.1802 57.9748 13.8396C57.6719 13.5997 57.4254 13.2963 57.2526 12.9507C57.0798 12.6052 56.985 12.2259 56.9748 11.8396C56.7748 9.46963 58.1548 7.06962 59.3748 5.14962C59.4702 4.96009 59.5131 4.74851 59.4992 4.5368C59.4853 4.32509 59.4151 4.12095 59.2957 3.94552C59.1764 3.77009 59.0123 3.62973 58.8205 3.53903C58.6287 3.44832 58.4161 3.41055 58.2048 3.42962C58.0573 3.45525 57.9152 3.50601 57.7848 3.57965Z" fill="#005DC6"/>
</g>
<g opacity="0.47">
<path d="M61.766 7.3597C61.4161 7.43385 61.0857 7.58079 60.7962 7.79098C60.5068 8.00116 60.2648 8.26989 60.086 8.5797C59.8491 9.04552 59.7642 9.57384 59.8431 10.0904C59.9221 10.607 60.1609 11.0858 60.526 11.4597C61.446 12.2497 63.276 11.8997 63.366 10.5197C63.366 10.6797 63.306 10.8397 63.266 10.9997C63.496 9.90969 63.506 7.0397 61.766 7.3597Z" fill="#005DC6"/>
</g>
<g style="mix-blend-mode:screen" opacity="0.38">
<path d="M66.0352 40.1608C68.6652 40.1608 68.6652 36.0908 66.0352 36.0908C63.4052 36.0908 63.4152 40.1608 66.0352 40.1608Z" fill="#59A7FF"/>
<path d="M61.9255 43.2807C62.2133 43.2539 62.4807 43.1206 62.6753 42.907C62.87 42.6933 62.9779 42.4147 62.9779 42.1257C62.9779 41.8367 62.87 41.5581 62.6753 41.3444C62.4807 41.1308 62.2133 40.9975 61.9255 40.9707C61.6377 40.9975 61.3703 41.1308 61.1756 41.3444C60.9809 41.5581 60.873 41.8367 60.873 42.1257C60.873 42.4147 60.9809 42.6933 61.1756 42.907C61.3703 43.1206 61.6377 43.2539 61.9255 43.2807Z" fill="#59A7FF"/>
<path d="M59.8744 48.4503C60.1442 48.4244 60.3946 48.2988 60.5769 48.0982C60.7591 47.8976 60.8601 47.6363 60.8601 47.3653C60.8601 47.0942 60.7591 46.8329 60.5769 46.6323C60.3946 46.4317 60.1442 46.3062 59.8744 46.2803C59.6046 46.3062 59.3542 46.4317 59.1719 46.6323C58.9897 46.8329 58.8887 47.0942 58.8887 47.3653C58.8887 47.6363 58.9897 47.8976 59.1719 48.0982C59.3542 48.2988 59.6046 48.4244 59.8744 48.4503Z" fill="#59A7FF"/>
<path d="M55.4558 51.1209C55.57 51.1043 55.6743 51.0472 55.7498 50.9599C55.8252 50.8727 55.8667 50.7612 55.8667 50.6459C55.8667 50.5305 55.8252 50.4191 55.7498 50.3318C55.6743 50.2446 55.57 50.1875 55.4558 50.1709C55.3417 50.1875 55.2373 50.2446 55.1619 50.3318C55.0864 50.4191 55.0449 50.5305 55.0449 50.6459C55.0449 50.7612 55.0864 50.8727 55.1619 50.9599C55.2373 51.0472 55.3417 51.1043 55.4558 51.1209Z" fill="#59A7FF"/>
<path d="M65.6152 65.3809C66.0131 65.3809 66.3946 65.2228 66.6759 64.9415C66.9572 64.6602 67.1152 64.2787 67.1152 63.8809C67.1152 63.483 66.9572 63.1015 66.6759 62.8202C66.3946 62.5389 66.0131 62.3809 65.6152 62.3809C65.2174 62.3809 64.8359 62.5389 64.5546 62.8202C64.2733 63.1015 64.1152 63.483 64.1152 63.8809C64.1152 64.2787 64.2733 64.6602 64.5546 64.9415C64.8359 65.2228 65.2174 65.3809 65.6152 65.3809Z" fill="#59A7FF"/>
<path d="M69.625 65.3203C69.8902 65.3203 70.1446 65.2149 70.3321 65.0274C70.5197 64.8399 70.625 64.5855 70.625 64.3203C70.625 64.0551 70.5197 63.8007 70.3321 63.6132C70.1446 63.4257 69.8902 63.3203 69.625 63.3203C69.3598 63.3203 69.1054 63.4257 68.9179 63.6132C68.7304 63.8007 68.625 64.0551 68.625 64.3203C68.625 64.5855 68.7304 64.8399 68.9179 65.0274C69.1054 65.2149 69.3598 65.3203 69.625 65.3203Z" fill="#59A7FF"/>
<path d="M61.1057 67.2402C61.1946 67.2257 61.2755 67.18 61.3338 67.1113C61.3922 67.0426 61.4242 66.9554 61.4242 66.8652C61.4242 66.7751 61.3922 66.6879 61.3338 66.6192C61.2755 66.5505 61.1946 66.5048 61.1057 66.4902C61.0167 66.5048 60.9359 66.5505 60.8775 66.6192C60.8191 66.6879 60.7871 66.7751 60.7871 66.8652C60.7871 66.9554 60.8191 67.0426 60.8775 67.1113C60.9359 67.18 61.0167 67.2257 61.1057 67.2402Z" fill="#59A7FF"/>
<path d="M69.8248 27.141C69.9998 27.1202 70.1612 27.036 70.2783 26.9042C70.3954 26.7724 70.4601 26.6023 70.4601 26.426C70.4601 26.2497 70.3954 26.0795 70.2783 25.9477C70.1612 25.8159 69.9998 25.7317 69.8248 25.7109C69.6497 25.7317 69.4883 25.8159 69.3712 25.9477C69.2542 26.0795 69.1895 26.2497 69.1895 26.426C69.1895 26.6023 69.2542 26.7724 69.3712 26.9042C69.4883 27.036 69.6497 27.1202 69.8248 27.141Z" fill="#59A7FF"/>
<path d="M73.1154 27.3707C73.3236 27.348 73.5162 27.2492 73.6561 27.0932C73.796 26.9373 73.8733 26.7352 73.8733 26.5257C73.8733 26.3162 73.796 26.1141 73.6561 25.9581C73.5162 25.8022 73.3236 25.7034 73.1154 25.6807C72.9071 25.7034 72.7146 25.8022 72.5747 25.9581C72.4348 26.1141 72.3574 26.3162 72.3574 26.5257C72.3574 26.7352 72.4348 26.9373 72.5747 27.0932C72.7146 27.2492 72.9071 27.348 73.1154 27.3707Z" fill="#59A7FF"/>
<path d="M49.2956 13.0405C49.5025 13.0405 49.7009 12.9583 49.8472 12.812C49.9934 12.6657 50.0756 12.4673 50.0756 12.2605C50.0756 12.0536 49.9934 11.8552 49.8472 11.7089C49.7009 11.5626 49.5025 11.4805 49.2956 11.4805C49.0888 11.4805 48.8904 11.5626 48.7441 11.7089C48.5978 11.8552 48.5156 12.0536 48.5156 12.2605C48.5156 12.4673 48.5978 12.6657 48.7441 12.812C48.8904 12.9583 49.0888 13.0405 49.2956 13.0405Z" fill="#59A7FF"/>
<path d="M48.7853 16.0806C48.9935 16.0579 49.1861 15.9591 49.326 15.8032C49.4658 15.6472 49.5432 15.4451 49.5432 15.2356C49.5432 15.0261 49.4658 14.824 49.326 14.6681C49.1861 14.5121 48.9935 14.4133 48.7853 14.3906C48.577 14.4133 48.3845 14.5121 48.2446 14.6681C48.1047 14.824 48.0273 15.0261 48.0273 15.2356C48.0273 15.4451 48.1047 15.6472 48.2446 15.8032C48.3845 15.9591 48.577 16.0579 48.7853 16.0806Z" fill="#59A7FF"/>
<path d="M49.8153 19.74C50.1107 19.7349 50.3927 19.6152 50.6016 19.4063C50.8105 19.1973 50.9302 18.9154 50.9353 18.62C50.9277 18.3253 50.8073 18.0449 50.5989 17.8365C50.3905 17.628 50.11 17.5076 49.8153 17.5C49.5183 17.5 49.2334 17.618 49.0233 17.828C48.8133 18.0381 48.6953 18.323 48.6953 18.62C48.6953 18.917 48.8133 19.2019 49.0233 19.412C49.2334 19.622 49.5183 19.74 49.8153 19.74Z" fill="#59A7FF"/>
<path d="M52.9161 19.5204L52.8661 19.4704C52.6796 19.2902 52.4304 19.1895 52.1711 19.1895C51.9118 19.1895 51.6626 19.2902 51.4761 19.4704L51.4261 19.5204C51.28 19.6675 51.1807 19.8547 51.1407 20.0581C51.1008 20.2616 51.122 20.4724 51.2017 20.6638C51.2814 20.8553 51.416 21.0188 51.5885 21.1339C51.761 21.2489 51.9637 21.3103 52.1711 21.3103C52.3785 21.3103 52.5812 21.2489 52.7537 21.1339C52.9262 21.0188 53.0608 20.8553 53.1405 20.6638C53.2202 20.4724 53.2414 20.2616 53.2014 20.0581C53.1615 19.8547 53.0622 19.6675 52.9161 19.5204Z" fill="#59A7FF"/>
</g>
<path style="mix-blend-mode:multiply" opacity="0.51" d="M54.3545 70.08C73.7065 70.08 89.3944 54.3921 89.3944 35.04C89.3944 15.688 73.7065 0 54.3545 0C35.0024 0 19.3145 15.688 19.3145 35.04C19.3145 54.3921 35.0024 70.08 54.3545 70.08Z" fill="url(#paint0_linear_1580_8770)"/>
<g style="mix-blend-mode:multiply" opacity="0.07">
<path d="M54.3546 70.0799C59.2101 70.0154 63.9991 68.9412 68.417 66.9256C72.8348 64.91 76.785 61.9971 80.0161 58.3723C83.2473 54.7474 85.6889 50.4898 87.1855 45.8703C88.6822 41.2507 89.2011 36.3703 88.7095 31.5393C88.2178 26.7083 86.7263 22.0325 84.3297 17.8091C81.933 13.5858 78.6838 9.90736 74.7886 7.00777C70.8934 4.10817 66.4375 2.05083 61.7041 0.9666C56.9708 -0.117634 52.0636 -0.205046 47.2946 0.709917C53.6432 1.41387 59.7023 3.74589 64.8846 7.47994C67.2096 9.15027 69.3161 11.1055 71.1546 13.2999C74.1546 16.8799 76.4846 21.1899 76.8946 25.8399C77.3046 30.4899 75.5346 35.4799 71.7146 38.1699C66.9546 41.5199 59.5846 41.1699 56.5346 46.1699C54.6846 49.1699 55.2146 53.1699 53.5346 56.3499C51.5346 60.2199 46.8146 61.7699 42.5346 62.5199C39.5496 63.0842 36.5099 63.3056 33.4746 63.1799C39.5075 67.6731 46.8323 70.0937 54.3546 70.0799Z" fill="#005DC6"/>
</g>
<g style="mix-blend-mode:multiply" opacity="0.21">
<path d="M54.3556 70.0799C63.0215 70.1685 71.4121 67.039 77.9033 61.297C84.3944 55.555 88.5245 47.609 89.4939 38.997C90.4634 30.3851 88.2033 21.7197 83.1512 14.6783C78.0992 7.63682 70.6143 2.72012 62.1456 0.879883C62.4032 1.08427 62.6854 1.25561 62.9856 1.38989C69.9251 4.74614 75.6164 10.2238 79.2356 17.0299C81.2415 20.7785 82.5303 24.8685 83.0356 29.0899C83.4281 31.3384 83.1999 33.6514 82.3756 35.7799C80.3156 40.2599 74.7356 41.5899 70.5856 44.2399C69.7498 44.7079 69.0449 45.3785 68.5356 46.1899C67.6456 47.7799 68.1456 49.7499 67.9656 51.5599C67.6556 54.7999 65.1656 57.4199 62.4456 59.2099C53.9256 64.8299 42.4456 64.4499 33.1556 60.2099C30.8323 59.134 28.6102 57.8523 26.5156 56.3799C29.7906 60.65 34.0061 64.1075 38.8345 66.4835C43.6629 68.8596 48.9742 70.0903 54.3556 70.0799Z" fill="#005DC6"/>
</g>
<g style="mix-blend-mode:overlay" opacity="0.28">
<path d="M54.3548 0.0498234C47.9431 0.0499589 41.6547 1.81128 36.1758 5.14162C30.6969 8.47196 26.2381 13.2433 23.286 18.9349C20.334 24.6265 19.002 31.0197 19.4356 37.4167C19.8692 43.8136 22.0516 49.9686 25.7447 55.2098C24.5047 50.0598 23.4447 44.7498 24.1547 39.5098C24.8647 34.2698 27.6948 29.0398 32.4548 26.7198C38.3748 23.8398 45.5847 26.0298 51.9347 24.2598C55.5347 23.2598 58.9348 20.9498 62.6748 21.4798C63.6632 21.712 64.6651 21.8824 65.6748 21.9898C66.1887 22.0332 66.7037 21.9198 67.1518 21.6645C67.5999 21.4092 67.9601 21.024 68.1847 20.5598C68.6647 19.1898 67.3447 17.8298 67.3047 16.3798C67.2547 14.2698 69.7647 13.1098 71.8647 12.8898C75.9707 12.4811 80.0907 13.5173 83.5148 15.8198C80.4414 11.2113 76.3316 7.38645 71.5146 4.65148C66.6976 1.9165 61.3071 0.347408 55.7747 0.0698124C55.3347 0.0498124 54.8448 0.0398234 54.3548 0.0498234Z" fill="#70B2FF"/>
</g>
<g style="mix-blend-mode:screen" opacity="0.58">
<path d="M54.3545 0.000107936C47.5508 -0.0167854 40.8897 1.94969 35.186 5.65898C29.4824 9.36828 24.9835 14.6595 22.2398 20.8855C19.496 27.1114 18.6264 34.0021 19.7373 40.7145C20.8481 47.4269 23.8913 53.67 28.4945 58.6801C23.672 52.6373 20.9859 45.1679 20.8557 37.4378C20.7254 29.7076 23.1583 22.1519 27.7745 15.9501C29.6269 18.8344 32.5346 20.8792 35.8754 21.647C39.2163 22.4147 42.7249 21.8445 45.6507 20.0582C48.5764 18.2719 50.6869 15.4115 51.5304 12.089C52.374 8.76646 51.8837 5.24574 50.1645 2.28011C52.059 1.97144 53.975 1.81427 55.8945 1.81011C60.7623 1.80683 65.5772 2.81901 70.0317 4.78194C74.4862 6.74487 78.4822 9.61538 81.7645 13.2101C78.4845 9.08722 74.3161 5.75802 69.5701 3.47072C64.8241 1.18342 59.6229 -0.00294641 54.3545 0.000107936Z" fill="#005DC6"/>
</g>
<path style="mix-blend-mode:screen" opacity="0.32" d="M86.1649 20.3398C86.362 28.4867 83.7312 36.4503 78.7198 42.8764C73.7084 49.3026 66.6257 53.7944 58.6764 55.5882C50.7271 57.382 42.4018 56.3668 35.1164 52.7155C27.831 49.0641 22.0353 43.0019 18.7148 35.5598C18.8339 40.782 20.1113 45.9124 22.4549 50.5807C24.7985 55.2489 28.1498 59.3383 32.2665 62.5534C36.3833 65.7685 41.1628 68.0291 46.2597 69.1718C51.3566 70.3146 56.6438 70.3109 61.7391 69.1612C66.8345 68.0114 71.6109 65.7442 75.7232 62.5234C79.8355 59.3026 83.1811 55.2086 85.5182 50.5372C87.8554 45.8658 89.1258 40.7335 89.2376 35.5113C89.3494 30.289 88.2999 25.107 86.1649 20.3398Z" fill="url(#paint1_linear_1580_8770)"/>
<path style="mix-blend-mode:screen" opacity="0.32" d="M68.3457 2.57031C73.9428 8.49856 77.3133 16.1828 77.8837 24.3159C78.4541 32.4489 76.1893 40.5285 71.4744 47.1799C66.7596 53.8314 59.886 58.644 52.0229 60.7991C44.1598 62.9541 35.793 62.3185 28.3457 59.0003C31.9283 62.7948 36.3082 65.747 41.1697 67.6441C46.0312 69.5412 51.2531 70.3358 56.4589 69.9707C61.6646 69.6056 66.7245 68.0898 71.2736 65.5327C75.8227 62.9757 79.7477 59.441 82.7655 55.1835C85.7834 50.9261 87.8189 46.0521 88.7252 40.9128C89.6316 35.7736 89.3862 30.4973 88.0068 25.4644C86.6275 20.4315 84.1484 15.7673 80.7485 11.8083C77.3486 7.84936 73.1125 4.69419 68.3457 2.57031Z" fill="url(#paint2_linear_1580_8770)"/>
<path style="mix-blend-mode:overlay" opacity="0.43" d="M45.4751 33.2704C53.9085 33.2704 60.7451 26.4338 60.7451 18.0005C60.7451 9.56707 53.9085 2.73047 45.4751 2.73047C37.0417 2.73047 30.2051 9.56707 30.2051 18.0005C30.2051 26.4338 37.0417 33.2704 45.4751 33.2704Z" fill="url(#paint3_radial_1580_8770)"/>
<path opacity="0.78" d="M21.9656 47.5098C21.7756 47.1398 21.6156 46.7598 21.4456 46.3798C7.03564 55.3298 0.725638 61.0498 0.0356382 63.5998C-0.0118794 63.7494 -0.0118794 63.9101 0.0356382 64.0598L0.085626 64.1498C0.085626 64.2598 0.375641 64.3498 0.475641 64.3798C2.29564 64.9798 11.6956 65.1298 56.0356 41.8398C82.7256 27.8398 100.926 14.3598 105.856 8.83976C105.975 8.68656 106.046 8.5021 106.062 8.30882C106.078 8.11553 106.038 7.92179 105.945 7.75117C105.853 7.58055 105.713 7.44039 105.543 7.34782C105.373 7.25525 105.179 7.21424 104.986 7.22978C101.316 7.82978 94.0956 10.0398 83.6656 14.3498C83.8156 14.6198 83.9856 14.8798 84.1356 15.1598C92.7456 11.6598 98.3856 10.1098 99.0356 11.3398C100.336 13.8098 81.0356 26.5298 55.8756 39.7598C30.7156 52.9898 9.31565 61.6998 8.01565 59.2398C7.22565 57.9098 12.7256 53.4198 21.9656 47.5098Z" fill="url(#paint4_linear_1580_8770)"/>
<defs>
<linearGradient id="paint0_linear_1580_8770" x1="29.5745" y1="10.26" x2="79.1345" y2="59.82" gradientUnits="userSpaceOnUse">
<stop stop-color="white"/>
<stop offset="0.09" stop-color="#EBEBF6"/>
<stop offset="0.54" stop-color="#8B8FCE"/>
<stop offset="0.85" stop-color="#4F55B4"/>
<stop offset="1" stop-color="#383EAA"/>
</linearGradient>
<linearGradient id="paint1_linear_1580_8770" x1="50.6797" y1="20.8748" x2="62.2765" y2="69.2077" gradientUnits="userSpaceOnUse">
<stop offset="0.24" stop-color="white"/>
<stop offset="0.92" stop-color="white"/>
<stop offset="1" stop-color="white"/>
</linearGradient>
<linearGradient id="paint2_linear_1580_8770" x1="40.5281" y1="25.5557" x2="81.2801" y2="53.6109" gradientUnits="userSpaceOnUse">
<stop offset="0.24" stop-color="white"/>
<stop offset="0.39" stop-color="#FCFFFF"/>
<stop offset="0.5" stop-color="#F2FFFF"/>
<stop offset="0.6" stop-color="#E2FEFF"/>
<stop offset="0.7" stop-color="#CBFDFF"/>
<stop offset="0.78" stop-color="#AEFCFF"/>
<stop offset="0.87" stop-color="#8AFBFF"/>
<stop offset="0.95" stop-color="#5FF9FF"/>
<stop offset="1" stop-color="#40F8FF"/>
</linearGradient>
<radialGradient id="paint3_radial_1580_8770" cx="0" cy="0" r="1" gradientUnits="userSpaceOnUse" gradientTransform="translate(45.4751 18.0005) scale(15.27)">
<stop stop-color="#ECECEC"/>
<stop offset="0.47" stop-color="#F1F1F1"/>
<stop offset="1" stop-color="white"/>
</radialGradient>
<linearGradient id="paint4_linear_1580_8770" x1="-0.792707" y1="62.5868" x2="107.064" y2="10.1679" gradientUnits="userSpaceOnUse">
<stop stop-color="#77EDF6"/>
<stop offset="0.16" stop-color="#6BE1F0"/>
<stop offset="0.44" stop-color="#4CC0E1"/>
<stop offset="0.82" stop-color="#1A8CC8"/>
<stop offset="0.99" stop-color="#0071BB"/>
</linearGradient>
</defs>
</svg>
