<svg width="60" height="110" viewBox="0 0 60 110" fill="none" xmlns="http://www.w3.org/2000/svg">
<path d="M-6.79672 97.6447C16.981 104.016 41.4217 89.9048 47.793 66.1265C54.1644 42.3483 40.0537 17.9073 16.276 11.5361C-7.5017 5.16489 -31.9424 19.2761 -38.3137 43.0543C-44.6851 66.8325 -30.5744 91.2735 -6.79672 97.6447Z" fill="#FAA036"/>
<path d="M-14.2216 84.6443C-17.7239 85.1975 -21.8783 85.726 -26.046 86.8264C-12.0994 100.156 9.47009 103.325 27.0201 93.1921C29.393 91.8169 31.6355 90.228 33.7194 88.445L11.5774 85.5521C2.99028 84.4186 -5.65725 83.2911 -14.2216 84.6443ZM47.5899 66.7977C48.2992 64.3106 48.791 61.7666 49.0597 59.1943L31.3594 57.5442C27.2228 57.1593 23.0025 56.7541 19.1786 55.316C16.2148 54.1996 13.6965 57.3127 11.1102 55.6651C6.64089 52.8158 -2.23093 55.5358 -7.63659 54.3204C-19.7203 51.5933 -27.2997 47.0999 -39.4941 49.0897C-40.007 53.1956 -39.9443 57.353 -39.3079 61.4415C-38.4339 61.9615 -12.6158 69.8097 2.6541 66.6964C8.0908 65.5874 40.1483 66.0177 47.5955 66.7992L47.5899 66.7977ZM23.8795 30.095C28.7191 29.815 34.772 29.7041 40.5541 28.0776C27.2629 10.0782 2.28824 4.54345 -17.5491 15.9968C-20.1562 17.499 -22.6048 19.2609 -24.8576 21.2555L-1.7073 26.6479C6.73366 28.6219 15.2268 30.5977 23.8795 30.095Z" fill="#EE4334"/>
<g style="mix-blend-mode:multiply">
<path d="M-11.3831 36.232C-9.0823 36.3357 -6.75918 36.4394 -4.50026 36.3515C-2.47842 36.2711 -0.566099 36.0397 1.42377 35.9122C16.0221 34.8969 31.6539 39.0328 46.3965 38.727C46.0699 37.8734 45.7156 37.0252 45.3334 36.1824C38.4116 35.6714 32.1634 33.985 25.3091 33.2368C13.5383 31.9514 1.52785 33.5648 -10.4616 32.914C-18.022 32.5095 -25.2939 31.2096 -32.6848 30.3844C-33.3474 31.4127 -33.971 32.4616 -34.5422 33.5347C-30.8668 33.7575 -27.5738 34.6358 -24.0645 35.191C-20.0126 35.839 -15.6658 36.037 -11.3831 36.232Z" fill="#FAA036"/>
</g>
<g style="mix-blend-mode:multiply">
<path d="M0.0907042 18.5768C3.86524 18.7775 7.22911 19.6788 10.8132 20.2501C14.8709 20.8915 19.2192 21.0838 23.4923 21.2843C25.7931 21.3881 28.1162 21.4917 30.3752 21.4039C31.6734 21.3464 32.9265 21.2383 34.1838 21.1293C32.9706 20.0602 31.7 19.0581 30.3776 18.1274C28.3914 18.1201 26.4049 18.0762 24.4185 17.9716C13.6217 17.385 3.40184 14.9931 -7.40632 14.744C-10.2253 14.6757 -12.9464 14.7714 -15.6275 14.9447C-16.2717 15.2768 -16.9094 15.6146 -17.5468 15.989C-18.8977 16.7679 -20.2074 17.6164 -21.4705 18.5309C-17.1471 18.7632 -12.7972 19.0025 -8.52594 18.8317C-5.65453 18.7195 -2.82944 18.4246 0.0907042 18.5768Z" fill="#EB3333"/>
</g>
<g style="mix-blend-mode:multiply">
<path d="M-14.5309 74.9358C-19.6027 74.8192 -24.4294 75.2019 -29.1498 75.68C-30.5749 75.8251 -32.568 75.8586 -34.3339 75.9974C-34.175 76.2893 -34.0246 76.5829 -33.859 76.8725C-33.5213 77.4575 -33.1563 78.0316 -32.8058 78.5917C-31.7418 78.5991 -30.7945 78.6036 -30.2869 78.6302C-25.4092 78.8813 -20.4739 79.2126 -15.6415 79.0199C-12.7738 78.9067 -9.9525 78.6108 -7.03236 78.763C-3.25783 78.9637 0.106039 79.865 3.69198 80.4368C7.74731 81.0795 12.098 81.2705 16.3692 81.4705C18.67 81.5742 20.9951 81.6784 23.2521 81.59C25.2734 81.5115 27.1863 81.2782 29.1761 81.1507C32.9427 80.9234 36.7204 80.9504 40.4833 81.2317C41.2689 80.1755 42.0089 79.0929 42.694 77.9733C34.28 77.9482 25.7846 78.6206 17.2968 78.1602C6.49709 77.5768 -3.72275 75.185 -14.5309 74.9358Z" fill="#FAA036"/>
</g>
<g style="mix-blend-mode:multiply">
<path d="M-18.9919 60.4647C-15.2173 60.6655 -11.8535 61.5668 -8.26805 62.1404C-4.21221 62.7813 0.137976 62.9741 4.40922 63.1742C6.71002 63.2779 9.03503 63.3821 11.2921 63.2937C13.3139 63.2133 15.2267 62.98 17.2186 62.8449C27.2301 62.1571 37.7223 63.8802 48.0814 64.9433C48.3663 63.7537 48.6025 62.5523 48.7897 61.3392C46.2733 60.898 43.7348 60.4711 41.108 60.1848C29.3372 58.8994 17.3291 60.5114 5.33775 59.8601C-5.46142 59.2749 -15.6808 56.8811 -26.4889 56.6319C-31.0756 56.5277 -35.4598 56.8325 -39.7524 57.2489C-39.6885 58.3266 -39.586 59.4039 -39.4449 60.4807C-35.4868 60.6921 -31.5097 60.8782 -27.6015 60.7236C-24.7347 60.6061 -21.912 60.3126 -18.9919 60.4647Z" fill="#EB3333"/>
</g>
<g style="mix-blend-mode:multiply">
<path d="M4.88179 90.3086C-4.03855 89.3371 -13.0975 90.0248 -22.1794 90.1327C-20.8398 91.1408 -19.4447 92.0728 -18.0006 92.9244C-5.06559 92.2397 8.63143 95.3748 21.7825 95.7674C23.4715 95.0688 25.1159 94.2667 26.7062 93.3657C26.3665 93.3476 26.0264 93.3315 25.6915 93.3106C18.4535 92.875 11.9957 91.0859 4.88179 90.3086Z" fill="#EB3333"/>
</g>
<path d="M23.5364 38.3382C26.0765 38.3582 28.4617 39.3418 30.9979 39.5127C33.8129 39.7015 36.6522 38.8774 39.4106 39.3531C41.0787 39.6399 42.5795 40.3846 44.2824 40.5186C44.6291 40.5208 44.9738 40.5702 45.3071 40.6655C45.6204 40.7819 45.8512 41.0626 45.6937 41.2798C45.5809 41.4361 45.3182 41.5014 45.0763 41.542C41.3816 42.1551 37.4611 40.1318 33.7693 40.7417C33.3008 40.8188 32.8472 40.9384 32.3709 40.9912C31.831 41.0347 31.2885 41.0364 30.7483 40.9962C29.7481 40.9471 28.7229 40.8933 27.7751 40.6413C26.9355 40.4164 26.1531 40.0385 25.2661 39.9833C24.5807 39.9394 23.9123 40.0968 23.2377 40.1714C22.0992 40.298 20.9419 40.1926 19.7959 40.1206C19.451 40.0992 18.2453 40.1895 17.9862 40.0674C17.647 39.9036 17.8602 39.4256 18.1361 39.228C18.5653 38.9194 19.5136 38.9202 20.0775 38.7896C21.2087 38.5035 22.3697 38.352 23.5364 38.3382Z" fill="#FFD4A8"/>
<path d="M7.04995 51.1221C11.781 51.4818 16.204 52.7642 20.9222 53.2704C26.1622 53.8334 31.4615 53.4111 36.5901 54.2462C39.697 54.7525 42.4878 55.6826 45.6353 56.0376C46.2768 56.0848 46.914 56.179 47.5418 56.3194C48.1223 56.4749 48.5512 56.7804 48.2531 56.9701C48.0379 57.1151 47.5504 57.1344 47.0982 57.1429C40.2112 57.2432 32.9467 54.7434 26.0554 54.8445C25.1824 54.8579 24.3362 54.9149 23.448 54.9018C22.4567 54.8875 21.4399 54.7873 20.4349 54.6883C18.5647 54.5053 16.6656 54.3167 14.9016 53.9413C13.3426 53.6107 11.8914 53.1347 10.2413 52.9621C8.96536 52.8229 7.72005 52.8946 6.46111 52.8734C4.34091 52.8444 2.18518 52.585 0.0495723 52.3714C-0.588912 52.3037 -2.83704 52.2303 -3.30368 52.0809C-3.93368 51.8757 -3.52699 51.4395 -3.01106 51.2838C-2.20638 51.0414 -0.441014 51.1618 0.614361 51.1183C2.7575 50.9842 4.90697 50.9855 7.04995 51.1221Z" fill="#FFD4A8"/>
<path d="M-26.1261 44.739C-21.3833 44.881 -16.9064 45.9549 -12.17 46.2492C-6.90978 46.5703 -1.63438 45.9045 3.52765 46.5013C6.64514 46.8624 9.4751 47.6612 12.6507 47.8737C13.2937 47.8931 13.9347 47.9578 14.5686 48.0674C15.1543 48.196 15.5969 48.4807 15.309 48.6853C15.1014 48.8323 14.6138 48.8821 14.1627 48.9091C7.28692 49.3306 -0.0895442 47.1656 -6.96535 47.587C-7.83714 47.6412 -8.67921 47.7358 -9.56622 47.7636C-10.5578 47.7958 -11.5774 47.7436 -12.5865 47.69C-14.4614 47.593 -16.3667 47.4878 -18.1482 47.2009C-19.7204 46.9418 -21.1922 46.5353 -22.8483 46.4381C-24.1291 46.3624 -25.3696 46.484 -26.6286 46.5236C-28.7485 46.592 -30.9131 46.4335 -33.0558 46.3073C-33.6986 46.2708 -35.948 46.3004 -36.4197 46.17C-37.0589 45.9987 -36.6722 45.5389 -36.1639 45.359C-35.3695 45.0793 -33.6024 45.1252 -32.5485 45.0266C-30.4158 44.7969 -28.2708 44.7009 -26.1261 44.739Z" fill="#FFD4A8"/>
<path d="M0.62194 71.3173C5.36766 71.5391 9.82438 72.7941 14.5631 73.1781C19.8229 73.6066 25.1217 72.9369 30.2776 73.6699C33.3913 74.113 36.2049 75.0412 39.3788 75.3202C40.0227 75.3498 40.6633 75.43 41.2946 75.5599C41.8789 75.7164 42.3142 76.0357 42.0199 76.2568C41.8087 76.4171 41.3172 76.4739 40.8668 76.491C33.9675 76.8717 26.6429 74.3619 19.7413 74.7359C18.8672 74.7834 18.0198 74.8826 17.1302 74.8976C16.1374 74.9193 15.1172 74.8466 14.1089 74.7751C12.2317 74.6409 10.3303 74.5064 8.55167 74.1554C6.98274 73.8465 5.51816 73.3751 3.86314 73.2437C2.58083 73.1433 1.33572 73.2596 0.075449 73.2888C-2.04874 73.3276 -4.21501 73.1302 -6.35471 72.9622C-6.99775 72.9115 -9.2519 72.9135 -9.72043 72.7636C-10.3547 72.5592 -9.95689 72.0578 -9.44318 71.8651C-8.64134 71.5651 -6.87377 71.6395 -5.81417 71.5424C-3.67662 71.3181 -1.52605 71.2429 0.62194 71.3173Z" fill="#FFD4A8"/>
<path d="M-26.9039 67.0531C-23.1269 67.0255 -19.5374 67.9244 -15.7605 68.0406C-11.5674 68.1691 -7.38544 67.3258 -3.26387 67.7289C-0.771695 67.9731 1.4984 68.6604 4.0301 68.7571C4.54263 68.7529 5.05455 68.7937 5.55991 68.8793C6.03013 68.985 6.38844 69.2513 6.1636 69.4626C6.00137 69.6218 5.6167 69.6808 5.2584 69.7247C-0.203486 70.3831 -6.12475 68.5128 -11.5847 69.1717C-12.278 69.2555 -12.9459 69.3806 -13.6499 69.429C-14.4505 69.482 -15.2533 69.4942 -16.0552 69.4655C-17.549 69.4361 -19.0685 69.4039 -20.4921 69.1805C-21.7481 68.9818 -22.9312 68.6323 -24.2507 68.595C-25.2726 68.5664 -26.2568 68.7303 -27.2564 68.8151C-28.9421 68.9572 -30.6678 68.8778 -32.376 68.8315C-32.8867 68.8163 -34.6755 68.9268 -35.0549 68.815C-35.5656 68.664 -35.2715 68.2016 -34.8708 68.007C-34.2465 67.7041 -32.8392 67.686 -32.0047 67.559C-30.32 67.2592 -28.6146 67.09 -26.9039 67.0531Z" fill="#FFD4A8"/>
<g style="mix-blend-mode:multiply">
<path d="M14.4866 43.0074C17.6329 43.0945 20.566 44.3405 23.7041 44.6098C27.1882 44.911 30.7242 43.9899 34.1309 44.6332C36.1895 45.0206 38.0323 45.9562 40.1396 46.1621C40.5691 46.1728 40.9952 46.2413 41.4064 46.3658C41.7904 46.5133 42.0728 46.8585 41.8719 47.1167C41.7292 47.3014 41.3985 47.3709 41.101 47.4148C36.5116 48.0618 31.698 45.5215 27.1086 46.1685C26.5269 46.2518 25.9625 46.3843 25.3714 46.4347C24.7031 46.4756 24.0327 46.464 23.3662 46.4C22.1221 46.3159 20.8591 46.2268 19.6889 45.897C18.6538 45.6075 17.6913 45.1307 16.595 45.0396C15.7461 44.9703 14.9156 45.1429 14.0772 45.2162C12.6657 45.3406 11.2324 45.1836 9.81407 45.069C9.38966 45.0343 7.89113 45.1131 7.58364 44.9598C7.16688 44.7528 7.44284 44.1843 7.78674 43.9522C8.327 43.5923 9.49805 43.6163 10.2051 43.4734C11.6097 43.1545 13.0463 42.9981 14.4866 43.0074Z" fill="#FFD4A8"/>
</g>
<path d="M27.2231 31.157C28.9925 31.1792 30.6232 32.1653 32.3791 32.3359C34.3361 32.5279 36.3409 31.7092 38.248 32.1858C39.4008 32.4744 40.4248 33.221 41.605 33.3548C41.8489 33.3588 42.0899 33.4089 42.3152 33.5026C42.5307 33.6211 42.6827 33.901 42.566 34.117C42.5152 34.1888 42.4499 34.2491 42.3743 34.2941C42.2987 34.3392 42.2145 34.3678 42.1272 34.3784C39.5318 34.9881 36.863 32.9678 34.2729 33.5729C33.9445 33.6491 33.6243 33.77 33.2906 33.8204C32.916 33.8647 32.5376 33.866 32.1627 33.8243C31.4646 33.775 30.7537 33.7203 30.0983 33.4738C29.5223 33.2485 28.9873 32.8701 28.3715 32.8084C27.8964 32.7662 27.4251 32.9217 26.9533 32.9959C26.1558 33.1207 25.3513 33.0145 24.5562 32.9413C24.3168 32.9197 23.4738 33.01 23.3016 32.8889C23.0703 32.7235 23.2345 32.2467 23.433 32.0506C23.7426 31.7424 24.4007 31.7444 24.8023 31.6068C25.5792 31.3254 26.397 31.1735 27.2231 31.157Z" fill="#F15C2A"/>
<path style="mix-blend-mode:multiply" d="M43.3417 32.3047C55.6501 53.6239 48.3454 80.8853 27.0269 93.1922C5.70847 105.499 -21.5528 98.1966 -33.8593 76.8778C-46.1657 55.5591 31.0334 10.9854 43.3417 32.3047Z" fill="url(#paint0_radial_1173_34657)"/>
<g opacity="0.3">
<path d="M6.94545 20.4049C10.8027 27.0889 -20.9882 45.4423 -24.846 38.7602C-28.7038 32.0782 -24.7143 22.5517 -15.9369 17.4839C-7.15946 12.4161 3.08766 13.7229 6.94545 20.4049Z" fill="white"/>
</g>
<defs>
<radialGradient id="paint0_radial_1173_34657" cx="0" cy="0" r="1" gradientUnits="userSpaceOnUse" gradientTransform="translate(-11.854 26.4669) rotate(15) scale(78.1074 78.1091)">
<stop offset="0.27" stop-color="white"/>
<stop offset="0.47" stop-color="#FDFDFD"/>
<stop offset="0.58" stop-color="#F4F4F4"/>
<stop offset="0.67" stop-color="#E6E6E7"/>
<stop offset="0.75" stop-color="#D2D2D3"/>
<stop offset="0.83" stop-color="#B8B8B9"/>
<stop offset="0.9" stop-color="#98999A"/>
<stop offset="0.96" stop-color="#737475"/>
<stop offset="1" stop-color="#58595B"/>
</radialGradient>
</defs>
</svg>
