<svg width="127" height="77" viewBox="0 0 127 77" fill="none" xmlns="http://www.w3.org/2000/svg">
<path d="M62.8603 70.1103C82.2124 70.1103 97.9003 54.4223 97.9003 35.0703C97.9003 15.7182 82.2124 0.0302734 62.8603 0.0302734C43.5082 0.0302734 27.8203 15.7182 27.8203 35.0703C27.8203 54.4223 43.5082 70.1103 62.8603 70.1103Z" fill="#E7A993"/>
<g style="mix-blend-mode:multiply" opacity="0.66">
<path d="M31.9609 26.2102C35.1129 26.1162 38.2113 25.3705 41.0609 24.0202C41.7609 23.7202 41.3409 22.7202 40.7009 22.6902C37.9409 22.5702 35.3009 22.3802 32.5109 22.5002C31.7609 22.5002 30.9509 22.5002 30.1409 22.5002C29.6758 23.6924 29.2818 24.9112 28.9609 26.1502C29.9809 26.2602 31.0309 26.2202 31.9609 26.2102Z" fill="#B2AFFF"/>
<path d="M72.9006 10.1098C68.7876 14.83 63.9135 18.8286 58.4805 21.9398C53.2589 25.003 47.5488 27.1442 41.6006 28.2698C37.8006 28.9598 32.6006 29.7498 28.4006 28.7598C28.2606 29.5198 28.1505 30.2898 28.0605 31.0698C30.5734 31.5528 33.1341 31.7407 35.6906 31.6298C43.0957 31.4045 50.3689 29.6117 57.0305 26.3698C63.8081 23.0951 69.8842 18.5338 74.9205 12.9398C77.1568 10.5009 79.1434 7.84435 80.8506 5.00983C79.8085 4.38283 78.7336 3.81199 77.6306 3.2998C76.3241 5.74605 74.7367 8.03154 72.9006 10.1098Z" fill="#B2AFFF"/>
<path d="M49.3895 9.67044C52.7295 8.31044 58.4495 4.47043 59.5495 0.19043C58.3414 0.302045 57.1398 0.475596 55.9495 0.710419C55.8523 0.938342 55.7387 1.15892 55.6095 1.37042C54.1424 3.52944 52.1544 5.28355 49.8295 6.47043C47.2295 7.95043 42.6095 9.83042 38.8295 9.62042C38.2895 10.1304 37.7695 10.6204 37.2695 11.1904C41.0495 12.3404 46.1395 10.9404 49.3895 9.67044Z" fill="#B2AFFF"/>
<path d="M41.6703 42.9904C50.5703 42.1204 58.8503 38.7604 66.6703 34.5604C73.9004 30.8607 80.3007 25.7262 85.4803 19.4704C87.1681 17.4067 88.6706 15.1982 89.9703 12.8704C88.2372 10.7521 86.2602 8.84555 84.0803 7.19043C82.2606 10.2849 80.1005 13.1662 77.6403 15.7804C72.8769 20.6534 67.3427 24.7078 61.2603 27.7804C54.9603 31.1104 48.2603 33.9004 41.1303 34.9704C37.6285 35.4834 34.0834 35.6375 30.5503 35.4304C29.6303 35.3804 28.7203 35.2804 27.8203 35.1804C27.8294 37.6588 28.1009 40.1292 28.6303 42.5504C32.9351 43.3052 37.3244 43.4534 41.6703 42.9904Z" fill="#B2AFFF"/>
<path d="M97.0603 42.6901C97.2203 41.9901 97.3503 41.2901 97.4703 40.5801C91.7472 45.2153 85.5651 49.253 79.0203 52.6301C72.5998 55.9671 65.9095 58.757 59.0203 60.9701C54.2099 62.5737 49.2993 63.8599 44.3203 64.8201C45.1103 65.3201 45.9303 65.8201 46.7603 66.2101C58.2103 64.4701 69.5603 59.7701 79.4003 54.4701C85.6485 51.1144 91.5619 47.1698 97.0603 42.6901Z" fill="#B2AFFF"/>
<path d="M61.8009 4.48004C59.0075 7.75521 55.4965 10.3422 51.5409 12.04C45.9909 14.57 39.5409 16.44 33.4009 16.04C32.9509 16.73 32.5309 17.43 32.1309 18.15C38.8909 19.02 46.8609 16.64 52.2409 14.39C56.995 12.5401 61.2075 9.52426 64.4909 5.62003C65.7899 4.00399 66.8849 2.23399 67.7509 0.350037C66.6809 0.200037 65.5909 0.0900391 64.5009 0.0400391C63.8186 1.64195 62.9093 3.13729 61.8009 4.48004Z" fill="#B2AFFF"/>
<path d="M75.6394 52.2704C83.9731 47.9676 91.5006 42.2569 97.8894 35.3904C97.8894 35.2804 97.8894 35.1804 97.8894 35.0704C97.8894 33.9304 97.8294 32.8004 97.7294 31.6904C95.7114 34.0978 93.5615 36.3913 91.2894 38.5604C86.7249 42.866 81.6663 46.6155 76.2194 49.7304C70.3429 52.9434 64.0923 55.4188 57.6094 57.1004C51.6094 58.7204 44.9294 60.5804 38.6094 60.3404C39.2094 60.9104 39.8294 61.4704 40.4694 62.0004C45.3294 62.0704 50.5594 60.5404 54.9894 59.5304C62.1476 57.9776 69.0843 55.5388 75.6394 52.2704Z" fill="#B2AFFF"/>
<path d="M45.7302 57.2704C55.6609 55.8663 65.236 52.5955 73.9502 47.6304C81.9523 43.296 89.194 37.6857 95.3902 31.0204C96.0502 30.2904 96.7002 29.5404 97.3302 28.7804C96.5313 24.3831 94.895 20.1803 92.5102 16.4004C90.696 19.2641 88.606 21.9435 86.2702 24.4004C80.8614 29.9437 74.6319 34.6218 67.8002 38.2704C60.7455 42.256 53.0336 44.9452 45.0302 46.2104C40.7246 46.8219 36.3637 46.946 32.0302 46.5804C31.2802 46.5204 30.5102 46.4204 29.7402 46.3204C31.1545 50.4839 33.3391 54.3444 36.1802 57.7004C39.37 57.8222 42.5643 57.6784 45.7302 57.2704Z" fill="#B2AFFF"/>
<path d="M63.9613 10.0797C61.6113 11.8197 59.8913 14.0797 57.2513 15.5097C54.6113 16.9397 51.3613 17.7897 49.0013 19.7897C47.8413 20.7897 49.1213 22.4397 50.3913 22.1797C53.6413 21.4997 57.1213 19.2397 59.9913 17.5597C62.3213 16.1897 64.9113 13.9497 65.3613 11.1597C65.4713 10.4497 64.7113 9.52972 63.9613 10.0797Z" fill="#B2AFFF"/>
</g>
<path d="M92.4496 22.9395C92.446 22.7632 92.4027 22.5899 92.3227 22.4327C92.2428 22.2754 92.1283 22.1383 91.9879 22.0316C91.8475 21.9248 91.6848 21.8512 91.5119 21.8162C91.339 21.7812 91.1605 21.7858 90.9896 21.8295C87.6996 22.6395 84.8796 27.6095 82.8096 30.1395C79.8096 33.8295 75.8096 36.3995 71.8796 39.0695C71.7655 39.1442 71.6814 39.2567 71.6419 39.3872C71.6025 39.5177 71.6104 39.658 71.6641 39.7833C71.7178 39.9086 71.8139 40.011 71.9356 40.0725C72.0573 40.134 72.1968 40.1507 72.3296 40.1195C76.9996 38.7695 80.5396 35.6595 84.2396 32.6495C87.1096 30.3095 92.0896 26.8395 92.4496 22.9395Z" fill="#E79174"/>
<path d="M58.7994 26.2199C54.4229 28.4266 49.7465 29.9798 44.9194 30.83C42.4394 31.29 39.9194 31.61 37.4594 31.83C35.7094 31.98 34.7694 31.8999 33.4594 32.9699C33.397 33.0328 33.3498 33.1092 33.3214 33.1932C33.2931 33.2772 33.2844 33.3665 33.296 33.4544C33.3076 33.5423 33.3391 33.6263 33.3883 33.7001C33.4374 33.7738 33.5028 33.8354 33.5794 33.88C36.6494 35.88 43.4494 34.0399 46.8394 33.1799C51.4586 32.1392 55.7469 29.9676 59.3194 26.86C59.6394 26.53 59.1894 26.0199 58.7994 26.2199Z" fill="#E79174"/>
<g style="mix-blend-mode:multiply" opacity="0.63">
<path d="M72.7097 61.5204C72.1605 61.8897 71.657 62.3227 71.2097 62.8104C70.7297 63.3204 71.3497 64.2404 71.9897 63.8104C72.4471 63.4926 72.9448 63.237 73.4697 63.0504C73.9915 62.8216 74.4794 62.5221 74.9197 62.1604C75.0133 62.0952 75.0842 62.0024 75.1227 61.895C75.1612 61.7876 75.1654 61.6709 75.1347 61.561C75.1039 61.4512 75.0397 61.3536 74.951 61.2818C74.8624 61.21 74.7535 61.1676 74.6397 61.1604C73.974 61.0398 73.2872 61.1679 72.7097 61.5204Z" fill="#E79174"/>
<path d="M74.4598 22.9403C73.3588 23.3396 72.3416 23.9397 71.4598 24.7103C70.4598 25.4603 69.4598 26.2403 68.3898 27.0203C68.155 27.1649 67.9723 27.3804 67.868 27.6357C67.7637 27.8909 67.7433 28.1727 67.8097 28.4403C67.9069 28.7518 68.1127 29.018 68.3898 29.1903C68.5814 29.3059 68.801 29.3669 69.0248 29.3669C69.2486 29.3669 69.4681 29.3059 69.6598 29.1903C71.6598 27.7303 74.2497 26.0403 75.1997 23.6503C75.3397 23.2403 74.8498 22.8403 74.4598 22.9403Z" fill="#E79174"/>
<path d="M54.9402 35.6504C59.3333 35.1171 63.4456 33.2097 66.6902 30.2004C66.8364 30.0405 66.9268 29.8375 66.9477 29.6219C66.9686 29.4063 66.9189 29.1897 66.8062 29.0048C66.6934 28.8198 66.5236 28.6765 66.3223 28.5963C66.1211 28.5162 65.8993 28.5036 65.6902 28.5604C61.64 29.9835 57.8724 32.1093 54.5602 34.8404C54.4935 34.9104 54.4495 34.9989 54.434 35.0944C54.4184 35.1899 54.4321 35.2878 54.4732 35.3753C54.5143 35.4629 54.5808 35.536 54.6642 35.5851C54.7475 35.6342 54.8437 35.6569 54.9402 35.6504Z" fill="#E79174"/>
<path d="M84.0804 39.0007C84.4604 38.5207 84.1304 37.5307 83.3804 37.8107C79.4904 39.3007 76.1604 42.0907 72.5204 44.0907C68.2516 46.4578 63.8321 48.5423 59.2904 50.3308C59.1897 50.3927 59.1121 50.4859 59.0695 50.5962C59.0269 50.7064 59.0216 50.8277 59.0546 50.9412C59.0875 51.0547 59.1568 51.1543 59.2518 51.2247C59.3468 51.2951 59.4622 51.3323 59.5804 51.3308C64.085 50.2574 68.4629 48.7087 72.6404 46.7107C76.6304 44.7807 81.2904 42.5807 84.0804 39.0007Z" fill="#E79174"/>
<path d="M71.7996 1.51047C70.1396 4.09047 67.9196 6.18047 66.1496 8.67047C65.5696 9.48047 66.6996 10.5404 67.4996 10.0204C70.4266 7.96398 72.7613 5.17404 74.2696 1.93045C73.5196 1.67045 72.7496 1.44047 71.9796 1.23047L71.7996 1.51047Z" fill="#E79174"/>
<path d="M82.3692 14.6106C80.8592 16.6106 78.9392 18.2705 77.5092 20.2705C76.9692 21.0205 77.9892 21.9006 78.7092 21.4806C82.7892 19.1306 85.3692 13.9806 86.8891 9.57056L86.0492 8.81055C84.9949 10.848 83.7635 12.7888 82.3692 14.6106Z" fill="#E79174"/>
<path d="M90.5408 49.8406C87.2908 52.0006 83.1808 53.4806 80.4208 56.2506C80.2766 56.4052 80.1799 56.598 80.1424 56.8061C80.1049 57.0142 80.1282 57.2286 80.2094 57.4238C80.2907 57.619 80.4265 57.7866 80.6005 57.9067C80.7745 58.0267 80.9795 58.094 81.1908 58.1006C85.3908 57.7406 89.4008 54.7706 92.7808 52.4506C93.0708 52.2606 93.3408 52.0606 93.6208 51.8606C94.7082 49.879 95.5991 47.7957 96.2808 45.6406C94.4108 47.1106 92.5008 48.5306 90.5408 49.8406Z" fill="#E79174"/>
<path d="M52.9595 10.5203C55.3188 9.62604 57.4518 8.22227 59.2062 6.40903C60.9607 4.59579 62.2935 2.41776 63.1095 0.0302734H62.8595C62.1295 0.0302734 61.4195 0.0302808 60.6995 0.100281C59.9951 1.59853 59.0529 2.97296 57.9095 4.17029C56.1395 6.03029 53.9095 7.36029 52.2995 9.39029C51.9295 9.86029 52.2395 10.7803 52.9595 10.5203Z" fill="#E79174"/>
<path d="M47.6399 19.2107C48.3699 18.6907 48.1999 17.3007 47.1399 17.3707C43.8699 17.5807 40.7399 18.9307 37.4299 19.2607C35.4562 19.4543 33.472 19.5178 31.4899 19.4507C31.1099 20.2207 30.7499 21.0107 30.4199 21.8107C36.2699 22.5607 43.1799 22.3507 47.6399 19.2107Z" fill="#E79174"/>
<path d="M67.7991 65.0398C68.6891 64.2798 67.6891 63.1498 66.7991 63.2798C63.6291 63.7598 60.6091 65.5598 57.4991 66.4698C55.4391 67.0698 53.3791 67.6298 51.2891 68.1298C52.9188 68.7068 54.5904 69.1581 56.2891 69.4798C60.5591 68.8298 64.7991 67.5498 67.7991 65.0398Z" fill="#E79174"/>
<path d="M45.0092 50.7998C49.0139 50.1461 52.9722 49.2342 56.8592 48.0699C59.9792 47.0699 64.1592 46.0698 66.0792 43.2698C66.1497 43.1229 66.1833 42.9609 66.1768 42.798C66.1704 42.6351 66.1243 42.4763 66.0425 42.3353C65.9607 42.1943 65.8456 42.0755 65.7074 41.9891C65.5691 41.9028 65.4118 41.8515 65.2492 41.8398C62.2492 41.9698 59.4892 43.8898 56.6292 44.8398C53.1519 45.9179 49.6119 46.7829 46.0292 47.4298C40.9015 48.4393 35.6639 48.7754 30.4492 48.4298C30.9338 49.6002 31.4778 50.745 32.0792 51.8599C36.4165 52.0456 40.7601 51.6895 45.0092 50.7998Z" fill="#E79174"/>
<path d="M51.6406 1.87012C48.4345 2.9481 45.4027 4.48762 42.6406 6.44012C44.5177 6.55347 46.3921 6.1779 48.0806 5.35013C49.5693 4.54575 50.8026 3.34011 51.6406 1.87012Z" fill="#E79174"/>
</g>
<g style="mix-blend-mode:multiply" opacity="0.36">
<path d="M62.8804 0.0300241C64.1816 0.685364 65.1755 1.82279 65.6505 3.20004C65.974 4.49719 65.9464 5.85709 65.5705 7.14004C64.3305 12.14 60.6504 16.08 58.6904 20.81C58.1504 22.13 57.7705 23.74 58.6005 24.9C59.4305 26.06 60.8404 26.19 62.1404 26.22C68.1404 26.37 73.9505 24.14 79.9305 23.82C82.8005 23.66 85.9305 24.03 88.1005 25.82C89.6743 27.3034 90.8533 29.156 91.5304 31.21C92.9789 34.8143 94.0415 38.5619 94.7004 42.39C94.9904 44.1 95.2204 45.83 95.6104 47.51C97.6402 42.2063 98.349 36.4883 97.6756 30.8495C97.0022 25.2107 94.9668 19.8205 91.7451 15.1439C88.5234 10.4674 84.2121 6.64501 79.1833 4.00665C74.1546 1.36828 68.5593 -0.0068044 62.8804 2.53172e-05V0.0300241Z" fill="#E7A993"/>
</g>
<g style="mix-blend-mode:multiply" opacity="0.36">
<path d="M62.8595 70.1099C69.4309 70.1169 75.871 68.2694 81.4395 64.7799C80.8295 64.6699 80.2195 64.5499 79.6195 64.3999C78.2088 64.1439 76.8909 63.5195 75.7995 62.5899C73.6795 60.5199 73.9894 56.9599 75.2794 54.2999C76.5695 51.6399 78.6395 49.3799 79.7895 46.6499C80.1374 45.9617 80.2565 45.1805 80.1295 44.4199C79.6895 42.6599 77.3994 42.2599 75.5894 42.3399C71.8722 42.5092 68.1983 43.2096 64.6795 44.4199C63.236 45.0183 61.7248 45.4381 60.1795 45.6699C59.4041 45.775 58.6149 45.6916 57.8786 45.4271C57.1423 45.1625 56.4806 44.7244 55.9494 44.1499C54.8294 42.7599 54.6995 40.4599 53.0395 39.7999C52.2556 39.5683 51.4184 39.5928 50.6495 39.8699C44.8195 41.3599 38.7995 44.8099 33.1795 42.6399C30.9257 41.7214 29.0696 40.0353 27.9395 37.8799C28.6366 46.6605 32.6187 54.8554 39.0914 60.8294C45.5641 66.8035 54.0512 70.1174 62.8595 70.1099Z" fill="#E7A993"/>
</g>
<g style="mix-blend-mode:multiply" opacity="0.15">
<path d="M82.3496 5.94043C83.8157 12.7636 83.2116 19.8691 80.6145 26.3468C78.0175 32.8245 73.5458 38.3794 67.7723 42.3C61.9988 46.2206 55.1863 48.3285 48.2074 48.3535C41.2285 48.3785 34.4011 46.3196 28.5996 42.4404C29.8215 48.0306 32.3954 53.2359 36.0959 57.6005C39.7963 61.9651 44.5104 65.3559 49.8254 67.4759C55.1404 69.5958 60.894 70.3803 66.5826 69.7607C72.2711 69.141 77.7209 67.136 82.4547 63.9214C87.1886 60.7068 91.0621 56.3806 93.736 51.3216C96.4099 46.2626 97.8026 40.6252 97.7922 34.903C97.7819 29.1809 96.3687 23.5486 93.6765 18.4993C90.9842 13.45 87.0951 9.13786 82.3496 5.94043Z" fill="#E7A993"/>
</g>
<g style="mix-blend-mode:multiply" opacity="0.15">
<path d="M86.1402 8.94043C89.7771 16.2328 90.7554 24.5657 88.9064 32.5022C87.0574 40.4387 82.4971 47.4813 76.0117 52.4155C69.5264 57.3497 61.5225 59.8663 53.3804 59.5313C45.2383 59.1963 37.4683 56.0308 31.4102 50.5804C33.7086 55.189 36.9956 59.2336 41.0369 62.4256C45.0782 65.6177 49.7742 67.8786 54.7898 69.0471C59.8054 70.2156 65.017 70.2629 70.0529 69.1855C75.0889 68.1082 79.8251 65.9328 83.9236 62.8145C88.0221 59.6963 91.382 55.712 93.7636 51.1458C96.1452 46.5797 97.4898 41.5443 97.7015 36.3988C97.9132 31.2532 96.9868 26.1244 94.9883 21.378C92.9899 16.6317 89.9687 12.3848 86.1402 8.94043Z" fill="#E7A993"/>
</g>
<g style="mix-blend-mode:screen" opacity="0.45">
<path d="M85.9193 8.70033C79.5441 3.09999 71.345 0.0173261 62.8593 0.0303143C60.8312 0.0331497 58.807 0.210469 56.8093 0.560313H56.6093C55.9426 0.680313 55.2759 0.820327 54.6093 0.980327H54.5293C52.4728 1.46387 50.4646 2.13329 48.5293 2.98033L48.3393 3.07032C47.7593 3.34032 47.1793 3.62033 46.6093 3.92033L46.4993 3.97032C44.6783 4.93001 42.9449 6.04762 41.3193 7.31031L41.1393 7.46031C40.6493 7.84031 40.1393 8.24031 39.6993 8.65031L39.5793 8.75032C38.5485 9.66777 37.5703 10.6427 36.6493 11.6703C36.2093 12.1703 35.7793 12.6703 35.3693 13.1903L35.2193 13.3903C34.8393 13.8703 34.4693 14.3903 34.1193 14.8703L34.0093 15.0203C28.773 22.5517 26.7027 31.8377 28.2437 40.88C29.7847 49.9224 34.814 57.9985 42.2493 63.3703C36.3288 58.2017 32.3203 51.1909 30.8691 43.4669C29.4179 35.7429 30.6085 27.7553 34.2493 20.7903C36.6874 22.6481 39.5961 23.7877 42.6473 24.0806C45.6985 24.3736 48.7708 23.8081 51.5179 22.4481C54.2649 21.0881 56.5773 18.9877 58.1942 16.3836C59.8112 13.7796 60.6685 10.7755 60.6693 7.71031C60.669 5.89912 60.3648 4.10084 59.7693 2.39033C64.3157 1.66089 68.9613 1.83568 73.44 2.90473C77.9187 3.97379 82.1425 5.91608 85.8693 8.62031L85.9193 8.70033Z" fill="#E7A993"/>
</g>
<g style="mix-blend-mode:screen" opacity="0.25">
<path d="M29.0996 25.68C32.7574 30.1939 37.9411 33.2125 43.6721 34.166C49.4032 35.1195 55.2851 33.942 60.2074 30.8557C65.1297 27.7695 68.7518 22.9879 70.3901 17.4139C72.0283 11.8398 71.5693 5.85883 69.0996 0.600026C60.505 -0.965701 51.6356 0.739322 44.2341 5.38006C36.8326 10.0208 31.4342 17.2617 29.0996 25.68Z" fill="#E7A993"/>
</g>
<path style="mix-blend-mode:multiply" opacity="0.76" d="M62.8603 70.1103C82.2124 70.1103 97.9003 54.4223 97.9003 35.0703C97.9003 15.7182 82.2124 0.0302734 62.8603 0.0302734C43.5082 0.0302734 27.8203 15.7182 27.8203 35.0703C27.8203 54.4223 43.5082 70.1103 62.8603 70.1103Z" fill="url(#paint0_linear_1580_8830)"/>
<path style="mix-blend-mode:screen" opacity="0.15" d="M95.0399 20.4297C95.237 28.5765 92.6062 36.5401 87.5948 42.9663C82.5833 49.3924 75.5007 53.8843 67.5514 55.678C59.6021 57.4718 51.2768 56.4567 43.9914 52.8053C36.706 49.1539 30.9103 43.0918 27.5898 35.6497C27.7089 40.8718 28.9863 46.0023 31.3299 50.6705C33.6735 55.3387 37.0247 59.4281 41.1415 62.6432C45.2582 65.8584 50.0377 68.1189 55.1347 69.2617C60.2316 70.4044 65.5188 70.4008 70.6141 69.251C75.7095 68.1012 80.4859 65.8341 84.5982 62.6133C88.7105 59.3925 92.0561 55.2985 94.3932 50.627C96.7304 45.9556 98.0008 40.8234 98.1126 35.6011C98.2244 30.3788 97.1749 25.1969 95.0399 20.4297Z" fill="url(#paint1_linear_1580_8830)"/>
<path style="mix-blend-mode:screen" opacity="0.15" d="M77.2598 2.59961C82.8569 8.52785 86.2274 16.2121 86.7978 24.3452C87.3682 32.4782 85.1033 40.5577 80.3885 47.2092C75.6736 53.8607 68.8 58.6733 60.9369 60.8284C53.0739 62.9834 44.707 62.3478 37.2598 59.0296C40.8423 62.8241 45.2223 65.7763 50.0838 67.6734C54.9453 69.5705 60.1672 70.3651 65.3729 70C70.5787 69.6349 75.6385 68.1191 80.1876 65.562C84.7367 63.005 88.6617 59.4703 91.6796 55.2128C94.6974 50.9554 96.7329 46.0814 97.6393 40.9421C98.5456 35.8029 98.3003 30.5266 96.9209 25.4937C95.5415 20.4608 93.0625 15.7966 89.6626 11.8376C86.2626 7.87866 82.0265 4.72349 77.2598 2.59961Z" fill="url(#paint2_linear_1580_8830)"/>
<g opacity="0.72">
<path d="M31.5899 50.9397C31.3999 50.5697 31.2399 50.1897 31.0599 49.8097C16.6599 58.7497 10.3399 64.4697 9.60989 67.0196C9.55191 67.1675 9.55191 67.3318 9.60989 67.4797V67.5797C9.66989 67.6897 9.90989 67.7797 9.99989 67.8097C11.8299 68.4097 21.2299 68.5597 65.5599 45.2597C92.2499 31.2597 110.45 17.7897 115.39 12.2597C115.506 12.1057 115.576 11.9213 115.59 11.7287C115.604 11.5361 115.562 11.3435 115.469 11.1743C115.376 11.0051 115.236 10.8665 115.065 10.7752C114.895 10.6838 114.702 10.6437 114.51 10.6597C110.85 11.2597 103.63 13.4697 93.1899 17.7797C93.3499 18.0497 93.5199 18.3097 93.6599 18.5897C102.27 15.0897 107.92 13.5397 108.57 14.7697C109.87 17.2397 90.5699 29.9597 65.4099 43.1797C40.2499 56.3997 18.8499 65.1297 17.5499 62.6597C16.8499 61.2997 22.3399 56.8597 31.5899 50.9397Z" fill="url(#paint3_linear_1580_8830)"/>
<path d="M91.1892 14.62C91.3392 14.83 91.4792 15.05 91.6292 15.27C104.929 9.72998 114.789 6.8 117.879 7.82C118.351 7.94779 118.773 8.21792 119.086 8.59368C119.399 8.96943 119.589 9.43256 119.629 9.92C119.719 10.92 119.979 14.02 103.999 25.38C92.1379 33.6606 79.7518 41.163 66.9192 47.84C61.1792 50.84 55.0492 53.98 48.9992 56.93C31.5192 65.42 14.5992 72.38 9.10916 70.57C8.6696 70.445 8.25975 70.2327 7.90409 69.9458C7.54843 69.6589 7.25426 69.3032 7.03916 68.9C6.82577 68.4923 6.69635 68.0459 6.65856 67.5873C6.62078 67.1287 6.67538 66.6671 6.81916 66.23C8.13916 61.67 18.4092 54.23 29.9492 47.12C29.8892 46.95 29.8192 46.79 29.7592 46.62C10.3992 58.82 -1.72085 69.23 0.199153 72.88C2.94915 78.09 33.4392 67.45 68.2992 49.1C103.159 30.75 129.209 11.65 126.469 6.42998C124.639 2.93998 110.609 6.49998 91.1892 14.62Z" fill="url(#paint4_linear_1580_8830)"/>
<path d="M100.298 18.1496C100.578 18.1496 99.0583 19.8796 99.0183 19.9296C98.3516 20.5176 97.6503 21.0652 96.9183 21.5696C95.0183 22.9896 93.0383 24.3296 91.0183 25.5696C88.1783 27.3696 85.0183 28.8296 82.4683 30.9896C82.1783 31.2396 82.4683 31.6196 82.8183 31.5096C88.8883 29.4296 95.6583 24.7996 100.338 20.3996C101.008 19.7796 102.128 18.8796 101.608 17.8296C101.559 17.6761 101.473 17.5368 101.358 17.4235C101.243 17.3103 101.103 17.2266 100.949 17.1794C100.794 17.1323 100.631 17.1231 100.473 17.1528C100.314 17.1824 100.165 17.2499 100.038 17.3496C99.9549 17.3982 99.8909 17.4739 99.8569 17.5642C99.8228 17.6545 99.8209 17.7537 99.8514 17.8452C99.8819 17.9367 99.943 18.0149 100.024 18.0667C100.106 18.1185 100.202 18.1407 100.298 18.1296V18.1496Z" fill="url(#paint5_linear_1580_8830)"/>
<path d="M123.099 14.2404C114.169 24.3704 101.879 29.9904 91.4885 38.3104C91.4239 38.3615 91.3808 38.435 91.3675 38.5163C91.3543 38.5976 91.372 38.681 91.4172 38.7499C91.4623 38.8189 91.5316 38.8684 91.6114 38.8889C91.6912 38.9093 91.7758 38.8991 91.8485 38.8604C98.1985 35.5704 104.159 31.1404 110.059 27.0904C114.629 23.9504 121.689 20.1504 123.769 14.6804C123.899 14.3204 123.379 13.9104 123.099 14.2404Z" fill="url(#paint6_linear_1580_8830)"/>
<path d="M85.4595 41.6798C81.0495 44.1198 75.7995 46.2498 71.8795 49.4298C71.8355 49.471 71.806 49.5254 71.7954 49.5847C71.7848 49.6441 71.7936 49.7053 71.8206 49.7592C71.8475 49.8131 71.8912 49.8569 71.945 49.8841C71.9989 49.9112 72.0601 49.9202 72.1195 49.9098C76.9495 48.6298 81.7195 45.2098 85.8495 42.4798C86.2995 42.1798 85.9695 41.3998 85.4595 41.6798Z" fill="url(#paint7_linear_1580_8830)"/>
<path d="M54.7984 57.7305C47.6584 61.5205 39.9984 64.4705 32.9684 68.4105C32.5884 68.6205 32.7584 69.2905 33.2284 69.1805C40.9984 67.3405 48.2284 62.2905 55.1084 58.3705C55.5084 58.1405 55.2084 57.5105 54.7984 57.7305Z" fill="url(#paint8_linear_1580_8830)"/>
<path d="M23.7183 57.8497C22.5583 57.9697 21.0483 60.0897 22.2983 61.0097C22.9283 61.4797 23.8883 61.0597 24.5183 60.8597C25.7797 60.5771 26.9556 59.9977 27.9483 59.1697C27.9986 59.1229 28.0325 59.0611 28.045 58.9935C28.0575 58.926 28.0478 58.8561 28.0176 58.7945C27.9873 58.7328 27.9379 58.6825 27.8768 58.651C27.8157 58.6195 27.7461 58.6085 27.6783 58.6197C26.6897 58.8254 25.727 59.1406 24.8083 59.5597C24.4383 59.6897 23.3283 60.2997 23.0483 59.7597C22.8783 59.4097 23.6983 58.4897 23.9383 58.2897C24.1783 58.0897 23.9383 57.8297 23.7183 57.8497Z" fill="url(#paint9_linear_1580_8830)"/>
<path d="M1.07876 75.3904C2.90876 76.6804 6.18876 76.9004 7.96876 75.3904C8.00225 75.3536 8.0249 75.3082 8.03422 75.2593C8.04354 75.2104 8.03916 75.1599 8.02157 75.1134C8.00398 75.0668 7.97387 75.026 7.93455 74.9955C7.89523 74.965 7.84823 74.9459 7.79876 74.9404C6.78739 75.0921 5.78569 75.3024 4.79876 75.5704C3.60654 75.7579 2.38554 75.5655 1.30876 75.0204C1.25598 74.9939 1.19527 74.9877 1.13825 75.0032C1.08123 75.0186 1.03191 75.0545 0.999719 75.1041C0.967527 75.1536 0.954721 75.2132 0.96377 75.2716C0.972819 75.33 1.00308 75.383 1.04876 75.4204L1.07876 75.3904Z" fill="url(#paint10_linear_1580_8830)"/>
<path d="M8.35916 68.0801C9.02963 68.9317 9.99887 69.4964 11.0703 69.6598C12.1418 69.8232 13.2353 69.5731 14.1292 68.96C14.1675 68.9366 14.1968 68.9009 14.2124 68.8588C14.228 68.8166 14.2289 68.7705 14.215 68.7277C14.2012 68.685 14.1733 68.6482 14.136 68.6232C14.0986 68.5982 14.054 68.5865 14.0092 68.59C12.0092 68.86 10.1792 69.27 8.48916 67.93C8.38916 67.85 8.29916 67.9901 8.35916 68.0801Z" fill="url(#paint11_linear_1580_8830)"/>
<path d="M16.3 68.9995C19.51 68.3395 23.5 67.7495 26.3 65.9995C26.55 65.8395 26.56 65.3495 26.18 65.3595C22.84 65.3595 19.18 67.0895 16.07 68.3595C15.67 68.5195 15.89 69.1695 16.31 69.0795L16.3 68.9995Z" fill="url(#paint12_linear_1580_8830)"/>
<path d="M27.8694 45.6102C24.736 46.811 21.846 48.5693 19.3394 50.8001C19.0194 51.0801 19.3394 51.6402 19.7494 51.4402C22.725 49.918 25.5307 48.0844 28.1194 45.9702C28.3194 45.8002 28.1194 45.5302 27.8694 45.6102Z" fill="url(#paint13_linear_1580_8830)"/>
<path d="M108.99 10.2503C110.495 9.95027 112.019 9.74983 113.55 9.65028C114.227 9.60134 114.906 9.68629 115.55 9.90028C116.41 10.2603 116.55 10.9903 116.95 11.6803C116.97 11.721 116.999 11.7566 117.034 11.7846C117.07 11.8125 117.112 11.8321 117.156 11.8417C117.2 11.8513 117.246 11.8508 117.29 11.8401C117.334 11.8295 117.375 11.809 117.41 11.7803C118.79 10.5503 116.69 8.9303 115.54 8.6303C113.22 8.0203 110.9 8.87028 108.8 9.77028C108.53 9.88028 108.68 10.2903 108.96 10.2503H108.99Z" fill="url(#paint14_linear_1580_8830)"/>
<path d="M116.279 13.0304C115.969 13.1709 115.708 13.4007 115.529 13.6904C115.325 13.9549 115.185 14.2629 115.119 14.5904C115.117 14.6404 115.126 14.6903 115.146 14.7364C115.165 14.7825 115.195 14.8238 115.232 14.8572C115.269 14.8906 115.313 14.9154 115.361 14.9298C115.409 14.9442 115.46 14.9478 115.509 14.9404C115.858 14.8155 116.161 14.5864 116.375 14.2842C116.59 13.982 116.707 13.6211 116.709 13.2504C116.709 13.0404 116.439 12.9704 116.279 13.0304Z" fill="url(#paint15_linear_1580_8830)"/>
</g>
<defs>
<linearGradient id="paint0_linear_1580_8830" x1="38.0803" y1="10.2903" x2="87.6403" y2="59.8503" gradientUnits="userSpaceOnUse">
<stop stop-color="#FF0000"/>
<stop offset="0.11" stop-color="#F30007"/>
<stop offset="0.3" stop-color="#D20119"/>
<stop offset="0.56" stop-color="#9D0236"/>
<stop offset="0.87" stop-color="#55045E"/>
<stop offset="1" stop-color="#340570"/>
</linearGradient>
<linearGradient id="paint1_linear_1580_8830" x1="59.5587" y1="20.9754" x2="71.146" y2="69.3049" gradientUnits="userSpaceOnUse">
<stop offset="0.24" stop-color="white"/>
<stop offset="0.92" stop-color="white"/>
<stop offset="1" stop-color="white"/>
</linearGradient>
<linearGradient id="paint2_linear_1580_8830" x1="50.101" y1="25.5574" x2="90.8438" y2="53.6164" gradientUnits="userSpaceOnUse">
<stop offset="0.24" stop-color="white"/>
<stop offset="0.92" stop-color="white"/>
<stop offset="1" stop-color="white"/>
</linearGradient>
<linearGradient id="paint3_linear_1580_8830" x1="8.82666" y1="66.012" x2="116.683" y2="13.5931" gradientUnits="userSpaceOnUse">
<stop stop-color="#FFB6A0"/>
<stop offset="0.15" stop-color="#F3ACA1"/>
<stop offset="0.42" stop-color="#D293A5"/>
<stop offset="0.77" stop-color="#9E6BAB"/>
<stop offset="0.99" stop-color="#7A4FAF"/>
</linearGradient>
<linearGradient id="paint4_linear_1580_8830" x1="-0.690446" y1="71.0932" x2="127.565" y2="8.76051" gradientUnits="userSpaceOnUse">
<stop stop-color="#FFB6A0"/>
<stop offset="0.15" stop-color="#F3ACA1"/>
<stop offset="0.42" stop-color="#D293A5"/>
<stop offset="0.77" stop-color="#9E6BAB"/>
<stop offset="0.99" stop-color="#7A4FAF"/>
</linearGradient>
<linearGradient id="paint5_linear_1580_8830" x1="81.7048" y1="29.3134" x2="101.914" y2="19.4914" gradientUnits="userSpaceOnUse">
<stop stop-color="#FFB6A0"/>
<stop offset="0.15" stop-color="#F3ACA1"/>
<stop offset="0.42" stop-color="#D293A5"/>
<stop offset="0.77" stop-color="#9E6BAB"/>
<stop offset="0.99" stop-color="#7A4FAF"/>
</linearGradient>
<linearGradient id="paint6_linear_1580_8830" x1="89.9547" y1="35.0557" x2="125.067" y2="17.9907" gradientUnits="userSpaceOnUse">
<stop stop-color="#FFB6A0"/>
<stop offset="0.15" stop-color="#F3ACA1"/>
<stop offset="0.42" stop-color="#D293A5"/>
<stop offset="0.77" stop-color="#9E6BAB"/>
<stop offset="0.99" stop-color="#7A4FAF"/>
</linearGradient>
<linearGradient id="paint7_linear_1580_8830" x1="71.9092" y1="49.3739" x2="85.877" y2="42.5855" gradientUnits="userSpaceOnUse">
<stop stop-color="#FFB6A0"/>
<stop offset="0.15" stop-color="#F3ACA1"/>
<stop offset="0.42" stop-color="#D293A5"/>
<stop offset="0.77" stop-color="#9E6BAB"/>
<stop offset="0.99" stop-color="#7A4FAF"/>
</linearGradient>
<linearGradient id="paint8_linear_1580_8830" x1="33.2412" y1="69.1009" x2="55.1057" y2="58.4746" gradientUnits="userSpaceOnUse">
<stop stop-color="#FFB6A0"/>
<stop offset="0.15" stop-color="#F3ACA1"/>
<stop offset="0.42" stop-color="#D293A5"/>
<stop offset="0.77" stop-color="#9E6BAB"/>
<stop offset="0.99" stop-color="#7A4FAF"/>
</linearGradient>
<linearGradient id="paint9_linear_1580_8830" x1="22.2973" y1="60.3317" x2="27.2261" y2="57.9363" gradientUnits="userSpaceOnUse">
<stop stop-color="#FFB6A0"/>
<stop offset="0.15" stop-color="#F3ACA1"/>
<stop offset="0.42" stop-color="#D293A5"/>
<stop offset="0.77" stop-color="#9E6BAB"/>
<stop offset="0.99" stop-color="#7A4FAF"/>
</linearGradient>
<linearGradient id="paint10_linear_1580_8830" x1="1.77408" y1="76.6001" x2="7.17952" y2="73.9731" gradientUnits="userSpaceOnUse">
<stop stop-color="#FFB6A0"/>
<stop offset="0.15" stop-color="#F3ACA1"/>
<stop offset="0.42" stop-color="#D293A5"/>
<stop offset="0.77" stop-color="#9E6BAB"/>
<stop offset="0.99" stop-color="#7A4FAF"/>
</linearGradient>
<linearGradient id="paint11_linear_1580_8830" x1="9.04573" y1="69.5302" x2="13.3629" y2="67.4321" gradientUnits="userSpaceOnUse">
<stop stop-color="#FFB6A0"/>
<stop offset="0.15" stop-color="#F3ACA1"/>
<stop offset="0.42" stop-color="#D293A5"/>
<stop offset="0.77" stop-color="#9E6BAB"/>
<stop offset="0.99" stop-color="#7A4FAF"/>
</linearGradient>
<linearGradient id="paint12_linear_1580_8830" x1="16.5706" y1="69.4087" x2="25.7805" y2="64.9326" gradientUnits="userSpaceOnUse">
<stop stop-color="#FFB6A0"/>
<stop offset="0.15" stop-color="#F3ACA1"/>
<stop offset="0.42" stop-color="#D293A5"/>
<stop offset="0.77" stop-color="#9E6BAB"/>
<stop offset="0.99" stop-color="#7A4FAF"/>
</linearGradient>
<linearGradient id="paint13_linear_1580_8830" x1="19.3216" y1="50.6382" x2="28.1987" y2="46.3239" gradientUnits="userSpaceOnUse">
<stop stop-color="#FFB6A0"/>
<stop offset="0.15" stop-color="#F3ACA1"/>
<stop offset="0.42" stop-color="#D293A5"/>
<stop offset="0.77" stop-color="#9E6BAB"/>
<stop offset="0.99" stop-color="#7A4FAF"/>
</linearGradient>
<linearGradient id="paint14_linear_1580_8830" x1="110.012" y1="12.3111" x2="116.541" y2="9.13762" gradientUnits="userSpaceOnUse">
<stop stop-color="#FFB6A0"/>
<stop offset="0.15" stop-color="#F3ACA1"/>
<stop offset="0.42" stop-color="#D293A5"/>
<stop offset="0.77" stop-color="#9E6BAB"/>
<stop offset="0.99" stop-color="#7A4FAF"/>
</linearGradient>
<linearGradient id="paint15_linear_1580_8830" x1="115.239" y1="14.329" x2="116.606" y2="13.6646" gradientUnits="userSpaceOnUse">
<stop stop-color="#FFB6A0"/>
<stop offset="0.15" stop-color="#F3ACA1"/>
<stop offset="0.42" stop-color="#D293A5"/>
<stop offset="0.77" stop-color="#9E6BAB"/>
<stop offset="0.99" stop-color="#7A4FAF"/>
</linearGradient>
</defs>
</svg>
